<mxfile host="65bd71144e">
    <diagram id="PuueCHzJJ9RGNfyh_T4j" name="ページ1">
        <mxGraphModel dx="1427" dy="1181" grid="1" gridSize="10" guides="1" tooltips="1" connect="0" arrows="1" fold="1" page="1" pageScale="1" pageWidth="827" pageHeight="1169" background="none" math="0" shadow="0">
            <root>
                <mxCell id="0"/>
                <mxCell id="1" parent="0"/>
                <mxCell id="88" value="" style="strokeColor=#dddddd;shadow=1;strokeWidth=1;rounded=1;absoluteArcSize=1;arcSize=2;fillColor=#99CCFF;opacity=30;container=0;" parent="1" vertex="1">
                    <mxGeometry x="440" y="310" width="280" height="160" as="geometry"/>
                </mxCell>
                <mxCell id="4" value="" style="endArrow=classic;html=1;" parent="1" edge="1">
                    <mxGeometry width="50" height="50" relative="1" as="geometry">
                        <mxPoint x="-30" y="400" as="sourcePoint"/>
                        <mxPoint x="10" y="400" as="targetPoint"/>
                    </mxGeometry>
                </mxCell>
                <mxCell id="11" style="edgeStyle=none;html=1;exitX=1;exitY=0.5;exitDx=0;exitDy=0;" parent="1" source="5" edge="1">
                    <mxGeometry relative="1" as="geometry">
                        <mxPoint x="270" y="400" as="targetPoint"/>
                    </mxGeometry>
                </mxCell>
                <mxCell id="6" value="Amazon S3" style="outlineConnect=0;fontColor=#232F3E;gradientColor=none;strokeColor=#ffffff;fillColor=#232F3E;dashed=0;verticalLabelPosition=middle;verticalAlign=bottom;align=center;html=1;whiteSpace=wrap;fontSize=10;fontStyle=1;spacing=3;shape=mxgraph.aws4.productIcon;prIcon=mxgraph.aws4.s3;" parent="1" vertex="1">
                    <mxGeometry x="275" y="350" width="80" height="100" as="geometry"/>
                </mxCell>
                <mxCell id="8" value="Amazon RDS" style="outlineConnect=0;fontColor=#232F3E;gradientColor=none;strokeColor=#ffffff;fillColor=#232F3E;dashed=0;verticalLabelPosition=middle;verticalAlign=bottom;align=center;html=1;whiteSpace=wrap;fontSize=10;fontStyle=1;spacing=3;shape=mxgraph.aws4.productIcon;prIcon=mxgraph.aws4.rds;" parent="1" vertex="1">
                    <mxGeometry x="-120" y="360" width="80" height="100" as="geometry"/>
                </mxCell>
                <mxCell id="46" value="" style="strokeColor=#dddddd;shadow=1;strokeWidth=1;rounded=1;absoluteArcSize=1;arcSize=2;fillColor=none;" parent="1" vertex="1">
                    <mxGeometry x="506.25000000000006" y="497" width="100" height="60" as="geometry"/>
                </mxCell>
                <mxCell id="47" value="Cloud&#10;Build" style="dashed=0;connectable=0;html=1;fillColor=#5184F3;strokeColor=none;shape=mxgraph.gcp2.hexIcon;prIcon=container_builder;part=1;labelPosition=right;verticalLabelPosition=middle;align=left;verticalAlign=middle;spacingLeft=5;fontColor=#999999;fontSize=12;" parent="46" vertex="1">
                    <mxGeometry y="0.5" width="44" height="39" relative="1" as="geometry">
                        <mxPoint x="5" y="-19.5" as="offset"/>
                    </mxGeometry>
                </mxCell>
                <mxCell id="57" value="" style="dashed=0;outlineConnect=0;html=1;align=center;labelPosition=center;verticalLabelPosition=bottom;verticalAlign=top;shape=mxgraph.weblogos.github;fillColor=none;" parent="1" vertex="1">
                    <mxGeometry x="396" y="497" width="75" height="75" as="geometry"/>
                </mxCell>
                <mxCell id="67" value="" style="strokeColor=#dddddd;shadow=1;strokeWidth=1;rounded=1;absoluteArcSize=1;arcSize=2;fillColor=none;" parent="1" vertex="1">
                    <mxGeometry x="520" y="375" width="100" height="50" as="geometry"/>
                </mxCell>
                <mxCell id="68" value="Cloud&#10;Storage" style="dashed=0;connectable=0;html=1;fillColor=#5184F3;strokeColor=none;shape=mxgraph.gcp2.hexIcon;prIcon=cloud_storage;part=1;labelPosition=right;verticalLabelPosition=middle;align=left;verticalAlign=middle;spacingLeft=5;fontColor=#999999;fontSize=12;" parent="67" vertex="1">
                    <mxGeometry y="0.5" width="44" height="39" relative="1" as="geometry">
                        <mxPoint x="5" y="-19.5" as="offset"/>
                    </mxGeometry>
                </mxCell>
                <mxCell id="81" style="edgeStyle=none;html=1;" parent="1" edge="1">
                    <mxGeometry relative="1" as="geometry">
                        <mxPoint x="520" y="399.9971428571429" as="targetPoint"/>
                        <mxPoint x="360" y="400" as="sourcePoint"/>
                    </mxGeometry>
                </mxCell>
                <mxCell id="89" value="&lt;font color=&quot;#000000&quot;&gt;db-importer&lt;/font&gt;&lt;br&gt;Cloud Run" style="dashed=0;connectable=0;html=1;fillColor=#5184F3;strokeColor=none;shape=mxgraph.gcp2.hexIcon;prIcon=cloud_run;part=1;labelPosition=right;verticalLabelPosition=middle;align=left;verticalAlign=middle;spacingLeft=5;fontColor=#999999;fontSize=12;" parent="1" vertex="1">
                    <mxGeometry x="440" y="330" width="44" height="39" as="geometry">
                        <mxPoint x="5" y="-19.5" as="offset"/>
                    </mxGeometry>
                </mxCell>
                <mxCell id="91" value="" style="aspect=fixed;html=1;points=[];align=center;image;fontSize=12;image=img/lib/mscae/Docker.svg;fillColor=none;" parent="1" vertex="1">
                    <mxGeometry x="561.71" y="440" width="36.59" height="30" as="geometry"/>
                </mxCell>
                <mxCell id="100" style="edgeStyle=none;html=1;exitX=1;exitY=0.5;exitDx=0;exitDy=0;" parent="1" edge="1">
                    <mxGeometry relative="1" as="geometry">
                        <mxPoint x="676" y="680" as="targetPoint"/>
                        <mxPoint x="626" y="400.14" as="sourcePoint"/>
                        <Array as="points">
                            <mxPoint x="676" y="400"/>
                        </Array>
                    </mxGeometry>
                </mxCell>
                <mxCell id="103" value="" style="endArrow=classic;html=1;" parent="1" source="57" edge="1">
                    <mxGeometry width="50" height="50" relative="1" as="geometry">
                        <mxPoint x="570" y="700" as="sourcePoint"/>
                        <mxPoint x="500" y="535" as="targetPoint"/>
                    </mxGeometry>
                </mxCell>
                <mxCell id="104" value="" style="endArrow=classic;html=1;exitX=0.75;exitY=0;exitDx=0;exitDy=0;entryX=0.534;entryY=1.067;entryDx=0;entryDy=0;entryPerimeter=0;" parent="1" source="46" target="91" edge="1">
                    <mxGeometry width="50" height="50" relative="1" as="geometry">
                        <mxPoint x="570" y="670" as="sourcePoint"/>
                        <mxPoint x="620" y="620" as="targetPoint"/>
                    </mxGeometry>
                </mxCell>
                <mxCell id="105" value="" style="endArrow=classic;html=1;exitX=0.75;exitY=1;exitDx=0;exitDy=0;" parent="1" edge="1" source="46">
                    <mxGeometry width="50" height="50" relative="1" as="geometry">
                        <mxPoint x="560" y="610" as="sourcePoint"/>
                        <mxPoint x="581" y="640" as="targetPoint"/>
                    </mxGeometry>
                </mxCell>
                <mxCell id="106" value="Push" style="text;html=1;strokeColor=none;fillColor=none;align=center;verticalAlign=middle;whiteSpace=wrap;rounded=0;opacity=30;" parent="1" vertex="1">
                    <mxGeometry x="466" y="537" width="40" height="20" as="geometry"/>
                </mxCell>
                <mxCell id="117" value="" style="shape=image;verticalLabelPosition=bottom;labelBackgroundColor=#ffffff;verticalAlign=top;aspect=fixed;imageAspect=0;image=data:image/png,iVBORw0KGgoAAAANSUhEUgAAAggAAAIICAYAAAAL/BZjAAAgAElEQVR4Xuy9B5xc1Xk2/p57p21frbq0KyEhejDYFGPAX8BfXIgdWqIYY0w1Ahfi2MamJP8v+pIQ27FNYjtGBRyERMk/xAVwiWNiMHbigMGmIyEJ9a4tWm2dmXvP9zv1nnvumT6zO7N75mcsaeaWc55T3ue8FYH9WAQsAg2FwMFPLm8dHYvPQS6aicCdBa7fBeDMQAjasQ+dPoIZLoI2D6AVAJodQK2AoQUj3IQwpAAgCQjFAHAcAMUQYIQBOQBA/iMfHwH2MSAMgLMAKAOAMxhDGhCMIYxGAcGwD3gIAEZcgCGMYRAQHEEA/fTv4PcDcvqy4PT72dG+rkzTwc5168jvuKHAto21CExjBNA07rvtukWgrhDAK1bEd/ij3chBC2MO7s4imId81IMc1IMBz3cAdWMM8wBRId94HwxjCMF+ANiNAfYhH+/CLux0fOcAcvzdHvj7syOx3UvWrRtrvM7ZFlsEph4CliBMvTG1PapjBLZde21nrMlf5Pt4sQPoGIzgJEBwHMJwIiC0QDnF17YXmCgHxGGe/F17Hd0Z+PaAEAD5bwI+CMDHGO/FCDYChs0I0EbsezuzCLah8diOJevWDUxAM+wrLAIWgWAHsFhYBCwC1URg96eunumnvaWOG1viAz4NAbwNAN6OEVpYiajFvg/gewCeB+Lv2OPfZbOAff695wH4Pv03+RM8HzAm1xEmUK6WHwE4CBCxRrgOgOMAclz6J7guIPJv1wVwYwCOC4hew74nv8u/VwA0wv4BDOgFDPAiYPQqQnhrJpvZsfS+Rw5U8Fh7q0XAImBAoJK9ygJqEZj2CGAAtO1TNyxKZbIneOCfiB3nPITgfAAg2oCSPtjLMsFPBD35O/kzkwacTgPOZOjfg1N/SY+un4sRAhRPAIrHAeJxcOIJgFgcUCxG/6NEgxCMUj8YH8IIfulg9N++D69gN7Pl/lUPb18J4Jf6KHu9RcAiwBCwBMHOBItAkQgQMrDn4x9d6MTREg+c0wHjD2CELkSAmop8BOBshhIA8LKA0+Pgj40DTo8BHh9vfOFfLAiFriMkIpkElEiBk0oCiicBKIFgRKL4DybOlE/hrPdz5MRfQNnMloX3PbTHOkoWj6C9cnojYAnC9B5/2/s8CGy+5aJk3Ju11PXRiQBwEQb4I4TQvIKgYSw1AD7RAIyNAB4dBX9szJKAguAVuICShxQ4zc2AUk1cAxFjWodi/CQwPowB/xBheMIHf6M/Hn/LOkVWOij2/qmKgCUIU3Vkbb9KRmDXZ5c3xUYSSzzfOQM76MOA0HsBQSLvgwgZIOp/ohkYHQF/ZJj+Zz8Tj4DT3ALkP9TUHGgbiP9D/o+HMX7SAfyQD/C7xDBsm7dhgx3AQqjZ36cFApYgTIthtp00IYCXL0/smtHcg7B3OrjODQjQ+zACNydahAwQvwBOBryjRwATrYD91C0CKJUCt7UdECEOwkSRR9OAiDsnxk8C4HXIwc93HxrfiR59NF23HbQNswjUEAFLEGoIrn10/SGw77rrZnup9LEeONc5gD4G+fwHSBRANgv++Cj4R4+APzRkTQT1N6SltQghcFpawWnvACfZxHwa8msZxjH2H8Hg35cEZ/O81RsOlvZCe7VFoHERsAShccfOtrwIBJ5fsSK+wBtakHad9zqOcxtCaFnO2wgh8LLgjwyBN9AHeGy8iDfYSxodAapl6JhBiQP1ZchDGBDG2wHjrzgx7yf9BzP7TrHahUYfftv+PAhYgmCnx5RDgPgSeEdT8xwXfxoc91OIpBY22hiYMyHxGfD6egGPW3PBlJsMZXQIJZLgds0Cp6Ulr/MjBsggH6/2M9l/HMi4B06zvgtloG1vqWcELEGo59GxbSsagb0rVjT7eKwbO/5dgNw/BmQO4cUkz8D4KHh9feAPHy36+fbC6YsA0SwQwkCiJ2giKPMHA8aPIw++2DuG91iyMH3ny1TquSUIU2k0p1lftl17bcqPjy6KO4lvIsd5f04tge+BNzAAXt8hllXQfiwC5SLgOJQsuJ0zWBbJnA6P/i/S2fSKpZmmncjWligXbXvfJCNgCcIkD4B9fWkIPLXygthxuxfOw677TXDQZTlJQTYD2cMHwR88UtoL7NUWgRIQcFrbIDZnHo2QyEkWfPwj5Hk3L+w+bj9auTJbwuPtpRaBSUXAEoRJhd++vBgESAbDw9df3zoaT38ZOe4nc+p4x0Yhc2A/TUxkPxaBiUYApZIQn7uQJnDK+cHefWl//Nalax8dtBkdJ3qE7PtKRcAShFIRs9dPGAKEGOy88aMfR27sWwiZHQ39sRHI7t8DeNyGqk/YwNgXFUSA1JqILegBJxdZwDAOfubW7rUPf9sShYJw2gsmCQFLECYJePva3AhsW3HtiTHkPwIOOhUgmriI1DDI7COkwKYutvOozhEgqaETSYgv6KZ/Gj4eAN44nh6/Ytl3/v9X67w3tnnTDAFLEKbZgNdrd59fcUZ8Ljrpb8BxPgWAWvRCYiRhUfbAXpbG2Doa1usw2nblQwA5NHQyNndBrqJTwwj7a4/0jt1u8yvYqVQPCFiCUA+jMI3bsO3GK0+PubF/xoBOQXrdA4wh23uIJi0iZZDtxyIwZRBwXXA7uyA2c7bJuTGNAG/0x9M3LPrnf3l+yvTZdqThELAEoeGGbGo0eOdNV92KkPMFAJgNKBwrRjIZZomzYSZtUxtPjeG2vciFADFBxBMQmzMXnJY2/SqMAA5hD/9Dz9r1X7YgWgQmGgFLECYa8Wn8vjeuvmxmS1PrWoQcUiUxvBt6HmQO7Qd/6KjVFkzjOTKtu+66lCTE58wDiCRkwkOA4T+HRuCGk9av753WONnOTxgCliBMGNTT90U7Pn7lGSgWuwcQejsCiKtIUG3BwQNAHA8B4+kLku25RUAgwB0bY7PnRLQKNL0zxi+Bjz/ds3bDsxY0i0AtEbAEoZboTvNn777p6j/BCP0NQnA8BnAEHBhj8HoPgn9kgFZLtB+LgEXAjACpNkkqT7qz5oYscQjAx4A3Y4xXLlq94V8sfhaBWiBgCUItUJ3mz9y54qOfR657CwBarEJBfAqyB/fbSIRpPj9s98tAwHHAaW6hvgooHgmX3Olg/9sLV2/4+zKebG+xCOREwBIEOzmqhsDOm6+6CyHnOgA0P2RGGB6i0Qh4bNSaEaqGtn3QtESAmB+SKYjNIuaH1hAEGMMBhGBDz6oHiPOv/VgEKkbAEoSKIZzeD8DLl7u7ZzV9GTC6HhB0qWh4R/pZGWXiX2A/FgGLQFURoGWpZ3TRcMnwB/cDhvVbNu689cKnn7Y2vKqiPr0eZgnC9BrvqvX2teXLE52zmu7yMKxACLUHD8aQ7esFf6APcCZTtffZB1kELAJmBEhaZ6djBsS6ZoVzKmA4AoDXje04dNtxP/mJZel2ApWMgCUIJUM2vW/At1yU3JOZ/X98gE8ghGYINIjjYfbQAfAHB2yY4vSeIrb3k4UA8VMgRGF22KERYziCMV7rjzv/Z4ktPT1Zo9OQ77UEoSGHbeIbvfmWW5JN6YHPYcf5LE1uxD/Y9yF7+ACNSLApkCd+XOwbLQIRBBAKiIIjg4cAARzE2P/6YO/YP9pUznbeFIOAJQjFoDSNr8EXXBDbc3z3Ddhx7gSEFqnEwDt8kKVBtvkLpvEMsV2vWwQQArdzBguRVIgCYLzTB/i7RRt3fgdZH4W6Hb56aJglCPUwCvXZBrRzxVWXIMe9CxCcHBADD7zew+D191piUJ/jZltlEQgjQIgCcWacOUcjCvC6j7N/tWjNQ9+1JaftpDEhYAmCnRcRBPZ+4pozPMBfBUAXyh99H7z+w9QB0ZoS7KSxCDQgAo5Di0MRsgAoMD0AwC8RZL/Yveqh/2nAXtkm1xABSxBqCG6jPXrriqsXJR30fzHga2TaNpL18Eg/ZA8fAvBsxFSjjaltr0UggkAsxohCxwwt6gE/EoP0nfNX/8t2i5pFgCBgCYKdB/DaJ5e3tnupz4Hj3A4ATQIS/+ggZA+Rqoo2XNFOE4vAVEOAhEeSiAenjUQpM1GAMU5jgC+lj3p3H/fQQ4NTrc+2P6UhYAlCaXhNqasxANpx40cvdWOxbwBAjyQGoyPgkZDF0ZEp1V/bGYuARSCKgJNqBpeUm25qVn/ci338uX9es/7RlQC+xW16ImAJwvQcd9hx00dPdpDzLUDOewQEtFbC4YPgDx6ZpqjYblsEpi8CRJMQIxEPiYQCAv7vjO9/cumaB1+avshM355bgjDNxr5vxfKOYZS8Axz3VgBwafd9jzofer2HphkatrsWAYuAjoA7cxa4M2YBctn2QHYIjP1/8FLu3y75x3UDFrHpg4AlCNNnrGHXTVd9ACHnAYzQHNpt4oA4fBSy+/fa7IfTaB7YrloECiLguhCbOx/c1nbFkREfRp5/bffaB39U8H57wZRAwBKEKTGM+Tux5ZNX9MS9+GrHcf5QXInHxyCzfy+rsGg/FgGLgEXAgABKpSA+byGtICn3Dox/GvNhxYK163da0KY2ApYgTOHxfX7FGfG56OSrMUL3IISoYRF7JNHRQfD6+6Zwz23XLAIWgWoiQCpGurPmSLMDxpBBPnz6ACTvP3PtWhvmVE2w6+hZliDU0WBUsyk7PnHlUgdiPwFAx4vn+sNHIbN3D/U5sB+LgEXAIlASAo4D8QXd4LS0KbfhrdhD71+09oGtJT3LXtwQCFiC0BDDVHwjn1+xIj4XjXwSHPduAKDp0nA2C9m9O8EfteaE4pG0V1oELAImBFCqCeILewDF4vLsgX247WjfyDdtEaipNWcsQZhC47n74x/thpjzPEbOXNot4oQ40AfZg/unUC9tVywCFoF6QCA2Zx4Q0wMgKUYOOcg5Y+E99++qh/bZNlSOgCUIlWM46U946oILYkuWdX/Rjbt/K1Ki4WwG0jveAsja9MiTPkC2ARaBqYpALAaJxUtVbQL2fP//bNu068sX2kqRDT/qliA0+BDuu2757GyyaTMg1CG0BllSbbH3YIP3zDbfImARaBQE3K7ZEJs1Ww2JHHC9zHEL1j5yuFH6YNsZRcAShAadFStXgnPNziuujiWT94suEF+D9FubAbDNjNqgw2qbbRFoXAQQgsTS4wHFYkof8Me+M3fpwytXrrSbUgOOrCUIDThopLhSm5d6ETnOsaL5pKiSR0ox249FwCJgEZhEBEg56dic+bIFCMNbR5yR006559GhSWyWfXUZCFiCUAZok3nLrquXn41bmp5lbUAAvg/pLRupQ6L9WAQsAhaBekEgedxJAA4NpGK7lY/P7V6z/tf10j7bjsIIWIJQGKO6uIJUXtx105XrwIldLRrk9feDd3BfXbTPNsIiYBGwCOgI0EiHGTODr7H/cPeqDVchBPZE0wDTxRKEBhiktz7+kbmxWPw1QMBWGvYhvXULkEgFqkVg/7Mfi4BFwCJQfwi4MUgeexwA4toEDH2ZbPrkpfc9cqD+GmtbpCJg5Uqdz4e3brjyY248dh8AJEi4sTc8BNndJAU6J+D0D0sS6nwYbfMsAtMbAYQg3r0InOZWgUPa97M3LF7z0IPTG5j67r0lCHU6Pnj5cndHV+JRx3EuJbFDmCQ/37sL/KNHaYvpwJH/swShTkfQNssiYBHQEXBa2yC+oEeEQ2Lw/ce2zN+1/MKVT9uELXU4XSxBqMNB2XLdFT3xRPy/AEEPIQE4k4H09m00ZbJIWiYJAjU5WC1CHQ6jbZJFwCJgQAC5MYiT5EpxnqoZ493jTvrcZff8i83AWGczxhKEOhuQtz5+xZ+4sfj9GIDq4kiqZO/gfiAaBKIyUAcsrEUgpNwOZ50Np22ORcAiYEIAIZCpmtnvw8jH13avWf9vFrD6QcBKlPoZC9i24qOrkePcSIssEZPCnl3gDR2lWgM2UIhGM6o8QPzGohytL0IdDadtikXAIlAAAVIZkhR+4puajzG+d9Hq9Tdb4OoDAUsQ6mActi5f3uF0Jf8dIXQOtRikxyG9azvgTDbQGOQgCSZTg1Uk1MGg2iZYBCwCRSFATA3x7sWAEkl+PX62Oea9b+a3Hhos6gH2opohYAlCzaAt7sFvffwjb3Nc90cYUDe5wx8cgMyBvTQBEvsI3YEg2QYtgrjMahGKA91eZRGwCNQXAo4DsbnzwW3vZLsewrszmewfLbn34Rfrq6HTqzWWIEzieG+54SPXxGLuP/kItSJiUti/F7wjA8SQoLRK8Tvgo0W+EaYGOYDiL5YkTOKI2ldbBCwClSDgdnRCbO4CehpCAEM+9m9ZtHrDukqeae8tHwFLEMrHrqI7t9545d2O4/wZALjY8yC9ewfg0VHOnmX8YkSLwNwMGIXI7bCIQn4KFTXU3mwRsAhYBCYQAdTUBPGFi4BEOxA/bYz9by5aveFzE9gE+6qQ5LFwTBgCry1fnkh1xL+LHOdDNIRxdAQye3aD72UAKYoDFpFg0CSU4ItgMyxO2LDaF1kELAJVRADF4hBb2A1Oqpk9FeMfDvaO/vEpjz6aruJr7KMKIGA1CBM4RV67dvm8VDz+U+Q4byOy3zvSB5kD+wHR8swIMBH+nBOYCAJpKhkwwh2iQY9K8iS6oGzY4wQOrX2VRcAiUG0EiF/C7LngdnbxJ+OXM5nM+2yK5moDnft5liBMENZbr/3wWSgeewwQ0DqomYO8PLNaR0FIfpkpsTQtQohAWF+ECRpZ+xqLgEWglgiEykdj2AeZzKU933n4uVq+0z6bIWAJwgTMhM03fHi548TuRwi1kEJL43t2gj98FBBVGagDEdYi0AEKjVDYYdGUG8FmWJyAAbWvsAhYBCYUAaellaVodhzqvIgxXNuz+oHvTmgjpuHLLEGo8aBvuf4jt6CY83XAECfVFzO7d4A/PsZtCQ4zKeQhCaX6IkjWZ+s01Hhk7eMtAhaBiUSA5EmI9ywG4p+AATLIx5/vWbP+WxPZhun2LksQajjiW2+44u+Q697mAzh4dBjSpAqjJ/Ib+NyZIIg4kBoBxReBaRFUU0OQFyFwQpROCYFaSAt7tMmTajjQ9tEWAYvAhCBAIhtiC3vAaaLOiz4G/yuLVm24c0JePg1fYglCDQad+Adu+fgV6x3kXEVsBNmjRyCzdzdNfsSEPRf4XH1QyNRQyGHRmIJZqBJEIASLK7Yfi4BFwCLQ2AggB2LzF4Lb1s77gR/sXrX+an5Mauy+1Vnrrcyo8oCQMMZkh/MkIPfd5NFefy9kDrFiSwJsJqrJf0SLQK6KmhowEeg5wx6tL0KVh80+ziJgEWgoBEixp7ngzpjJWo3xL7r91HvR2rWZhupGnTfWEoQqDtBLH3tfS3Oy61lAzikEWEIMvN5D7A1Cx899DhA4/M2lmBqk7iGUgrlg8iS6gJhKwZoaqjjg9lEWAYvApCLgds2ioZD881p8yH/nvA0bhie1UVPo5ZYgVGkwd1x55YzxZv8VhJyFJA9yet8u8AePMG7ACYL0R6R/IVoAlhMRU1WB2WFRWCPYI0oLe5SDax0WqzTK9jEWAYtAvSHgtLVDfH63OITt9SHze4tXPdxfb+1sxPZYglCFUXv9qsvnx5LxTchx22gY445t4I+NhFMhq0f3fFoEzihyOyzm0yJIOiJ7ZQp7tFqEKgy6fYRFwCJQNwiQ9MyJniWUJGDAg77nn3jM2gf31U0DG7QhliBUOHCvXHPpsYlEciMCJ0acEMe3bQU/M041A/TELzIjGrQIUYfF/GGPQhOhp2Dmj5Z1H0UhJ9E16vFAmmKTJ1U42vZ2i4BFoG4RiMchccwyQA4x3+KsD9kTFq96+K26bW8DNMwShAoG6Y2rLzveTSQ3EiZACi6Nb90M4GVD6adUq0DE1EDND6ovAmmMw9Mks4ZRI0SBsMeQKUHcQ1Mti2coKbEsSahgxO2tFgGLQF0j4LqQWHIcINclJyKc9uDEY+9d/2Zdt7mOG2cJQpmDs/m65Sdj132VkoNsBsa2bgLk61mPwhUTzL4IgiSQa5lUn5CwR+uwWObI29ssAhaBukYAIUgsPR5QjFaDxC7yT1lwz4Y36rrNddo4SxDKGJg3rl1+qhuLvUyrMWYyMLplI3dE5DI+nBqRneQ1U4N8rSyqVMBhUY2CMDgsysBHqTVA1KRAbtM1DCKiwVZ7LGPw7S0WAYtAQyBASUI8TtuKsX/qotUbXm2IhtdRIy1BKHEwNl3/4dOQ67xIJ106DWNbNxJvA24OEMJY1e0rav5QEabwi01hj+SKQMCb6zQE3CNog8oI1AGWDouSrPBnloiBvdwiYBGwCDQCAomlxwGKJ3hT8Wk9q9a/3Ajtrpc2WoJQwkhsuv6y08BJvUg1B+kxGNvMTVsO8xWQLIGc3IvQIpjCHpmZIXfYY6GS0IIEyCgIxRdBEA5Gqem/xP9KQMFeahGwCFgEGgeBxJJlQOo4sI8lCaWMnCUIRaL1xrWXnOrEmin79Ak5eOtNlg+RlFagfoXaCV6QBAXh0GneEGtYnhZBsV8EtEQpABUeYhv2WOSA28ssAhaBKYMAjW5IMpJgzQ3FD6slCEVgtfm6S0723dRrgB3w06MwRqIVqNaAZUumHxqMwPUGMuqAwatUdVbSLWu1nJXkSex4X9hhUTg9GsMe5eMDXwTRVUpsZNgjb7edCUXMBHuJRcAi0KgIxI85FpxkijbfRf7J1nGx8EhasVAAo41XXXwCSqbeINEK/vg4Iwfio5AEVKwWoYDDYpBh0afEotp1GqzDYuFFYa+wCFgEpiYCiWOOBcRIAgYfndCzZp2yoU/NPlfSK0sQ8qC3+ZpLj/XcxGZwEMLj4zC69c1wCKJIYcA1CTpJUIwOXIsQhD0GgloZAukvMIF1GqzDYiXrx95rEbAINBgC0tyAMY5n8bHz7tuwrcG6MGHNtQQhB9Qbr7h4AW5J7gBwYjhNNAfMIVHNUUC/iJgawpUWqaWAGxaEqSFv8qSJrNMgRl+QBJuDecIWnn2RRcAiMHkIBI6LOOt5/iKbltk8FpYgGHB5bfnyLqcNbwfktPnjaRh7azNNnUwJAlVOqckFAIjmgH5IYUaDqYGSiuDmwFeB38ZSLjNPAuofIJiHfChxGOBFohUbgSnDIs1EHrxM5mdQtRmiyyaHRZsbYfI2Lftmi4BFYKIQQJBYciyNbiC1GzBkj7EFnqLYW4KgYfLa8gtaUdvsNxFy5uPMOIxteZPXMAhSF1NZr5IEg8NirrBHdpu5ToNsitFhcSLqNDAWYxUJE7VJ2fdYBCwCk4YAybhIohsSCRLasDs+jE+0paLDo2EJgoLHa8tPTqC2U15ECJ2EM1kY3boJSAEm5lfIz+BCeaBpEYSpoaSwR4PDopobAXHVBILAYZEHN3Adga3TMGmbi32xRcAi0PgIIAeouYFkXMT41W4/9Q60dm2m8TtWnR5YghDgiF6/7k9+Ach5N/ayLFrB84IcyUoIo1TRm7QI5Efd1KCFPXI7RcjUEIQs8qfnKAldSZ0GZj4whz1yFsRfbhMoVWd52adYBCwCdY8ALfC0DJBLajfgX/SsWn+hsvHXffNr2UBLEDi6r197+SPgxq4gVRmJzwGpscDMBNTLkCY3VLUIETMD+aLYsEemyWdagAJahCDsEQPmGRbDWgQln0LI2ZD/Q6Uh0hUiTBJMvgjWzFDLZWefbRGwCNQTAqSwU5yQBIdWgdzQs3r91fXUvslqiyUIAPD6tZd/GRz3NuJsMPbWFiD5DoJMyYoEF8I25HNYvMNiyFGQeTtGHRYla+AEgv4RDXsUl4lnRh0WWRdMDoviyergW4fFyVqC9r0WAYtAPSBAHBYTxyylnuYY/C8tWrXhznpo12S2YdoThNc/dvmf45hzN0IIjW1/C/zRkSAxoUIExElf1yIwZYACYwkOi6VqEWpep0FoNmzY42SuSftui4BFYJIQQM3NkOg5huzpPsb4Mz2r1//TJDWlLl47rQnC61df8mHsJjYgBPHxPbsge2SAJEw0EITwWXyiHBblDKEJlFQtAlENsH/nr/aoaj/C+Rls2GNdrD/bCIuARaDOEHDaOyA+v5toXzMoCx/pufeB79ZZEyesOdOWILzxkQ+9CzelfgYYWsYPHoBs7yEmcIXUFSZ8xW4vvBAIQVBV8sxaoJgaSqjToCofxGBUw2ExeEbgi6AWo2Y+BsU5LFp/hAlbj/ZFFgGLQB0g4HbNhNjseWR7HvJ9/8JFazY8XwfNmvAmTEuC8PpVl8/Hcfe3COF5md7DML5/fyj2P3K65t7/qkW/WC0CjWigeY6Up/KDPaUZyggU77BYfp2GgAQFdAHbktATvvDsCy0CFoH6RiA2Zx64M2YSp8V9mWzm7Uvve+RAfbe4+q2bdgThxxddlOyZ0/y84zi/5x09AuN7dgL4JPtgkCCokBaBDUNYi0C/UbQI0iIgCjPqGRYN0QVSePNxJuaOcF4E8kP16zTo08rksGi1CNVffPaJFgGLQD0jgCC2oBvctnZCEl7q9lNnTbccCdOOILx6zWU/Bse9yB8dhbEd2wAwqddMYhjDsf+5SUIQmlhK2CPLoZxDiyCZgTnDYpgk0Afx8EvyiznDoprXgKVyDpsaBAkQLYpoEUSb6G02u2I9b2O2bRYBi0CNEHAcSHQvBtTUTLbUJ7pXPXBxjd5Ul4+dVgThlasv/SZyY7fgbIaGM+KsJ4orBHkOFK1/sQ6L4nQd8UXgspx+X1SdBq6bUOS57o/ABizqsBgR+DI5k3imShLCRMVEEkxaBFunoS7XsG2URcAiUEMEaI6ExUsBxeLEa+vu7lXrP1/D19XVo6cNQXjl6suuR657L2DsjG7bAv7YGB2IwA8AU5KgOiPk0yLkSp5En2lyWGT5lqiiImSeUKo9lu+wmL9OA31jHi2CaJHUVPApKkkC1yJYglBXa9c2xiJgEZggBFAyCYnFx5J91AME13ff88D6CXr1pL5mWhCEl6/84Bko2fQLBFPRE7gAACAASURBVNAytnM7eENHFdBV3wMMmFRNVB0HOY0I/xFV2TMhzE/rKkHQtQgGh0VKTILMTOxVBi2CKsAR1yJUq06D1SJM6jq0L7cIWATqHAGnpRXi3YvJMW8o4/vnL13z4Et13uSKmzflCcLvLr200+10XkPIWZDevxeyfYcDYSxPyrICU8TUkFeLIOHn4lUQBPK9RhKkwCcaA9VhUSUVCk9Q/yraoPoisNM8NzXQClEo7CTJGY2aYTGnFoG/jHGSUNqnIJxThn2Gf694BtoHWAQsAhaBBkGARDWQ6AZS/XHsqHfKcQ89NNggTS+rmVOeILxyzeW/wY5zpjfQDyQZkoj/19ESpgYSN2DUIogESpIEBEd8IVhzahHID2qdBq5FkOBrxZzylYQWJCHwIuDtKLNOg2ruMGkR1D4xP0frsFjWSrM3WQQsAlMCgdj8heC2d5LT1P/0rH7gXVOiUzk6MaUJwitXX/YdcN3rvbFRGNu2lZZuDgReuOu6L0IpYY+hk7dqnihCiyAup/xD+CNETBxs9KQ2g2oo2BdSi8ATLhSq9hgS+MFTpaagWFODDXucytuC7ZtFwCKQEwES2bBoCaBkimzDqxeteuATUxWtKUsQXr3y4itwMvEQ9jxndMsm8LNZ6QNYSIvAwh6FY58mnGWdAiGyg3JI0bDHsNOj1CKEsjQq+RQiDovhYk75TA1U88G1CMzZUmk38b1VohpMpgbRm+IyLNpy0FN1Q7D9sghYBAojQCMbjiElol3f9f3lC9Zs+F7huxrviilJEF6/8g8XZxNNrwGCFlqdcXQ0OHLzMcpJErizgCjvXJrDYoEUzLrDop48SVgLinBYpN0wahFYnYZQ6KVOEKQawVwSulgtgo1qaLwFb1tsEbAIVAcBlGyi1R9JOuYxNH7ysnv+ZVd1nlw/T5lyBOGpCy6IzTymawcAWjC+dzdkB/q5Ip1nS1SwN5GE8kwN+ZIn8bO5QFr4ImgZFqWpQVH75wt7NDksUn5RJYdFoX9QJwjTYIicS9YXoX6WsW2JRcAiMBkIuB0zIDZvAXn1ri1v7Fh64dNPZyejHbV655QjCC9/7JIfQSz2h9nBI0BCGoMqiIFsU+3+oWIIQrsgHfHKD3vMmTyJvCPisMgkryqAZayAMBUEPpHSFyGvwyLRImjchBWFCKZSWRkWBXg2N0Kt1qR9rkXAItBACMQX9oDT2k583H7Qs2bDZQ3U9IJNnVIE4eWrLrkOYrF/JpkShzdvpE6JTAgKcTtJWgQyDCU4LMpMynoxp5D2Qxm6GjssqrNIkhjaJ05sptQsKrhm7AUWAYuARSBAgDgtLllGMi0SAfOxntUPPDRV4JkyW/vzV71/fjzWsgNhHB958w3wvaw8LQuSwMSZRhJkpcbwkKqmBiLcI74IStijsNmXW+2R1WkIaxFMyZO4QoA21OSwGJChwGGROVuyvol76D+ks6WimgiuUkpHmEtCi6gLHkqhWkOmytqw/bAIWAQsAkUhgNwYJI49nmy26UwmvWiqVH6cEgRhJYBz6dWX9TkO6hjdsY1lSgypwsm4saRCQhyGbOuhY7EQpsJTn0U00AiFIus0sHfkr/YoSAF9dY46DVS461oEg6lBCvxI2CNJ+yzsGUp55wJ1GiQ2sr9hkmDSIliHxaL2EXuRRcAiMEURQC2trLATQO/CVQ/MDht0G7PTU4IgvHTVxf8Kbmx55sgAjO/ZwbkBl268BgI7RldmaihUp4E9nb1QREFQUiJO8KwQQ0BeFIdFIXTVUElViyCSJ4k+BEI8XBJa5EagLaEOizRUomwtAnue8g4+zyVJsGaGxlz5ttUWAYtA1RGILVgIblsnYN9fv2jNhmuq/oIJfmDDE4QX/uSD7461Jp/xsx6MbHqNZhuS0Qn5tAiIFGcKup8vNwL7jTkshrQInHKESymEVfYRDYDqi0AeqzgsCr2+eoKXWgSFWOSr08DujVZ7FESF/R7Oi8B+i5oaBAmQ90SIBp+t1mFxgpetfZ1FwCJQlwggRE0NxOSQSWfeufQ7Dz9Xl+0sslENTRA2Xn9x25gXGySdGNr0KoDnKbkBuEQNDvX8GB3UEohUL9RMDUIwMpUEq/aomhrY5YoiSVEQCHmrJ0/SEzBRwiFks16nQXQhpHkoPnkS4wLF1mlgMyagCbL3CikKT5ewFiGcWKrI+WcvswhYBCwCUwsB5EDy+JNonwbRSNsp9zw61KgdbFiCgFeC89KWS3aC6y4c37UDskcHWN4gJUsh6Rw5GdOvpFOe4otAJb5WnMiQQ7gadRqKDXsMfBMUtqFkWCy+ToPQIpCbST95vxW/gqifRlSLENE8KFoEQSisw2KjLn/bbouARaAWCDitbRBfuAgwxlt6Vj1wPEJSMtXidTV7ZsMShBc+8oGb3ETTam9kDEa3vSlj/gVJCOR84IsgUCQOi4H1IVy/sNjkScLUkFuLwISt+H9NORGqvKhqEYKaS+ETvNFhUZkWsh2CDJVdp0ElCQp5knzFOizWbDXaB1sELAJTBoHE4iWAUs3gYe+qY1Y/2JChjw1JEF762GVzfAcOEH+D4ddfll5/MvJQ0yJIHbnmsKiq1FUgyHOEY54kFdL5oPI6DcxioYREkH+rGRal5YKThBzVHgOnS3PYY+CwKMIe9ZLQShsqDHsMbBO2TsOU2eFsRywCFoGKEEgefzK1IbteevaCtY8cruhhk3BzwxGE5884I+6e0j0AyGkm+Q5wJh0QBC7xVVNDPodFVYsQErb6cZ8PDDFXUIMF90VorDoNgalBr9OgOB7QnuoOi5GsjgQFbmqQEygAU5SZtLkRJmFB21daBCwC9YMAisVZfgSAge7DI7PQo4969dO6wi1pOILwuys+eBckE3eSGgtje3bKHgohpjvOBVEH5rBHxinICZucrgPAdFODVPiz4790WIwkIQpVamQn+1wOi2ppZiaZ8zssKkaHUIZoMYjCzFBOnYYoScjtsMhQ0nw3VHWMTFVdeALaKywCFgGLwFRGIDZ/AbjtMwB7+C8WrV3/d43U14YiCM9f/UeLXHB3YM+DYRLSqHx0ghB1WGTZEE0Oi6psk8I2lxZBJkyqfZ2GQg6L4ohefNijokUQhEQyEw5mHlODgEQQFaFFEMMgNSo27LGR9gDbVouARaDGCCSWnUBCH7GDnMUL77m/Yao+NgxB+PFFFyXnz0rsxQBdI5teB0xSKSs6fvV0HZLtsk6BIhFDQlCKuxpqEQg5UTIyqsmTqEJCTdHINQlatUdBYoJcTGEfhrAPhfKviuo0FHZYDJM0JQmUTaBU4y3HPt4iYBFoGARcF5LHnkAUrwcPeKnuM9euzTRC2xuGIDxzxQf/PxSL/3Wi7xCkD+xl2OYISRQEobiwR2oE4IdxUzEnmR9RjmfRdRpkEwNBy/4WOB/SbuTKsMhSGNSoToPusBgmUMJcESr/KNqt9CuiRRAOllaL0Ajr37bRImARmCAE3JlzIDZrNmDs37po9YavT9BrK3pNQxCEX1z5oeM85G7yMxkU2/IGOLzVgRDjfEGoywOZKnMjRMIe6cld8AyRM0B8GdjX84U9qg6LoQyLxuRJhtO4gn7IH4GTAvqHzJas6Ej4o2ydhormvr3ZImARsAhMKAKJpccBiid8HzLHLV718FsT+vIyXlb3BOGMNSvif/7m6KaF+weXHNn0OqBsBrpcItCZdGeRBfo5Nzihm7QIatijeMak12lQyA1tk5LniOZAoCUVgn5Vp04DccoIKlVKY0ukmFO+DIu2TkMZ687eYhGwCExHBGIxSC4lVR9hywEvdXK9mxrqniD80U/uWtE1mllz2eqfgn9wH51SbQ6CZA4tAhWuiiqc/LXYsEcxX9WS0IE/QxQq8p5K6jTQlubSIpDG1LROQ+0cFiM+INKxczruCLbPFgGLgEUgQCA2ay64M2cBePjGnrXr76tnbOqaIJz/xG2L4iixuSmWSCz4wdPwB7/eCgne4lmqFkFNqRzOiiAzLNJBMDksiu+psBbaCBbkX07YY+EMi2w6GH0RaFvCDouV1GkQ2hFT2CNrRHF1GthzyqzTwPFluRXsxyJgEbAIWAQSS44DiCfSruMsq+eohrretc97/PYfI0AX7R7uh6a0B7fc/SR0AaYkoRkhaBYnbCHBtHlHT/hcGhtNDUJoGeo00OqNeqx/jeo0qAI4Z4ZFxWExlLioxDoNQbEo4chAOu8wMmTSyoSyTyqJIlRzB6c81mHRbnwWAYuARaAwAiiegMSSZWQX/XH36vUfLHzH5FxRtwThnO/fdlE85v740Ngg7BjuhfmpTjjxzQNw8b/+FjpdgDgCIFoEXoqJE4GgO4pLX5Qk5C1YpBRz0ihCqQ6L0okykjwp0B9EIhpyaRHq3GGR8TBbp2FylrF9q0XAItBoCMTmLQC3YwZRz17Uc8+6f6/H9tclQTj9+3/e2RprfjPjZWe/1L8TfMDQ6qZgZqwJblz1DLQPjECnQ7QIAJ3c1CCEcThWgKsPZG2DaLXH/A6L0iohx67SOg3MBBF1qwwpQaiFQxkatU5DAYdFxoaYOkA8QWBjNjVwXwRyvWLekARLaaqeglmoHISWRicIEn35DFunoR43Adsmi4BFYBIQQAhIVIMTix/MjKITlqxbNzAJrcj7yrokCOc/cdtXELhf3HRkHwxkRrgCG1EtwtzeYbhu9S+pTbzDAZjrOuByZwF5YuddzqtFUHMUCBQMpgZiaCipTgMRz0pkgEJRWKukGj9KEop1WAxFNIhnKqaGfBkWaRtkyWbSBsXUYCgJTTlDKAV1uN356jSECILgLdZhsd72ANsei4BFYJIQcFpaId69mGzKX+lZtf72SWpGztfWHUE47/HbTnGQ+1J/esR9c5BFLYhP0onDnEQb/PH3fgfHvrGffj3DAZgXD4c96r0tpU4DFWpUUgt6YfJFUCS96hTJT+8saaIWPmjMjRBwhqJNDTkyLKpkSKoOlMSGJi0CIySs9DUu0mFRrT3BA00D3iNnU746DYyZ1d3Eq7eVadtjEbAITAsE4gsXgdPa5vlZOG3xvQ+EawhMMgL1tk+j8x6/40kf8Hte6tsJWRwtfDUn0Q7tGQx/9tUnZYjgwjiCdpefjJmED8FauE4DF/jiME3/Gfgi6IYGky8Ce4JQoZdep4G9mot5oWXIVRK6CIfFfFoExR+RGyIULULEYRExv8k8WgSpYVF8O2ydhkle2fb1FgGLQEMggFyXmhoAOT/vXr3+D0TJoHpofF0RhHf94PbLYq7zvV3DfbB3tN+Ij4scamo459nt8Ps/e0NeszThQDKHqUEKb0OGxSADohJeKOsIBOdyVagGHMRARErWIqgqe40gkBeZwh5LdVhUkAz5NuSo01AoeZLJF0FRHnCNgo6Nos6wdRrqYe3bNlgELAJ1goDbNQtis+cC4OzlPasf+n6dNKt+NL0nPPbFttmO+/pYNtP98sBuLTdiGK7OWAt0uAn4868+CbFMlv5IQh+744wkCHW6epcQ9ey3cPKkCEnIVcxJDXuUzobhtul1GoJni5IKCj/UHBZL1iKQV1MHRqFyECf94N+idUJcm00NzKTCyl5zn4sSHRZVo4HQsJjCHgP/TOuwWC+bgG2HRcAiMPkI0LDHRHJXEo2cPOeeR4cmv0XSZW7ym3LuE7f/lQPOyo0D+2AwyxwTc32IMFrYNAMW7RmAj9z/a3lZh+vATBfTLItmkqBY6lWSIOWprkUg1orywh6pwYD7IoRIQsE6DYzBqLZ+PTeCTMPsaymYOfmRaZiVQ7ypJDQFzqhFIN8z3wSVPEVNDYWTJ6kkQTxPvtc6LE7+wrMtsAhYBOoCAae5BeI9xwCA/1c9qzb8dT00qi5MDCRjIgJ3U9/4cGrzUeZ8WOjT5CZgVrwVPn7vr6Dr4FF6uYsA2l0EXQ5JpsQyI6ofhR5QARwN+1MkoqZFYPeGHRYL+SIIkhApS12Ow6Kq7NHCHnUtAo1SULQKxYQ9qo6ZAIR55K/TEBAwQ/IkJUIkYprhELNSGlaLUGie298tAhaB6YNAfEEPOG3tYxknc+LSbz+8Y7J7XhcE4bwn7liHMb7m5f5dkPaZyaCYD/FFaE37cMvXfsYzAWJodRDEEECXA5CiSQsMfgImXwSFG8h7tLBHdgkvr8gbmC95ErueOSxGTA0hAR7OjaCbGphbg6LdIP/mJIEHHwDm/ZSn9CLDHsMOi0qFKKqG0DMsFnJYVAwNilamkBbBZmEuZrbbaywCFoGpjgCKxYCmYXbQgz2r1n9ssvs76QTh7Me+eGbScZ/bMzyAdo/2lYRHDLkwL9UBF//oFTj5xV2iejMQUwMRzDMdgCTXJITPublNDfIXgYzisKh+pQJXKHlS8WGPATXQIxoo2cjhsBhwliC1tCQV4sSu5XOgXyOlEmMOh0VT8iTV1JAveZIU/Bq5iZgabNhjSfPeXmwRsAhMXQRis+ZAbOZsjD3/XT1rNzw7mT2dbIKAzn/8jp9nfO8CkTGxVDBmJ9og6cbhc1/+KcQ9FhZJNAcpfsImmoSkI07G7OmCBAhBRWWjkg45RBJyaBEwzx/ABG3wVLX9wsQhtAihREjixtB7GUGg2gbhv8Cfn0+LEFgEwsQnamrgbRV9ChrPmk2BEBUsRIZFWmc67BOhmkhk3oiAghVKniTR4t21poZSZ7293iJgEZiyCPAMi+DGnulZvf6CyQx7nFSCIMIatx49CIfHmR9BOZ/upi447dW98P7HXpRO8iQFs8N1Cl0uKQ8ddDXki8CllUoSpMAPaRE0h0USLUFOxvyT39QQOCyGnA+LcFgMoiI4uVGjC8jrRRMMDotqP03JkwJBrZthBKEiD+UOi9JkwO4qxWGR3aE6fQgnUg6e9UcoZ9rbeywCFoEpioDb0QmxeQtJWt7Le1avn7Swx0kjCBc8tTKWPTr+0oiXPvlVGtZY/qc91gTt8Sb4xLeegvbBUSrTYghBq1LtcYZGEqTQ0vMqSVU7F5/BoV5LnhROn1TIYbFYLYIU2lz2R0wNBeo0gKP5ARh8EfR3EPVA2GEzqkWIVHsUThUhZ06DISdf8iTREKlFsRkWy18F9k6LgEVgKiEQX7wUULLp9Z6NO05DTz9dvHNeFUGYNIJw3hO33+yAs+qNgb0wmB2tuEsLUjNgzsAoXL/qF+BgVkGh3QnqNJAzMSEJJLohEJBhlbzJ1CDs9MLBQYQ9ioeEMwyqolcpZSRP3+VnWMwX9igcFqmpgVoEwv2Smg5ltNWBZxaSgCSw36JaBH6ZfLopwyIlQjrCsv+6psImT6p44tsHWAQsAlMSAdTcDImeJYAwvrl79fo1k9HJSSEIy358S3Jetm1zf3q4p9iwxkLgJFAc5qTa4KqHnoXu7b1SRLVzU4PoaNEkQS8JrRyOCUlQrQ8hYcsd7iJnaeZEIKMRxD1COEsPy5AwZaK+aIdF8lIWfCCU+tKfQakSlbPao8Q45ItAvmXMw6RFECRB9kN2JEzDikuexNs9KbOy0AybGr/TeUn9W1jQLv/n1Oic7YVFYIohEF+wCNy2tp2Z+KHjj/vWT8YnunuTshWf9/gddyKE7nq1fxeMeOmq9XlesgMS4MBnv/ofEM8yh8Vmh/gfsFcIIUYKPAlNghCl7LfCGRbZdWqdhsKmBrVGA92QTWGPmj+CWhJaJwmMa5QZ9qhqEbj5RMXGZGogoZ3M3aKysEeh17B1Gqo25UMPIgG4PteeeRhDBgP/j/wdg+ezuWo/FgGLQGMg4CST0Lp0GVHw/uVZ9z1010S3esIJwgX3X5vKzlqw8/Do4Oy3hg9Vtb/ELXF+Uyf8wdNvwln/tUU+u9NxACl1GojZoFMhCbmKOQV+jeYMi7m1CFLkyjaoKZhphIIW2kcjHpSIBkFc1C8FiZFPV0mC4m8RMTXIYksqU1JIE29loAUokGEx9Jiww2K+sEfmtqD4O4Tey/9hHRYLrglBBLIYw7gPMOKTP63oLwicvcAi0IAIpOYvgMSMGYeHs/GeC9etG5vILkw4QTj3B7d/2XHRbS/17YJxP1P1vnbFW6E5loBbvvFzaBliWJIIhmZuUicdRg7rdidimgRxspWCVzlZm+o0qFoEdo8PIuwxEOJRaKnrHzc1lKJFEGmSS6r2SBpWRYdFCgnNymQ2NQQ1FkS5bHPYY04tggCfEwSbPIktDQIH0QoQDcCQh2HEwzTtRTkfUjUOuTFAMfKnC0CJs0PniQw1dcggE18Z8nIfMPYx9slXHmCSxMz3AGOP0bwidg9tKZXY7HwvqBUhKqJTUf6fs1/q0zT+XyIWjX25PP4Y4DVhJHpb7G8Ni04R082JxaF56QkonsB/f+rXHrpzIvtaRPOq15yT/3VloiuVPrBvdKBz1wjzE6jFhzgsnrC9F/744efk44XDIktqFIQuBCRBoQlGUwMT7sKGyx6h1GmIlEQO7yLy6ZwgGOs00NaGT/mqqYF1ptI6DQYtgrKLC2yEqYFdbQh75E2VAt/Q/+CxYWzZ9yjq0yBm4zTWIjBCADDm+zDoFa8ZIBnYnEQSnEScFHyBpp4eaD3xFGg6ZimkFnRDsmcxOPF4xcuNEAc/OwbpgV0wfmQHpAe2QbpvI3gDmwHhMXD8NLg4TarSsdmqFhPjbxfkL+SnY5D3gsirjQ6Io0JA+fSk33D2RJdmJItq8KSAyPPv+OP0aCRpclMaQekUn6uqF4d0JM7BbuWaUnZd5u7DNhZ9M1bJldiy1Eerpjr5HNrOKJiyfovaD62d9HmGGWLqjvyOgxG5hnc2cFrmu5cabl5A+uh91RsXHLhUPSvfk5Vnq8pZMkGEDJAocZ+cYPy0eaJMETJWIUd1MacNqEfGM5yOh+2C6iDLrZn9RbSP8HeUnAsoNXvAaRmbi055tHp2+QI7woQShPMfu+PrGMHnfte3A7KY+QjU4tPiJmFGogWu/86vYM7+QfoKEvbYHlMTIgVdJySB5UkICzI5SjkcFlWCQCZeUcmTZP2BHCmYjaaGIMFRRItAZ5JiAhGmBnHM1Ko9muo0hMwbxgyLIuyR78CVOCwWE/YoV0dAhmoxT+rlmWQjIBqCgaxPNQT5Poic+hMJoLbJ40+AznPOh44zzobE3Pn10h2qfcgMH4Khnf8FQzt+AZm+1yGGxyCG0uAivkFr2V9UB1jREb2WipquXBWCdOU6LAl6cG8YjnyCT/JSmRBM26CVR0ktgNjMlR0+LIjYTapMkCOrcXR1/alahnxaNJkF1biDRyV96FmaICrkmKLeS9sabJUB3kJQRrL6KESOZr5nJkb1Y+yndpGeDyY6DuyJiCOu3s4VxvyVgkHKvHByKoUICZcGZjIQBd009nq/omPACYKmEnQoI9DegVxArScQwn23e9aDn5+oxT5hBGH5vy539zcd17trqK9j71h/zfs3L9UJneMefPIfngSXO2e1uQjiii+COggqSRCnC0qClRXLyDKf4PLEEWwBheo0SPpB/5Kj2iOd5UFSoYCysBcywsm/FcJ2AhwWAzJUHYdF1hdEhYlk7uomM8W1CKR7REvQm/Ehm4cTMM1AAtpOPQ1m/+HF0HnWuUWp9mu+wMp4AcYYhnc/DwMbvwej+54FB8Yg6XoQIyRW87llfF3bnrS5IpemqkGQG3v0HC2elk8gsXawNa4Ka520hAUCuzIsiMLOyyaBGAg5Q/4PLuND10ThYBBFdvGIdM2hGeA35px/nKDrz+fySxIrw1CJbSyIleECnINv1DgodEN9ZYRYKT/qgpkQhAgcoeuZNFbvE5qTcME60d6oaiBCXMXzdJkeGvRwFlv2EyMI9PilTx7lXoEVjs8ClJoz6G4f70J/+mjtTtjqu8tY52Xd8q7Hb7/bBfTZF/q2g4fLtaIW/2pRp+Gyx16EE1/dJ2+cQSo5CRHLkRcTcAbVJCgRCoqpIZjQpTssig1HbjLyKBTWbQUbWG6HRdF6QWLkM8t0WAyVd2APl0QkpEel3Q6bGhAOPCMFkSmtTkOYIAgCFIohlRqX4se+nq8c9XzozeYhBcgBJ5mAWe/7Q5h3yZ9AcsHCeu5OxW0bH9wPfS9vgKGtPwTkj0My7kMixgST9A4KLQdVLLHXk0zqqkAPhJPCMQxCUCUl6s+mVOFsOw8+YUKjLhpl/Wiym+x6kgyrQouHT0VOxZqok3uQItcjgpau4WhnTaRICjp52Ime7uWaVIWq4YAr5FvozfwgpI5HSDKHdbY555Kp3+KZ9DflpWSPioxTSHATTS8fB2F3iQ6fbEuEbAiTkE4GdI1YdJoqY8/nt+HhkgwY0XDAaT2R+CT9Y/ychz5b8eIr4gGm/hdxW+mXnP/Enb07h3q79o8NlH5zmXeIOg2fvfs/ITXKzDZNDqnTQKcIO41rCMxAQVpmeZDXtAjCoUvaDUNhj0WaGqhzJHswcVhUFzAT/mGSIH0RalinQWwGEpIcxZwYbryq5QTUaTCe+MqcE5NxGwk5PJj2YDyPpqD1pFNg8Sf+DJqXnRA9OU9GoyfhnUTDMHrwdTj03Ddh/OCLEHMBmpIAMVLHnX/E+VDkcKBzVtEg5Jor5Anqb2wHCH9UQkJ+EccY1cAm7tA1CPrz1Sfrm75+OnZyNDqSZl1rMO0D6XtkXhUmCEzzoDAN2uDgBaFX6cKQa3zo3sU7ql6iCnQypmEsTGgqV/AH6RiJ5kXGTN0mQ4cYwzMVNiHHT2GWRhIlBzx4nq5BYFhq/mnq6xGiJNZM0nKHHqtJ+CSK8ZnEH6E/ds6DXROxRCeEIJz32O1/hxC6Y6K0BypwC5tmwDt/uwv+909ek193xNhZWG4SCgoODkIgmaDm10mWzb/UGGIpDovsCdI+wIiKITeCpBBy0dArZT/y1mlQjZ8kzxHpB5+hfD4HG4LSf5WRC6IicGKXlZNhUZhGgk1IYCuxUHZs9TfW3XC57IlYGNV4x4Dnw5EMO7GYPrPe+37oc3eZCwAAIABJREFUvmYFxDpnsKgC+5EIkEiJ7MgA9L6wGoa2PE6nQFMCQTIeLDxBDOjc5so4OlvEesmzu6kObiJxlHpvSKhJKs++jZIBRlfM2gE1MRUxQ2i2FJ2oqGtR1yAo1dhJO9R3hqdOdMYRu7b+rb7Wheky1HfSXGUvMb1T7VKID0S7GnUcLSCBdKKSXzsQ7E+qEJeCmd7MnhAieKG9PYxkRKhzPwp6laq5EHKCH6oIp9VqBEbfq613QQhy7ResLQ6g1hPJH19xz3rw9lpvGRNCEN79xF/s2zl0eN6+CdQeCOA64s3QFkvBjWt/BbMPsYJQxMrQ4obtfgyI4P9FnoSIsDI4LLJrSkuexN4mIiOCDItyA9JnscKsxcIuuk6DdFhU+sy5RlidGmhWJBr5SkLnCXssZGoQuArEI8mTRAPk4p2QqVrxeiMhiQeyHqQ988lg5nv+ALqvuwniM2ZaUlAk2tj3IDvaB73Pr4aht35EKWoqgSHByQKLWFAeZpgqqmVannqVNSVNa/w75WBpsmoHwUb0+kDoiOdIUs0ljP5OZbsx+gew5R/WW+vCKh9B0J0B1XslPAHX4uDx1ahgQLm5hqcQfIq8lX1Qd1WmnVUONKpwzaF9CHZh1qQQbqYtQJJBsf8qFxkFv4EghHpvIAgaTmHywTHj0cIhnFUc9bmu+JGaCIGu7VJvR0SLkJp3wD17w7wil1DZl9V8133nY3d+PuHA117o3V7TyIV8CMxPdcKig8Nw9X2/kpOOOCxSdwSyEPUCSHy/ISSBRjfkyLCYy2GRyt5Swx4LmRrkZsYlO28jDRcMbXQabVeiGnQtAl38wsaizITaaBGCduvRIoIkBCodPi68K+xUUt9aBJKo6GDGA1MQQvOxy2DJ5+6AVPci6nBoP+UjgL00jA/sgIP/9SVI975GzRDNKQBHNUNoEk1RTqlyOdCwaydBdaaymRecviNaAiElNeEnehiSLQZhqwvE4L7o1pyTIESOubxDqoDUHqf3Q64xbWhomKoQdAaBq2aRiWgoqMwOvmWERiEhuY7KmjlINkkKXLLnhcmM2NgN7p5hgiOc1FXuJfqlDkYurQINc2R7rusQJ8MAWI3PhZAsTjuQx9ygvAeTiIbmE8is/KL7zge/Wv5qKnxnzQnC+U/cuX3PcP/iPaN9hVtToytSThxmJdvgTx99AY598yB9C5m77cQZKjQ5lMHmG0OHg6MkwaBFkAu7gjoNem4E2hp11mkkgW1kfEmoAt7ksCiORAXrNHDhrIyFbIdY7xGHxSrVaeBkTRxH2Ht5Q+qUJAz7GPpMxMBBsPjjn4SuP/gAxNraDBbvGk32afNYDN74IAxu/Q/o+83dlOUnYwBNqfCWJv6lfqueSun3GkEQ/9S1AEIICZYRCAdFg6CuG+WlEQ2CwkJMm3BeQadoJSLcgM401UODr2exd6iAqGuLqyNUdTwlDQqp0X00VPlOHhUhMAq48rWqoMuxKiQh4VjKUENtEM1915mQ3i5Fg6D1Xx8HGdLJ++YSsqQknyuXEOTTDrAtP9wS3eeU/hyfDSg5e6d79obFtVzyNSUI73zs1isSTuIRkvcgTbKwTeJnTrId2tMYPv3NpyCe4XUaiEOikmFRneF0wiskIcFteHrYY36HxXCoExt3fQNTT/zM1BBSU2kkIXgGn+hVCHtkfWLtCkU1iAXK2yBPYmIzoeSkOmGP7O15ohrqjCAMez70Zf2IxiA5dx4c+xf/F5qPWQoobrUFE7HksZeB8f4tsO/pvwRveA8Nm2xpQkA2dCmYDcJIbvDKaTHER2Xj+exUSXhoE2f64qiACRaQVDQYdtyCBMF0Ws7pgxA+lstm6nJT1WaQbUfZA+Rhh4bfsX+FyEAOTYg61sFWx+4MCJIht4n2cN23KtccMhIEw5dhDJizSki4mzTI3IfAJYRA6a9R6VGJuUAnAwbCqvZfvh/FALUQh2b/ythZDz5Sq3VWU4Jw/hN3vnFwdPDE7VWuuVAOGC5yYV6qHd7zzBZ41y+DOg0dWp0GMhtUki2iHYgmQSUJwbiWHvaYiyRQRSb9n4EkhI7VMgZD7kAq92DEPWgXbavolF4Smn9frKlBrnZD2CNgkrqXNUkKfMXUIuo0kN8CesOvVbUy4uQS7FTKLjW5poZRH0NvxovkLug851xYtOLTkJy3MCopypmw9p4yEMCQPrIHDv3mGzC655eUIDQnAOLxYE2HtAcaGxDzkv0ZbI0RmRMxJ2juffxBppOi+dQbEa2RUyTn6PLCiEZC/cVABuj9arSH+krqoyRWLD8oiJ1FHKBC5MhAGDTJGfANngxIPE/RfrA+KSxO7mY5hl7vVyQzodgXww8KbgsaSZw2ZbA9JwxkvpDvRZ4iIxkQWk5T8Ijso7JdaV1RtQOCNMptziCNdS1N6HHJeYATXZviZ204sYzFUtQtNSMIZz1++1kp5PzPi307nVrUXCiqd9pFM+It0I7icNOaX0Jn/wj9ldRiCNVpMDFQrsbvcDGrAqkcS8SyYqEIQtiFkycVW6eBnUKqlGExR/IkuSp44LIkFrTtIeke9fuKOCyykCXa9SlepyHtYziU8WnGQ/lBCOZ84EMw/4qPQWLO3HKmpL2nRghkhvZD/8sPwODmH1BbcVMCIJlQhH7kvXIl01+Ck5ohqZ2+RyCW9Ez/FCQIQjNgvDe6NUeeZ4oS4JuQiYio7RN2dNpXKSk5BorgNanR8+T0CadOYSeV0HoxZSakl4QvM2Kph6SH+qgfdJQnsANScCxhxIQltnJdRghyeopWoB1g79HoSZ5+6tNAnwERsoDigFqP951M9l3oXKWuQBXXVM0Iwrsfv+O5vvTIWZuP7q9icyt7FBFl81MdcOqmQ3DJd38rH9bmOBAjizwHlROCk/otuBjiRMsQIgm56zTQRxZwWGSXiJNxuVoE/hRVxmskQYYrKWGPQZ8FwQnvOuq6YmQiqMbI7i2vToOyawiIFDWtwdQgGiqOJsbNsbL5Ybqb5DA4lPVhTPU+RAjmfvASmLf8SksMqg95VZ+YGT4A/a+sh6HN36MVXZvihCjwmIbQnFLcXbTTcqhBQnsgd2tVFxZuelSgm1OHm8mFflyO5nHgWwt7qVj3iBfaUpqi51mgCjpFKLLyXEERO1UQGcmAAR+1tXKJRoQyjbWOjq8mGUMaT351hKgItb9+L9W+hkM6xTgQokhMBjQKI4fkK9aZkDQrItB1c4GpX0rv82oHdLOOYVXQMUt1A8Q6no+dvf6sqi4cgXstHnr29z41MxFv3/dy/+74mDdhdSWK6kqrm4LORDNc9eBzsGgHKxhF6jS00ZXASYI20MHZgv3e7vLoBjpCgXJOaBGYHFXDHonTkBZWmUNTwSZukGFRzGMhnENGVeEnwclx0XUaBGPXHBbZ4UNlGKG9h+1D+q5XZYdFhmdxJaELnZKKmhA5LiIQ9Wc9GMqGqyfOvOA9sPDqGyE5f0Elj7f3TjACmaN7oe/FtTC8/adUQDQngWZsVD8aX2Dz3ZCIKOxElocgKNJVnicMgilKEALbf6h9ymagnE80fX94p5FkQBG0bB2zL+hzFIKgNy+kMJUkJDx4fBtU9gZlD1Gy5hq1B6IRBUkZb6vpBK5sBOouS+CPxVg+glx7RT5CYNIAhccjaDRtVgXaAfX2HNxF2fqVK5wkoJZlGcfH89E711e9AmKutlS0fM9//I7vj2TTl756ZHdFz6nVzXOT7bCwfxyuX/NLcLjKuMVBIDSQQhiHwWHLgBJvBNBGQiAVYcq+z1enQSwjLnTZSyJdlOE73NSgTtIQSVCJiWLRL7ZOA9kU6OIXak7eHNVh0cAV2FeaqcFUp0E4ArHHIkPYJ2c1bBtWtDeK/8Ik1WlgfgYkHXKw4tt+71RY/KnPQtMxx9ZqWtrnTgAC4/1b4fBzd0P68G+lj4LI1GgkCCaBHpI2bI6QU3r0RBl0KBdBEOeB8FagaRpUwcwfFOwmWgM1tkGaqp7IQ8RC7EAKQQidanOFZYb2LvZ+TVnANBL0pyCtvjEaQROs9FlaQii+RfD3RENOBcqUEBCTgajtkQMafZzE/fkIQSSyoARCYBKyxWgPOLL5VwW5qHkpgJN8LHbWhkurvYRqQhDe/cSdg68N7Gkbyo5Vu71VeV4CxWBOqh0u+unr8Pbnd7AFDgDEYVHYDhj517cM9m9xMGh3ABIhh0LdYVGJ1xVex0oP2IQMD4HJ1BBoKbTkKWLj4KoLJnILhD2qi153WJQLXT5YttZkaqA/Si2KamogJhjFSZKv8KKSJ3FIQn3hrYgOSXUdFkmZ5cNZL1RRkUQlHPOZL0D728+sytyzD6kPBEb2/QZ6n/0SZIf2QZzkUkiyqAddXplOniz8Lbw3qKtY/p3/JUIOlItN5gXqKK1tPUE72A/h40awQIgZRXzke9VILXUt0dwryho22BOEBiEQkKYATMNRR/aRbDLspTk1CBroIczFPwySivkQkHwEhlTGdeQ7oHYvl8ANiFsekZzrJ7cJnOalR50zH2iv9uqqOkE457E7vojA/8pv+3YYonGr3fzynzcz3gpdWQQ3r3oGmkaYGSQlHBbz2Ld1pxNSBZI6LpZhajARBCYfA3+ESus00OflcVhkWgT5VsVfIkwSxEQJNj/FDMCPC8xhEQOmmxTzTg6tb1VfKc0VUS4d3JPH1EBvq145aD1s0UmmoPuaG2HOB/8IUCJZ/kSzd9YtAiTp0pFN34OBl9YA8sYgGWfpnFUzuRRWIU2bum2aEhQr/EGrFaCDEdqA+VIwVwsMb9W66UA+V0kEJFQaeqgieZJOQNjzxOlcrCttfcnDQLgXoZaFNopwUT5KEMLQGRmZ0RzAORkhccKxUE1lXInvACMvQcNKMReYBGgh7UCY4JVBCCIrCtFS0IDRne7ZG75UzQVXdYJw/uN3HNgyeHBOX2aomu2s+rNc5MDcZAec/bvd8L6fvMoYLtEi8DoNQaCTSvej9nEyGUgVSOq4KI64IfavaxHCNsJ8WgTaBh72GNIiCLW9aLRU0oenZsg8YXJY5KcHYWoInXyEP4LaffJ3sYmxVSVPMuyysBZB7LScP9FWmjNMiuFlTwnDaCgJreGrYlPqRDFpDWa863xYdNMtkJhb80ympTbXXl8DBEjEQ98L34DRXU9T7WBTErHQSMPuSL3/tfyA6mUBoQgamsu8wMi72iE+/3O8VxWuRg0CVc8HRSkkiTCYCmQflIvM/kVRwHVccgl0oJFN/EMPC1pcIm1EtLPygCByEShaArlTcNxM5oJ8pgKdDAhhXaz/QD5CkEuYFqUdUPbykqc4ebHbDqi5+6B7xvqqhlNVlSCc8d0vvKMpEXv+hd7taCJKOpcMpHZDe6wJOt0UXH//r2Hu/iP0V5LevZWmbZXWfKP+TBJl/pcOcq/MssXVCcawx7DDYiEtAnNYLFztUZ1fodYrwjS0ASgpmAPZrpgnIg6LbEuS/dYIQtjUQG5mWgT6B79JiP9CpgbRF4FNreo0jPg+9TUQAQrxrplwzKc/B53vOr/SqWXvb0AEhnc9A72/+Rp4o4chHgNoTTLVdYh2h6Qh2yM0xRgjucpCESfSqCBVoqEUvOh12s4cOeEaPZh4wqbQIg3aFxwAFDOB8IdmPYmMWjFkIEKK5JpXCAJPURx5AScIAkOCN0mfHTIbVGAuqMR3wCSzC2kHgu2ugGitRPKa7iUZfFtPwg72zkRnPhiE6FW4DitpZuTV5z9+x4sHxgZP2zF8uMJmTcztZJkQh8VluwfhyvX/Q8OgyKfNZWGPcoLwFaCdz9l5WanT0OFwTYK6Q0i1YRDVoMc05CQJ9IdAixDSCAStUwRwcLYRJCFQ1xvSJAqzSA6HRRnVoMwS3qQINsFiKi3skT5afSjfpNj3eRwWBQfjpoZStAjklv6MD4NesIHNeu8HYNGNnwK3repmvImZzPYtVUGApG/u++23YfitJ7g2AYKiUEqEDXsZ3yMEAc6xmwYaBIMADo6Xsv0RIsHfKy6I3CIfiyOZD9V8B+J+erl4iAyYihIEI1FRUdb7rW6Qsg5D0OdQv/jXJODUcQFiDqL+BIG2kflHBDta8GIdn9wELrhH+BsbtR25fDqUvubS2Cityj3/KpWyee9XfkzOBScx6yXnjHWnV2UxGCljmU8+Y82KeNOCWUO/69ueyPgslXEjfJqcOMxMtsHlP3gJTnptD20yUTN2UI8lsQFocbXKWVoIMrHgCEmgPglCYsnZy4t88I2l1LBHYWoICXz16CIWq+awKOUvH4yQP4LQIgQHflVvoorq0OEidEDR9XmGsMeIL4JmahAZFtXFFpx2CoQ9CgJWJEMgiY4OZTxIc24Qn9EFSz7zBeh457mNMF1tGycIgeHd/wV9z30ZvLFeSMRIQSieclczoucSOMYTv7bRGw+COYSB/jzje4l5QaxaVXhrevjQKyRBULMjMZBNAl3hImFCIzdC7kAZYiHhSArhR0BSYpPMhZQE5NASmPoZJgS0paFZkVtjwy4zcLLI/cXJ9FyDVYVJmrMByg/6uDpE7XVC2tk63Ib+9NGq5BcoDoci+nve47d9dczzbn1lYFcRV9fXJbMSbTBvOAs3rXoGYlmPTrcmJ6jToK8WJv4ZdGJd0KWJmRWehECaSIJqgxPMWApbZYGp6BR0WFQXhzxpBNqPUsIepb5U9QMQJ3RFAWHSIoitKUCF/E14MOumhkJhjwxZAYl4pmpqCMFVpBZhxPPhcMaXgVfE14BEKMQ6OutrQtrW1AUC3tgROPzsl2B0zzPU1NCSRFKbwISQSCOs7AWavAq0B9EuFUsQ1KJBQsCx+a+yAPLPsFOgSszDe0q4LXTt6v4B1J9BuU4ScdVkyH2Q9I6wDVIWjWJmA8RMB8JXiz9Pk3ERv48oGQgDLMhAhNBEm24woASEoThBONGEwPC+CGCalqV5KSAn8XX3zA23VmMRFYdLEW969xN3DL3av6dl2Bsv4ur6uiSOXJiT6oD/9d9b4fef2iQnUluMKMACYRsq7RnQA1WuSqcjEgIZV712uRATTk6Ex0a1CNruIsQkZ+PFV3uMbgf5TA1S4BMWT22uYfITrtPAqIA6cYT3M28m3xyiDouhNuTIjRBUogu3QaEMsnM6STB5f4uL+7M+HMmyDZSUXO654RMw5+LL62si2tbUIQIYBjd9F/pf/DaAl4ZUgjkxilUi5lxEkPEFku+0mpMgaD+Y7OhIuPArpgLkaARB1wLw7SX0eF2DIH5UIpDEoJijK9ivqjKTNI2FHwINIVX3C12+6YLd/HvQYpUQ5CIFobEwzKhiNAim/Sb0qEokZ8F7lQsMhCDfIkFuCqDl2GH3Hetaq7GYCja1mJec9W+fPSWRTL3y/OFtJNFnMbfU3TUd8WaYiePwidXPQNvgKO0FKc5E6jQIkPQFwogy+5WYJYQWQXCHdhrdwB8gGHjFGRbDsf/yJMGP8GzrUtqsuluKA0fBOg3K8uAPjNRpEC+S2oZw2CPDqkDYo2aGMZkaxCYg6ILJYZFuTjm0COTrg2kPSPIj8kl198Bxf/k3kFq8pO7mYK0aRFwtjowCDI0BHB1HQKJ6R9MAY1mAdBZgPAtArvG5fKEbPEkEFiPZBgFSpIxyghU+aktiaE0BdDSxa6bLJz2wDQ7/8k7IHt3JtAm8/zKxWYgxB6gURRCUe6P+B2EyHjwvCn6EIORKdKQNGjuohEUBW77ad8p9ghDQy/h8IRoCkrlQfVqphCBChrQH5PM/4Pwn1LviyUIBUViJpMx7r/ajob85JWrgC6+ODKC2k3A2mz41efYjr1W6Pivptnz3+Y/d8fLukb5T944NVNqeSbuf6ArmpTrh5M2H4PJ/fV6ujVwOi8FkZEtLOCySPZaaAvn6akOIRjfQj0YSxJfq4mQLQF+Ywlsvh8NiQV8ELvDVjUir61xIi1CSw6IkK6U5LDLMFOZRgsNigG9AoEgmxP3poPIiMSks/cJfgtPUNGnzrFYvJgTp4FGAQ0cRHBgE2NEHsLMPwe4+gMPDLFS0mh8yTLNbMCzsAljUhWFRF8CcNoC57Zj+mcs2X802TPSz/MwoHP71X8PYnmeoQ3NLSjM58KWrTuEIQVDXoNYBk1DWdwP2PE2gUynt5wjL5HuRyRFPkmqllgxvU2gf0vLCkN+YHwHTEJCIA2V7iwyLmAuVageKOUxXhRBUKhXz3C/SyBsBMwr8AM58OKrzBCdmgpOc+7LzjgdOq3SNVAoF1bS9+4d3ZJ7v3e42QmhjPsBa3CSQio/XPPQsdPM6DSTisZ07LIrTui7C8mkRyLWSJEiCwE7XbFBLNzUw22IwdKJdqveNjNYmk07kUlDNlnRFKytfcVikz1dNDfwZ4XhFxgJEK0QbpPZCIQkUL2ofLS/Dopz8ihe5OnElp1K0CKT6IiEH7CsEPdfeCPP+9KOVrpe6uJ/06fBRgL0DCN48APDaXgSv7EHALSiT3kYiL05ZgOG0bgzL5gB0z8Awi5CGSW9ZdRpw5LUHYeCV1XTtNiVZciX5Uf6qTMccQlM/CPBtIc+pWcxn4ZsUPFgjCMZkb8KvJziw0GWqDYxOVOgBiPgREJNBjPkT5CIE6rOqSQhMc6cYMiD2anP+R8GGKpgXBSe1PiHCAj8Xby+WDBjHgYQ8tpzsOe+4n6TnqehoULB7haA75/u3fcJD3j0v9Teec6KpbyTssbt3FG6491eARJ0GN3edBiHmybOMWgT+kjYX0WRKuhZBLDXVH8GkRWByTkxzc0loyU75qOopXVTHP/o8TYsgAwGYLKc7h5wgfKUVbWqQNkwlsboxN4KenlrXIig0pEDYo9i1RslpOs0iadzmFjjur+6Ctre9vdBUruvf+4aZRuC5bQj+5y2A3uGKl+6E9ndGE4Zzl2E46xiAxTMxdLVM6Our/rKxA7+D3l/dDn5mCNwYhtYmViFSdeyLag80Uq/t7iati0mlLv0PlF5J84IiDqT5Q3pSaWSA+x/ouR7ouiFOhbzYUVwraqWCWa52gO1n4WEpRuDT+3KMZoB37rVhIkRFT44CSy6kHTBIblXRq78zL47KxUWRLnJ98zJwHfcT6B0bVhfdP8OFle0yGND5T9wx+urAnuRIAzonmoBLODGYk2yHDzz5Bpzx7DZ6CQGpk9Bn7r7HZKce+sigDOVG4IKWXg8IWolKjs8SdgIQ9KKwFkESEfqXqKmBfm00NfCvxXFGW5g6SShkasjnsCjaYNIiMCCL0yJENw+Fhkk1nOYoyQdqKOvTegoIHFqK+aR/WAWJrpmVrJFJuZe4TOwdAHh1D4J/f9WBbVWv0zYp3ZIvXTQDw0WnYnjbQgzzOxvTnyE71gsHf3YTeCP76NJrb+GlhHkvQ4XQRM+FFtG0GYvdWNmVQxu08HNScwxLraRg9cECN23uITIQFI2lPlTUqTCGWJVLw8210g6YhH4hsqDK38nRDuRhN9pWbFppBckCByBiVtFYVU6zi5MCaD523Hn7/U2VaBEqIgjv/PHK9oSXPvLc4a2V6TEmd6+KvL0r3gqzMwCf/KenIUG8uESdBuKAI2lqFDphGSRjSDZ41RdB/NZCSIIwL+RxWMypReDHfGqaMGVYFCvboEVgSoAgfJAuzHwOi4zZhEtAGzIs0pOKuvFFUjDzB1HbBbnQkGFRo9DlOCwe9X3ozzCzQsuyE+Ckr30bnGTj1FEgc4Yk9Hz2LQSPveRA/0idLYwaNaezCeDS0304eymG+R1BMbQava6qj8XeOBz4z5shM/AmXSttzQ4N56PLIR8ZUFuRw5lQCk6+lqlCU8tIKCOIDFWf2EFGzwTJXkx+I5aCGCEE8TCxEU0rVjsguxrSXoRhLiTwi/09HxmoSDtgYilKF/L6DhQgBMWaC4rWDoTaZcCZHwZR68ng4KFOdOajLE1wGZ+KCMJ5j92+qjc9fPNbQwfLeHX93kLqNBCHxdNe2wsf+sGLXCuAoNMNpok8sYdUXlyLwI/QwmExMA0ws38rL/AU1iKIZRYMiU4ScmkRhGkgtxaBOCGx4wKbhFrqZpOpIUfyJLqzmOo06JNWXRWR5EncF4EvSqlHkb4OfBOT6gzeZrlziU0uqNMwkPXgCM+M2PGOs+D4v/4qIOJF1QAfEmHw8m4E6//bgYP1XcKk5mgSB8erzvHh9B5MIyUa4oM9OPTMF2DswHO0uW3NLCtgLpmT15SgcGm2zoIP0UiwnAjhbVtkgNUFkXoVJQQ8H0EizkwI6qfetAPBbphHRFUivQreq1ygSe6CAl8QOsPkVbe0UgmB3mR5v9QiaS9MLgCId65x37Hu5nLXUUGYcj34gqdWxryhdOa5w9sAKzW/y21Ivd3X5qZgRqwJPr36F9AxMEqbR9Y88SWQmQJUG73oADnVSy2fkmtdW63EcZH6NtEZI0WkMTeCbtsKHJQK12kISIagBkqeA6VNxgyLIqya200YARFaFHYz4xaMEYnHCaJiMjUE1R5ZGUmx2HSSEBCw6NlCxZecqvo9D45ycjD7/R+CJZ/5Yt270QsTwiPPOfCrLWUvw3pbNlVtz7uWYvjoOT4s6GgEEwSG3t98BUa2/ZBi0JQCSOYq+BSSzJxIcOIdFtphMsBOyMFcEdoBtcSzuJ9oL0W4aiKBqOnARAiKFlI11A4URQZysa1iZ1xenqF58hkIgQkn2qQ8ZEBtctE4K/0xEoJcZCBUQEzZ/lpPAWdgWxxd+DRThZf4KXtnOusHn+tJOMmdv+l9q8RXNsblRNzNT3VA9/6jcP0//3cQ9khyhnN1HnVLEgjKGcC+cPlvdFFLSSk2A3YN0SSQ4lDhDItFFnOi5ERoBTSNgNEXQd2BuDjmbad/5HFYNCVPKi/sUZAhrp7AjkYQoro63dSgO0n2ZX04mmUe3AuWfxS6ry+bLE/IxCQWqzf2AXzz5y4cnubagmIBn9kC8OkLPThlIcvNUM+1Yz3EAAAgAElEQVSfgVfWwuCm9bSJJG9EyhDhwNZbuBdU0Ki+BSZnvIAZa8Ke+SSRZxBfgmQC0f/Ep5raAb3pJgEiupZLuAS/55Xa5Q9zQammXFACGShECKquHchDytRxMGmkxO+o9SRwxrM96JyHdpcDaEEocz303MfueGL3cO+H9o+Xbd4op70Tek/KicGsZDt85Hu/g2Ub98t3z1DUcyEtOL/C4WWPqUjmSXzYiVjYVwPYGUlQS0IXdlhkj8qdG0GevpWVWmrYo/TGJs8wZFjkFIP2WNciyN4pvggiexNxHmS4lOawGNCb4M1Ec8AKLjmw5ObPwJxL/nhC50cpLxvLAPx6K4LVv3BogiL7KR0BQg5W/C8fzl+GIRUv/f6JumNw8/dh4KW7qVmPtFMNgxRrgxwK5PIUvFlpoNgvxFfBtcypQHAFsv8kEuQ9juQX+QjBZFQ3lPtVjgGYMN+BHMQsl3bAeP5Tx0g5c+nPMOKsj6/yb3p/qdoB/X5Nw0SfF+sClJr3uPP2+y8pZ/6XRRAueGplKjuUHiXOiVP9MyfRDrNGs/Dpbz0NLg97bCZ1Grh8pqb9EIpCBHJklAyLwpogHBbFpKI+Cfz0wB5VpBZB+hKU7rDIWhd2WNTzKxCeQ9sjTQ25wx6FAkIlTIKoCAVKINr5yspTElr4OtBWRlgYAuJzMOgTzQGCpZ+9E2a996K6nIpEY/DzNxDc+yunbvIU1CVQJTSK2NKvP8+H952MaabHevwMbf8p9D//t3QtE1NDS4oRAtOGS/MMac6EbN7zVapEG5AvSZ+JCUMkKCrWmVAVQurzdRIi/p1PO8B2j+in5tqBXC+W261iLjBpaaLKG9mJWpkLdJxks3IQArXZOlHUxypERCIshV9NtAgd0ISWrBsrda2URRDO/9Edx2ez/qbf9m0v9X0Nd30MuTAv1QHn/WY7vOdnb3CxCtApsiPy0EYR0kQuICZ7ny8fEfYoZZwSy6/O9VaH50ngBIF6K0dUTMFwSWFL/1J62COzTvCniI2IPkoxm/CNi7ajqDoNfENTRjlvnYaStAjMpEKaMuhh6CehjAjBcbevhK7f/991N6+IYuOXmxF88+cOTWNsP9VHgBCFT13gwwUn4LpM+zyy6+fQ+9xKuniIUCckQZz81UOFvgmr/yb7BomKaEoxP4JqmgsigiivwDePX80JQUEJpVxQgrmgWDLAdtfoRxXMueRySJhXoB1Q2yDfa2xUjjXWcjxkEDohdfr6N0tdhQXhNz3w3Mfv/I+3Bg+8ty8zPYyoHbFm6EIJ+MLXnwTX8+iMIRrOVpdoC4QGIYAyOCkgahOUzkQhlb/icMS/b3Uc5pPASUKpJaFVpz9JPuTLA1fIIJahNg6L+cIeAy0FF/h5tAiUqwhPbs6whklFRpoyEMGyz9en5mDbYYAv/JsLmcapel7qvlFX15N0v1+6zINlc+svWyPRJAz89i5KbYm5oTkVrqEgfAfU/V4QAt3JsaAaO8eJWT91qgcTdSCV7ck4vkWRgVwPL2bGFJBGNUtElMdUQLujGfmrRQjy+Q5E3lsKIdDHINYGONn9H7HT172/mGFQrymZILxt/a0tbZ3xoanqnGgCkPD+BU0zoGfPAFx7/6/lLkR8EcKDHKi3CLAO/1GoiShx4M5EYQ0AKx1LPowkmKN9g4iEoJXCF6Ech0W2LhSthHRrMGsRuCyPVHuszGGRlYSmVEvRwdLNQAt7TJPaClzqLv30rTDnQ5eWOt9rej3RFFx7vwuDJSvyatqsafPw9hTA/dd69MRdT5/BLd+HIy/fTdd+E/FJSIb9D4i/T3MK0SqRE2UuKE17kEdMlCxBlJHJ+1hxTOLXV9FckM+ZsCwyoBzxdaEfwtnQX0m6CqqGCszofONAXtJ6EhxCXuu80zYMl7I2Sh7eMx/74gkI440v9e8s5T0Nf23KScCsRCvcsuaX0NnLNCcEvBk8wyIbaOkKKBc6UyqGtQiCMAQkQSYooFe3OA4k+Cw2lYTOH/ZYwzoNpCNEnteoTkO+sMeMj2Fflh3JF374Kui5rn6iFcjYf/spBE++Hmz8DT/hG7QDZP285yQfbnmPSn0nvzMDr94HQ5seoA1pTgJ0truUFBAzielwyPaMsFZSvTCvIDJ0txAhqLl2QGyYOYaiHhMRmYQjxakCc0FRhKCQVC70u2lCNS8Dx3FPQCWaGQq9KjKc5z1+53e3DO6/vD9TEhGZ/BVahRYsSHbCjOE0/Nk3npJaBJIXQQ0xDqILeNplmeMg8OoRvgWhRc7VXIw8IGhGxBGSfSlIgiAWJkUqdXykF5Rfp0EQGfpnvjoN5AInt8OiUErkdFiUdRpIg0XHyaw2ZFgEBCQ34p5xliFxzgc+BMd+9vYqjGZ1HkFqet36qAu89EN1HmqfUjECCRfga8s9WFxHWbZHX/17gP0/plO+tYmFI4pPPjKgrktxffEC3wxlzQlBQcmiXKBrBziZyE2cWJ+MWne+neT+XSNdCjx6k+XziyAERZsLSjUVFCBWOdllMLHY39xWwKme78VOv7+kUK+Cw6hOrzOeWNmcwmNDv+ndVtJ9Fa/2OnmAcFi8+N9fh9Ne2CEnaRfXIoixJKYF1S+NaBGEKAzlTUDSTTBIiSonI4IWmkwpqmrXTQ2BJoItC1m9UURaiB1GMzKKQRRrSiU3jGuETQ1S4BflsMjsBeo7SCelFYH/hXlxkEt5LnnuvUXexdqFYHc6S1NXd555Npz0t1+viyRIxJzw1z904KVdFZZLq5O5PRWbQebP23ow/NWH/DpxYsQw/rtbAfe/QOEmtRuI46FeijufdsAkL4onCwW27Up29Tz3VuI7oG9d+jyturlA7L8GoCs1F8i9Lx/OhcYgF2viGqc8PwNqPRGjTKIVnbm26CTuhZoTGo/zv/vZpeNubOt0My+oIMyKt0GHj+DWv/8ZdUAknxRC0JSnTgMRgSK0UYQziUqRQaytlIhMXvJdohWR6AYmKKWwDVQJofFR/RHKrdMgFqRYH6HFHQl7VCiA1IDwVnJtRqV1Gg5mPBjzAVqOOx5O/ca9dZE+eUcfwB3fdWE4PRXF6tTrU0sC4K7LPFgyqw76hj0Y/83N4B/dTBvT2cZqN6ifYgW+iSxQXs8fZvZkkj9WBkaxhEDXDvD7ytEOqP01aw9qox1Q90TTOBUVapgL7XwSOJ+0L0AIjL4sTcTMgJai0zawKoRFfEoiCOc+dts/bhs6/Jne9PSIXjDh5yAHFqQ64fc2HYTLHn0hcFjUtAjCCYGRg2BqM9nOwvVEhkXxuwg4kDnYubMi0SQQkqCaFqqnRRD6g+jzTVoEQWjogV/1RRC3V6FOA6UdGGDA9+FI1ofU3Plw+r0PTXrhJXLSu+9XCH78ikM1GvbTOAgQMv+B3/NhxbtxpMzwhPfCG4fxZ68GPHaALunOVpbkyLQZF0MWQhrAcgRRIQAKSgnlAgMhqJQMqKRHbepEhhqGtQdRllNr7QATIbkHQsoOAZDSYEkWYu3/j73vgJOiyNt+uifvxA0sWQRERYIiRszxBCQoonfG01PvzKinoqcnnhfeU0yYRRQxHKIYQDBiJokiiiiSJMMuLLtsntDd7686Tc9MT56emR2qv+9edae76l9PVXU9/Y+AvdujpsHTb0425crvSadeuXHot1db7Nsrm5bVbeg45fFSRSHN+1wmOyrMDtz+8Cew+KW0eMQPwU08jpSS0IwcAqlpm4Adcc7H2LYkLUJEYTZVk0D6UFwepUYlNbxO2Wn56z1h2KN8oIfdKsMq/WgFhW6dBiI7+Z+S6EGRRxyTtKyyqdPQxgnYFeJhdjpx2NTXYK0s7OcfiUy4400W2/emvGXSXFX09nwg0N0n4P/G8SARD4W8BH+dSBLAtYjkgJAELVUP76JIKVPSDsR7ONUBp6od0Dm5Yw4q7fsvgfZA22W62gG94YptxLxfw8KoOMYZa/h3ffKT7HnpBZ0A8GQfGAnIgPLuj2hCjxDodM+4+vuZgMXNHPFcMJXlkPLbbti8v/UKBYMbV9RLtvd9+SKHKtEiVDW04donv1AXgsfEinUaCKjSuRmGV2N9T0ASNJkNo1YgaYlkcCSlopVW9cIepW5l2iAnQ9KuNa3KX3UmjPNqUvwAInwRSAcaU0PCOg2aTaLnsCiuIZl6h700BIQgYEdACpcY8MAUeAYPKehy+2kbg/+8z6LZX1AxaOc5QsBpA+4czmNQ92Rv6Rx1GKcZvn4F/D/cLIY4k0RKnrLIHAna89cwc0HSEyAz7YDuIRZNFmT40yUE0SJryUDUa1d9xShdJ3Im1Ppg6XtAJlkPGRICJZlcvNZ1SVcUIUimpVHXEolm4Gz7M4dPS+kgT7o8FKGPfW/i1Tua6p/d3t5g7K7pIK1bGROq7V5c8do36P5bnSg1AVMJexTPUdlEIBkUIqMa1Ac0LFeajLAvQjSLJb87ZZIQueAjpzG80NPLsKiMITrDovh3jcNiNnUaVM4Q5bAobVxJA7MjGEJQAHpdca0Y0ljIa/ZyBq8soSaFQs6BEX0Tk8OFR/EYf0RhSUJo42sIbXhOHCLJg0AyJiYkA+oGyhCVAmgHtCInIwPqQaYZXiJCoHfgR5oDYnFKph1Qn0h0OmZIBkQs5HdfyoQgRe2A1LbUqi7O5GyxVIKxVl3NDJ4+NZUVlDJBGDbnzvXL637rwyeNq0il29K4p7PNCxcH3P7fj9SJEes0yF/YotZAnjH1q1+rd1L+qGYLDPsriM78EVkEwxorEgIp5UlQmo+dxuiwxwgtgspONKGXasyAssC07cuyaBvROiySW7XJnVTZpTZSqdMgvUQY1Ad5NPE8Ko4/CQf//T8FWygkSmHyRywWrU95ixRMVtpx5ggM6yvgr2cWNsoh8OPd4OsWioNwl5FaC5o1l83yS/psdtqBuAeRvP/j/x7uN/og0yUDmoYSRXgkJwsJT8/EiygLQpDQd0DNxKvpPlPtQNQIRKIZo6VhwLgOXM8Onn5AKrsm6RIijQx766/VHMvWfE/NCxGYkqqN3Rw+nLZwPY77PJzm2mcm9kSpGkOsqUE6CtUrXJRR82fZF0G7w6JOeDdI/gV9kiD/VW4vHS2CZmcrrpWyqOI/0iwJLWodYocbHnqUFqGNF7A7JMDRYz8MfvIFmByOVNZwzu8hpoR757BYV5vS9sh5/7TB/CJwQCcB943m4SqQX4LAtSGw7M8Q2raISci8TjazsMwEyzWbUMNEX6Xa7Z1MO6D/VRs516n6Doj96ow3mXYgJd+BqHdWzGpMoHTKRjugjCmZuSCudkA+L/TnITwKoawf2DJTNdPvxV3JdlpKb8Bj37ljWH2wdeGG5tpk7e1zv5dbnHCabbjrgQ9hDhLXfkH8uneaJHIgAhy1kpUDXPpNNsMrTE/NXRAZ9igdtGHlI7ndzWhJgtbdUDmXNexDiEwLrcql7hhtHsiww2KE+NERCjFaBGlAyrgkZ0utFoF4kIdZrSIDuY1ECOwg2YasNgx+YhrK9u9TkLVU0wj8fY4JO0u3inlBcC32Trt4BfxjNI/OnsJIyrdsROC7PwN8QAx7JCQh4ZX0zZ1AO6D31arpLKmjYY58B+TzLLfOhKmwkGhgjdIO6FTojM6GmcjAldRcEIcQJNKyiG9kWzcwZucwZvCMxclWe9JlRhoY9u7Eaasatl3RxtPAbz1Aezgq0HfzHlz48hJVN+CTHRbVIzKGJKjf+eIZKqYJivBH0CQpiqK92kkjeRKIJkHPYVGbF0Gt3qjNfaR9E6gf+1otgnzgx9MikJ8Vc0o6YY+aLhSSsCvIo50X0Oe6W9BlzHnJ1q0hv5MiS/fNNaE+5TQihohBGy0QAuVlwL2jCpcvgdv6NoLrpoijt1tJiehITWM8WLLRDmg/AJKdrTHmgKh3WkrmAs07Lno82foOGK0dEOVNEF0QQ6wy8B1QSVMUOPrmAummtM0ujA0o23+aadD0K5NttaQE4ZBZk6weW1vD8j0bC6PvTTaCIvjdwVpRaXPh+me/RIVcp4HkPiEkQS2HpDoshgWOcEaK0sZHmAmido4yaeTP5N9TIQlKhsXIyAp5dWm0CCqhkdtWEzTFIwmKFkFUA2RWp6GFB+pCPCqHnYiDJ/1fQWZ09Q4G/5zHoolGKhQE/2Lp1G0H/jaCR/+uib7tjJM2sPIe8HVfixs7xh9B7TaBdkD+KRM1tXbvp2suiD5I1OcNJATS6ZhkLpL9nsonfHxmFvlLioRA0bAmJAPyj0nNBdFEImq8EUeH9t6yA9sYU6uPGfBGwq/+ZPDh2HcnHtDOBdeu2rvVuF1RAi2TsEdfaxA3PP4pTHIWHTdLnAlllqdD9RTmr10w2glRvq7FFnS1CBJFIPeJyZTE1I6xUxqdYVEJlAjvr0h2opcbQSt+RF4E8kMaDotqaKWsReAEoCbIwVxRhUOffRkWry/vq4GEMf5rPotWqiDLO/bF2GGZFbhrRGHCIIVgAwLf/glCYI+YqVXMj6D9RIw6MZKaA+J4tEefrTkhBAnIgM4rLGbqlQ+eJK748ZdMstMsGedLRzsQdbpnNw96zoTyuZHgwNc5UiJCCOLBIeLs6I2A2dHPPmDaukR7MBmkhCCM39JSN6vW31iMe7loZFLqNIyf8wP6/7RNJbflJuLKqEMt1RQAknkgWisQcXhrf9SsClE/oUmsFI8k6IU9KiRBJSExWgTpBA//37AqS3wmR3Uadsumhf73P4jyY47P+3wScvDP+SzaKDnIO/bF3CEpy/y3kYUhCdzuxQiu+psID4locDs0r+kEb+xUnQmjzjbpXWWQuUD78aOd7/D3TjKVR4JVkuj0yoIMqC9vPYGjlK560qXqO6A/D5Etpmp2iSZ8SisxOCsnjdkH3tLlfPPgaW9kRRCOm3Pn+8vrNp7FRZQfKuatXTjZOlncKGPN+OtDH8MWlDIskrwF2v2tFCxSJlTxHYhPEOQ75S9ueTeL0yw9E672SP7LxbJqdIMWiaRahCh/hJS0CNpVmcRhUQrZjNRUkKiFuiCPzmedjQNulV6I+byIWYEUXKI1FfKJesfpi2gSSKGngwtgbgiufgBczQciWIQgWKVc6xGX9vBNZv+PPoyi96L297hfnoqGIM5ppGoA4vwuCa95B8S1gyRYI4k+ixMurch3T+S7UVbQatvWftNpxI6LcxyeI31MRQIS9S0Wo/SN+F1nvBE4xx2zMt54gInhju8zA14YkQi2hBoEUr3RxLU0rqjfHFVOpONs8nxKKmZYdPhw7PItOPODVapWoNxE0i5L0y6tFY2nv2bTaEkCG71KorQIUrZE5QovGfJXQkqUEEjljkTJk8LLN3ITRcZFSL9FRFtqkyeFGYvocamXYVGNahA1agJ2BniYKqowZOqrMLvz6z5OHBLvedeEpvZ8rhDaV0dDwG0D7h9bAMfFYCP8314RNjW4iSYyrLhLRghif9eoKeVJiDmotJMjZmGNSg0fNXnJflcJgfbjRm8BJDqFMiIE4XeVrulE0d4qmv1oMpAMZ41MEV/46us48s0cfgfL/xY1pmTEKjkhSEYGdCaO/MnRl2OCdk+i6o4JCcJxc+4YsDfQ/tOapp0dbV8XTF6P2QGPxYEJT34B717JHZ6Qf+KPoDgSMKzu0atShTDr1LoUhMMepS8HeRPItIMYA5Sy0oQ5kGRKiUiCYiJQFoDaZoypQd3mssFBY2rQmhnIbWk4LNZzPJo5Hofc9yAqhp2Q1/mqbQRun02jFfIKegfujEQ3/Hccl/cQSG73QoRW3SO9QyzEaTEy9DHOB6+KdNrFjMiTipZA5xBTD7o4p4Z0kOlEX2nnPuGJk8TpMKHZIJYARXSr94WvJQZxNACaV638po1cyOpnmtxWDDFLgGN02xr41bNAb9uIjuPSCzv1XaXHKG3dwVgcA5kBL62K11DCHo5/545L1zbveqk+2JK6IPROsU7D/jXNuOzFRVDKOntIimRRLRDWHqgbTv4XMfuhTBfFf6SgRVCXCdEoRC14XZIgrqzY5Enh5RZfiyA/qWoRJCITtTGT1GkgMpIshTtCPCqOOwn98xy1QJIg3foGi5206BLdqWkgQPIkPDSehyvPpeoCP5GohoXiUeBxMrCYI4uzhd8hkfswJQ1DHDIQc1DpnBJanWWEA5UsUErahUSnT0IykDjcUDl4I5qI+tRPpNRI1YdAF+M0iZWuBkKzLiPT3mdICOI9ZnKBcXS7hBnw4isZEYRj5twxf3ndpuH6mZ3T2F372K021oJONjcue20Zem3cLY7exABeU9gsEO0wyypZBzVqPZUkaNmiZmUrXwhKHTg1JFEptMgwsiYhPAGJTA3xtQiEsUo6x2R1GqK1CEq1R+0aJY6JAasdQ6f9D7bOXfK2Oggxuf1NFut2pbHR8iYd7ajYEehXLeC/4/KblpmUhPYv+yPA+8Wqj+VuSYuQSDsQ/W2pHkIpEIJ4jvzqt0qC01N8XyXaWgUiBAkPfI1M+uaIfEcYyJrhhEBG7ZRkbFB7e/QcOA6czw56cWTaBGH/F/9or/JVNf7YsMVS7Bu3GOWrtnngCwi46fHPYA1yooikToNd1hJGnPlR5ED5TSIIkV/00tshXKeBUSsnkT9LDovKLdIaY1HGSOWowy8ORUUlQMgyw2IiLQIjZn8iSoawTH5BQG2QR99rbka3cy/I69Q98AGLhbS2Ql4xL7XOSO2GO84iCzt/F7d1NkIbnhI7tNsYlGkTKOkomsXzQvmED5eDUQWO+GqNc2hLh33S0zMxCJkSgiSHo25IYZT2NJ4CIlXtgAJhxNmaQDsgkbZIOFLXDqTxwaLPYuLPQ4KmxTB7R58gY/e6mX6P62aAifv4Ce/cecjuUOuq9dT/IKM3gQksuji8GLngVxy59De1DZ+Z+ApIZ3z42NQe3pp/165m7UypGZTDbFNRLJD1o7VUSiGUrBhJESYJ4RTMkmIgKg1zVESDRCw0qosoM0kMSSDNK/JGOSySnAem6q4Y+sJMsNb86Wvf+E6qykgvikC2CFxyDI/zhibTgWfbi+Z5PiBqEQR/jbiviBZBdGmSL5UQxPmCT0YIUtEOJDV3Z0oG9E7WiFNZ/R6KGrD8npT7zZYQxHyEp0kGogmFHhxh7WsWhCDZo4l+12NWJO0y6zmEGfT8L3orNm5zx71757nrm2pm76H+Bxnv9AqLE2UmK2554nO4ZXd5UumRRBmQg1kEP4p2KhMSEYak7mCFPMQ6LCofDIoWQW1H1iKQ0AKtT4LW1JCKw6JKEOS8C9GmhkTJk8R1yQCtHLCH4zHogcfhG3Jkxrim++DKbQz+/i4t2ZwubvR+fQSIufAfY3gM7J4/ksDVf4fQyttFxYDFDHhkh8WEX606b3eNYiGsIUj3q1T6Yoh/JYMlgYYg5gyL+gxXutUVOanCIzNzgZ64qWoHpFd8LFjKPMSAmKzhKPKUeI/GnyQVZ+KHYO95LnPI1LfTIgjHvjtx2vI9G68gSmt6ZY5AN3s5hvxagzFvfS99gwskBTOJMFAO+0iSIGkWNBMbvSNEbiB98StfDoo6UNFKaJMnSQs0vBwVkhDhiyDKpVPMKSpvQaQWIdJjOUaLQPpVPtiJFoGRHBOdA4dg8MNPZw5omk82tgN/ecWEFppCOU3k6O2JEHDagGcu5uDJYwXIwIqbITT+KIrldTEwmyIdFhMdZFmZC5J9tSY4IrKpbpjIHKD9ttLnN2HVQrpkIl1TgaQ9kPrTIwPS75r3vbKwYtQWCVZckjkQcU44D/E8CRkIZX2nmQbo12XQ71YQmMPfvm3nT3u3VNPXRHYIuEx2+KxluOqlxei2tUFsjJADr1ynQVxUUQtLXmrhjrUkQXVWlv6FLArt89Kt2uRJpIKi0ovUpC5JiDI1qNqNGO2FrPTQcViMkVsT9tjMCWjgBRz+3Ktw9u6bHagpPk2wue41Ftsakr3hUmyQ3kYR0CDQzSvgqYv4xI55OUSMb/kNge+k+jqk4qNPdljUdlHM5oJc+A5oD1vtuLXhhtmaC1L5iJfuIR9VabxbckgIwl+IsQtMF2fNbeKHqvYx+/41zMBXuhKOEd2a7uiOnn17j1YEtvzauCOHy3vfbaqzzYvue/24+pmvYOJ5cRbcJgY2tbRzPFODVs0QSUOVA1zUDcjTqixWhSREbKAokuAkGRflRS6FLidxWFRFCS8v6d8U5ixrHeOEPe4I8Kg87SwcNHFS3hbC1K8YvPcj9TvIG+D7YEdnD+Zx1Qn507IGV/8b/K4FItJuOewxkXZA0i4mmJhEvyUZVjFoB/QIQyZmFwUhPTjCpEv/XZK1dkDiGhlOkjS/8aYqWgGtdqKeGQBsPQCbtQdz0AypRkAUmYgR7Ng5d560tXn35zW0/kJOXnkWxozOdg/GzfkBA1duV45llJulOg3q2tCs7GRaBEkwjVlAQxL0CIJ4t2yeUN4YoiZBTWwSJzdCAodFhSBEcQ8p8kIZFPE94AXU88CRL82GvWu3nGCarBESXXrzLBPkulnJbqe/UwQyQoA4Cz5yAYf9KzN6PO2HhLYdCHx3qUjNSd9K2KPaULIPWoMIga45QHNqJYwe0MgU11wg/2C0diBCe6CJEIueqLDRVv4ll9qBJB6haRMCWVjt1EeIa/aBsXc6men/4hcpEYTj5tw5YcWezY8EBameAL2yR6DS4oKbMePWRz+FvT0oLgES9uiICHuMtvLH1i/QGrNUEiF/1CtahbCmKHIZiwRB3KnhpVImmjw0tgAxLCr8u9JmZL/hDpUoiDABiU2etJPjUT1qHA644bbsgUyhBZLv4JJpJlpjIQWs6C3ZI+C0Ai//iYNoNczDFVo7BdzOOWJPrjIGNqVkbEpvd81NiTQESVTnicwF+fIdICOJPNBjwU9mLog0ySRjVwmwy1BLk7nvgCRLWJ8bK1tiUhYWWGDMJNxxgumQaY+ltISOeue2eaBdwI0AACAASURBVCvqNycs4pCHfVBSXYh1Guw+nPDNJpz+iRRRQhZnBanToKrvYx0WI3RPsiopbFKQl4hGj0QcEiOcHDUoSgSB/CHyTVYGBmZZCMXUoM2YKlEKmXaoskYuzYgUq0r+BgYgBZn2CMBRr7wDW3XnvMzpvXNYrNiSxmbPi1S0k1JG4LCeAu4bnZ/8CIK/FoFlF4W1CB7tV0YclJNZQdIlBLnUDsgvQ92P8KhtnCohiLf7k5kLdNFLRzugnNrxFnuCz/9UfAeiSZHajSbfha4WRjO/uloYe+/5zIAZMQmTYnEUBObQt25t+aVxm6OUN3QhxqbUabh+6teoqm0SRSB1GjwmkgsxPG3Rtj3lcI5Q5UeojaTYw7BuIFqZpCkprTai6h9EORxq7YZYU4OeFkHZB+K608uwKGsidoZ4dBp5DvpNuCMvkG+qA26aaaKxN3lBm3aiIEC2wZTfc9gvT6aG4NpHwde+J3YvahGiqz0mIASp+A7EHEQ5IAT5rluQzFyQku9A0gM/2R6I/6GSiqkg3jxo+VxGhEARWy7KBft+rcyAV13Rjoox0h//3sQ+ta1N6ze2SCmC6ZVbBLrafDh4615c+MoS0bmQTK6XZWCNzm6k6ZbcI6VT1lgHNKtbTLwU5agSoUUgFoSYDa62qKqpFJIQ12ExQdijxBPCPhHkv0M8sJMTcPSr7+QlpTIZ4vnPmBCQElfSiyKQVwSsJmDWX7ikOYVyIRRJmhT4lmgRJH1guaJF0Gk8ESHIxndAfB3JryXdQ0pBQjmENLIlciTUtqsdTurmgvi2nqx8B5KQhWzMBRolcHjIKZMyjblAd/7lPyaaB0s1YC3vwxz8fDirn57v5LC5E8/csLf2Q5ogKRfbOLYNh8mKSqsLF765HAf+KmVGEzc4yb6ivTRUTs6+Hv5Va1JgtcmVtbdIjoLahaftgY3yRVBKMZNU0CQMU/UtiI60iKLdUk4G/ToNtSEe7qNPxMB/PmgMmFGtTvmUwYJf8mQIzsuIaCcdDYHTDxFwwyn5MTUEV90Dvn6xCJGSF0H8jwTmglR8B0gT+l+lumeX+kfxo0R+UFeNrZnMdH4vmLkgmZUyS3NBDMbyH3KuHUiFmJGESdbuZzKHPP9xxDEUvQFPmDPx5mV1mx7mkZ9F3tFeALmQt5PVjcqAIDossnJ2CydD6jRI3+HiOiHVGaM6i8iuKLI7ZUXFSdsc4WwY5s6iKUJratAyVUiOkyJfSVKnIdyG1ICiRVDeUduDPI6YMRuObj1yAVvCNohj4rinqWnBcKBpBwkRIHvgzWs4mPPAU4W27Qguv0x8C7CMgHKPKUa2mDMs1a9SZUPHIwsa7YAeoUikIdDjL7rqfh1Coa09ox1sSuaCpAd+/KnNuXZA6SoL34EYLhilIUiEs2Z6ZUkYwNFvAhPlqBgD2dB3/jprZf2W8fQ9YBwCZrFOgw+/+3wNhi1arx6u5VHJk7RfApEeA4KYpVA88iOKsWjMECobDRMNyVQRviSfBRJoGZlaiWwGsXaDkudAG7WofeOo3cmOCPJIyH818DyC1d1xzMtvJYnxzR5nIv+l00wgWRPpRREoNAIku+KMP+XH1BBYdgmEwE5xyBVeqUZDxJdpqoRAcxIYbS5IZipQCIfk+JzsVNdhEcqfEj2atNn4N2TkTFhI7UCcNAuR88AA9v1nMQNmRFTQi0Fh0Js37fi1aWf+avAWejcXqH+fxQkPa8GtT34BV1O7uKlJ4iQXqekqb3FyUEceveGZlj/ww74FURkWSROSkiBMLbR1GsLZlyWaoL2UVM52RhDzJET7FkQ4PCi5FeQOFdPEtiCPoU9Ph+vA/oYjvL4WuOWN2K8nwzumHVAE4iDwyPkc+nQyHh6+eS2CP14rdkSyK3qdSjloqW+9w17zWtA3JSifLBmYC9L7ao2UMToEW0Evxm9A+0MqZEAccPy5MEQ7EEUI9E02YaGSmXQkR/DwlRXO8cCw9djBDHwtIlFNBGxDZt3ZqQVNtRtbdhm/svfxHgjwXe0+HL66BmPfXqGi4WMZUb2vToy6EiJTJisWAlWLoG6CyDoN5M+Sv4FsAiBta6xH0k+x+lAtSSCVKbULMkKboaNFCApADQec+P6XYC1WQ2eamBYueM4EuaK2oX3RxikCqSJgMQGvX52H3Ah8EP4lI1VzI9EiRF9JbdoJfAe0ZEKPcCQ0JcQBSzUHJEhEFPNo9AmajXYgke+AnMYl3jwr3eprWcJPpUsIInBM06lTD4oY7UCyAZHfrZ2B9vJOzBHPqREKEW0PmzPxyN+adn1TF2hOdR/Q+7JAwGWyodzixOWvfYP9SHyeUqdBq0VQlAARM6U5osOVm7WsQs2gIeoHNASBFG/QujVG+CLIY1Fbl1Mw20FIS9jpUdVMRBn+pL6AmiCP/f5yC3qc9/ss0Ent0c9WM3h0QR4MvqmJQ++iCKgI3Hw6j5MPivcNnzuguG1vIbRJKoBWZif/k/ZDMlNBugd+NFmIfj7RQZVIOyC2Gw1HjghBNtoBRa4YHI3WDugAkswsE34V6zOnMClLsO5MbpJ2+Ujm4Ge/Ve6KJAjv3vX7lQ2b/ufnaQbF3G3fxC1V2zzoVdeGq5/7Wv1KJ8GopCy0qNxXTt2oZhTPAoUMq2GMyhe9QknVxSwZJyWThaS0UyY/WosQXhQKKRBgAwOLpgh9BEnQmjcgYGuQx3FvfwyLx2sojIEQ8PupJhAtAr0oAsWGAHEpmnkVB6tU9MSwSwg1IrhsnLSrGaBCE/KYThGjmANf56xJ+aAySjugyyY00GYZWaBLrLIkBOlqB9IiXgltJ2kuOcYMlPX5PXPQ86/rEoQj3rntXz/Wb74rzWbp7VkgYGXNICRh1Ic/Y+h3m8SWCP+vEOtBSytTPYwj+pG2frSpIZyqICrGUZNCWWlZu/8VkhD5TggTBCIKibIwa1a7+FUQpUVo44HgAQdj6FMvJjb8ZYGZ8ui8Hxk89xXVHuQAStqEQQhcfQKPkYON1iIICPx4PYSWNSLt97kljV/MR3jUgR9z2Cf7PQqjSJt47D402ndAejnGr1SUyJkwrqlAFloLRS7NBdn4DkhnQSxrS0k7kOr6tvX+FzPgpbt1CcKgNya892vzjph0i6m2Te/LDIEKixNVIRY3P/EZLIGQuAQcLCPWalDrJeqsrERaBK2ZQI1Y1YROah0WlX1GIhpir8iCUFKeBK2JI5Ik7AiRks6vwNWnX2ZgpPhUexC48HmqPUgRLnpbgRAg4Y6vXsnBbjFWAL51A4Ir/iJ2IjoruiL9hpKRBfJcttqBqG8FacDpmArUryF9rLIxF8QlBFGfMemSAeXdqYw1Gc7JMNZCFi9lfk4JQTTU9h7vMYe8NkqXIBz8xo3bNzTXdDV2KdPWoxEgNR27Orw4ZvkWjPjgJ/FnsqBJ8iSFF0RrETRHdKwWQfFbkKsqiqRYa2pQcxZI/Si6CD12K1WMVJaqVBLazgoRJEFbp4GYF056/2uwVmOdEz/5hcHjn1LtAd1NxY/AjafyOK2/wVoEPoDA0rNVMKKdFTN3JtR8IKSSIzIdQqBvLtdMaPwbEmkHlPdnJr4D0oEf7jfhgZ9DZ8J4ZEAFIylWOdoHti7bmQGzuscQhMPenuBr9Pvrt7btyVFPtJl0EHCb7ahk7bjmhYWo2hVZp0HVIsiLN5KFar/m5R4VMqBQDdmmEEsyFF+E8EEb+SJRdRSyLUOq00BYCwmBJGpMrS9CCy/Adtpw9J84KZ2hp32vPyRVayT/pBdFoNgRsJmlao/kn0ZewbX/Bb97gfhR4XYysIpmSulK9uUa/l0hBCmcSOmQAeXUTghAgj5T+CkTQhBdZC4dQpCNuaBoCEH0fJirAGeVj+n73N6IKTt+7h2Hrtu7awVNsWzkFo7fNlkwnW1eHLylAReTOg3yhvCaGLGgU5hJxngJhC1TSrVHxWlPzlGgsm0dLYKkPwi3GV70mr9pcjZLlk3pJWKDhiSAAcmceMys92CrqjYUxO83A5Pm0rwHhoJMG88pApNGcRiyX06bjGlMCOxGcPmFUmZFFih3h+utRN8cVlMr+zzHhCBZc6moAOLApWsuyIHvgHggahrP1lyg9yEXdwUkw8vYpRNu3eQC2G6HMoOe/zGCIAybc8eYlfXb3vHzwXyJQvuJQsDOWlFlc+EPb3+Pg3/ZIR7cxA1BqtOgWW5aHwCxDa3BQb5TdkpU152mCclkECYGUuBjNEnQEgS5DzGxWWS1R0ISRJ8EhsGWAI9TPl4MxmTc4c0JwFUvmVDXQpcPRaDjIFDpBKZexkkpzI26BA6BpcPV1kk0Q4QfsXr6pShEOhqCRF/4xGEygYUlFa6QkXYggakgggyQ/8iDucBQ34FcrSkSyeDqN5rp9+zcCIJwzDu337i8ftNjueqHtpMZAlVWN7o1h3DjU1+odRrKWOK0qGlPp06DWDdBTfLB6GRYDDseSEmQFFKhMAd5h0eELEaOQUy4JN5GdlPYNmkDwBGicMYoHHzbPZkNPMWnttYD171mHAFJUQx6G0UgbQSevJBDj/K0H0vrgdC6h8Dt/lB8xuNkYRXVjykQgnTIQMTJoSNeosiCFBIRxeUSWdQtiA41lN9iqvCGmQtSgD6tCc7HzY6+NzD9X3wiYpoHzr7pqTWNO6/JR/+0j/gIWBgTOtu9OGXRepzy+RrxRrLGwmGPit1fbkPeTUryI1GpqJgaIuo0aAo0adIwK8mcJX9GHa2BJpRSMS2IZgbx/yskQcBejsexb3wAa0WVodP73w9YLFrfEXedobDQxjsAAsP6CrjjLGOTdgiBPQh+/wcRDWJm8LlN+vQgHUKQdLvFvyEV7UD0Ya3WoNM0q0caMnUmFJuNEjl1Hw39UMMw0+gACzGZiNYeTzIDX7s+AqYDZ13/8caWXacne5b+bjwCXnMZOglmTHj6S5S1+MUOxToNsn5SXeAqOZCmUuNSSD7wY7QIqkNOjC+CdLPisqiMUG1Rs5nCTj2SFkGkCQywPchh+CffGGpe2NsGXPoC1R4YvwJpD0YhMOMKDl6HUa2T7cjB/80I9fyr8OgQhGQHfqLfk5z4GeUekOHQmP9jAEpEBsS3n+bhZL4D0YREb7iqOSCZ9iUZlgZOtWFNW6s/Yga++bsIgtD39Wu3bGmtM74ur2GjKp2GiRagi92HwWt3Yfwb36mL32dmQI5HbdZEaSFrzQWxyZMUQiGZFsI+CtLGUpIhRZkaxBoOsVRbIQhSjyTsUWrPf/BgHPv484ZOwpdrGDz0MQ1tNBRk2rihCNx6Bo8TD0xgkM9B76FVN4Nv/lncmD4XC5MmmiH25E3WYXLtgPLmiG5J+0ZJRWER8RWvo/PXteFrHkpm45f9GJMMOMGJX4pkQA8NS9UWZtBbokutOOQD5t9gC+wNtO5sb6Bv32T7JU+/l5lsqLKU4eqXl6Db1gaxV6JA8JH/E6a3otZA85+RDotRdRoUGhHOthim3qqpIUIXoTFLaMYtkQTSq8QOWnkBA596Gd6DjKvcyAvAn2eYUEvLhORpBdJujECgsxt45hJOJt9G9ADwzWsQWnWD2LjVArjLdLRuCQ+7xIekHiGI/ryIIASKSVPzvaHr4R/HpKD+WdNx5DtP380iOSFI8cRP8TZjZrMArZrLeZisDmbAGwFx6Ee+N7HPpoaa9Q3B1gJIQ7uMhwAJe+xR14Zrn/tKVXS5WQbWKIdF5fnwOpZTH2l8EcR7FMJAnBy1u1zHYVFpS/opdodIf5c8H2pCwO8WfJNe7fY0p317A3DNq9S8kCZs9PYiRODpizh08xkpmIDA0hEASaHKAJXeJPtGxy6gvh7iHI7aP8doB3RO5lQJQQQZUCDSRBjEeR3J5tH4mEabT+Peua+RAT0gTE7A1r0Pc/Dzv4lwHD/3juN/3LPtq3Ya4mjkrk27bStjRrXdg7Ef/ozDv90kxTeTYiykCozGkyea0SvRz8pmEjeHvGnJ3xSzgiiQRi8n/iZrJLT7JJIkKEaNsHqi1mTD797/Ou3xpfPA28sZTF9MFVzpYEbvLU4E/jiMxzlDjDUzBL4dA/DtIgDlHpNGY5H4BEzFqTBGctXpWcJbb2Qp+xCQ56MaMCzCQP/bpzgXTT6lYiyAY//jmYOnLRRXy7FvT/zD8oaNr0luavQqJgRInYbqAIObH/8MZo4Xv9jtDAMn+SjQMbpJh7y08iMIgiYaQfldiouUR6vmRpC2uDYzgh5BCPcgwDpqPAbceLthsJHcB1e8aEJDm2Fd0IYpAnlDoLwMeOGPxpoZuE3Pgqt5S9z17jIGVosOuU7ytRz94aECpPnYyIQQRIccxmggouSK1D7oT1PY5JBgUFQ7kPoadx4oVnUUIRs8e8KE1Y07Hkn9aXpnvhAwMSy62L046scdGPXeD2q3RIugrdemZegqAdCGKGqiGtQDX9kw4heAlOxIIdXRWkKGIeFZmpTM8p1+gcehr8yBo0s3wyChuQ8Mg5Y2XCAEjM6JIGZVXHGxODqpeJMpUeHDiH0fAYl88iqHerxPyIxDDnUO7WSEIBkZ0PluKtAsd+BuLT0mMINee0ycngNfv/bhja11N3fg4ZS06C6zHZ0YOyY88yXcjdJntAUMPHKGxbh+AkoZprBaQdIYaJMhaUhCZGEm9VbJlimbJqKdIusZFqd+tNRQ/N//icEzX1DzgqEg08bzisA1J/E4a6CxGtvgsrMhCFLBkgqvRBCUK2LbK3+M0gyQP2dlLshhdkLpw0VfBUAJgQFL19zpYWbw7FtFxPvOvGbWlrY94w3ohjaZAwTIxuhq96JXTTOunLZQ3ejlZlIHUvEJkLaQ9gUQzpYo/aT6Isi3RhQqUb8UtFoCPsL5R3rBROZ332V14Mx5X+ZglPGbuOl/LDbuofpBQ0GmjecVgd6VwKO/5wztM/jdeRA4KexHzIcQzbGzNBVIHw2aIeSAECikpGiLGRk6Y0XUuKVyFjPo7QvE6d3vf3/+amd7w/FFJB4VJQoBxWHxT//7Fr1+2yVSAfI/QhIUnq8kNhL3fVTKZMUfITJEUmUKUm8iSVDKO5P/UJInhYWRciNIbxrxjmNOwtD7Jxs2X3tagMun0+gFwwCmDRcMgRf/yKHCaVz33IbJ4HZ/InbgdbEwK4nW5EM9Xe2A+g5RRI4iBIY5E9JvA+MWSbyWTb6vmUPnnCBC3/21qzbu8jf2yr8UtMd0EKi2elDZzuO2xxaougKXJuxRJA1Ru1SbXTFaixC+VWYTmhTM4RLTYYdFkRZoCAIxPOz3r8fQ6ahh6QwjrXu/38xg0lxqXkgLNHpzh0Bg0mgeQ3oaZ2YQmn9B6GfJcmyzMHA6Y/dRpr4D4qsgTWfCSN8C6kxY1IvU5N3IHDq3tzhLXV/9U3tdoJnU3KFXESNAHBa72n04Y+F6nPiFVKeBXBWyFkHRKpBNH3bkUU91NapBfCiuL4JsstDsflEbodndiqmBJIE+5qNlKdWCyRTW575kMW8l/YTIFD/6XPEicPZgHledYBxBICMPLBsppl8mdRkqvGYVDH3tgfxzCqYC5RWiNKi3Q6kzYfGuvaSSmVztzKHzHczQWXd4N/lrGhpDNIYsKWhFcAOp01DJWDDx4QWwhCQbpo1l4GI153SMFkEiCREqQg2DUGMXCAtQfRHCEQ2EbkQWhCZfDyxarDYcP8+4/AdElCums9jTQglCESw9KkKOEah0Cpj2Ryl02agruPw8gGsVt3WFVyr/LL4N0vQdyAUhkDo2aqS03ZwiwDoAZ5WXOfbdiQf8vHfb2jYukNP2aWPGIEBcBLs6fDhwcz0ufXmpuuGIFkHRG0hEIHzAy6+E8P6McVhUakGGTQ1SE2FXIaltjRMkA9SX+XDquwuMGSiAXU3AlTOo/4FhANOGC47AtMs4VLmMEyO08i/g2zeLrwOfh4WSYy1C3a9zaKcaaqj59IgYBI0sMG5O89IyYwXM3Q9gjnnnzqN/qN+0hIOxHrV5GdQ+0omdtaCT1Y07nvwMzkYpWxo5Rn1aU4Oex5CSQimCIEiOB2EtgkwnNJoE5f2hUATy3yTbGTf0OBz5wBTDUF+xhcG9c6j/gWEA04YLjsB9o3kcZqAfAr/5CYRq5ovj9LoYmM1Kifbw0JORAXJnMnOBco/ua6fgKFMB0keAAWwHHM0c8fatw39s2CqtIHp1GAS62X1wtYdw58ML1A97UsiJOCorvggxXkRhGiCHPQoJS0LHaiIkiqBYIion/A29Rp1rGGZvfMvglaWUIBgGMG244AhcfAyP8UON80MQGhYhtO5f4hFfZmPgcGjTq+lr/JORAVWXSM0FBV8/hgpQ1mc4c8jr11+8rnXXy4Z2RBvPOQIsw6CbvRyXvrMC/X7eIbZP9mtlRNhjpLFRPt7VIksRqZbV0Ej9ktAi6SAuCrLDIolgOOS1eXB07pLzsSkN3v0ui5Vb6VvIMIBpwwVH4NAeAv4xRkpEZsgV3IPAj5eJjooWklHRHUu4UyEE4vuFbkVDpqhoG7V1vZjpO/Pa67e01T1etEJSweIiUGV1w8mYMen/PlC9A5wmBnbisKgxAkZ+n0juhorDokgaNMVWIkwNWjODWrJVclgUTGYMNTCDIjFhjHuGBcfTtxLdAqWLAOHzb/6FM/TwDS4fB/DECZ1HhS8cyZAwGRHddqW76FIdmbnyeqbX/66+a0f7XqKDolcHQ4Bs8O6Ochy7agdGvrtClJ6c6USLEKFIFKm/HL6o6hpkU0ScktBKqKRINAg50Do9MkDIXoYj3/vKMMRqGoGrX6YOioYBTBsuGgSeu4RDZ49x4oRW/gmCX9IyRqdcVt4ZVDtgHP4dtmWL7y6mx6tXPVgbaPxrhx3EPi64y2SHz1qG+/7vA5h4iQRYAHg0pga90CJCIfTCHrXJk1ReoeOw6PdW4Ji3PjYMfWJaICYGelEESh2Bf43lMbC7cX4I3K+3gm/6RQp1JKWfKe8u9SWVm/GxrgeYzi//aWp9qPnK3LRIWykEAj0cFahqasNNUz5XVZVeEwuTWIFRdkTSJj7SFD6JNjWI96uJkfQyLJIbWPg7VePY/80zbLif/MLg8U8pQTAMYNpw0SBw46k8TutvHEHg198PrmGxOF6fm4VJTrlcNABQQYoTAZNzKtP5lctfrw+2nl+cElKpUkHADBO6OLyYMG0hqohuXvQSiKrToMlpoJKGqKgG8e+KtkChFtoYR6J1YOViTUcOw5D/PJaKeBnd88JCBu+uoAQhI/DoQx0KgbGH8bj8OAMJwtZnwdXMFX0QPC4WFjN1MOhQC6RQwrKO15mql//4XmOobWShZKD95gaBrjYv7DyDuyd/BBMvaQ5IOWjlXSDVUYh8MUTXaRB/1bynYnIjiAkTpEPbfclV6HfZ1bkRXqcVUn+B1GGgF0Wg1BE4fD8B944yLpKB3/0+uM1PA0IITgcLu43uq1JfUzkZH+t4j6mccemnTZz/lJw0SBspGAKKw+LoT1fjqCUbVDmiS0Lr1WlQ8yaESzSoz4sRD6zs8qj6IrDoevd/0PXk0w0b75UvsdjVTF9khgFMGy4aBKrdAqZeahxBEJpWILTuXoAPiuSAkAR6UQSSIsDaP2UqZly6rJnzH5H0ZnpD0SPgMzvhNlvxt4c/gd0fFDUGdgYgRdzUozaRL4LOCKXohcgUzESLcOCzr8Hdt58hmHA8CXE0idka6UURKHUEyBab/RdOSoNsxNW+FcFfJgB8q2heIGYGelEEkiLA2r5hfC9fsqo1FDgk6c30hg6BAAl7HLS+Dr+fFa6y6GMZmLRhjqo/QmQkdGRKZfm/otMwy4f2kA+WgLWQeIncX3tagMunU1fr3CNLWyxWBKZfzqG8zCDphBBCKy+HEKwTSYjPQ/eWQUiXVrOsZRXjmXHxhnYu2Lu0RrbvjsbBWlFpc+HWZ79EeX2LCARJjeJlpVwIoj6AkRwNwxnUwnhp0ytL+Q+U3ySmID7HmjD0o28MA3lzHXDDTPoSMwxg2nDRIfD4HzjsV2GcWNxPV4P3bxX3b4WP7i3jkC6hllnLBsbz0sXb2vlgtxIa1j4/lK42H6qaA7j56S/ACrLDIsvAKrOCCBIQVYFV1ClERC6ELQzkNzHVssWGw99fZBjOq7YzuOttqgY1DGDacNEh8J9zeRzS1TibGv/LTeBa14rjrqQEoejmvygFYizbGPdLF+/288HKohSQCpURAiaGRVe7D5e88z0OWr1T0hoIQLlJvyQ06UTyNNA4BWpIQjihklSngSlzYsicLzOSLZWHlm1k8M95lCCkghW9pzQQuGckjyP2N5AgrJkIrulHESy9bIqlgSIdRW4RMO9mXNMvaggIIW9uG6atFRoBUqfBy7O4/fHPYG8PiuI4WalOg0IIyGmvjRNQwxrVGyLtEMrvJo8Hh739mWFD/HINg4c+pgTBMIBpw0WHwF/P5HFCPwMJwtq7wTV+L25oShCKbvqLUyCGbWCc0y9qCQoho9xjinPg+4BURFfQxe7D6cs24dSPf1F9CZSwRzW0MSqqIaIAbFSdBuVWs68Ch87+xDAUP/qZwZOfUYJgGMC04aJD4LpTeJx5iIEEYd3fwe1dLiZLKifplun2Kro1UHQCMWwL43zpQn+Q56xFJxwVKGsEPGYHPBYH/vrUFyhvaBXbs7EM3BqHxdjkSVr1gWx7UPMfSCJZyqsw+M2PspYvXgPv/chg6lf0DWYYwLThokPgqhN4nD3YSIJwL7jG5WLZZ0oQim76i1QgJsA4pv8hyAl8uAZokYpKxcoMga52Lw7a1og/zlgqVngkmgOSYdESjmLUKfSuMTboaBGsFZ0w6I0PMxMohafeXM7g5cWUIKQAFb2lRBC49Fge4w43kCCsnyRpEIQQJQglsmYMHwbDBBnH9As5TuDo29hwtAvTgY21oJPNjav+twy9f9stCkFqtfg0BVuUqIbIsMdIkiDqFcgNXgzS6gAAIABJREFUDGCt7IRBs4wjCK9/y+C1pXRJFmbF0F4LgcBFR/M4/whKEAqBPe0zHgIMRzQIPCfwNKdtCa+SaqsH1W0cJjz9BaxBThypi2Vg02RYFHQKwotpluUSDiI3kN9flk7VGPz6B4Yh9r9vGMxcRgmCYQDThosOgd8fyeMPRxlJEO6TNQhBMVGSYVkbiw5ZKlAWCAiM/cULSGkfShCyQLHYHyVhj13sXoz9ZDWO/majKC6ZcOKwqCRPkv4YXgaK/iDszCglViIkwVpVjUGzKEEo9nmn8nUcBPJCEEgUAx+gBKHjLIvCSipAYKzTLuDAgn6uFXYqDO+93OyEh7Xgtqe+gKepXezPzjIoiwp7VARRiYFSElrji2Cp7ITBBvogUBOD4cuBdlBkCOTFxNC4QiQI1EmxyCa/SMURBHCMddr5QbAMdVIs0knKnVgMutm9OHrVToyd84OqMvKaWJhk24FkTohUJkWXhCbyWCuqMOgN46IYqJNi7madttQxEMiLkyIlCB1jMRSJlIKAIGObdr5fYBka5lgkk2KkGE6TDeVWJ659aTF6bGsQuyLRDO6oDIt6JaHJvaKygQHM5ZUY/ObHholKwxwNg5Y2XKQI5CXMsekHqkEo0vkvRrEEAX6iQWgGyziLUUAqU+4RqLZ50XdXK65+cRFMxPsEhCDIdRqUugwxWgQpDbOSctnkLcehby3IvXByizRRkmHQ0oaLFIHrT+FxhtGJkkiqZWpiKNIVUHxi8TxaGOvz5zfAxNBUy8U3P4ZIZGXMqLZ7cMHcH3Hoym1iHyRvEqnToOewGOOLQMIkPR4c+s7nhshHGqWplg2DljZcpAjkJdVy808iQaCplot0ERSZWDwvNDD258/fxZuYqiKTjYpjIAIVFhc6hVjc+tTnap2GMpaBI6IktKQx0MuNYHa6cOhcWqzJwCmiTe9jCBherGntXeCaf6YEYR9bV9kMl+eFXYzt+fHbBBNLyz1ng2QHe1ap03Da0o04fcFqqUIjAJ+ZhLNI2Rb1S0JLDowmux2HzaflnjvYtFNxixgBw8s9r7kDXMuvIkGg5Z6LeCEUkWhcCNsIQVgvmNg+RSQXFSUPCCh1Gm599itU1jWLPWrrNJD/Js6KWi2CZI5gwJjNGPLhN4ZJubkOuGGmybD2acMUgWJD4PE/cNivwjip+F9vA9eyBowQRIWP7i3jkC6dljlOWM/Ynhu/SrCwh5TOsOhIUkWgi82LwRvrcdHMZaIfAmEDXoaBWdYoiO1okyeJf5e0CEM+XArGbEm1q7Tu29MCXD6dvsTSAo3e3KERmH45h3KDauoKQhDCmongWtbCxITEREn0oggkQyAU4n9i7FPHf8Ob2SOT3Ux/Lz0EHKwVlTYX/jh7OQ5aWyMOkCTE8Iq1YCXvA5E3iOxBupR/O2TabNj3N0bxxPHAuGdMEIzLPFt6k0lH1GERIBx89l84w9IfC+1bIGx6VNQgWEw8PC6aF6/DLpY8Ch4MCd8w9ufGf8pb2FPy2C/tqogQqLK60bM5hJue+RImQQp7dDIM7KJ5QZAUCBFhj9Kp3fe+h+E7/lTDRnLVSyxqm2kGcMMApg0XDQLVbgFTL5X2nhGX0Pg9hB2viATBbuXhdFCCYATOpdZmMCQsICaGuYKFPbvUBkfHkxoCZpjQxeHF8C/W4IRF60UuQF4fFXLYo6o10JzV5F+7Xn4dul58VWqdZHDXpLksvt9MCUIG0NFHOhgCh+8n4N5RxhEEftd8YM8CcM2/wukA7Da6rzrYEimIuP4gP5exPzNuJm8zX1AQCWinRYGA11yGCtaKu6Z8Boc/IMpkYxix4qNkaiCahEiHRe+wU3DA/Y8YJv8LCxm8u4J+6RgGMG24aBAYexiPy48zzp7Gb3kWaF0DrvkX0bxgIU5G9KIIJEGgPcDPZOxPj3uOt5uN+xSk01D0CJCjv5vdh6Grd2L8OytUi0I5y4DV1GlQfiCvMlvnbhj02nzDxrbgFwZTPqUEwTCAacNFg8CNp/I4rb+BBGH9/UCwTjQx+NwsTCZKEIpm8otYkNY2/jnG9sy4BwSb+bYilpOKlgcEykw2VFiduHHGEnTbvkfskXxohB0W5QLQclVHS3kFDn3zU8MkW7mVwd3vUoJgGMC04aJB4F9jeQzsbiBBWPd3ILAbXNtGWsmxaGa9+AVpaeMfYOxPnHcX7zT9q/jFpRIajUBnsU5DC6554WtVi+BhGVi0Toqy1cFU5sKQ9742TKSaRuDql2k4lmEA04aLBoHnLuHQ2WOcOPzauyD4a8D7d9A0y8bBXHItN7VydzFlT5xzXchpfaLkRkcHlDYCSp2G8z5chaHLN6sZFss1KknR4kDyIZgtGPrRsrT7SPUBEuI47hkWHE/VoaliRu/reAiYWeDNv3CRgUI5Hga/5nbwbVshhBpoFsUcY1vKzTW28NcxzinnXBR0W18p5YHSsaWOQLnFiS5BFhMfWyCmXSYXiYoqI1oEQc6LIDssDpr1ESxVnVJvPM0773mXxY9bKUFIEzZ6ewdC4NAeAv4xxrgIBgR3g9/wH3CtG2Fm2uF1U7NdB1oeBRV1d0PwIqZs8tjhoUqbcd5mBR0i7TxdBEg1hq52L45bsRVnf/ATiMaAHNHlZimKQVunoddf/46qEeek20XK97/xLYNXltIXWsqA0Rs7HAKXHMPjvKHG+R8I9Qsh1L4FrmUdymwcHHZKuDvcIimQwDtqg8MZz8Njj/J7rUsFTba8AslDuy0SBFwmOypNdtzx9JdwN7aJUlkZwKPNjcAw8B53sqGhjiu2MLh3DiUIRbIsqBgGIPCP0TwO7WkcQVBDHFvWwOsUYKYhjgbMYuk1SUy8W2tDRzG2B8b2RbllnUCMYfSiCMhagi42Hw7e0oArXlmq2kd9JkZMBytHPsJMIhneMi6SYVcTcOUM6qhIF2XpIjDtMg5VLuPGx5MIBq4FXPNqlHtYiFnU6UURSIJAKCRge217X6ZiykWeVntgL2+hK4eumjACdtaCTlY3rpj9HfqtqRV/IL6KPo0WwWx34LD3FxsGG/muumI6iz0tVC1qGMi04YIhUOkUMO2PvFrfxAhB+LV3Aly7WOq5wmsy1BnSCPlpm4VBwB8Q0FTDe8Q3r/2Z89p4m8leGFFor8WKgFinoSmIW578Qn2xuEyaOg0siyGfLA9XcDJgIM99yWDeSkpeDYCWNllgBEYNFnDlCQY6KALgf/0rhFAjBP9WkSDQiyKQCgJt7Xxb2bCvy0SC4HjmvA2czdQ7lQfpPfsOAmbGhC52L363cD1O/nxNuE6DaI6S7KYHTn4W7qFHGwYKqcdA6jLQiyJQaghMGs1jiIH+B0LLzxC2TgPfvh1WphEuJ91HpbaGjBpPaxu/wXnc130lgvDkuV9xZZbjjeqMtttxEfCYHejMW8Q6DdZgSByIWKdBzI0gwHfSGeg76UHDBrinBbh8Ov3yMQxg2nDBEJj+Rw7lTuO657dOA1p+FiMYPE6O1mAwDuqSa7mplfvKc/zCEyWC8MS41zmn+fySGyUdUNYIsGDQ1e7D4HW7cNGs71RTA6n2yDACTGVOHDZvYdb9JGrgppksNtZRPwRDQaaN5xWB3lUCHr3AYPPC2rsA3i/WYCh3gzoo5nWGO3Zne5u4Wb6TFl4gvnWdU855KOi23tKxh0SlNwoBh8mKarMTN7+4EJ1qmsRuFIdF1mLGEAMzKpK+3v+JwTNfUPWoUfNL280/AteczOOsAcaFN5IRkQyKEDgxgqHCSwh9/sdJe+yYCNQ3cZMrTlp4m0QQHht7U9Bje7RjDoVKbTQCZJFU2zzYb087bnr2K+lFQwo5mUidBmDgzA9gre5imBhb64HrXqNmBsMApg3nHYEnL+TQo9zAboN14Df8G0KoDWxwI7xuun8MRLvkmq7bE7qp6vRFU0SC4HpozAWBCvvMkhslHVDOELAwZnS2e3DhvJUY/ONWtU5DpYlFp/MuQs9r/5qzvqIb4gXg8hdNaJByNtGLItChESB+By9cxsHI3HRCzWwIDYtEB0WnrRE2GsbeoddMvoXfWRu4oOtZS2aJBME9edTxAa/9K5osKd/T0LH6K7e4UB1kcM9jn6ix2yQOxuUkfgiLDB3M298zmL6ImhkMBZk2nhcELh/GY+wQg80LaycCfJD6H+RlRkurkxAnYPv24PG9xixZKOVB+M/IPqhwrOetVA1VWlOd29GwDItudh+O+2ErRs1fqdo0qyxmHP7xtzDSyLm9AbjmVbo+czujtLVCIPD0RRy6+YzsWQD/621ilBHX/CsqfdT5wEi0S63tdr+AhoZg767Dl2yUVs6s8VbHbqGNc4hp8uhFEYiLgNNkR7XJjr898TkcbX7xPhL2eOTUmSjrd7BhyBEzw59fNqFW8pGkF0WgQyLQ2QM8c7Gx5gW0bwK/aQoghGAKrIOb5j/okGulUEI3t3L85u31jgHn/xxQqWXZk+duDpVZehZKKNpvx0CA1HQk1R571zTh2hcWgWGllEk9DzsC/R+bZuggvlzD4KGPKYc1FGTauKEI3HoGjxMPNNi8sOkxoH0zBH8NPPYGmMScJfSiCKSGwN4mbrPvpIW9yN3qynE+cc5HQaf1jNSaoHftywhYicOizYMbXl2C7iTEAAA5tk/7dDkYk3FmgL1twKUvGNf+vjyndOz5QWDGFRy8DgP7Enjwa4h5gdRoWoMKj6GWPwMHQpsuFAJ7GkIfVZ666HcRBMH12NgnAx7btYUSivbbsRCotnpQHhBwzyOfiFoEcp389qewVlQaOpAHPmCxcD39IjIUZNq4IQgc11fA7WcZmxwJob3g1/9Dkr91NXweqnEzZDJLuNG6+uATVactviGSIDwy9oaAzzalhMdNh5ZDBFiGQTd7Oc75dDWOWfqbqIvqPvJcDLj93hz2EtsUzYlgKLy0cQMRMDz3AXFL3DkTwt5lAN8OJ7MJFpKohF4UgTQQ2F4bvKH7WYufiCAI7odGjw547e8K1F6VBpT79q1ecxl8rBX/fOhjmHjpy+h0g80MxFnxqhkm7G7et7Gno+9YCFS5gKmXGuycKHBS9kSSRbF1I8rdASMDizrWBFBpU0KA4wRs2xUc3WvEkrkRBMH56OjBnN36A2+jNt6UkKQ3gTgsdnP4cOiG3bho5reiqeHE2R/DVlVtKDrfbwYmzaXr1FCQaeM5ReC+0RwOM9oFPNQAfv39otxC62qUU/NCTudwX2isrV1AXX1ocM+Ri1dGEITy/xvv9bu4hpDTsi/gQMeYIwQcrBVVVhfueeIzuFra0W34WAyYeF+OWtdvxh8CLplmAvknvSgCxY6AzQy88icOVrOxkgo7XoXQuFwMbyzDelipecFYwEuw9cYmDrsD7b6+Z3y3N4IgkP9wTjlnW9Bt7VaC46ZDMhABkjypvC2EOx9bIKaPPe3jZWCtVgN7BBb8wmDKp9QBy1CQaeM5QeDGU3mc1t/Y0EYIQfBrJorykvTKFS5qg8vJ5O1jjdQ3hLZVnLqohzLsCA8W52PnzA16rGfvY5jQ4WaJAAtWNDVc8/q36L1hF4558U24+/bLstXEj7cHgYueNyFksFO4oYOgjZc8AmYWePVKDnajFbP+7eA3PiTiybT+Aq+HmuBKfnEZMMDd9dzcTqctHK1LEFyPjPlnwGf/mwH90iZLHIEqqxt21ox/P/gRKg8eiKOeftnwEc9fyeDZL6kWwXCgaQcZI/CXE3kMH2Sw9oD4HGx6GEL7NrG8s8e0DqyRlaAyRoM+WOwI7KwN3t/1rMV/1yUI3ofGXNDutc2kkQzFPo3FKV93RwV+981GnP7pLzj5vS9hcXsNFTQQAn4/1QSOahEMxZk2nhkCRHvwv6uM9z0A1wp+3T2ikIQklLtaMhOYPrVPI0CKNNXUBi/oMXLJLF2C4Jk86siAy/YNjWTYp9dJxoN3m+zwWstw72MLcPhVt2C/cX/IuK1UH/z8VwaPfEK1CKniRe/LHwK3nM7jpIPyoD2o/wJC7RyxOJM1+CvKHHQ/5G+WS6en1jYedQ3CkfuNXPitLkFwTx5Vxdksu0Iuow1mpQMqHUkkAiR5Ut/aJlwzfTFO+/gbsBZj1xLRHlzwnAlBjs4ERaB4ELCYgNev5mB4+TshJDsnCgDvh8+6qXhAoJJ0KAQa9obQUh+q6nHuN3W6BIH80fnYOduDHmvXDjUyKmzRIGBhTOhs9+K257/G2f+eCs9B/Q2Xbf0u4JZZ1CnLcKBpBykj8OgFHHpXpXx75je2bwW/6RHxeda/Hh4nZcqZg7lvP1m3J7St6vRwBANBIyYPp+uRsa8HfLbz922o6OizQaCzzQunADz4vzU48ZV3dVZZNq3HPkuUuJdOY9HYTtPK5hZZ2lomCHgdAmZckR/HGH7Dv4DgHsk50bwOJAU6vSgCmSBQUxd6vcsZi36vfTZmNXkeHDWhvdLxCM3RmQnE9BkFAeKweMn8n3DNnc+grJsaVmsYQMTUMO5pk1h6ml4UgUIhQF6os6/Jg2mBDDC4G/yG/0hDDdXBZ1c1w4UaPu23gyIgCAK2bQ/e1HPUkoh6TDEEwTt59Bl+l/Uj6qjYQWe6SMSusDjhNNvw1HIBx/ztv3mR6onPGHz8M3XQygvYtBNdBM4cwOO6k/NDU4Vtz0No/kV0TnRhDcxmqj2gyzIzBEiK5frG4Bndz1rySUINgv3BUb1NdsuGIHVUzAxp+pSKAHFYHLa6Bo9c9B/YOxvv1kJey+c/Y0KAmmHpKiwAAiSV8qw/c7F2WyNkCe6BaF4gdmK+DV7rFiN6oW3uIwgQB8X2dr531+FLNiYkCBDAOKec0xz0WMv2EWzoMA1CoIy1ocLmxJTarjjhspsM6iWy2c11wI0zqakhL2DTTlQEyLf743/g0LMiP6AINW9AaFgidlYmrIPVkh+fh/yMjvaSbwRqdwdbq89Y7GKYSCutrk7K/dCYef4K+4h8C0n7Kz0Euti96LE3gLdOvwuOTp3zMsBJc1h8v4WqW/MCNu1EROCwngLuG52nQzpYL2sPBDAIwGuO+OijM0IRSBuBHbXBed3OWhxTZkH3LeqZPPYmv8/6KM2omDbO9IEoBMyMCYQk3McfhNEjL88LPsRhkVR7bAnkpTvayT6OgNMKvPynPDkmEo+DmjchNCyWtAfMZlhN7fv4DNDhZ4MAxwnYsSt4Y88RSx6PbkeXILgeGHUS57J9zjlobHk2wNNnJQQqrS6UC2a8f9yt8FXkR4uwqQ6Y8LoJfH78xehU76MIkJIHJOdBr8o8ARCskyMXBLAIwmP+LU8d025KFYGWVh579vIn7Tdy0ZcpEQTHw2d3Z82WrUG3sSV7SxVwOq5IBBgw6Gr34aqyg3H9yfnRIhAJpn7F4L0faVQDXY/GITBqsIArT8iTaYFoD3a8AqHxe3FATtMOWJgm4wZHW94nENhdH0J7q9Cj56jF21IiCMRR0f3o2B1+ny0/n3v7xDTs24P0mB0oNzvwzjE3oEdF97yAQZQH173KYlsD9UfIC+D7WCfdfQKevJDPX8oY/w7wGyeLKLNMEB4T1R7sY0vOkOHurA3u7PK7xd2iHRRJZ3HfnO7JY6b6K2xX5m/1GzJ22mgRIdDF5sPpzv3wyMnX502qpnbgL6+Y0OzPW5e0o30AAZcNeOZiDm57/gYrbHkCQqtECtyWHTAJVHuQP/RLsydBALbVBKb2HLHkar0RxicID485J1hmeYsmTCrNhVGIUdlZC6psbkwfcgUO7XJg3kT4aRuDv7/LgqP+CHnDvJQ7MjHA/WN5DOiWvwUltK6BsOVZEVYzG4CLpZELpbzG8jW2tnYeuxu4c/YbsfidtAiC65GR/QWT7eeg29hqfPkCgvZTHAh0srrR11mN2SfdCitrzptQs79jMGMJ9UfIG+Al3NGlx/AYNzR/5IDjgxA2ThbY4G6GlFrwWLaB4VtKGGE6tHwhsKchBH9Q6N/td4tXp0UQMGW4zcXZmgI+G2UI+ZqtfaAfE8OKYY+39x+NC/c/Lq8jfuADFgvXU3+EvIJeYp0d11fA7WflzymRwNdWtwi2ujmAEITN7IcDtKRziS2rgg1n565goJnb5ek3Yp2uETbh25ImTCrYvJV0xz6LE51sbrx1wi3o4vDlbawkP8Ids1msraUkIW+gl1BHB1YL+L9xPEx5VES1++vBbnkaZr5RdkzcBAjUoaaEllVBh7JtZ/C9HiMWj4onRMI3pWfy2EsCLvMM6odQ0Dksuc5J2CPRIpzZdRAmD7kkr+Nr8QO3vsFix15KEvIKfAfvrKtXwOTxPIhzYj6vXRtfRSW3Fgg1w2lrhoWLiUTLpzi0rxJCgPgf1NWFLu45asmrGREE18OjBggm809BD82HUELroiiGUmayosLqwqNDL8VJ1YfkVabaJuD22SbUUzNuXnHvqJ2VO4EHzuVQ7cnvCHbu+gmd9r4Fhm+FxeSHk9kICKH8CkF7K1kE6upDCPq5AV1HLP05I4KASaPK3F5To99noykVS3aZFG5gnawe9CirwBsnTIDXkt/aYBvrgLvfMYGEQdKLIhAPARLG+M8xHPavyi9Ge9ubsXf9E+hhaxUdEj22ejChXfkVgvZW0gjsrAlyXbxwM8MWt2VGEEi87eTR8/0VjuH5qWFa0vNBBxeFAKnT0Nnuwbk9j8LfB47LOz6rdzL4x1yW1mzIO/Ido8MyK3DvKB4Hd8lfxIKCzKKVM3FM2RqAa0KZLQBriOQ/yL8cHWOmqJTpIkDyH2zfGZzXY2RsgSZtW0kNsa7JY87jysxvcI78haSlO1h6f8dFgGRY9FgcmHLEZTihU/+8D4TkSPjnfBZttLBT3rEv5g4dVuDuETwGds//obzstx/QvflNdLFzsLABOM01QKihmOGisnUwBFpaOdTvDZ3Xc+TS2YlET0oQvFPG9uV4rAt48+yd08EAp+JmjkBnmxfdHD68fvwElFudmTeU4ZOEJPx7PtUkZAhfyT1GNAd/KxA5qG9twseLH8J5vQSwfDPcZX4wfhrWWHKLrMADqt0dhD/EHLDfiEXrsyIImDTe6nYHG/wVNkeBx0S7L1EESMKkTjYPTus8AA8dnt+oBgVSYm745zyW+iSU6BpLdVjE5+DukYUxKwgQ8N/5T+OGvjVwMG1w2nlYuM0AH9dEnOqw6H0UgQgEttcEWxua9pYPOP/nhLrTpBoE0iqpyxDw2a4USI5RelEEDEBAMTXcecgYnN/rWAN6SN4kcVycNJdGNyRHqjTvINEKk87Ov0Oiguasbz+Bs+lDDO9hlRIimZuBAA1rLM3VVrhRBUMCanYHnus5Yumfk0mR0onvfvCcY3kbFtHyz8ngpL9ng0C1zQO3xYHXht2APq7qbJrK+NldTcA975qwY2/GTdAHOyACJM/BP0bzeQ9lVKDasGsb/j33P3j2xEqYhWa4iaWt/TcxeyK9KAK5RGDP3hCCrfwxXUYuWZqs3ZQIgmvK+E5MKFjrL6d+CMkApb9njoCFMYGQhN6uarx63A0guRIKcZFkSpPmsFhDMy4WAv6899mvWsCk0flPgqQMtDXQjkun34e7D2NwqC8okgOWqwOCNKwx74thH+hwR20QDG+u7jriq6QLLCWCQDBzPzRmrb/cfgANd9wHVlABh1hmsqHC6sSpBfRHIMMnaZkf+ojWbijgUshL16S2wq1n5jd9snZgJEbi9tlTYA+sxX1HOOG0h2AxcUAb8R3LfwRFXkCnnRQMARLeuKMmsKb7iCUHpSJE6gThwXOuCpWxz3FlNNwxFWDpPZkjUGFxosxsw4SDzsJlfU7OvKEcPDl7OYNXl7IiYaBX6SBA3Kn+cDSP8XmsyqiH3kuL3sOzC9/CG2dWo7c3BLuNAfw7AI7auEpntRXPSJqaeext5K7sefbiaalIlTJB8E0+txfH8hupmSEVWOk92SCg1GqwsCY8d9RVGFrRJ5vmsn52FQmDfJ9FM62RkzWWxdCA0yaFMQ7oVtgv9OWbVuPamQ/gyoEeXH2wGa4yBuDbgfaNxQATlaEEESDmBQRNvbqN+npzKsNLmSDg2ast7qaaJn+lnToipIIsvScrBER/BLsHJLrhrRNvRZXNnVV72T5MUjJPnM1ia0PqWybbPunzuUegu0+qyOix577tdFrc3dyA8VPvEiszzh9RjmoPA4YsrfZNNKwxHSDpvWkhsG1H0L9za8B9xJ+/S8n7Na23nfuhsQ8Fy8y38HZamiGtWaE3Z4SAg7Wi0uZCN0c5Zp9wC+wmS0bt5Ooh8r057SsG81ay4Av78ZmrIe0z7bAMMHwQj6uOF6SDuIBXezCA86fehZ2Ndfj3MU6M7ecAS0pIhxqBwPYCSka7LmUEWtt4NDRyk7sPX3xbquNMa6t4HxzVmzOZNgRoNEOq+NL7skTAay6D22JHf083vDzsepgY8iYt7LVpD3DnWyaQaAd6FT8CTivw73M57F9ZeFk5nsdlL/0Da2o2oZuTx0fndIJZzC8jAG0baFhj4aeoZCXYuSsIv5/rs//ob0hhj5SutAgCqe7ocbPN7RX29J5LSRR6E0VAH4FOVjdsJguO63QgHj/iiqIIpCFOi/e/x2LFFob6mhfpwiUvqcE9Bdx7duGiFLTQkEyJN858CEs3rkKAC+GNs30YWi3bOgK7gFBdkSJJxSoFBLbtDAiCj3H2TFC9MXqcaR/07smj3wi6rOfxtAJ0KayZDjEG4rTY1e4Fy7A4t+eRuKcAlR/jAbWlHrhllgmBUIeAcp8R0moCJo/n0KsItAYK6PfPewFzV34FTuBxYk8e007rIv0k8EDbWhrWuM+szvwPtK2dx5760KweI5dckE7vaRMEz2Nn9+M58xpqZkgHZnpvtgiwYNHN4QXA4Ko+p+Lag87MtsmcPU/cEZ7+nMFHq1iqTcgZqpk1RF5opx8i4LpT+KLQNCmjePqL2XhxyTyRBOzw78XPF/Us4Xy/AAAgAElEQVRCdyVk3L8d4BozGzB9iiKQAgI7agPg/Ey/nmMWr0vhdvWWtAkCnh1V5mliW9orC+wGnM4o6b0lgQDxP+hq94ljuXvgORjX8+iiGhcxO1wxnUVDW/rbqqgG0kGF8dgFTL+8OMwJWghn/bAAkz98FRAE7Gjfi/uHVeHGgYTsAuADQPuGDoo4FbujILBtZwAsF3R2G/VdazoyZ/Qm80we/UHAZf0dNTOkAzW9NxcImBkTuti94tfhPwadj7N7HJ6LZnPaxm+7gdveNCHI5bRZ2lgcBCwm4L/jOPTpRPRLxXXN+2UR7p03DSwnoMbfiIBZwK5L9keZWXa2pWGNxTVhJSiNaF7YE5rf4+wlI9MdXkb7yfPYuH58iFsTqKApEdIFnN6fPQI21oJONjeIb8KDQy7CaV0GZt9ojlsg2oSv1zGYsoBFiGZhzDG6UnMmFrjpVB7H9xPEfy+265M1yzDxo6lgW0LY5W9CK8vhvbO64rTuZZKooSZarbHYJq0E5dleEwDPMP16npWeeYFAkRFBwKST7R6Xt42aGUpwNXWQIdlZK6psLpEk3D/4fIzsPqQoJSfOi5+uZjD1K0oUcjVB5OP7T8fzOL2/AGuRZn6f98ti3LvgRaAthDp/M1oRQh+PBT+e1xMmJREDqbdAqzXmalnQduIgsHVHAKFau6P35Z+3pwtSZgQBgOeh0e8EHZYxnKNId2i6SND7OxwCZawNFTanyHInHjIG5/c6tmjH4A8Ci9YzeOYLFu004iGjebKZgatP5HH8AQLshc2ZlVD+N35cgP9+ORMCL6ChqQnNMglYfm5P9C+XK5QGa4HgnoxwoA9RBFJFoLmZQ0MT91bPkUvGpfqM9r6MCYLj4bO7WwTT1vYK6qyYCfD0mdwgoJAE0lqxRTfojZBoFH7ZAUz5jMXupoy3X27A6yCtVDqB60/hMKA7QEhCMV9PLX4L0757XxRRJAdcQPz3cX2cePmULpLKlpTUE8Maqe2pmOeyFGQjzol80N99vzHfZ5SiM/M31KSTzR6XNygShMxbKYU5oGMoMAJlrBUVNpcoBcmTcPfAcUW/JEmq5u0NwOvLWHy5lm4gvSU0rI+AC4/h0c0HiMkGi/giSZD++cl0vLN6kSjlnkArWtvaJTIABpsv6oVOSop6/1aAay7i0VDRSgEBQRCwbWcQ68rsllNO+TwjvWVW28714NinBBt7TdBdxPq+UphpOoakCCg+CeTGY6v64fEjLi+KtMxJBQewtw1YuY3BjEUsappSeaJ07+nsAS4+msehPQV4HR1jnCR98k1zH8PiLT+LAu/mW9FOqnuJ5AD4z1GVmDBICs8FH5TDGmkxj44xux1Xyj17Q2htFZ7sOXLx9ZmOIiuCUDFluCcUsO6lzoqZwk+fyyUCSnQDafNgTze8eMw1BS/wlM74yHmysxFYuoHBnB9Y1LWk83THvdfnAM4ZwuOo3gK6eAFSWKmjXO2hAP705v9h9e4tosi1Qhv8rW1gyPeaIIBlGey+pDccZnlQpJQzKelML4qAwQgQ58R2RvD2G7E04yxc2W5FxvPg6Fa/12YXLEUYZ2TwBNDmiw8BK2tGJ5tHNDF0dfgw49hrUWXzFJ+gSSRSTBCrtjP4cBWD9buy3arFBUGvCgHDBwkY1F1AV68UstjRrl0tDbjizf/DjuY6sbpnrdAKPxcA28Kr2oP5w7vilG5yWCPXBPi3dbRhUnk7IAKBoIDaXcG2HiOXOJksysVk/dbxTh57NcfiWZp6uQOuohIV2cKYUE1IAsPAZbbj0aGXYmhFnw492voWYNMeBss2ShqGXc1Zb9284lFRJmDYAcARvQT0qhRQ4cxr9znv7Lutv+LW+U+iOdAGjgVquFYE+SDYVg7gJPNBL7cFq8ZrwxrXAUJGpuCcy08bLG0EdtYGwQvcld2HfzMtm5Hm4i3DeCaPIc6KpqL3DMsGKfpsh0KApGUmJIH8k2UYXNfvTFze95SSWKLk+KlrBrbVM1hTC6zaxog+DMWSkImYCAZ0F3BYDwF9OwE9KwRUukrDl5lgP+O7+Xhy6TvgeQEhi4CdgVaxABM4Dmyroj1gRHJAch+IV3AXEKTVGjvUS6SDCktMldtrAqEeI5aQmNqsnF1yQRDgnjx6RchhOZRTio90UGCp2KWFAEmiVGV1iaWiyXVK5wH45+DzUWYuvQyg5KVQ2wTsbmZEP4bNdcDmPQy21kPUNsj+cjmbYJLrp5NLQI9yYL8KAT0rgM5uoNojoNoNKLmActZhETTUGmzH3z9+AZ//tkJ877aTtMn+ZtG8QEIW2RYO8n/grP3K8NYZXWlYYxHM274mQlMzh8Ym7vseI5dknYc+JwTB9cg5/VmeX9VebifvZHpRBIoKAa+lDG6zlK+jl7MKk4dcggPcnYtKRiOFIWmfG9sB4ljf7GfQ6gfaAmKSP7FMtT8EkHt4OSyfZSWfAJJzgGQqJLnQHFagzAa4bALcdsBj75h+A5nivL5uG27/4BlsaqiBwABNbAj1gRaI/wEBTJAD4xdk3wMWdZf1CtdboGGNmcJOn0sTAVl7ILAm5pBuv1u8Os3HY27P2XHumTy2ye+xuKizYrZTQp83AoEykw3l1jIxNTNxZJxw0HD8fv/jKJ81AuwSapMoB2b98CmmLJ4NPxcEb2FRz7WhJegHiTMXVSW8rD2Qcx7cM7QCdx0mhzWSLIptpFpjVpreEkKUDsVIBETnxLpgc88RS9y56CdnBMH90Nj/Cgxup86KuZgW2oYRCBBiUGlxwUQ+kWWTwz0Dz0W5tYN7zBkBFm0T9a1N+NdnM/D5xh9EB4qglUVdoBmBUAgCyYIokHUkgPFzYAISAbCYGOy9rHfYxEJKOZOSzvSiCOQBgZpdQQSDwn97nr1kYi66yxlBwLNDLZ6mHs3+cptV6EiBzLlAkbbRYRBgwYiEwGGScuJX2dwgJOHE6v4dZgxUUOMR+PK3FfjX56+grrURgolFm4nHHn+T6JhI/p+kECDaA8UxUXLCnHNWZ5zeXSacXAvgl/Ij0IsiYDQCHAdsrw0EarcGXUf8+btgLvrLHUEgBZwmj/k+ZDMdFnLRzIq5mBzahnEIuE12eKwO0eRArjE9jsDNB42A1yrHrBvXNW25iBHY296MKYvexLtyymTeasJerh1NgXBmxLD2gJeiFuSwxv09Fvwyvmd4dK1raL2F/2/vTeAkOaoz8S+yqvo+5tBcfY1GNxKHhIQAm0MSRsf0TPeMpJEBgwEvC3/sP7YBcy7mL2NYDvWMZLyGxf5zGRt7EbBgzAJrs8gY5hAMwiBA6L7nvvqsqqzM2N+LjMiKys7qruquqq7jpZFnpjozji+iK16+933v1fFaN9vQTk/mMD3j3zNcAXKiwaaiBkL3x3ZcmnDkT9JrmKzYbJuvGedD+RLWtPUg5SRCb8J7L9mh1A58tR4Cdz18Dz7y/S/i+OwZ5TVwk8DJzAyynkqLqP9HfwbERGJ2OnMBMZFKOP981zC29OpqUlSpkSo28sUI1AABor88dTgrRcK/bOj6u/+jUl1W1ECgQfXuHj/sdqc2+O3Bly5fjEB9IyCwOtWFbkv6eNX6i/GOi7djoHN1fQ+dR1cRBA5NHsfuH/wPzTUQIK/BjJ/F6cxsQEQMQwpS114SgCRiIkk/Au7BNYOd+Ob1m/R4JKC8B0xMrMgCcSOLIjA75+PU6dyRodH9Gxe9uYwbKm8g7Bl7h5DOx9Kr25sjM0oZYPKtjYsA1XEgQyGpvQkdiZRKrrRr5AVhHoXGnR2PPA6BbM7FnffehU8e+BrSnguZSsBNCpxKTyvFQv58N94D0oFqYqLrQ8wFutCOpIMjrx5Bm8kXzbJG3nA1RIBs2ENHs4An3jG4bd9EJbuuuIFAg+ubGJ/M9rX1kiSIL0agURAgPsKqVJdKpGR+MciLQCTGF5x1fqNMg8dZAgIHnvglPvi9v8Wh6ZMqnCDbkpjxMjidmdFeA+MA0MaBMMREXYRpOl9v4W3PWYUPXbEm6JVSKc89WMII+BZGoDIIZLMSR4+7U8Pb9le86ExVDITe3eNflo5zU3ZVwBTnixFoJASIm0BKB5JFmuuy1WeD+Ann9VbUg9dIsDTFWB84/iQ+9oN/wD2HHlA5DPz2FFx4OJmehuvn8l4DEx1QuQ7oYyNr9CHSPgRxxKXE2o4EnnjV5rysce4hgHIf8MUI1AiBI8dzcF3/K8Oj+2+udJdVMRD6PzG6Ws4mD2dWtbWRdc4XI9CICPSQ0iHVqWo5mOuGTc/B719wLYa61jbilFp2zE9NHscn7/4avvPAjyEdCT+ZgJ90MJWdU//leQY2dSCwEkJZI20DIibOBMREKgb299esw86zewJcvTkg81jLYswTrz0Cbk7iyDE368vkxs3bfnCq0iOoioFAg+ybGD/gpZwr3T72IlR60bi92iFAYQfiJnQm20JJJB0Mtwy/AK895yXYxETG2i3GEno6PHUCnz34LXz1vh8qSoFsc5RhMJfL4lSawgk6v3RIRNQGghIqaANBZ0ikegtiVkLoqlgXr27DwRuH9KiYmLiE5eFHlonAiVM5zKX9A8Oj+1+wzKZiH6+agdD10bErkglxILOq3ZGJqnVTDUy4TUZgHgJUFXJtW09B2IGMhxuHr8DvnXsNKx7qbM8cmjqBzxz8X/jafXtDw0CREL0cjs9NwqNDP6xgZfELwnlYxESdMZHKZRpZY9IROHjjIC7o1y9A7mnAPVxnKPBwmhmBnCdx+Kjr+1l55eadBw5WY65VPbn7JsZ+lWtPXsSJk6qxdNzmSiCQFEmsbesOcyeYMbzorAvwrkvGMdi1lus7rMTC6Bf/J08fxZ69X8K/P34v4AhFPqTKU65PPINJndMgokCcV+rSGAxa1qhICD7EjA/hS2oW1wx14RvXaj6K9IC5B1Zo1txtqyJwetLDzIz3q6HR/RdXC4OqGgg9d+zc5eT8L2VWt4PTL1drCbndlUCgjQyF9h6QZ8G+BrpW4WOXvhrn924s8DasxBhbpU9KZPTgiSfxnn/9//HU1AllGFAeFuE48HxfERDTnq6HYMIFUe+Bzn2kMDOhBZuY6Eo4aQkBia5UAk++ahjthl+VfRrITbYK3DzPOkDA8yQOHXUhhLNraOveL1drSFU1EGjQfRPjj7odyc1ed54RXq3JcLuMQK0RSCGJszq6kRCFicEo/PDHF16P8eHnoS9FVST5qiQCxA6YTE/jn3+9D39x4H/Cp5d8JVdMKKxz0sPJuSlkKUF9SDTU0oSC/EXRz6Leg8BgSFJSJG04/OEz+/HhKzVJVVVrfKiSU+O2GIFFEZic9nBmynt0ZHT/lkVvXsYNVf/e6t099jYhxW6VOImLOC1jqfjRekbAQQLr2in0MN8Qvrh/AH/6zJtxTs969ioscxEpgdFjpw7jQ//2Bfzi5JOqNb8jqSSLyjDwPcUxyBH5MDz7zV/oT7IkQg1jfjTqozwXIS9rBJyMB8cNOAsD3Uk88Nsj+ee4WuMyV5QfLxcB3weePpKFkPKtQ9sO3FHu8+XcX3UDQXkRdo8/7XYkN3ld7EUoZ3H43sZEgEpKdyRToerBngXJJP/ooq0qPJGMeB0ac7bVHzUd+lRV8RN3/0988+GAi0WeApl06EtS2QFZN4tj6anCA1/ZAiUaB0a1oGwEnfOAjA7PR2LW00aFxGevWo9bzukN+mFZY/UXn3uYh8AUeQ+m/UPDW/cNVBuemhgIvXvGPyR8vDe9htIv16TLauPG7TMCiyLQ5bRjVVtXQR4F+6Ftg5fhDy+8QRWMinIZFm28yW8g7sCpuSl88kdfx9cfPBC8+KeSyiigI1yd576v6iXMuOn5aNjeg9BjUKL3QBVjUmYInDkPjpI1SjznrHbsHWNZY5NvvbqeXt57gA8Nbdv/vmoPtmandd/E+Am3K7nG62QvQrUXlduvLwQEHKzRuRSKjexZq4bw7ot34Bn9g7Geh/qaUXVG40uJew8/gjvu/gp+duwxkLqQPAWkQlBGga6imM5lFfHQVzkM7EM/PNf1x2V4D6jokhCBx4H6of+5HhJp4z0Q+PGNQ3iGyQ6bOw1kWdZYnZ3ArRZDYGrGw+Skd3xodP+6WqBUOwPhtrHdEOJt7EWoxbJyH/WKAKkf1rRRUah4Q5myNlLhqPHBy/E7W16MoS6d479eJ7TMcR2aPIHP//R/458f+REyfg5+UiiyYeBppGyFAUkwpzwK08j4Oo3xPDWCZRyEf7VyHcQREwMngXEW6IyJ5ivRQ2LGU7JGum7Y3I0vv8zIGrnewjKXnR9fAgKh9wDiw0Oj+967hCbKfqRmBgK+tCvR93j2RK4z2Z9jLkLZC8UPNBcC9IuXEkmsbuuKJTaa2RJPoT2RxBVrtuCm4efjReue0bBROno73//0ffjqgz/A3U/ej4zvIUviD0Vezp/g5kvJ9VycTs8g63v5ssvqUI9TIxQaCAEzwdy7UGghnzlRamOAMiY6WfovMDCoWuPjrxpBd1IrVchzQB4EvhiBGiJAyoXJSe/Evtn9G265BYE8p8pX7QwEAL0TYxMC4u2saKjyqnLzDYUA8e+Jg9Cb7EBXon1BA8B4GNoTKTyzfxAvXXcxnr/uPAx3nVU3c1blZ2dOYO/Tv8L3nvwZfjX5FDLCR0Z48KgqIgUG0pLOYc0n0AWRKFtxNo0pdw6e50OqCopR5UHcoR9EGlR72tYI6ifESBgNSrZHISQmmodJ1mhCC8DbL12FDzxXyxr9LEDKBb4YgRoiYLwHEuLDIzXyHqjf0xrOEbh1V1tfT/ZwriOxOtedqmnX3Bkj0AgI0C8k1Xog7wIZDB2J0n5Pkk4C7U5S/dfmpHBu73o8s28I5/Vuwuaes3B29/p52R+XggeduelcBo9OHsETU8fx6NQR/PLMk3hg5gjSfg4ZeMhIDzkqe6wC+bYbP/9Wr1IWQ4Jki9OZWRVeoDf4QG1YEA/QzoWIR8AefMQQKDAOFpQ1Bn2FxZi0leFkAg8CXcM9Sdx78wgotbK60o8Cfgwpcilg8jOMQIkInJn0MD3rnRhc724SVxysWbnQ2hoI5EXYveO/Cinfk1nVDq7RUOLu4NtaFoHAYKAsCw66E23oSrbBiWRvLBWcJLXjJKD+FI5qh9IKkUESfBHk2ft0HBNpkIiA9J8nfZVbgLgA9PeC26MDMDkF8q/zyhjwfKmKJM3NzcHP5FS7eRmi1UhBnoIYEqJ96NvGQTFZo5qWVW9BOSWMB8Mu5Uyf+UjO5pMiffqq9XhFKGucATJPlAo338cIVASBfNZEfGhoa/WVC/aga24g4OM3tPdl2x7z2hMb3J7S3o4qgjI3wgg0CQJ0nFOogf7rECnFUSBiIx30K35pdz2lP07Tf342MDJ8MjYCL4Az56v8AgWegpAsaCcxohPftlsi4QZqz3goYmWNRYyOgjxJut6Cws6HM+trWSPw/A3t+O7WIR3ykcDcgwDVXeCLEaghAqfO5DAz6x8dEqtHxNZvZWrYdY1DDHpmvbvH/0RI3Jbpb9O65lpOmftiBJoTAWM4mD8pTJFSXoPAA0FhCDIqlnPRGz95EjwKI/g+XEn/kTcgcNX7vh+47COu/cDpEHyemKbwQwzZ0HgeQkeGFZ+Iy2UQF1oIGp6fMTHiaQj4D9p7AJJR+hA5GSRF0syIH4wN4rlntQc35k4B2SPLgY6fZQTKRsB1JY4cp4iCfM/w6IGPlN3AMh9Y3rfFUjtXXITMfV5bYovbq8ulLrUtfo4RYATKQoAMCBNSWMxeCM7V4MgPlQHFejOu++gbumUc0CHshLkFdEPGSxChHmhCgmVMWOEG4z0wxMSi9RaKSB1VugO7zLMMZI1eMIhd5/Xgcy/ZoPsmWSPVW4gOsCzY+WZGoGwETpzKIZ32H5sTqy88v8beAxrsyhgIAPonxt8ggb/J9rXBTxVWxCsbRX6AEWAEVh4Bm1wYcgoLY/9U14CMBKtQgj6EI8MPeQxFZI0RImMhMdEmOka5B1bXRiFhZI3pwK1AssZf7RrGepPUjWWNK7+3WnAEmayPYydyFIp70/C2A3+9EhCsmIGAW69K9vX2/dR3nEuyq7QbbyUQ4D4ZAUZg+QjYB3rgdAje6S3vAX1GqYsFabbMVeBtMA9GiIlxJZoLbjXWSDSzou0hMO9DwWf5YkyBhyE5nZc1/pfnrsZ7L9UJqvwMkH5k+fhwC4xAmQhQaMHN4RcPdrZfevXVd+m4XJmNLPP2lTMQAKzaM77T9/FVtzsFr6OwXO4y58WPMwKMQK0QiA0t6EJJkXBDYsb6nptnHOgBz/MexHERLCPEznkwT9aov+JMm8ZwUX9qYmI6kDXSRyRrvOfGYXSpmg8ka3wc8GdrhST3wwgoBGZmfRA5UQqxc2Trvq+tFCwraiDQb2jv7h3fg8BLSfa4cgGPlYKf+2UEmgCBIsWQjBpSzVBKFVqgEEPw73xSo4LQflxowU6mYFdnXKhaY0H+BWN4BBZJgfdAVWvUcksh8Hmq1rilJ3jAmwYyQUlpvhiBWiFAW/zwsSw8H3cNbd1/jdby1Kr7gn5W2kBA354dV0LK/bn2pMh1cyGnFdkF3CkjsFQEFiQmmoM5OJaJnGhIgHYNhIKui3oPdLjAyl8QtGqREO03jHl8CBNu0LJGbSoIklwqTgTwGxs78C/Xb9JKD5I1PgzImuWkWeoK8HNNhsCZKQ9TM56EJ14wvH3f3Ss5vRU3EGjyfbvHvgCIV6vkSSZj2Uqiwn0zAoxAaQjEeA+CiojW4yb/wWxO5SdS1RLV6R5RBcR6D6x7iskaw3CBFbOIhi/0s8Z7QH8qj8Zcng/x79sHcMVZHcHY3JOAe7Q0DPguRqBCCFBSpMPHXPrd+Nuh0QOvrVCzS26mLgyEjomtm1NI3ee3OR0se1zyWvKDjEBtEViQmKiHYu7xJRKkErAEDPMTJdnqBjsGoY2JgDKg3/1N+xEjI5ox0dytiYmSakjrQTgzvq7WKPCa87vx1y9arxv3tKzRIlPWFlnurUUR0LLGOcd3LxrYfvDxlYahLgwEAqFvYvz9AP4s25uCTzXg+WIEGIH6RSDWONC1DcKf5dUIwjXVEaMHu1EgKJeCPqBjjAODRMHtxjiIEA5ivAcqjZNFTBRUrTETeDo6kgL33jSMQRPiZFlj/e67Jh5ZJuPj2ElFTHz/yNZ9f14PU60bAwEfHevtTeBXSDiDirDIFyPACNQvAuV4DySRE8mlHzUCIl4G9eOYQ39eaME2MmzjoDBngqEkFsoaAy9GYsanYhOKKfnB563G25+1KmiUZY31u+eafGQUWsi58vH22clL1t/yy+l6mG79GAhB8qSbJXCn25mE18WExXrYIDwGRmAeAmUQE9WzUiJBsX51IEeSGBXIEk0oIZIxsVTvQcgzyEsgA7UE5WPQhgQZK2kfwg3GsrErgZ/fNIwek6wt8zjgsayRd31tEZic9jA55cGB3DE4euDrte29eG91ZSBAkuxx/C4h8JI0eRGYsFgv+4THwQjkEShCLowmRQoyEgVufFPjYB4xMbAYLMMhQmAs0XuQL9lsSyh1UiQamOIeBEYKyRpNl//4sg0Y39wd9J+bArJP8UozAjVFgKqcHjmWg+/J7w5v2//yesrpXV8GAoCe23Y+0xH+T72Uk3D7uE5DTXcqd8YILIZArPcAkMY7EJ73efmhyMqwQmLeQNA8Azuvgeo7xntgCxksD4SMy49g96/sAG0cqLoLUlVrNFLLK9a3499GByxZ4yOAzC6GAP+cEagoAsdP5pDO+J7vymdv3nHglxVtfJmN1Z2BQPPp3b3zI0L678r2pOC3M2FxmWvMjzMClUFgUWKi7iZy6CfmdHKk0IgwxkGM96Agf4HNSLQFEBHjIk65QH2ZREpKVimVYeDoao3U877xQVy6VvOd3BOAe6wyOHErjECJCMylfZByARAfGR7d954SH6vZbXVpIKz+yK5+L5m9XzpiPWdYrNle4I4YgYURKId7YFVbTKjqjdECSiWUclYHfPAVFVaSnFeXQbdboFyI1FvQ33KqzLQmJr76gm78jS1rTFNSJG3I8D5gBGqAQJAx0aXQwtGuNveCNS8/eKYG3ZbVRV0aCDSD7onx6xLAt732BNyeVFmT4psZAUagCgjEpVSWVmZC28Ng7vUkEhly8wdv9EGIwSSPjXAPqK3osEMnQj4TYpBoyf638Vxoj0TUwUA9ZjylpKCrLSFUtcYBQ4TOHgJydffdXIUF5CbrCQGqtUA1FxKOuH7ghn3fqaexmbHUrYFAA+zbPf5NSGzN9LdBmuIp9Ygij4kRaHYEFiQmRg9obQz4UEWQVMw/LvWxzcayLYMIMVEd+4rsWBhyyBsJFjFRGw4F0RAiSU5TdjpqSeBjz1+Nt1yiZY3EOaCUynwxAjVEIJcjYiKl8RbfHBrdt62GXZfVVV0bCJ27x4eTEg/CEW2Z1ZwboayV5ZsZgUohUIR7EEtMDE7zoGcq70z1FzT3IPg0Lm/BAsRE5SiI1FsIjQ1Tn6FQ1hgOV3flzOVCWWN/h4OHbhlBN1drrNTu4HaWgMDhoy5yHjJC+OcNbT1QtxXB6tpAINx7J8bfIIC/cTsS8Lo51LCEvciPMALLQyCavEjzCYKPi6gR9MfOjDfPJpgna7Q9A0XrLUT6UaoEy3Oh0jAHHxTYMyRrJO6BNk7++foNeNlAV/BPrta4vH3BTy8JgTOTqhgTSX/eMLzt7k8vqZEaPVT3BgJuvSrZ19P3S0CcnyYvAudGqNHW4G4YAXP+Rw5jeqe3yxSYEznkGWiPAKkGdNy/sL6zTSxcTNaovQcRx0NsyMKiJRhHRUhMFAIXrk7iJ+PD+iuEqjWyrJH3eG0R8LyglLP08cBQd8fF4uq7jPVa24GU2Fv9GwiUYfH20XOkl3xAOsLhUEOJK8u3MQKVQGBBYuIC3gMKJlB4gZ/FAQkAACAASURBVG7RyoFgOPOJicHHUX6BpVyIeinmyRrzoYYCw8Xz8wmaAPzsxiGc369zq7CssRK7g9soE4FDR114nvR96Z2/eduP6p780hAGAq1B98T4WxPAHrczAa+LQw1l7ku+nREoH4EFZY0RNYIlazQdqZwDBbIE2ziI5IsraiAsQkw0RkfUewAiJuZljbec24XPv2SDHpoEZh/Il4YsHxl+ghEoG4EzUx6mpj0IId46tHXfHWU3sAIPNIyBgE+9MdU3dYTKX27kUMMK7BTusvUQmKc8KJIxMc4DoLMWzgsthPdGQgtWKefAz6CIDhpz696i3gNhRR1kgayRopKPv2Iz1nbopGuZpwBvqvXWk2e8YghQOmXyHggpjxx+Mjd8xZsOkoSh7q/GMRAAdH78xqGU6z0uIURmDasa6n538QAbF4E45UKY8yDGexCc6gEhkUIKxD/I2m//i4QWzPN2UqSioQWdR6GAmGg6D/pJTJrvX4E9L1yDN1/UH6yFzAFzD9VTuvvG3SM88pIRePpIln4tpIAcqWfVQnRCDWUg0OD79+x8t/T9D3ttDtxertVQ8g7lGxmBUhFYMLSgG7GJieqjQo+AoIqJ0ayHRfgMwcGdH1xR74Edrgj7N94G81VG6ZRzELngZuEAJ1+9BR0J/fP0I0FJZ74YgRohcPK0i9k5CUc47x7cuvejNeq2It00nIGAL+1K9D3uHgXkmkx/O2Sy8aZQkZXjRhiBaiGwWMZEdaDH8AnMG72ArnlQPGNiYBSY7IoWdzGqXQyNgiKyRlNvwcgWKCnSVN57+4PtA7j8rI4AKSrjTOWc+WIEaoQAJUSidMqQODU0O7xO3HJnQ+XzbsjTtXdi+1kCjqqskl6rf/lrtODcDSPQ1AiU6z2IcAeC8s4STtpmDdp1GIrIGvU30byyzQbsuEyMJomSlXwpMZUjooTyaGzsdvDwrrMhzLcchRZkQ4R+m3qLtdLknjqcVb8Ss7677sLtB4832twb0kAgkHt2j/+2I/GPfkIgu4r5CI228Xi8dYpAjPeglIyJtkdAZCi9sm0U2DUYrJoMxrgISytYXgLlYQitg8KkSIaoWOA98BTvIUEJaPT16Cs2Y0NnMvgXyxrrdMM177COHHfhuhI5+K/aMnr3PzTiTBvWQKDqrX27d/wakOdzWehG3Ho85rpDYEFioh5tNClS8LIeZjGku5w5k0WpdFljgedgIeMgLPhET1ARKCeUKyYm8xkTt23uxJ3XbMpDPHs/yxrrbsM174Bm0z5OqjLOuH9o6/6LhJhfh6wRZt+4BgKADbe9pntOTE4T0OnVHQB9V/DFCDAC5SMQZxzQS7xOXxx4CPT/W4hsCBNesFmHRvVQhLcQ1luwhh3nPTDSR3W/Ng6UweBDZH046Xx6xxOv2YIuU2+BZY3l7wd+YskI+L7E00eCUFYqOduz8bqfzSy5sRV+sKENBMKua8/YFUlf/IgqwGbWMB9hhfcTd9+oCMRVa5wna1yYmKjOb5/SK1s5DIoqGSLExHkKBQLSyudsSyjVo5b3QBET8xlrP/aCNXjLM1YHKyE9YO5BljU26r5ssHHTdj90NAuftqfnXDkytvdHDTaFguE2vIFAs+nbPf5ZSLzOa0vA7eUsi428IXnsK4BArPegxHoL6hA2p7uEyMqgvHPB56XWW7ATIkU5DMZ7ETEOVEjD09UaST4hMfO758AxzESWNa7AhmrdLimsQOEFCedzI6N7X9/oSDSFgaD4CBPjxyCwNtubgt+mM6Y1+urw+BmBaiNQJLRAh35YrZHccwU1FKwX8lCqGLziB/yDBZIiqaby7S1aylnbBapNE6mg1zMVT/TV/8JqjULg30c34Yp1nQFqXhrIPFptBLl9RkAhkE77OE68A4kTQ6P71zUq78BezuYwEEjVcNvO9Y7wnwDQRgWdJFd95F9bRmBxBEIDIZQSKI9AYSln8/auFQiGmKgiCQUZjuCktYogprZC3nDQDoZihsS8dMrFvQeJGTISAsthqMfBAzdvzs957oEgxMAXI1BlBDwvSKUMIJtKOsMbr9t7tMpd1qT5pjEQCK3uPeOvSkj8nRRCZEj62FSzq8l+4E5aCYFyQgvqjDaeAQ2SFVpQv2w5H45bxHsQGgN5gAu8BzYHoWi9BTJcRPB7TbkOchKJ2YCnQIkSH7xlBBuNrDF3CsgeaaXV5LmuEAL0a3CYqjRKKeH5rx7efvcXV2goFe+26Y7Q3t3jXxYSN/kpB9k+TsVc8R3DDTYPAjHFmOZ7DxYgJtpIkHMh60GoCENEtVCYR1k9FaRTLnJvntJgLBH9TISYOG2qRQpsHenAVwpkjb9mYmLz7NS6ngmFFSi8AIivD4/u21HXgy1zcE1nIFAq5v4nsg9LiRG3KwnPvFGUCQzfzgg0NQLleA+KGBL6hA85BUpmGCeBLMd7EJcx0VYthLJGklMGsQ76FT/0ys1oT2idc+ZpwJts6uXjydUHAtMzHk5PkqEqnxrq7jxbXH1XXk5TH0Nc1iiaz0Cgqo97tg2m/MR9RE3I9LdBGj30sqDihxmBJkJgQe+BeXEvkugoQkwM0hOQvNEYCJHyzIHLILxKJiaGSZGo+VDnqNpKTOW5Be9/7iq859lrtL1CssYHmmiheCr1ikDWlTh6XPEOZlw4l5wzuvexeh3rUsfVlAYCgdG7Z3yn8HGnFEhQKmYmLS51i/BzTYfAUrwHBXkKComJ6sT2/Hx5Z2MQWAd83omwnNBCkF+BlBJCcR0EVncIPP2Ks/NLlH4Y8LNNt2Q8ofpCwPOAI8ez8D34EM4tw6N7v1JfI6zMaJrWQCB4enaPfcKR4s2qXkN/G/JVWyoDHrfCCDQcAupcjVRGLJYxUR30McTE8ODPewpivQcxSoai3oMioQXFVlBD0IUbPIT1FijVwddevgHXDnQHy+CngTTLGhtuTzbYgGk/kufAzdFulp8YGT3wBw02hZKH29QGgvIkTIz/UAC/wUmUSt4TfGMzI1BSaEG7AOwDPlJvQUFkeSLy8sbiOROWRkwkY4a4BYGh4szkdCImgYvXJHFwbFivFpXMo9CClX2xmdeR57ZiCJw8ncMsebEg9g6N7vvNFRtIDTpuegMBt97Q19fTdi+AYSYt1mBHcRf1i8BSQguhIVCYMVG90YcGhOYfRD7LGxEBJEVljQVpnvP5GIL7zVeUhCAZ5WzAPWhzBH6ycxDn9mqlUu40kD1cv9jzyJoCgalpD2eI/yLxZMeqxMXrXvTDqaaYWJFJNL+BQPkR7hh7diInfkAOBa782Mzbmee2IAIx3gNF/ovjF8R5DwpCC3nLQbjFyjtH6i2oR6ISSGvEobwx+EveQAjGmJhxQwfBts1duPPqjfphH1DVGvliBKqHQDrj4/hJlSlxGkL8xvDovp9Xr7f6aLklDASCum9i+2sA57OUU4WVDfWx+XgUNUSgXO+BDvmHI7STIkVSLyv+QdR7YJ5XjgY7sUG03oLuwYgUtMFSYBxQ61StcS7wHvS1OXjkt0fy1RrJc0AeBL4YgSoh4JJi4YRL9q0n4Lx+aHTvF6rUVV012zIGAqHee9v4bULgT6QQyK5qY2VDXW1FHkzVEIg1DvTBXZCUKFAJhB6FyBt93lgI3u/VpeSN+jn978L7IqEF25CwmsmXkjbNmvAC/SkLqjW++9J+/H+XrdU3usDcQ1WDjhtmBCiNMhkHpFyAEBPDW/e9o1VQaSkDQRkJE2NfFxBjflIEmRZN1bdWWXGeZ+shUJL3ICbngeEbFnAEbGWDVC5/Jxcc4sZgCP40ToViska74JP+u24j6j1w0jlVJZJ+V4e6E3hgFxET9VdX+jHAn2u9NeUZ1wQBpVg44YI8CFLgn0a27h+vScd10knLGQh44+WpvguG7gZwqZdy4HI65jrZijyMqiAQK2ssUsp5Qe9BDHdASggXEKq6ojYcQqNCf6TatKSSBR4LPWNjwCinQSExEZ5EYiZITke2/N9ftR47N/cED5JhQAYCX4xANRCQwInTOcyllWLhp4MbsleKKw6qzEitcrWegZCv/HgPgIFcRwK57lSrrDfPs9UQKJL6mGodWa/5+QPefGwOfBsv2xOh2w3DCyrKUJgzobisMeI9sPIy5DMmalnjbA6CPBQQuHJdG/5tdDBvVcw9yNUaW20/13C+pydzmKZqoRJPp1LOZc1SobEcCFvSQCCAuiZ2XJ6EvIvsBbczCa8rWQ5ufC8jUP8ILOg9MB4BbRGE6ZPtw3shcmHwpu9krPLOFjExcEYY70GEmGiQC9UTAe8hDC1otQSpIwwxMeUI7B8bwMVUpZWu3Bkge6j+14BH2JAIGDmjEJgWDl46eP3+nzTkRJY56JY1EAg3nY75H0lW7Xan4HUklgknP84I1AkCZRETSyjlHOM9gAc4rhVeUARE7YywQwsFxMTQKsgnWorQFwxR0plxVXVI+vFNW7rx9y/doBvnegt1ssuachiUBImSIQHIQuKVw9v2f7UpJ1rCpFraQCB8eibGf98B/pKStGX7UvBTbCSUsG/4lnpHYEFiYoRPEJMSOV+VMZ57QC5/kfFV1uaC0IIta5yX8yBqHOSfnSdrzHiqffU7mnLw2C3D6Da/m9mjQO5kva8Aj68BEchkfByjXAeA70j5lsFtBz7RgNOo2JBb3kAgJPsmdvw5IN9Hf8/0t0MmGZaK7TBuqPYIlENMLJJ6uWDQ87wHQchA8Q9iQhNFMyZaGZmCbo2kMkJM9CWcaVM1V+C9l67C+y9dHQyJCjFRQSa+GIEKI0C1FajGQrCl5QeHRg/8aYW7aLjm+CTUS9a7e/yzQuJ1lAMmS0ZCgqFpuN3MAw4QqBgx0cpFEG2XDnGSHi5ATJQLhRbs2g7G06ANCDHn6WqNwObeJO67cQjCyJEzjwPeLK80I1BRBCjXwZHjLkiQIwU+P7J1/+sq2kGDNsanoLVwvRNj3xUQ11AipcyqNsBheBp0X7fusMv1HsRlTCySUrkgTbIHEInQFFk0gC/qPYgQEwMvglXgicpGE3NcX1+4ah12na1ljWQYkIHAFyNQQQTIKDhyLEsVy2k/3zW8df81FlW3gj01XlN8Atpr9qnLU71TQz8WwLOlQ0ZCe5iPpfGWlkfckgjE1VvwY4iBtkcgFCso36pVL0HdVOiVMPdmJYRpNxRE2PfayoVodkb97wLVQ/CsCGWNwIs2tuNfr2dZY0vu4xpNWhkHxylLotp/Px960r1cvKm1ch0sBDUbCFF0bt3e1dfj3EfVH5WRsFrLqmq0YbkbRmDJCJRETNSHvuEO6DIKsI2IfBrE/FAihENDIFw8Y2LEODAGSJSDAEq65EPM6fwHAjgwPohnsaxxyduBH1wYAdrSR465yJFx4OOJBNyLBrYf5PiVBRsbCHF76PYdq/o8+QiAVcRFUJ4EvhiBekagmKwxznsQx1EIyYaR/Aihp8HyCPh0mId6RoVKQWghyj0o4CnYxESdHjHI2gRn2gurNb7y3B589sXrtfeCZY31vPUadWyHyTjI0c6VZ6Sc3bJ5289PNepcqjVuNhCKINv9obENTrt4XABt7Emo1vbjdiuGQGggFLr2F82YaMiCYWiBTnuLExBnTOSovHM+TBBWa4yTNYbhC10+gQwW1TyxwRxThCGQTBLpEUAyARx5xdnoTtLPAbhHAZdljRXbK9wQDh/VngNINzfjj2y55UeHGZb5CLCBsMCuWHX7jrN9z3+YssCzkcC/PnWLQCWIidoPEJRtDnwCwUcxORMoFJDnERZ6Dyy6Q15NYZrTbUWJiSSZJFmjfvbPLluFdz17TdC/nwHS5MzjixGoDALGc0Cb2/PkuWeP3c0brAi0bCAssuf69oydBx/3s5FQmV9ObqUKCCwoa7QP5yIZE0slJmqDQWR1ekMTWrANCbtWtO09MDZHKG/MeynEXC4MWQz3kKxxGIlQ1vgE4M1UATRushURyBsHkPDlhcPbDzzQijiUOmc2EEpAqndi+0UCzq/UC01CIMuchBJQ41tqgsBSvQfmfC5WyrmY94AqOKrSyybPEQ2gkI+QT4AUEYuFxMSorJHqOQSfffGq9bjRVGskwyDzRE1g5E6aH4HDx13kNHcmlxTP2HLdPiKj87UAAmwglLg9evZsv8TxnXvV9yYTF0tEjW+rKgLlEBPDA3+hYkzmNT8mtGCez8mAfxB6D4ybYCFZo+XFIH6DxXcQM7mwvZdu6sC3rx1QP1bX3EOAbKnqulXdLq3cuOU5QDKReOam63/4i1bGo9S5s4FQKlIAuveMPyvh42fqy5ElkGUgx7dWBQGbmGilLS6PmKhHNo93QJ9bh772NCh5o11vYZ4kMkbWGPIVCpMiBbLGvPfgwNggnmNkxe4pwD1SFdi40dZCIE9IJKmMfM7wDQfUdzhfiyPABsLiGBXcwUZCmYDx7dVBYCmhBXp7DyWHEXlBQYKlGGKiTmqk+AdR78GCxMTi3gNn2g1ljf/pwl781QvWBViRhTP3IAX0qoMdt9oyCBw6GiZBYuNgCavOBsISQOuZGL/YAZSLij0JSwCQH1k+Asutt7AYMTHGewBPQgS6ccvtEA0t6K8UI1gwskaVj8EiJlrVGqlI4yM3b8ZZptw6V2tc/v7gFmAbBxxWWNqGYANhabih946xC0UOvwrVDZyWeYlI8mNlI7Cg9yCS6MjOmGg6KpeYaFIik4GgBAzzizTFExOj1Rrz0klb1njb89bgLRevCkanZI2Pcir8sjcFP5Df3hKHj+bgBUnCZM4XF2/ZzoTEpewQNhCWgpp+xpZAQgikucDTMtDkR0tGIK7eAn1WICu08xiUQ0yMKg/yCgXKnrhwxkTLsWA4EYvUWyBZ4892DKEzoZMikWqBZY0lbwW+sRAB35cgQiLVWFDxNB8sZVzGJmEDYRng0aOUTMnz5P0CSKlS0X1tkCYD3DLb5scZgXkIxCoXpArbBxaClejITnEc5h8I37MWz5hoP09N5zQnoNSMiaqruGqNeWLinddswPbh7mBQLGvkDb8MBChtMhVe0tvWTTq4YNMN+8kdxdcSEWADYYnA2Y913zG2IZETpKlVftIMGQkp/UZUgfa5CUbAnLUQUU8BvSfFVUuMkR+GnoeIIaFftuJUC2G/5K5V6ZUXatcmJFrGQVTWqOtDvHhjB77z8k1wTFKkuYcBmeXFZgTKRiCb9XHsZE5vT3kmB/+iLaOcPrlsICMPsIGwXATN80GBJ5LPDNNHbk8KXnuiUq1zO4yAdTjbYQDjPdAARVUKITcwkswoVtYYE4owz7s6e2Ip3gPbELHqOgjXg5jLKxPu3j6IZ4eyxpNBzQW+GIEyEZid83HydM489YQvZ57DhZfKBLHI7WwgVAbHoJVbt3f19jr7hcSz6J+5ziRyXclK9sBttSoCC4YWjHFg3trzmQ7zvARbi2ilXFaPxMgadVOqZfqxRwZCxMgIn432b8Zhvl6C55wpN+RJ/OcLe/GXz7dkjWlKikShB74YgdIRmJr2cWYqNA5+nvDdF3DJ5tLxW+xONhAWQ6jcn7/x8lTvBYPfFhDXKCOhPYFcdypQePHFCCwVgYoQEyMHeZxxYB/6IenRDi8slDExX+EREVkj0h4cnUOBqjU+eOMINnZq4zl7BMhxpd2lbo1Wfe7UmRxmZgOPlAC+N/ike51400FOvVnBDcHHVgXBtJvqndjxOQH5WvrMSzlwe9vYSKgS1k3f7FK9B+qwt70FEcJgMT5BVHlA3ANz4BeEDyyDw/AMzFhVaEEPgKo10lueDjf8xQvW4E0XGlljVldrjHg4mn5ReYJLRYC2IIUU5tLaOHDw+aEb9r9uqe3xc8URYAOhirujb2LszwHxXvKu+kkyElIqsRJfjEDJCMQaB0WIiWG65XJkjXHZFQs5Dkq9oMah7w2NANtAICNC50Iyf5r0zLM5lWCJrk1dCdy7cxjdRumTfgLwuVpjyfuhxW/0PODEKRfZoOiSLwQ+PLR1//taHJaqTZ9Pq6pBGzTcs3vszY4UdwBoI+MgS0YCyyCrjHoTNV+SrNHKeWDe/g0E80ITRfIjqJf9KMdAqxbUl/FixZjCeEShfNKXcKbzssZ/fvkG/NZAVzA6ljU20Uat/lRcV+L4KUqdrPrKSsi3jYwe+Kvq99y6PbCBUIO1790zvlP4+FuyF9TO7k3Bb2OFQw2gb+wu1Lk8X8IY5DzQV2hAzJc/qgO/IKWy5caPIyaaTMjhbZp7oOSNdp92O8qyCFMw5MsnBPeI6ZzKvkjXFevb8P3rB/KyxvTDgM+yxsbepLUZ/VzGx8lTWsYoMQ3gtcPb9n+1Nr23bi9sINRo7btuv/G5Sc/7BoAB6tLtSsIzJK0ajYG7aTAEYoiJKtFxQVKkGI/AvKRIVn4CdZ5HPQJFvAd0L4UX/CV6D3I+HEUiCyyPn+8cxPl9bcEiuCxrbLDduGLDnZ7xcXpSKxUknpYiMT4y+sMfr9iAWqhjNhBquNg9H9+1znGz34HEZeq7ty2BXA8rHGq4BI3TVTnegwWTFxWRMMYVY9K3Bt4CK7xgexSsSEIAZqTegpUUKSAmBne9/oIefPKFLGtsnA248iOlbU2GgVEqQOI/Uinn2o3X7eWEGTVaHjYQagR02M0b35jqu/DwnZBinD7zE0IpHGSCl6LWS1G3/RUhJtKbf0GdpWJJkUwFxdBToA/yOO9BGIaIEBNNdkZ6cVtIuWD3ZSVFCmSNgXVAZRYev2UEa03isOxhIHe6buHnga08Ap5HfIMciHdAlxD4p8H17s3iCpYx1nJ1+FSqJdpWX723jd8mBN5K35+qhgMZCZyeeYVWo866XZCYqMdqv+UXJSaWKGu07IfwlZ+MAooOaPVBWdUaVVKkvKzxL1+4Bv/5gn7tcHABSqlcQGqoM/x5OCuKAKVNJuMgKLgET0jcMbRt/5+s6KBatHM2EFZw4ftuH/sdeOKTAHppGG53El4HZ15cwSVZ+a6LhBbsCsthCCD0CERkjQXExEW8BwXGgf6H8RiQ90DXTZhnIBhCI5Eo1Rd53koRMzkIIjYCWN3u4OGbN6PTeMjSjwH+3MrjzCOoSwQonEAJkNSlyIjOm4e37f27uhxsCwyKDYQVXuTuPePPSvj4pqnh4LU5qo4D+dT4akEE4oiJ80IL1kFekNQomkI5ahwUL+VsvpGDL2bNKyjmPYhNiqTJBr5fIGv83g0DeOG6jqB5bw7IPNaCi8pTXgwB2nJkGFBdBW0cPCmS/rah6+/+j8We5Z9XDwE+haqHbekt/9Wunt505ttCit9U38+UL6EvBUnBW75aB4FyQwsGmZA4aDMIbeVBCfUWjMvfGCj0Pa29AAXEhzC0YYwUYUkpATHlKmUmXeetSuJn20cQ5gabo3oLnAm3dTZ0aTOlMs3HT+aQ0/tNQOztFP4Na7cemCytBb6rWgiwgVAtZJfQbs/u8f/mSLyZQrj0eLYnBZ8rQi4ByUZ9xCgCtP+eDtrQe1BEjWCUByFZUM/dNjaKFWPSZ7x5ZQve3HSDVJzJyCkjdkdh2MHEGihG5sFRb4DBZ0RMXG9CZlRrgWou8MUIWAjMpSVOnnaDbSdVZsT/PjS6/w8YpPpAgA2E+liHcBS9E9t3CDhfMEmVuNhTnS1QtYZTIE/I5y2ITYoUKg/i0iSXSUy0ZIkF+RFMeCEuE2PoRSj0HjiT5B0IjIObz+7G371kQ95amXuQqzVWa+80YLu0rc5MepieDSt4ziSF87pNW/d+uQGn07RDZgOhDpe2c8+2wTaZ2CslRtRLHYUc+tu4jkMdrlVFhrSorHEB74F56y+HmBhVPRQwILXRoQyE+VkcVSTC7suEJkjWmNHFcwRw8lVb8sTE7CEgd6YiUHEjjY8ASRiPnsiB/gy8VngqIZzfHBjdywSVOlteNhDqbEHC4XxpV6L38ew/CoGbIINi0dnuFPwOTtFcr0u25HHFeQ/mhRaCb9IwfXJBuuUwk5FWD5ov3vALOD+0uHoLxsiwizFRiCEuKZL+RjeVGYN/Sjgq013gPVDVGi/Q1RqlB5D3gGWNS94ezfQgVWA8cUqrFITaRd94oLPjpquvvkt/2Eyzbfy5sIFQ52vYPbHjlQnIz1GxJxqqR1UhKV0tr1ydr1yJwyuHmBge5BFZozm0CwoqFSEmFqgebEPCClcQn8G83Wm7pOCAL/AiAKB6C/r+Nkfg9O9sQZj3a+4RQGZKBINva1YEyC6lQkuZTGjMZh3Hf93gDXf/Q7POuRnmxcdMA6xiz2071zvC/wWAs9RwBZDub0f+W7gBJsFDnI9A1Dgwh/FC3gNzjzroLc9B9CAvlZgYl6Y5LO+sDRGbp6C8GBYx0fMhrGqNPxkbxCWr2oO5UiEmKsjEV0sjQKGEw8c0ETHYpydcT15yzvgBZq3W+c5gA6HOFygcnoTov33809LH681nXjvlTNDFbxplHjzOPAKhgWCpFsJiTPq2kBBojIEixMS42goL1lso4j2gbl0rflFgxGjjwDYYJvOyxrWdCTy9a3N+fnMPMDGxxff76TMFRERIIT4/fMO+1wvBMadG2BpsIDTCKlljTO0eu6xTip/Yw06v6eCQQ4OtY0D2iycBLlpvQb2FRUs5hy6E+dUaF6q3YD0WvPVb4YVoKCHqPXB9iLmAhU65Ds686my0OTp3B9VaoJoLfLUkAlJKPH3E8hpQTnkknjfAVRgbaj+wgdBQy6UHe9u13b3oOCiEuNAM3+1MwuviNM0Ns5xxrv2FvAdR5UGc/NAYDgqEGE9DGJFYwHtgyIn2vbasMUyoFCRFMsTE0eEufPWqjXn4Z3/NxMSG2YyVHejUtIczU6F8kWzZB9tSs5duvO5nM5XtiVurNgJsIFQb4Wq1LyF67hi/yfFwp+mCQsMZiv+Gqeuq1Tm3uywEingPYnMe2Id+qCqIeg9sFUOMJDKajtmWNRbQGGS+OFNoFJgyzX/cCwAAFqdJREFUC9SnZXRkPAgta+xICJx8pUVM5GqNy9oejfowFVc6fCxriiypaUgpX/mZHx/40q23Bmm3+GosBNhAaKz1mjfa3v+2c62Y838NgbWhN6EjCa+bvQl1ubSL5jzQo7a5B/YBvygxsYR6C0W8F+ornNq3Qwtx3gO/kJj40eetwR9fpGWN9LDyHvDVSghMTnkgz4HFlDnp+O6FA9sPHm8lHJptrmwgNMOKUs6Ep9y3C19+xORM8FVypRRgYsLNMM9mmEM5ssa4gzz8LOIpCD0NRUILxTImhu4nXZXRFGoKkyTFEBNncxA60+KadgdP33J2XnVLpZxlthlWiudQAgKeBxw5bnkNhGLHvO+hzo6PcW6DEgCs81vYQKjzBSpneJ0fvXEolfR+BIkwGOx1JOB2p8pphu+tFgKLEhNjwgPq4Lfd/HYOBPPDBYoxWbeEiZYKPtP/oD6MByE0NqzOjWHiSVA5Z+Ie0JfH/7l+I35jXWeAmO8C6YeqhR63W2cIkEJhZs4La3lJiSOJnPe8wR0/eqLOhsrDWSICbCAsEbi6fezWq5I93f2/7wjcboo+UapmtzsJv42zMK7outkeAesNfeF6C0WSItm5CBbyNCxKTLSUFCGvzHwWresAiGkXwg9kmRf0J/GzseE8pHP3AwWTWVG0ufMqIZDJSpw8lYOXD3f5IiHfefix3MeveNNBLtdZJdxXolk2EFYC9Rr02X/b9i2+cL4lgFDpoLIw9lLYgZe9BktQ2EUxYiJ9HpIPox6BiHFQqXoLUWKiGcO86o0hGSGYS9ZUawRSjsADNw5hY6fmuniTQObpmsPKHdYOASIhUuXFdD4bIvFWH/R877rN237EGbFqtxQ164lPippBvQId3XpVsre7/zUQ+KQAgvR2QsDtTMAzX+wrMKyW7DLOe1BqKWd1gNtKhQUMCfUjI2M0SBeTNVreAzIOCvqZXxXSmcqFWRRvOrsLf/9iq1rj7P0sa2zijT0942Fy2rMVCkQ0+YOhro7PCa6j0LQrzwZC0y5tfmKKm5DIfRIQ28IjIyHg9qTgJ3VimxbAYcWmWA4xMe6AL5eYWEq9Bbsf+rsKL0RCCxaxUZCsMR0o1Va1OXj45hF0mYIL2aNA7uSKwcsdVw+BrCtx8nQOOVP+O+jqW06y7U2D132fuQbVg74uWmYDoS6WoTaD6N6z49qE9P8WUphXP3htTkBi5LBDdRahZFmj/ZYfxzvQw7PbW069hWgpZ4onh0r1aL0FCWc6X63xA5evwjsvWR0MSOZ0tcbqwMetrgwCFE44dSYHqr5oXccSCfG7A9fv+/bKjIp7rTUCbCDUGvEV7m/1R3b155LZdwrgXSr7KX3HCyDXzrkTqrI0C3oPjGrBvL2bBEgVICYuKGuMpHhWCoYFvAdK1hiMcaQniV/vGIKgpEl0pR8D/LmqQMeNrgwClNNgetaHnychUoKDiZyb/siWnT89vTKj4l5XAgE2EFYC9Tros+f2nc9wfHkHpLzWDEepHTqT8DtY7VCRJYolJqrscqUTE4PXdJ062fx9kVLO4eCpnyh3wRgj+iZjHJgXxajqIefDmc2nzf36yzbguoGu4GE/A6QfqQhU3MjKIzA754OMg5xV6ltI8V0v6fzR5ut/SNVk+WoxBNhAaLEFj06397bt40I4fwEgLMPnJwVyXSn4KeYnLGt7FFRdMl4BWagEDDMVRomFNSAmGmOADoRwHFYpZ3JozORljVeua8f3rx/IWxZzDwUhBr4aGoFsVuL0lIds1g4nyCfgyz8a2n731yj1VkNPkAe/ZATYQFgydE304G3Xdveh621SyPcIQGe9geInkKEgDRmtiaZc9akUkzUWfAebt/mYt/x51Rrte4xHweItLFRvIbYUdN5ggSGgRb0HJGvUMei2hMA92wdxbq8uL56bBLIsa6z6PqpiB0Q8pKJKNs9AAGkpxYfbu9v3rL/6rukqds9NNwACbCA0wCLVaoidu8eHU1L8OYT8XZOymfrOtSeQo0qRTGQsfSniXPuhrNG8hFeAmKhsjCXIGo0xQGy0MP+B5T3wfTgzXihrfNU5PfjMb64PBi49TUzkF8vSN0T93ElLfmYqBwopmK0jKEWyjy8mhPNfBkb3PlY/o+WRrCQCbCCsJPp12nffnh1XSl9+RABXh0MkImNHArkONhQWXbZKeA+Ckzi+bHOxUs7h+W5xD+wzPC6Xgoo3G9WC6RMQ6RyEToizut3Br3eOoM+EnLLHgNyJRWHgG+oLATIMpmY8UE6DwuiX/D585x3D2/fdXV8j5tGsNAJsIKz0CtRv/6L3tu1jEIkPCshnmmEqxQNVi6RES7x74lcvxnsg7SqM86SKcfUWyiAm6jNev97rPyLGRVTWaP6t1AuRUs6eD2c6T0z8s8tW4V3PXKPbdQHiHvDVMAjQ8ppERwWGgRC/gMCfDl2/72vkQWiYCfFAa4YAf8XXDOoG7ehLuxL9j2dfL4V4H6QMiYz0bUJhB488CryL8otrH/7hC/kCxETDHTAeA5sHUE69hXJkjeZeOi2UgWATEyXEnAfhBgM5ry+Jn48N52WNmScAb6ZBN3NrDVsZBrOeUibYhoEAHpOO/K9DHZ2f4SyIrbUnyp0tf7WXi1ir3v/xG9r7s+1/5EO+VSBfLTI0FNop9NCq4Oh5xxoHVL8oSkIsIj+clzExtDA0zyCmlLN1S0G1RjsMUcx7oAyE0DcU/MX14MzmmZRfumo9xoZ7gp95c0CGw9P1vstDjwEZBtZghcBRSHHHnFi15/yt38rU+zx4fCuPABsIK78GjTWCj9/Q3ptre7/w8SYAa+3jJadzKFA+hZa8QgNBv5Er17/Ub29F+AT6Y3VTAV8gahxESh3YxMRyvAeqWd0RBaWj3oMZD0KnXX7pxnZ85+WDeetn7hFAUgp+vuoRAVrOmVlPKRMi1ykh8An3SMcHt7z+rnQ9jp3HVJ8ItOg3eX0uRkON6tZdbb292Q8IqQyFVfbYFUehI9Fa8shqERPDAz3iPTBRgYKQRFTNUCSXgrJFJIRnhRaoH1vW6AjsH92Ei/uDGl/InQGyhxpqi7bKYCmx0eysr4opRa6TkPibydnJ919yyy/ZsmuVDVHBebKBUEEwW7KpXbsS/c/PflgCrwdwlo2ByqPQmYRshYJQdrXG8O3e8h7E8QnM4T4v50HUe2AZB7YHIJq3IFqboVhoQdkNEsIv5B6oegu6zdef14NPvmBdsJwsa6zLX203JzE17Sm5YsElccIR+PQPZ4bfe8std86zGupyMjyoukSADYS6XJbGHFTfxPifAXgDAJNuT03ESzlK9dC0mRkX9B5E1AjGGKDv9NALEFoK81z+wU6I8R7YzytDIOo9iKZz1kaH8R6QcWAx10Tag9CZ9HpTAg/sHMaqNp1ym2WNdfULSRkPz0z5yBRkPlRDPCwEPj20df/76mrAPJiGRYANhIZduvodeN/E9rcAzlsBbLFHqWo9dCXhtzmAKfZTv9MobWTlEBPj3v4XJSYuwD0IXu+tg94+9GPqPRhbxQeE5keoJnxTrTGY8oeeuwpvv1hXa/SzQPrh0rDgu6qGAG2TdIYMAy9aepl+lR51JD4+MLr/9qoNgBtuSQTYQGjJZa/NpHtu33mj4/sfhMSFiGgcKPSgeAqNTmgsSdZo3u6tt3wlb4xIz+22imRiNDZB4H2w213AOLD6Iu4BEROF6ZtCDSRr1OmWz+lN4hdjVrXGzJOAxxl3a/MbM78Xj/gFcz7OEL+gcLv4AuJ+Xzi3jmz94f9YqfFxv82NABsIzb2+dTG7ro/d+Nyk4/0VgOcC0Mn8g6F5SQe57iRkgrwKdTHc0gdRLjFRHepxUsWIwiH0NFSemBioFsiDoE8bqtY4Q/GK4N9feinJGrv14swCmcdLx4PvrAgCtDRUJ+H0VA4Znc3SajgrHPFTx/F/f+C6Awcr0iE3wggUQaDRvpJ5IRsYgf5PjK72Z5N/LQAqMd1XMBUBuFRBss1pHK9CHDGR9AGmtkGxlMjGAAi9AKZeXsTToO7TKC213oLxHlAXymsg8sYBeQ+UrDHo5GUDHfjmNZtMh0D60aCkM181QYBkilQ4ieok0N/tSwBTEuJffJl4w+ZtPzhVkwFxJy2PABsILb8FVgaA3okdbwfkOwRAFYAK9qGfdOD2JCGdOvYqLMV7UFDJ0fIXx4YWihATw+VapN5CgfwxkDWanAeKf0BXhqo1KjICqGDngW0DeGYoazwNZA+vzOZooV5Db8FkDplsJOQUmIfHHIiJwdF9t7UQLDzVOkGADYQ6WYhWHUb3bWPPTgj5GcB5VjT8QJi4HUn4XQnIeiM1LrXeQqz3wDYWomqE5VRr1ERF5T3QZpgvA2tMamKiNlrefGEvbn+eVqnSzXMPEkmiVbdl1edNHgKqj0DFkwoLJ6muswLil0K4vze49cf3VH0w3AEjUAQBNhB4a9QHAp+6PNU7NfABAef/hUC3XW5anWdCwO1OwG+rg9oPCxITY2SNagL5A7oA8FK8B/bz5RATdXZG23tApxF5EIJ6C0HDyQTw5E0jLGus8m+CUSKcOjM/hAAqliQxKxx8anCd+25xxUG1OnwxAiuJABsIK4k+9x2LQO9Hxy4USXwRUjwbQDJ6k+8AbncbJMkla32VI2sskjwpGHKUmGhkiUustzDPoxG0FxoHmu+gwgsRWeMdV67B/3N+fzAs3wXSXK2xUtuKlsV1JU6edpGLT1lE+Szv9drlqzb/1oFfVqpfbocRqAQCbCBUAkVuo1oIiN7dO17rSPkJCXTGdUIyyWxPCjJVI2MhNBAKZYWLEhMtsmDgUy6TmLgUWaMaYqRaI4UYZvPExIHuBB4eH8mnpWBZY0X2MmU5JKPALeYHkEgnEuKPN12/76+51HJFIOdGqoAAGwhVAJWbrDgCAh8d6+lJJT7o+P4fFmu96sZCxYiJ80ssB3NaJjHROCZ0iuWC0IL+mfB8iFDWKPGNazbi2k1d2nswA6SfqPjitUqD5Ck4cTo3L5GRPX/h4BOdUr5nzQ0HptgwaJWd0bjzZAOhcdeuNUd+61XJrrV96xMZ8RcCuLm4sQC4nSn4HTpdcCXQWlDWaCSJEamiLVNcUNZY4XoLlqwx1EpSaGHGCxM0XbOpHf/rmoG8hCT9CMsay9wnKomRliXGkA0Ds0/Kf/K97JuH+/qPiqvvypXZBd/OCKwYAmwgrBj03PGyEfj4De3tudRwOzABX4wXNRaEQK49Aa8zASw1c+OCxETds7lnwXoLRQyJ8O1fqxZUSMKq17CEegvzSjlnfQgtaySj4Z5tQ7i4X+etyp0CskeWvSTN3gCpD6hA0sxcoD4oZhQA+DYS4i259vYnt1zNJZabfV806/zYQGjWlW2xeQ3cur1ruk8MwMcHAPGKaG4FAwepIWQCoJLUfnuJ3oVyiInqoI9IFefVW4jKGkvwHhTxXuQTKWkLI4aYqOZOssapXKhcfMszejFxuSm+KQNZI1Vt5GseAnNpiemZHIhXEE1gZN0shRBfkS7ekxjMPj1wxcFZhpIRaHQE2EBo9BXk8c9HYM+uzlXC3eD5/puFxB8CoqOod8ERoMRMuc5E8bLUNjExLKFcQsbEAmJixMsQZ0hEP1sKMVE5KOZzHJSsUSXiIY2jxFM3n42zjIFEngPyIPClECAuAeUnoMRFvm9KdseBIzLEKci53l+2Ce/IwHY2CngLNRcCbCA013rybKIIvPHy1OpLBjblss7LIOQ7BcRFRUGiF3khVFlqCkkoZcRSiInF6i2oOggRjkIcMVGf48E4F8mYqG/RmsZ5skbVBHEPyHugvBASn3rhOrzuXJ3pWrrAHFVrnJfFr2X2UjYrMTPnI5Px4S1oEFARUvGgA/kxeMnvbNo0d4jzFbTMNmnJibKB0JLL3rqT7p3YfpYQOA9SvBbAawChKxPFYyIdwE848NooSRP9ugSH/KKyRuMNWKzegn0uL7XegvFqxBETTb2FXJAVcVOXg1/v2Ix2w8VoMVljkKyIKiRSyACgaokL8AhotWcl8A/Cdz6dSCQe3LT134+17m8Pz7zVEGADodVWnOebR+DWXW39Xe6w5/jPcRzxe/BxPYA8MSGGe6AMBvIyJMlocIIqlOYt3xALTQ9xyYtCr4C+yVY5hN6AsIH5fIYwxGG/9EeSIlneACVrnPZ1rmWJ77x8AFdt0CklvOav1kjegXTGU0aB5wcGwYKXhAeB/+0IfN53xcHJzJnHL7nll1n+tWEEWhEBNhBacdV5zvEI7NnV2eNntzgOLpU+fltAXgeJdnOmB04Bm2CoUxeo0ARUaIK8DX7KJEEyJ34cCbGMUs52GGKegRBTb8FKx+xM54mJL9nQjm+/bEAVZlJXE8kaaV2yWSCd9UBGgedh0XCBRsGFxL9A4ot+KvHTlJt+hLkE/AXBCAQIsIHAO4ERKIbArbvaenvS5wC4SPjiOgk5BomBfJpkbQDYoQFNM6CkTYqKoEiQpJwg48HuKCalcmh72DyFwoyNBaoFQ4IsRkx0fYg5Q2iQ+MXYEM7rbWxZo0ldTATCbM5XSYlIWbCoZ0BDL4CjEvhGwhHfhCfv2+Ssflhs/RbXtOZvAUYgBgE2EHhbMAKlIiAhOm/fNpDMyXOk71wqhH+dlM7VQvpdBVkQw/Yi9Ra0uMA2Hkhy6SdEUNrafm7BOg5WLoXFZI06TPIHF/Viz+XrdA8ka3wIkPWZs8eXQM6VcHO+khbmiCvgB4oC8gyUfEnMQsjvCUd8V+ZwDyAeGNq272nOYFgygnxjiyPABkKLbwCe/rIREB0TW0cSHi4Q0rkA0n8xIF4spBwoWm/B9hRY3gdlOND/ae8DJXVSoQvHAXEflL+Pyl5ru4PUCUH0IUbWmDayRpXKD4du3ow1bdqFkT0M5E4ve+JLacAc8vTGT4c+eQCoiJHyAmgjYIFcA0W7FMARH/g3KcS+pCPvdYX/0OZr736UjYGlrBI/wwgECLCBwDuBEagCAn23XrdGtCe3eL48V0j5HAg8CxLPBcRgPpFSoCwIlY+FWY8KlYc29UFzHtSjKqRBHoggtkGVLqkZZ8YPJI8C+O8vXIvXnNOvbAtBHLw0yRp132XMPcgcGLD+6T+yT0jN4dNndLhLOuTpsA/+HvyM/qR/B6GAhRQDiw0lsIvEIQA/kZD3JBznFx7wULIj88jA1QePL/Y8/5wRYATKQ4ANhPLw4rsZgWUhsOrWq1a5qY4RR4rNEv5mSFwMifMAcTGkvwmASb5QeJqGagdtUZjohfIiFPIZnLQPodn6a9oF/vXlg3lZY/ZpwJsN3gz0bz89HnfZCSBrliVBklnhPCmFf58Q4n74uF8K+biA83C2Lfv4uS8/eGZZC8APMwKMQMkIsIFQMlR8IyNQZQTeeHmqY3jtEIUnHJkYgcxtcIQzIn05DIGNEhiBjw0Csj0QM8SEFigpUkhMBP7uRetw2RqdSNJPA5T3YKUuiTkAhyHEkxLykCPxhCflEwlHHBICT3lwDmdw9Mnztz7IpMGVWiPulxGwEGADgbcDI9BoCLxzrLe9K7PBgbtG+Mm1AvIsH3KV8GRvYi63Fj7WQIjeszpE9/d+a7AtIdAnBLrl3BNtkNkOMjAkkELwXxIQmuFAlEnlWiAqoA4SgJiMrgBcCUEHd1pAkgkyC8hpQMwKgWkJOQkpTguI00KKM76QRHI4CchT7QlxYmZu7viWnT+lt/+aOSMabVl5vIxAvSHwfwHzPHnoRjtJgQAAAABJRU5ErkJggg==;" parent="1" vertex="1">
                    <mxGeometry x="396" y="800" width="70" height="70" as="geometry"/>
                </mxCell>
                <mxCell id="120" value="" style="endArrow=classic;html=1;entryX=0.844;entryY=0.786;entryDx=0;entryDy=0;entryPerimeter=0;" parent="1" target="93" edge="1">
                    <mxGeometry width="50" height="50" relative="1" as="geometry">
                        <mxPoint x="480" y="840" as="sourcePoint"/>
                        <mxPoint x="676.44" y="763.4549999999999" as="targetPoint"/>
                        <Array as="points">
                            <mxPoint x="676" y="840"/>
                        </Array>
                    </mxGeometry>
                </mxCell>
                <mxCell id="124" value="" style="group" vertex="1" connectable="0" parent="1">
                    <mxGeometry x="10" y="320" width="160" height="177" as="geometry"/>
                </mxCell>
                <mxCell id="5" value="AWS Step Functions workflow" style="points=[[0,0],[0.25,0],[0.5,0],[0.75,0],[1,0],[1,0.25],[1,0.5],[1,0.75],[1,1],[0.75,1],[0.5,1],[0.25,1],[0,1],[0,0.75],[0,0.5],[0,0.25]];outlineConnect=0;gradientColor=none;html=1;whiteSpace=wrap;fontSize=12;fontStyle=0;shape=mxgraph.aws4.group;grIcon=mxgraph.aws4.group_aws_step_functions_workflow;strokeColor=#CD2264;fillColor=none;verticalAlign=top;align=left;spacingLeft=30;fontColor=#CD2264;dashed=0;" parent="124" vertex="1">
                    <mxGeometry width="160" height="160" as="geometry"/>
                </mxCell>
                <mxCell id="53" value="rds-exporter" style="text;html=1;strokeColor=none;fillColor=none;align=center;verticalAlign=middle;whiteSpace=wrap;rounded=0;" parent="124" vertex="1">
                    <mxGeometry x="38" y="157" width="90" height="20" as="geometry"/>
                </mxCell>
                <mxCell id="55" value="Create&lt;br&gt;DBClusterSnapshot" style="rounded=1;whiteSpace=wrap;html=1;fillColor=none;" parent="124" vertex="1">
                    <mxGeometry x="20" y="50" width="120" height="30" as="geometry"/>
                </mxCell>
                <mxCell id="56" value="StartExportTask" style="rounded=1;whiteSpace=wrap;html=1;fillColor=none;" parent="124" vertex="1">
                    <mxGeometry x="20" y="100" width="120" height="30" as="geometry"/>
                </mxCell>
                <mxCell id="60" value="" style="points=[[0,0,0],[0.25,0,0],[0.5,0,0],[0.75,0,0],[1,0,0],[0,1,0],[0.25,1,0],[0.5,1,0],[0.75,1,0],[1,1,0],[0,0.25,0],[0,0.5,0],[0,0.75,0],[1,0.25,0],[1,0.5,0],[1,0.75,0]];outlineConnect=0;fontColor=#232F3E;gradientColor=#FF4F8B;gradientDirection=north;fillColor=#BC1356;strokeColor=#ffffff;dashed=0;verticalLabelPosition=bottom;verticalAlign=top;align=center;html=1;fontSize=12;fontStyle=0;aspect=fixed;shape=mxgraph.aws4.resourceIcon;resIcon=mxgraph.aws4.eventbridge;" parent="124" vertex="1">
                    <mxGeometry x="130" y="130" width="30" height="30" as="geometry"/>
                </mxCell>
                <mxCell id="62" value="EventBridge" style="text;html=1;strokeColor=none;fillColor=none;align=center;verticalAlign=middle;whiteSpace=wrap;rounded=0;" parent="124" vertex="1">
                    <mxGeometry x="80" y="135" width="40" height="20" as="geometry"/>
                </mxCell>
                <mxCell id="127" value="" style="group" vertex="1" connectable="0" parent="1">
                    <mxGeometry x="440" y="630" width="280" height="140" as="geometry"/>
                </mxCell>
                <mxCell id="93" value="" style="strokeColor=#dddddd;shadow=1;strokeWidth=1;rounded=1;absoluteArcSize=1;arcSize=2;fillColor=#99CCFF;opacity=30;container=0;" parent="127" vertex="1">
                    <mxGeometry y="-20" width="280" height="140" as="geometry"/>
                </mxCell>
                <mxCell id="94" value="&lt;font color=&quot;#000000&quot;&gt;run-embulk&lt;/font&gt;&lt;br&gt;Cloud Run" style="dashed=0;connectable=0;html=1;fillColor=#5184F3;strokeColor=none;shape=mxgraph.gcp2.hexIcon;prIcon=cloud_run;part=1;labelPosition=right;verticalLabelPosition=middle;align=left;verticalAlign=middle;spacingLeft=5;fontColor=#999999;fontSize=12;" parent="127" vertex="1">
                    <mxGeometry y="20" width="44" height="39" as="geometry">
                        <mxPoint x="5" y="-19.5" as="offset"/>
                    </mxGeometry>
                </mxCell>
                <mxCell id="65" value="" style="shape=image;verticalLabelPosition=bottom;labelBackgroundColor=#ffffff;verticalAlign=top;aspect=fixed;imageAspect=0;image=data:image/png,iVBORw0KGgoAAAANSUhEUgAAA1IAAACgCAYAAAAGlF2IAAAAGXRFWHRTb2Z0d2FyZQBBZG9iZSBJbWFnZVJlYWR5ccllPAAAL0pJREFUeNrsnQeYVUWyx+vOMAwZBBRUFERRQRQQFUUl6ZoD5iwC6prXNYd1xfh0jWt8Zlyf+sxpFQPRiImoJAEHBFGCgJJmgJlX/9s97sgD5t6593Sf8P99X304wtxzTvW55/S/q7pKhBBCCCGEEEIIIYQQQgghhBBCCCGEEEIIIYQQQgghhBBCCCGEEEIIIYQQQgghhBBCCCGEEEIIIYQQQgghhBBCCCGE+CBFF7inxSZS+6f3pYcsS//YRa2BWsU641Kq9qEUSMXc+TKu1XGynJ4jhBBCCCGEQioRbNpEiuZ/IPuraOqlP/ZQ21mtfg0+qkxtmNo4FVcj5vwsH291vKykhwkhhBBCCKGQioNwSqlw2kyF07H6Y1+1/QM61Bq1z1RUPami6h0VVfPpfUIIIYQQQiikIkXzxlJrwVA5UAXUAP3xaMeHX6OC6hMVVHepoHqLo0EIIYQQQgiFVNgFVPGCD+QcWS7X6I+bheCUflBRddvsefJY6xNlNUeIEEIIIYQQCqkwCahaKqAOUwH1GH4M3QkWyCwVU1ermHqeo0UIIYQQQgiFlG8BVaACqqMKqKf0x11DfrrlKqi+VkE1QAXVNxy9SNJQ7RC1zmIqOQZJkdostefUltH1hBBCCCEUUnmhaUMpXjRMrlYRdZX+WByhU1+mgurmkh/lrm1OShep2Chtt5CiGW9LN1kiPfXHjmrbiKk2WG89/xyT+wlqC9RGSC0ZO2WmfNK+n6ziHZMXtlS7X+0oR8f7Wu1wtXl0PSGEEEIIhVSuAkoWDZWtZIW8LuGPQm2IcimUL0rmynEqpuZsQDztq+LpIv1xL8ltvxdKtX+souopFVXvqqhayLuIQipBIIqIap0Hq7UW0+5gW/vnRDX0hPtRbbjaO2r8fhBCCCEUUrEUUQUqonqoiHpfTOpTtCmURSqmTlEx9R5+bNNS6n0/RMXTErlCf9wkgCOuUEH1jAqqB1RQMb2QQirO7KF2tdqBanUz/B0UhBmqdrvaKLqQEEIIoZCKi4iqrSLqPJUC98Ts0rAi/qjaDLUbcakOjlmqgurlSTPkyp3OkLm8uyikYgSKzdygdl4On1Gu9qIVYiV0KSGEEBJ+CuiCxIkogBSjv6o94EhEgWJZI6d0aC3fVHwkF387mPceiQXdxESSzsvxc/B9OFFMdOogupUQQgihkIokTRpIUYxFlHf3qqC6u8O2MlzFVEu6g0RcRD2p1iGPn4m9VI+rHUP3EkIIIRRSkRNRi4dRRAVMSsVUTxVTY1VM9aE7SATZRUzKZYcAPhvpnJeo7Ug3E0IIIRRSURNR99IbDlgjLVVMvaFi6m90BokQSI3tr7Z7gMfobsUUIYQQQiikQi+iClREdaeIci6mGqiYupJiikQItAc4zcFx0IiZKX6EEEIIhVSoRZSoiEKfqKH0hj8xNfFJuZbOICEH0ahD1Zo5ONaW9liEEEIIoZAKLSql5FW1WnSFPzHVsZ2cr2KqF51BQgz2RB3g8Hid1LrS7YQQQgiFVOho0kBqLx4ml8oK2ZW3g3cxtbmKqcEqpralM0hI2UqCKTCxIVqr7US3E0IIIRRSYRNRKRVR7VVEMaUsPGJqaxVTD018kq4goWQLx8dDCuHOdDshhBBCIRU2sN8BU/Yi3gqhIaW2h9oFdAUJ4fNiW0/HJYQQQgiFVDhoVF8KFw+T/ZjSF0LWSJOO7eQypvgRkqYOXUAIIYRQSIWJump38RYILS3VLqcbCKGQIk7ppra3fUcSQgihkPojjepL0dJh0l9WMOIRWtZIccd2chCjUoTIErqABEgLtaPVnlJbqDZa7Vhh6j8hhFRLUst9F6tdxOEPPZVRqXPoChIClqvN8HRcQvIF9qF2F9PwuY9aZ2HUkxBCKKQyAXujlg7Tl8dK2Y7DH3JMVKrP+CekqNNAWU2HkBDwo+PjLVObSbeTHNlara/awVZENaJLCCEkgUKqfh0pWDZcOkupNNYfy5evkl8aHCwTs/iI2mqnc+gjw6ZqZ6s9SFeQEPCD2iRx10tqmtoXdDvJ9lWp1tsKp/3VsHDIVD1CCEmCkKpbLAUrhksfKZOeYlbStlHrJJWraKV/EFZSMSL9nxVqv6iNVRsvKSn5bYWMaHSIfFv5bxvpq2XpMJ2Yr5RjOPSRoYmdDFBIkTAAEfW+QyE1Ve1rup1UQ6FaR7Uj1A6170um6xFCSBKEVJ3aklo5XNrK6vSGV7wI9lERlS3I+0bzyv3TprKqYV2pUJG1SH8epva62rsqoo7ksEeINSK77CDbMb2PhATsVxqqdq6YvZZBMlftFbqcbIDmageqHSdmr1NDuoQQQhIkpFRAFaqAGqDT435qewdwiJR92ZxgrVxtNoc9clRGpd6kK0gIGKn2sNrFAR/nHQopUoUGarupHa52mDBdjxBCkiekaheJlA6XZrJGLtUfL1QB1cDh4fHSacNhjxz11HaikCIhAVEplIrG4s/uAR3jU7W76WpShX+IiYQSQggJCU5Xs1REFaqIukVF1Pf649UiTkUUiS4oELI13UBCxAS1yySYCDdKrN+kNoVuJoQQQsKLk4iUCqiUCqj9VUA9qdaKbidZgr0o3ekGEjI+VDte7UnJX/GJMWKqVLLABCGEEBJyAo1IIY2v4iNpXvq+vKUCCpWuKKIIIXHiczF7VnLdy4Sqo4PVDqKIIoQQQhIupIoK01Go3VVAjRNTjpWQmrE6XbmvGJX76AwSQtAw91i1PdSGZPm72G/1rJhy1f3VFtCdhBBCSDQIJLVPRVRB2QgZoCLqMbqY5Ansk9rKTloJCSNfqh2itqWYqmrdxFRWQ/PwndWWqk0W0+/uO7Xh1pbTdYQQQgiFFERUoYqoe2WtXED3EkISCPo/PWKNEEIIIRRSGYuowSqiTqVriWs6byd1x74qnWRRulx6+R9vTikfM0nmdT07HQkghBBCCCEkHEKKIooEympZsUtbmVkxQlqI6d2DVKltxOwtaa3WIv3vFm3w92XXdiL6+6BMTIrgdEEZ69pS8tVE+Xz3c9IlrQkhhBBCCHEjpKqk81FEkaCAaJqo1jEPn4X9VjtaOwyyarcd0iJrlf48Wv92xBcT5INu58pndDshhBBCCFkfOVftKyyQlIqo/twTRQKmXp5E1Maoo9ZLhdUNe+won6qwWqr2SMUnctDnD7vpuUYIIYQQQhIgpCCi1oyQXVVEsTofiSONBM1Ry2SICqtFKqge/OzBdFohIYQQQgihkKqxiBIVUU2lXF6jG0kiRFWZnLdnh3Sk6ksVVaerqErRLYQQQgghFFI1+d2nxPT2ISQpIMVvNxVVT6uoQpTqmk8ekPp0CyGEEEJI8iaFWWNT+o6ScjmcLiQJZhMVVLd030kuq/hU7vh0jNy39wVsrkpIwKBC57Zqm4ppeNxEbW3l60ltiZiGxwvUZqjNp8tIjqBAESrFYh9tV3vv4Z4rFSys/efnIrVpanPsz/j3X6j9pva12mK6MlS0VGtrnyGd1YrVKuzfIeME7/PxYtqpfKy2ki7LiYZqXaxvG9n/Xjegg7+bLaayslj/L64yLtEXUlVS+u7hPUGIFVSlcqsKqsspqAjJK/XsxHV/tW520tosy89YYSezn6sNU/tIbRVdSzYAJtXdxbTZ6GTvuS0l8wyevTfyd2i9MdVOyoeroTLsPFm37yEJAojavdT6WNG0n1rdLD/jJzHVg/EMGWGfKavp2vXSQVC8y4ilNmq9xSx01RT4vMQKq5FqY8IirrLe46FCqkCF1A36tf8b7xNC1ss8KZbLVFA9r4Iq1y86XuD3qx3l6Nyxanq4fbkHIzpFDhFTgbHU4wsVE+tXa/C7zdUOFVM6P+jzx+roN/Y887kSuoO9n5CSujbP54yV+1lq/1abm8PnYMJzvqA9gUjjPJ8jIlZvqg22E1lfogoC8UA7matuHBDRONFO6l0w2k70SyX36r5YeX7KTkDDSC072TtS7SAxkafaDo8/1d6PL6mNi9jEfGfrs4YBiEFMuheqPW2/szV9HuE71lftBPvMyyeIer+rdpe9v5MsiOvbuUNfK1Kb1URjZMEPaqPsd+cVn77PKiJlo1Gb6On+hXNlQn4HK95jxYSiJ9uH/2T7EC+le/7AMWq+q3xCLP5PDX8XL4d+YlbXXPCOtXwKKaTGDVBrF9A5T7GTw2yFFN5Hx6ndEOC5AUQcTreG8/y7FatrPAipq9UahPB7uqe1fPFVCIUUREB/ex8083geWNi43No8K6geFJMiGHawIHaZ2mYBfT7eqa/XQEhhwe4sMYsxWwU4oUdK52nWEDG5V+3thL33D7DvxONFnLaJwbieag0LTc+o3W3vGaeRqmwvGitTF9vVB0KSBlY8ENpHOP9DlUmTRo+T6Xud/3suL9k4iDLc4vkcEOG5wP6ZVJZYsR+UWEEUdesQCqgNTWJfELOn6hIxkTQSb45WG2SFVNjYXO0iKwA+tueJCfrahI4VotHZpIMVWP8NkvxHsqtjX2ufqiHYMEbiG6Gqa+/RM+0zu8Dz+UCTnGftWTv+M1wJqoyFFKNRJIEg5eez9IustoxR0fSRiqZf6JYa0UrtrxLcymUmQATfJiZtiYQD7EO5U62H5/PAZOAtMWlEV6r9zKGJFUjn/bOYCGCLCJwvxENPMftwMDG/xgqrpAkqRArrZSGQbxdTgMYn3e2YPWGfJb/GUEBVRiHD2ALmFGsQVAj8LAyNkLIO6yuMRpH4gtULVFt6V4XTG19MkNHdzpVFdEteQB79cR6Pj6o/g+zDlQQL3hE7ZvBCRirTVZL9hu8g6WcnQoxOxQfMW5Dys01Ezx/340i19+0ENkwpklhoXCp+F8jEihZMnotD4hdUbzxHTIQK+1G/i8H3CPue7lNrH1IBtT5BdYTazWL2sAW2CJGtkGI0isRRPM1W4fTCVxPltd3PYbQiALDXwmdKHzZvP6r2CIciFGBCiyjU0SE9P0SnXla7UPzv5yO5jSPGr2dMrgd7USaIWRCCMPwtIeOIfViTNzARhoB7T0wVvjCyk9qXYgrFfCDRjChiH9jjYopE1YrYuWNRD1FKZDxgkSyQhfGM8hoLUum0vi5SHsqcYkJqAgpEvKAC6uCvpkq71N5yJUVUIGC/jM+UvtV20nEVh8IpTTfw/3cVsyfp6JCfP1a2sXEcqWB1OJyRA9HOL2IkoqoyyIqHLgkZy8YbmMCjjPn4EIuoquc/REz1wMKI+R4+xl6vIyIooqqCSruoiImqp3mPpmW6QawyrY+QqLNUxdN1Kp5apnrLiSqg3lMBxT4QwYGUvuM9Hh/7Xm7kMPwBVAYrcSCk1t3sjV5QqEi2e0T8hL0Zt4qp/kWiQUsrMv4hpjpjXEHhHkQ4ThaTRhZnUJ1t3XL0vcSkabeM0HW8HTExdb2YirGtYnIf4TrQ0uGYfIupbCptHMlnNIkw0/V103/Md9JUxdPNKp5+o0sCx3dKH0paoyztCg7FH1jpwScQUUitbBtBf91BMRUJDhazyf+AhFxvMysmUIgiznvXt15HSEFEPRcxEVVVTLUP+TlCmL+mhl6xxTG7l/A9wWLeQMljpcFqPwhpfWtNtT6m9ZEoMl8fC/1UQO2Q2kcGdz2bHeQdUZnS56tCFtIRBlFEeQOVsyoLTrS3L+W2Eb2WYnsvHcxhDS3oizZYoltQIhdwb2JD/SYJuNZKEbV5hK/hPQlv5cha9vyinspXHY/ZZ0ZexFSmH9JTCIkWy1VA3aUCqq0KqH9RQDnHZ0ofRNQZEr4GoEkDTSmRHndTDN4hW6hdKqbvFAkX6D92v/ivHOeTyt5JrsVUSfpdGyyoWljHXtvdERdRlc+Se8R9n6tMRBQqQ/YQ/32hXIB7CXt2c07zy8RZOEhnISQalKuAGjVuunRWAXWZCqjldIlzfKb0zbYTd4oov2CSgFVXND8+JibXhPK/J3FoQwWqP14jmfcairuYut6DmFoT8OdXiGls+0yM5qJ4jqAAQlj2t1UVUYUJ+b4gzQ992nLOlGBEisSJX/SxdPG4ydK7y1kyne7wgs+UPjRRvU7tdQ5DKF5SV6idHbPrQguQozm8oQAC6lyJdwpSTe5PH2IqSFA05L/EFNhIxei6UBClKUWUVxqI2Q+WUwQu019uw+cTCTGVUahuqX3kfhVRFXSJtwcymu76SOnDXiiE6v/FYQgF6D2C0rnbxuy6MKk7TNiY3jf9rWhgJGr9Ygqb6eNStr+5mB5ATWM2Tlh0xD4d3w3JUQRonwSKqEpQ/+HeXMRUpql9rflsIiElvRdq3GTpxSiUd3yl9KF8/QNiVvhI9awSYcprDhwlJs2P+AGTPkQ7N6MrNggqTR5KN4QetFfwWSAFohtphkUJHwc0X+8tNYx4FvA+JpGlSBaOmy7npPaRK7qwOLFv2ohpeutjhfh/1a7kEGQM9jTMohtqDKNS/oB4uk3+UxGSbJgn1DrRDaEHrYV8RKWw3+xG8R8RCwv3BCKkbOnzXkyUIiFlraDBLvENUvqOFT8roNgPdQ6HgDgGBTQYlfIz2dmbbsgIFHxB24HN6YpQg71+rptHQzC8otaI7v8dpPj9tSZiihEpEmWQO30C3eAdpPQN8nDcoWonC3tFEfdg4tONbnAK0m8OoRuyAgtchwsLcoQZFDxAurDL5rfoo7SVh2udq/awmL3U+9s5XIEVLyh2caQV/1+KeGlZg0ItWe/Fo5Ai0WW1FHZuL7uOfYwvCY+0EZPSV9/xcceqXaK2kkNAPHEwxZQzUKL4dHG/cr+xCSEK26Ca3Bl2EogCGIguIKXue5HQ5PJg72h73kKhBqnCrtLiO1mB7XJf1GgxiyCot3Ce2stqw9QWVfmefKT2pph91nuoba3232Iyj1yBdO2Ls9VGnICSqIPQNBr2fUhXOMdXSt9kMf2J2CuK+AQTkg5qn9MVgYOUm908nwMWbR4Us6K+PqH00Xruj/5WAPosR97Yngf2wywJ4PN/5e2ZM1iUQRW/xQ6O9Zi4S+lDS5Iz1YbUQBBhseJce9++KmbRykX5exTguNeKvIxgRIpEnYZWSBH3+Ejpw4P5drVP6X4SAjoLFySD5kDxn9KH6NN2aperzZTMok3jxaxud1F7Xq0spkL0W7VS3qY5g6hm0Ol9EPUdHAmSofbe/7fkFlWaJ6aHmKvoFOaUZ2TjIwopEnUaUUh5oY24T+mDiEJ1vqfp/tiClX70AztRbXsx6Sd4obW0wv1UtZckmJX1moBJSdsa/u6j9qWdytAednhdWJFtkMW5VWfP5XAup+Xg41xBMaPj7MTqxxp+BipknmzFzCKP9yqaYyep8ASyVP5uRfiOVZ4l8EE3Ox6jPAvcqiC9L8gKeinrDxfvbBSyOMKKoHxxnn1muhBTf8lGH230H5ZXiBT2lpGx6iVN4shWdIFTfKT0oVfUMxRRsZ709LYT5kvVXlD7Tkyp9koRjRS6Z8U0fG5lhfwvns97NyumSDAcaAW0D34TU8wI+znysd/pITuR9SWmjkvIuxKRkD3s8+QmMWllU6s8S35S+8IuFvRSayFmX47v3nr7SrARqQsdCWn4H5GvIPYvQ0x9IMEXotjK3hu5CylCQo9Orzu3l0ZjH/Pa1C5puE7pg4j6p5i0GhIvsGKJKFNPtZFZ/B4mPbfbCdMbHs+/ifiLliQBRKO29SSiIDzey/Pn+hZTJ0p4Cnbkm5/s5BfiO5uqb4huo1IcFkUmezz/BvZeDyp0gX3FQRe0WCBmP16QlXQH2OMETb9MxyITIYWVGDZvJGGmWBiVcgWq7rhO6XudIiqWfC2m3O2zOXzGDDERqgc9fye4Tyr/7KLW0dOxzwhARFUVU4+In4qj2LMVx0XH4WL244ySmkcrpojpDfet53u+dgCfizS7lg7OH4Ul5gV8DHw+FlbXBHycvpn+w0wjUiV8ppOQC6mt6YbAwWQRjUhdpvQh2tCfro8dQ60A+jIPn4U9DjerveXpWtqobcEhzTu4P3bycNxBYtLBguRvdtLvGqywd42Z8IeIOkVMRCofk/Q/eRRTEFJBlCVHWl/Q0Sjsi0LanYs9TFlV1ashDTMVU5kKqVFCSHgptDc9CZb9xG1K31diekUtp+tjRYmYghIz8/iZmETdJX5ScxCR2pzDmlew6X4vDxN+9KdDMZOgo0XI9EFUaq4H3yI1Ki4ZHIhqn54nEVVVTOE952P/ZRD7pFpb8VwY8LmjTPkqR37C93OwA9F2pGSQ3pdpat84PtdJiMFKS0e6IVBQ+vdqh4J1gpg0gZl0faxAOsZtEsyKPxb8XqGQigWotNbOw3HvV5vk6FhIWR7u4RohUDeNwT2CSfufAxKjL9t5r+umykGkCZ8mwVYDBOjz9J1jfz3tQEj1yuQfMSJFCKkOPNiRY93T0fEgnlDmfDxdHzuwH+rJAD8f6X1jHF8TNu9vwqHNK+ip4zpqgsqRHzs+5gN2AuqafdTqRPweuS5g0YsFn4WOr6lhAEIK7+6g+1PdJ+57iU2WzHu65SJsq91TWK2QsiXQF+u/nMhnOyGJBJXRbnR0rPli9ru8S7fHjhIxZc1XB3gMlDUe6eHaKKTyB1bPfWQYPOdB1OB+nebhWrEPqHmE7xEUmXlRgk3BxH6f2R6uDZP3VB4/azsJtgEvxgKLV+UefDXKwXF7Vue/bMqfjxRCSNLAgxgpfS6q9C2xIuopuj2WDJHgN/GDT8X0nSLRZFdxnyoJAfW5x++F6/04e0Vc/N8h+d0XtSEQQf/Nwzs3X1EpF2l9b0qwi2MbA1krQacTdqruH2QqpHCibIRJSPLoJabjetDgQfyEmD0KJH5A2AxzdCw035zu+PrQlJcFb/LDvnYy6ZKR4qfwA/iXuN8L2lhty4jeH3hXYG9ZmYNjfSLB9kQKGkRTigI+xiiPQgr72IKOSHXOi5BCel+t3nrCBfIDn/GEJAasxFzr6FiIQl1Gl8cWpIaPjbGQIvkDEal6jo8JIbXA0/Ui4jHHw3Eh/qO4T+odtaWOjvWFByGFRYR8VdjrLMFX64OQWuvpXlji4Bj5EVKVekpMEyxCSLxZa58N6KHgonIWCgRcQrfHGqz2u1qIW+1pYkpyB2lIzRwf86cQCG/0VXOd3renRDO9D6m7yxweb5xjoYCemPlI7UNkt3bA5zrDo4gCkyX4iFTj6r4n2QwW0vsGq10vTGEg4Zv4L6Ub8gaq76BL/OUOjvVvtZOEvaLizhxxm/6BqNSvao3o+kjRzoOQQi+i+Z6vG42p0WC0qcNjIiLVIIL3yFLHk/dZ9tlVGDE/dZLg+7BhHFABElG7lIdrxLgUODgOolLDcxZSa8vT6X2L14yQf6r++xuf9yRE4Es8iW7I24MJZYf7SfAFJpDudR1FFCGkipBq6viYEFK+i5NMFveLga0kmql92LfkstT2N/Z4UfMVWggEHZHaXkyqZdxpvLG/zFbJIYR2r7ivYkIIcQMiz0j5ODvg48y3zxI2+04GrvcZcJ9UdIVUMw/3ykrP14051a8eJofMLoovu0jwEamkgIhUKi9CqjIqpb/FvVIkTOAF9AndkBe2syIq6AZ+m6kdSncn5vvJQkUkE1D23HWhiXkhuXYUNljl+JhMfa0eZE6URvC8m3Lo3FCT3EJGpUjYKOVELW9sqra7o2MdJO6qAhJCoiGkXIJCE2FJLcaCg+sy0lGt3OcS13uy8gGjUfmldV6FlI1K/aK/2Z++Jd4pEhk3WRZ0OUvW0BmRAyvPA62gIoSQ2o6PNy9EQmqKuE/vI/GksbgpwpAU2uRVSFkxVaFi6jX97bfoX+IZRKO+oRsiyzZqV0jw3dcJIeEG0XDX+6N+FBa7IfEDFfuK6AY35KJYkeKHqBRT/IhPcP99RjdEGvS7uI5uIIQkGB+V+6JaAp2Q6AupKil+R9GNxCMsNBF9kMt9gjDFjxDiljBFpLAo6HqPVCPhXpo4gtS+FN0QciFlxRRS/IZLoZxFVxLnmP1Rc7qcJd/TGZGnrRr6021GVxBCHIE9UsvoBhIzmNoXFSFVKaZq95anVEz9D91JHIMVvCF0Q2zYW+0muoEQQgghiRBSYPVaWati6gyKKeKYJWrv0g2x4hC1Y+kGQgghhCRCSFFMEecUiUyYKrO6nCXj6IxY0UrtYmGKHyGEBA32GLN1CCFhEFIUU8QxC9UepRtiCVL87qEbCCEBs73aJgm+/knCPWKEVMcoZ0KqipjqxwIUJGAWqf0v3RBbkOJ3Id1ACAmQhuK+CfCG2FFMtTVCSIQIpPOxiqlyFVNPSC3ZQ3+cSzeTvFIkv02YKk93Gui8VCxxRxO108VU8yOEkLjTSFhpjeSHErW1dEOEhZQVUxXFfeRLFVOd9ce36WqSR9D74066IfbspnYj3UAICYgt1OqH5FwQHXPd0wmpfat4G8SO2RRSeQWpfRXOhRQoWy2S2lcWFh8gR+jj4Xj9X3M4HiQnGI1KGmj4fRXdQEjsWSCmr5NLNg+RkGov7lP7fuVtR0huFLg4iAqq8uI+8pKNTt0qpv8PITWB0ahkUU9Mit/edAUhJM+0lPAUm9hSrY7D42GFfSVvgViyVK2cbsgbIzf2l87CyDY6tah2kVxbOlzuljVyqZjN5A04RiQjimThhKlyC6NRXkCqwPtq3dU6OD42Vmr/ovYJh4GQWDNNTDlulyluzUIkpFyCDCGm9cWT8Wou5kkIiqAFTZzTCFOykbQ+p0JqXUFVp7Zcs3K43KtDPdJOlAjZmIhC36jPVUQ9Q2c4BxOb18T0d4L5KE1+qJgUv9s4HITEFpTiLnM8N8FeTOzjXupZRLkWdKPFNLUn8WOWI3GD7+phkvAU0QJfB16l7q/bR7/ERfwik4z4Xu0iusELw9Sus/+NqNRYD+eAFL8z1Q7kcBASW/Bscb1Pqqv4bwCOCsfNHR8TESmm9sWTpY6EVDOfOiLxQoqQjDEpfdd3Gigz6QznIEUAKbiV+xpR5elWT+eyrdoVanU5LITEku/E9Ah0LaRahEBIuY5IsRlv/N/dLsRUT7VCCilCwkotWasi6n2m9HkB6QHX2clNVT4Vf82Qe6hdy6EhJFAgLBp5OO5MD0IKVft28uxvFNOp4/iYE8SkbZP4CikX43uEhKepdSKFFDZwlfB+JxvhK7VT6AbnIDXgfrW31vN3qJz4oNpyL9Ja5ES1AzhEhARGS09CCnzn4Zi9xPSU8sEe1t8u+VZtMW/zWDPRkZA6UhLeSDoMQmoW73eygSnz2G++kyM6DaQrHIOHLyKAd23k33xdzd8HCVL8EJXalENFSCC0FX/7hsao/ez4mIfba/bBfh6E1GgKqdiDJrJlDo6DlNT+SRZTjEiRsIqoOSqiztx5gMynM5wzXO2aav4NNim/KH4KTwCk+A3iUBESCK3F30IFnik/OT4m0vv+JH72XyI1qqHjY6Jo0ELe5rFmtsMxxhaAYgopf0KKESmyroiapyLqNBVRY+gM58xQ+y/JrGk20kPu93iuKLt6NIeMkEDY3tNxsXenxMNxz1bb2fExz/fgZ6RtT+btnQjeVCt1cBxEpW5IqpjyKqRWlUl53T4yMtnZlWQ9IupkFVEj6QwvoB3B1Cz+/QgxPVh8sLWYRr1M8SMk/6D5dhtPxx4q7nscIb0O/epcRqVOVWvq+DpfFvcl5okfPhQ36X3gErUTxEN/2kQLKUsFv9TEiqhvVUQdThEVKUrE314p0MPz8QlxBTaPuyxXjX1Du3qcAPrIVrlUrYujY10pfqoFMq0vObiKSFXymNpekrCK4GG42HI1TpwposapiOqjIuprOiNyYOPyjR6PjxS/8zgMhOSdM8RPVArpfd94OC72Sl0tZo9YkOygdpq43xuFdOyxvK0TxdMOxRTKoL9n38eJyTULi5AaxXs9sZSqiHpy0gzpwsISkQWFJ14TP2WLwSZqp6ttw6EgMWa5uF1dBohKDRA/6TofiPvqfeAwKyCDSvFLqd0rfqJRTOtLHm85fm7ge4O90w+L+95oFFIkYdSSXybNkj+n9pWBO51Bd0SccWKKVPiim5jNroTElRJPwgIVue4Ws6HcJVhJ91VwaJDawIAE5ENq+3u4JmyjeEPcpocS/2B+PdWOv0sG2mcWFiYKQ+yfzpLjIqx3IbWqTCrq9pGZUsQqMgmiXF9PH0+aId1VQD1Nd8QGFJ54x+Pxj1G7gsNAYgoi9ks8HftCtY/t96tFFr+Hnm9tchAk2Cu1wtM1Y1X9nDyLKazSnyl+InyIgn3Pr1EiudmTgMaz4i377Dg4RIIKLQewtxpVipHqiuq/qZp+WFiqa6wVs/p0G+/3mFNLvlcBdZMKqKfojNhRImaz6SGejl9PrZ/aR2qfcThIzPjZo5ACO6rdbidlWOGeojZTTMohFmWRPtRJbXM7YULqWhO1O8REeNbU4JhPiKmkt49HMYXqhZep/ZjD57RSe1ZMcRwfIBrxjOf7h/gDYgYLMQ09HX9PMYusP9r78FW1r8RkpAVNY7Vd1Hqr9bR/riuaOtn/V6OoXViEFJz5BoVUrFmmd9u9KqLuVBG1lO6ILYhKYeXzYk/H7yBm9ZxCisSNxRKOvovYRN7RWtAsUHtcTK+lzTxd70lWTN1uJ4HZruyjRQPSI5t5HDMIQWb9JBcIBBSEQlppfY/nsYWYapWwOWLSDkeKWYTF3GFtDp+NdihI0WsjplgMxFFl2l510aY2uVxUKISUTe+bsXK4DJHV6fAfiZmAmjJT7mzfjwIqAWCMX7CTjxaezuFItcvFrIQTEieQmrVGktWrBdkqKHpxjMdzaG0noYPERN1RtGGSbLhHD0qoHyWmyW8Lz/77QW0Iplr8+iSaf6ldoLab5JDGlkcQpT3FWiW/itlvXW7/e7z8MWrV0H63Ks8ff9dLct+mtK/EILVP5D/pfRRS0QdjOVHvrkdVQL2gAuoXuiRRoBz6DXbi4YPKFD/kZTMyReIEUumQ4rdlwq77cTuBauv5PBAVu9ZamZjeXkvtRA6TOlQpQxpRgxD57q/CaBQxYIERvaUahfT8cF5V01+PcHhsRK9Q3Cbr9L7QNM1aVSbldfvI61LE0pwR5jcVT3dNmS29Ur2lS2pfeZgiKrG8K34LT2B/xiBJSPlVkhjQB2hWAq8bzxNEuteE6JzQM6erWh8xq+L4s3vIRBT2In/Irw2xIJXuJbXVdMV6hVSNCFv3YTwkWcI4itSSsmlz5CUVT5epePqYDkk8SEHyXZERE5urORQkRqDAw9SEXvtNYgrJkMxASt+dYvaZEVLJWWqz6Yb/R2XBiWgLqVVlsrZuHxksteUnjmnkwMP6drqBVAGbR5/wKu9FTlb7E4eCxIiRaosSeN1o/I00tQm8BaoFaYZIb55EV5B1QOoaejz9Rlf8gdhEpACiUjdyTCNELVk5rURe3OE0mUZnkHXENfY2/OzxHLYTU7GKKX4kLnwhyY1KYfM5qoLO522wUdCritE7siGQ4odKkivpit+pccGJ0AkpRKXq9ZEnpXZ6wzqJBnipX0s3kPWAXhF3eT6HA8SkuBASB5DeNybB1499P4h0r+GtsF7+qfY6/UMyuE/QILqMrvidzjURUwUhvRgM7CUc0whQS+ZPK5HLdziNKxtkveBljh5xvldHUT75SA4HiQnYMJ7ktK1r7ESQm+b//+QY+8wX0xUkA9DP6RPJrX9T3IRU1oRSSK0slYp6feQrqS3/4LiGWkQtVxH1kIqooXQG2QhI+XzI8zmgWR8aYzbncJAYgEpsIxPuA6Ts3ieMvFRyH0UUyRJ8dw6wzxOKKdOYNzYRKYip1SqmrlcxNYVjG9ov4AfCKoskM4arPen5HHqr/Z1DQWLCi8JiAhBT91NMpUXUIIooQjGVEz1r8ksFIb+oUrUBwg1x4fviFcrb00rkqB1OozNIRmBzODqrr/B8Hqeq/ZnDQWIANoy/QjektwHcGoJni8/rv4oiiuQopg4WsyiR5D1Tsdojlcam+H0hteVS3uehoUJF1GfTZ8spFFEkS75Uu8fzOWyidrqYED4hUecWMYUFks71ameozUnQNaME/ilqDwgXm0nuIHCB9gJXqK1KqA8a1mRuEPaIFMQUqvg9rmLqEd7n3kEk6k0VUT3anSrL6Q6SJVgxfkFtnOfz6C5M8SPxmfyg6fRndEW6AAeacI9MwLVivNEf7zlhwQ2SX1CwZB+1b8T0nEoaWUelCqJwVXa/1EVSnM4JJ56GQUXUwyqi+rY7lc4gNWaihKNxc19hih+JB9hHPIBiKs13VmDcphbXxb5BageqjeVwk4D4Wm03MXvvkpbqF08hZcVUWYM+coaKKTZ9dU2hLJk+Vy5M9ZCLKKJIHvhYzOqxT5Did4HanhwOQjEVK7DfA1G6HjHzx/tqu4gp8PQbh5kEDKLdF6vtbd/ZSSlEkXXBiYKIXSDygHtJcru6u6ZMRdTz02fLLiqgnqA7SJ7APoYHxf/m8I5qF3I4SIzE1BFqr9IVadC0GGm8R6l9H+HrmKV2iJhiABM5rMQxX6ntq3a82mSJf7pf1lsPIiWklq8SadBH5klxWjG+kKAbebqYnNWnHR2vXAXUmJk/St9UDzlZRdQPfJaQPBOGwhMAKX4sZkPiwkK1Y9TOs/9NTDGODmKq202P0EQQE7r+YhZ8hqTfy4T441X7PYqjoJpg5wFt1S7K9rsWtYhUWkylusvPDQ6WfgnYM1WuI/TV3IWyX6q3fNLqOBkgjdIP1aBKVK5WATVCBdThKqC6bntK+uFNSBAgGvWa2gzP51FPTLWvbhwSEiMeFpMGdqfaErojXYUMCzft7ETwUwlnkQZMTv8tZuF0d7XBass4fCREvGwF1V5qD6ktiKiogni6zIqnTmp3Sw0j1wVRHUkVVKUN+sipKqaujenNulpH56W586WbCqjZ+B8qqMpTXeVbFVUXbXW8NFZR1c9ORnMpVYm8129UQF2nAmpHFVB9VEC9w2cFcQA2tN4WgvPA4gTKJ9fhkJAYMU/tcnt/D1L7mS75fSK4txUqN6tNC8FEEIUj/qLWTO1wtU+ETYZJuPlc7Xy1bdROVnsk5KIKwgm9LAfa7xnE012Sh7TfVNRHsn4dKVg2XLpJaVpQtIjF7Vkgy+ctkCu3ODa9j6RaWm0qRT+8qy+FX9P7x/DS3MreKO3X+acQXJWbBoereBpfMlfGb3OS/MRnQmgpVttOraUEv9kTCytLxeThu6rU00htZ3ud5d6+cWbVFxW/qmtqiQjW9vb7FfR41LKT38kBTKrwjMCqYmnA15Cy5z7N8US+oR2nJg7GqUgNi13TJdwbsuuLKcCAohQHqTUIUMBhf9JoMelAUUgDwjMWab6ohreX9VWQYJ/oh2KaKkPY/RLhdxSifJuLm4X52lZkuqzIiGd+Z/uOCvo+LrD3xgyJbnGHDva7BJ/1tu9K11oDoqnE/jnSPo8Ca1gdeSFlxZQsG6ETzVVptfmnCF8KUvnGq4jqryJqPDUEIYSQgMTftlZYoSDDpmpdJfPFyDl2orLCiuSp9v9hkrsgBv7ZUUxFz87WT0iTbFUDsYAFqUnWR3PFVBGE/Sjc80SSARbtWltRlbLPHPyJiFDTGugQLFpVRpFm2ecQFoDHWbE0Thwv3KTiNFoN60mtX4fJ8SqoEK5rGbHTX6GP6FtVRN2hIqqM3z1CCCGegGhAyg7SXeeLidauoFvSERFE0BtvRAghkvyT9VkpXUZIRiA7BQsXlYsV+HNkFBYcUnEbCRVTomJqMxVT2ESGykX1Q37K2Av1lgqoy1VAzeR3iRBCCCGEkPCTiuuFqaBKqaDaXgXVTfrjcSEVUO+ogLpBBRQ7lBNCCCGEEEIhFR4a1ZfUUkSoVv4eoarn+ZTKVEA9//Miub/l0emqZYQQQgghhBAKqVCLqiIVVWeqqEL394McHho5npNVQN2tAuodFVCskkcIIYQQQgiFVOQEFaJUzVVQoQN8D2tb5vkwaPb3gXr4jQWL5cPNjpIpvN0IIYQQQgihkIoNTRpIweJh0lZWSBf9EbaP9c0+Gfw6ok0oEoFyjOP0t2apcPpahdNoepYQQgghhBAKqUTStKGkFg2VZiqyUPN+rfVa+aIlMrN533TfDEIIIYQQQgghhBBCCCGEEEIIIYQQQgghhBBCCCGEEEIIIYQQQgghhBBCCCGEEEIIIYQQQgghhBBCCCGEEEIIIYSQmvB/AgwAWTLv4AD6z+wAAAAASUVORK5CYII=;" parent="127" vertex="1">
                    <mxGeometry x="10" y="70" width="106.25" height="20" as="geometry"/>
                </mxCell>
                <mxCell id="96" value="BigQuery" style="html=1;fillColor=#5184F3;strokeColor=none;verticalAlign=top;labelPosition=center;verticalLabelPosition=bottom;align=center;spacingTop=-6;fontSize=11;fontStyle=1;fontColor=#999999;shape=mxgraph.gcp2.hexIcon;prIcon=bigquery" parent="127" vertex="1">
                    <mxGeometry x="210" y="40" width="66" height="58.5" as="geometry"/>
                </mxCell>
                <mxCell id="102" value="" style="aspect=fixed;html=1;points=[];align=center;image;fontSize=12;image=img/lib/mscae/Docker.svg;fillColor=none;" parent="127" vertex="1">
                    <mxGeometry x="121.71000000000001" y="10" width="36.59" height="30" as="geometry"/>
                </mxCell>
                <mxCell id="126" value="" style="endArrow=classic;html=1;entryX=0.156;entryY=0.532;entryDx=0;entryDy=0;entryPerimeter=0;" edge="1" parent="127" source="65" target="96">
                    <mxGeometry width="50" height="50" relative="1" as="geometry">
                        <mxPoint x="190" y="30" as="sourcePoint"/>
                        <mxPoint x="190.08334999999988" y="82.82999999999993" as="targetPoint"/>
                    </mxGeometry>
                </mxCell>
                <mxCell id="129" value="DB" style="text;strokeColor=none;fillColor=none;html=1;fontSize=24;fontStyle=1;verticalAlign=middle;align=center;" vertex="1" parent="1">
                    <mxGeometry x="-270" y="390" width="100" height="40" as="geometry"/>
                </mxCell>
                <mxCell id="130" value="SaaS" style="text;strokeColor=none;fillColor=none;html=1;fontSize=24;fontStyle=1;verticalAlign=middle;align=center;" vertex="1" parent="1">
                    <mxGeometry x="-270" y="660" width="100" height="40" as="geometry"/>
                </mxCell>
                <mxCell id="131" value="ClientLog" style="text;strokeColor=none;fillColor=none;html=1;fontSize=24;fontStyle=1;verticalAlign=middle;align=center;" vertex="1" parent="1">
                    <mxGeometry x="-270" y="815" width="100" height="40" as="geometry"/>
                </mxCell>
                <mxCell id="132" value="" style="shape=image;verticalLabelPosition=bottom;labelBackgroundColor=#ffffff;verticalAlign=top;aspect=fixed;imageAspect=0;image=data:image/png,iVBORw0KGgoAAAANSUhEUgAACVQAAAcQCAYAAAA2SFiwAADFnElEQVR4AezBMQEAAADCIPun9l8GYAEAAAAAAAAAAAAAAAAAAAAAAAAAAAAAAAAAAAAAAAAAAAAAAAAAAAAAAAAAAAAAAAAAAAAAAAAAAAAAAAAAAAAAAAAAAAAAAAAAAAAAAAAAAAAAAAAAAAAAAAAAAAAAAAAAAAAAAAAAAAAAAAAAAAAAAAAAAAAAAAAAAAAAAAAAAAAAAAAAAAAAAAAAAAAAAAAAAAAAAAAAAAAAAAAAAAAAAAAAAAAAAAAAAAAAAAAAAAAAAAAAAAAAAAAAAAAAAAAAAAAAAAAAAAAAAAAAAAAAAAAAAAAAAAAAAAAAAAAAAAAAAAAAAAAAAAAAAAAAAAAAAAAAAAAAAAAAAAAAcPbgkAAAAABA0P/XdjcAAAAAAAAAAAAAAAAAAAAAAAAAAAAAAAAAAAAAAAAAAAAAAAAAAAAAAAAAAAAAAAAAAAAAAAAAAAAAAAAAAAAAAAAAAAAAAAAAAAAAAAAAAAAAAAAAAAAAAAAAAAAAAAAAAAAAAAAAAAAAAAAAAAAAAAAAAAAAAAAAAAAAAAAAAAAAAAAAAAAAAAAAAAAAAAAAAAAAAAAAAAAAAAAAAAAAAAAAAAAAAAAAAAAAAAAAAAAAAAAAAAAAAAAAAAAAAAAAAAAAAAAAAAAAAAAAAAAAAAAAAAAAAAAAAAAAAAAAAAAAAAAAAAAAAAAAAAAAAAAAAAAAAAAAAAAAAAAAAAAXe3BIAAAAACDo/2u7GwAAAAAAAAAAAAAAAAAAAAAAAAAAAAAAAAAAAAAAAAAAAAAAAAAAAAAAAAAAAAAAAAAAAAAAAAAAAAAAAAAAAAAAAAAAAAAAAAAAAAAAAAAAAAAAAAAAAAAAAAAAAAAAAAAAAAAAAAAAAAAAAAAAAAAAAAAAAAAAAAAAAAAAAAAAAAAAAAAAAAAAAAAAAAAAAAAAAAAAAAAAAAAAAAAAAAAAAAAAAAAAAAAAAAAAAAAAAAAAAAAAAAAAAAAAAAAAAAAAAAAAAAAAAAAAAAAAAAAAAAAAAAAAAAAAAAAAAAAAAAAAAAAAAAAAAAAAAAAAAAAAAAAAAAAAAAAAAAAAgIs9OCQAAAAAEPT/td0NAAAAAAAAAAAAAAAAAAAAAAAAAAAAAAAAAAAAAAAAAAAAAAAAAAAAAAAAAAAAAAAAAAAAAAAAAAAAAAAAAAAAAAAAAAAAAAAAAAAAAAAAAAAAAAAAAAAAAAAAAAAAAAAAAAAAAAAAAAAAAAAAAAAAAAAAAAAAAAAAAAAAAAAAAAAAAAAAAAAAAAAAAAAAAAAAAAAAAAAAAAAAAAAAAAAAAAAAAAAAAAAAAAAAAAAAAAAAAAAAAAAAAAAAAAAAAAAAAAAAAAAAAAAAAAAAAAAAAAAAAAAAAAAAAAAAAAAAAAAAAAAAAAAAAAAAAAAAAAAAAAAAAAAAAAAAAAAAAADAxR4cEgAAAAAI+v/a7gYAAAAAAAAAAAAAAAAAAAAAAAAAAAAAAAAAAAAAAAAAAAAAAAAAAAAAAAAAAAAAAAAAAAAAAAAAAAAAAAAAAAAAAAAAAAAAAAAAAAAAAAAAAAAAAAAAAAAAAAAAAAAAAAAAAAAAAAAAAAAAAAAAAAAAAAAAAAAAAAAAAAAAAAAAAAAAAAAAAAAAAAAAAAAAAAAAAAAAAAAAAAAAAAAAAAAAAAAAAAAAAAAAAAAAAAAAAAAAAAAAAAAAAAAAAAAAAAAAAAAAAAAAAAAAAAAAAAAAAAAAAAAAAAAAAAAAAAAAAAAAAAAAAAAAAAAAAAAAAAAAAAAAAAAAAAAAAAAAAOBiDw4JAAAAAAT9f213AwAAAAAAAAAAAAAAAAAAAAAAAAAAAAAAAAAAAAAAAAAAAAAAAAAAAAAAAAAAAAAAAAAAAAAAAAAAAAAAAAAAAAAAAAAAAAAAAAAAAAAAAAAAAAAAAAAAAAAAAAAAAAAAAAAAAAAAAAAAAAAAAAAAAAAAAAAAAAAAAAAAAAAAAAAAAAAAAAAAAAAAAAAAAAAAAAAAAAAAAAAAAAAAAAAAAAAAAAAAAAAAAAAAAAAAAAAAAAAAAAAAAAAAAAAAAAAAAAAAAAAAAAAAAAAAAAAAAAAAAAAAAAAAAAAAAAAAAAAAAAAAAAAAAAAAAAAAAAAAAAAAAAAAAAAAAAAAAAAAcLEHhwQAAAAAgv6/trsBAAAAAAAAAAAAAAAAAAAAAAAAAAAAAAAAAAAAAAAAAAAAAAAAAAAAAAAAAAAAAAAAAAAAAAAAAAAAAAAAAAAAAAAAAAAAAAAAAAAAAAAAAAAAAAAAAAAAAAAAAAAAAAAAAAAAAAAAAAAAAAAAAAAAAAAAAAAAAAAAAAAAAAAAAAAAAAAAAAAAAAAAAAAAAAAAAAAAAAAAAAAAAAAAAAAAAAAAAAAAAAAAAAAAAAAAAAAAAAAAAAAAAAAAAAAAAAAAAAAAAAAAAAAAAAAAAAAAAAAAAAAAAAAAAAAAAAAAAAAAAAAAAAAAAAAAAAAAAAAAAAAAAAAAAAAAAAAAAAC42INDAgAAAABB/1/b3QAAAAAAAAAAAAAAAAAAAAAAAAAAAAAAAAAAAAAAAAAAAAAAAAAAAAAAAAAAAAAAAAAAAAAAAAAAAAAAAAAAAAAAAAAAAAAAAAAAAAAAAAAAAAAAAAAAAAAAAAAAAAAAAAAAAAAAAAAAAAAAAAAAAAAAAAAAAAAAAAAAAAAAAAAAAAAAAAAAAAAAAAAAAAAAAAAAAAAAAAAAAAAAAAAAAAAAAAAAAAAAAAAAAAAAAAAAAAAAAAAAAAAAAAAAAAAAAAAAAAAAAAAAAAAAAAAAAAAAAAAAAAAAAAAAAAAAAAAAAAAAAAAAAAAAAAAAAAAAAAAAAAAAAAAAAAAAAAAAAFzswSEBAAAAgKD/r+1uAAAAAAAAAAAAAAAAAAAAAAAAAAAAAAAAAAAAAAAAAAAAAAAAAAAAAAAAAAAAAAAAAAAAAAAAAAAAAAAAAAAAAAAAAAAAAAAAAAAAAAAAAAAAAAAAAAAAAAAAAAAAAAAAAAAAAAAAAAAAAAAAAAAAAAAAAAAAAAAAAAAAAAAAAAAAAAAAAAAAAAAAAAAAAAAAAAAAAAAAAAAAAAAAAAAAAAAAAAAAAAAAAAAAAAAAAAAAAAAAAAAAAAAAAAAAAAAAAAAAAAAAAAAAAAAAAAAAAAAAAAAAAAAAAAAAAAAAAAAAAAAAAAAAAAAAAAAAAAAAAAAAAAAAAAAAAAAAAAAALvbuAca2LA3D8Lf2PnV9x7Zte+KxbTsaxB07Y9u2EY8RjB207S6cunXOXqvt7pPy1fNEK9aK3/wf2wEAAAAAAAAAAAAAAAAAAAAAAAAAAAAAAAAAAAAAAAAAAAAAAAAAAAAAAAAAAAAAAAAAAAAAAAAAAAAAAAAAAAAAAAAAAAAAAAAAAAAAAAAAAAAAgBIAAAAAAA474888/uaZLN8y3ehOadN7pNYHpJRbpvRPDleqNZuFmm3Thp+ltdOT9ve09v+0elzacHqSswMAALDFyviD9woAAAAAAIewvTe/eYbpI9Mmj0vpnpxWHphtJ6ii5pDQhr+k1V+ktd+mTv4ksjrCAQCAoAoAAAAAgO5m99hfF858YoaV56cbvSoIqgRVs9Xp59Pqd1LKr5IsZgMAAADK+CMPyEEGAAAAAMCuG948k/FT0nXvcIFKUCWo2uAFqzp8InXyXderDicAAOBCFQAAAAAAc3vnUspLRFSCKkHVVsZV0/el3/nNJJMAAACsQhl/7KHZRgAAAAAAlO5+afVd5vwEVYKqbZ4FrNP3JPl3AAAAZijjD903WwsAAAAAgHrGv0p324c+Jl3/0U27RjWspA2TZDJO6pDUaTId56raZP6QD4xEQOK0snN/rma0O+lGSdcnc7tT+p1Jv2MzJwHfVk//xx+TtFwDAABAWTwmWwcAAAAAgNLd/tFPSxs+nZRbZb2my2kHFpLJ0qUh1WQ+qyeoYluDqq0Nr/odydyeS9+j3Vm/dlqGyevq6f/4ubAKAADYhqAKAAAAAICLQqqnrzOkujKgWj4vbTJvAk9QJaiaFVntutE6A6srw6okPwsAAECSMv7w/QMAAAAAwCaa23unlPqDtU77teULLg2oVuaTupLNJ6jiCP87/Y4rA6tdN1r7FOAweXaSE3JUAwAAyvhD980mAAAAAABgtGsuyafTjV61pktUC2ekHTgvaYMoZrMIqvydrr8kqir7brm2y1V1+vl0ozclmeSoBAAAlPHHHhoAAAAAADao3/H0tPrjrEYb0pbOTVs8Pakr2WKCKvydfsclYVXZc9Ok9FmVYeVpa5wBBAAATP4BAAAAANDd5M776wWnfCulf/IqAo20+dOuvEa1nQRV+DtXXq3af5uk37Ga+PFnafWFSRZz1AAAAMr4Iw8IAAAAAADr0M89NmX021WHVMtn52ASVOHvXKnsuenqw6ph5TFJ/hAAAMCFKgAAAAAArq2e/o/S3eahn083etWhH1IJqvB3NiWsqtPP19P+9rokLUc0AACgLB4TAAAAAABWaXTvZ+6vC6f9Jq08cMZMWNrCWWmLp+TQIajC35nhkqiq7LtFUvpZE4B/SauPNwEIAAAm/wAAAAAAuFi/834p3T8yQ1s6N23+xKQNORQJqvB3Zuj6lBvc/pKrVTNNl++b5N85IgEAAGX8ofsGAAAAAIDZMrf7lSn9F2fO+513QtpkPocwQRX+ziqUnftTbnSn2TOAw4FXJPlKjjgAAEAZf/h+WQMAAADgQvbuAcaWNA/j8Ft16jaux7ZtMxzGxjjmKlzGydr2bjTBemOsbZvXRrurvkFnLruDy9N9nic2TlVFv/P+ARg8w6vflK59VxZQxram7F3fp6tUgqojgmen7s2dAVxxZhbUzbw+yfuzpAAAAE2qOgAAAAAAHK7b+NuqPv+uzyXlmb5apTr+gK5N2fW/ZHLnwmtV9bL3pZu9sdv4mxeSlAAAAEtCNfaWHA4AAAAAgKq+4M5vp+o9Ot86T5ncnbLr34tilcpCFZ6dY7BWtfbiVCNrM6/Sfrvb8Osnl0ZUBQAA1AEAAAAAYOGYah5l17qUnf9IShtgQNaqtv9jbrFqPlXv8fqcm7+ZpAoAADAwQRUAAAAAgJiqtCnb/p4ysTmDByhjm1O2/TUp7WBEVQAA4OQfAAAAAAD1+Xd9PnX9TA41PZ5u+z+SbjqLmZN/eHaOgd5Q6tMuT5rRHKab/VyS5wMAACxa1cSHb0oSAAAAAACGVrwpKe/KoWYn0m35S1JaUcwcQZWgirqX+vSrFoiqZl6f5P0BAAAWpSYpCQAAAACAxZmn54upyvi2lN3rDo6pALo23da/pFp9Qarlp+Ug9bL3pZ3amuTLAQAAFp0mpctAAwAAAAAYOfXGlJkvzBtT7fxvABaKqsrOfyfJ4VFVb/hLmZ38ZZI/BgAAWGxBVcmgAgAAAACoT7tsVTe25TdiKuBILRhVNSN/SDezMslYAACARaNJ3csgAgAAAADoNv62yvCq76Wqjk9MBYiqqvp73YZf35akBAAAWBSabuNvM4gAAAAAAOrz7/pcquqm4xZTAaKqqndLffZNn0nyfAAAgEWhqc++KQMHAAAAAGBoxQNJeSYHmp1I2b0uAEeq7P5fqqHlSTOafermubTTn0ryo/Q9AACgSekySAAAAAAA6lMvWdWNbfnuoTFVt/VvSdcG4Ih1bbqtf0l9+lUHR1W9oR+mm1mZZCx9DQAAaFJVGSQAAAAAAN3ejS+m6mWf0qbb8d9jF1MBoqptf0995rU56FtT1S8meSL9DgAABFV1BgYAAAAAQDP6ZKo8mgOU7f9KZsZzzAC00ynb/5HqtCuzT9V7PO3040m+nb4FAAA06doMAgAAAACA+pKHh7v1P/9GDlB2rUuZ2pNjDGDu27Lrf6nWXJB9ekPfSjKUZCZ9CQAAaNIbyiAAAAAAAOj+/9NPpK7zmjK5M2Vsc44TgLlvzPCqVCNrs083+4kkz6dfAQCAharZLHkAAAAAAM3oxamrZw46x7XzvzneAMrOf6c649rs+5N73TyX2cl3JPlvTgoAAEBQBQAAAABQ5avZby6m6tocdwBdOxdVnXZl9ukt+2qSW9N3AACAJr1lWdIAAAAAAJrRJ1Plpv0nuLakTO3JCQIw980Z25xqxZl5VdW7Je3040m+nX4DAAAWqtosVQAAAAAA3abfVfWFd38qqfaf+tuzIScaQNmzPtXI2v2n/3rLPtOt/+W5SUr6BgAA0HSbfpelCgAAAACgvuCeJ5Kc7dRf/wGn/6qz67NueKy/VqoAAICmPuuGLFUAAAAAgHWqVGXfOlUZ3+bUH3DyT/+Nb0u1/DQrVQAAYKEKAAAAAODEqi+89/6knJ1XlDZl97oAnGxl9/9Sja5Nqt5rK1V3J/lRjisAAMBCFQAAAABA6T6Uqsoryt6tTv0B/XP6b+/mVKvOyavq3keS3BoAAKAvNKl7WXIAAAAAAIZW35gyc1Ne0U6n7FkfgH5R9qyfO/vXG0qq3i2Znbw2yR8DAACcdE3amSw5AAAAAADt1BtS15kLFzYGoC+jqrUX51V186Ykz2fAAfASe3egIdcZhgH4/c+c3WyzTRK2STQkAqqoRkCUtAFIAQiBEgkUgAB6Pb2G3EKhKOgNlFabboXd2cnszDmnjqEAlDWz//E8F/H68Hq/SwLAQlWbKQEAAAAAaB58c6X//eeX/61TnR3nsgEYs6lcu7tZqWraV0m+T7IKAACgUAUAAAAAcJH63356kdleXetUgJWqbvkiyY/ZKQAAoE23DAAAAADApOx//KbCdSrAStWbiy1UAQAAFqoAAAAAAK5cu5V+/TBJhtN3uewAhtM/U27cS8rsUVbzoyTHAQAAdqbN+kMAAAAAACZj7+rLjIYuw+I4AJfdmFXl+t2kzJKm/fbiVqoAAAALVQAAAAAAQ/9dSsmweJ/0XQAuvb7LmFnl6tHFvf0DAAAUqgAAAAAAmpv3r/Xzd5t3f/O/UwuAYf7XWKjavP3rV4dJ5gEAAHaizdAHAAAAAGAK+tN3T1OSrBfJ6izVAFidbbKr/SgZhqdJ3gYAANhVoWoIAAAAAMAkDP3zlCbD/J/UBmBc1is37iWleb67QhUAANCmNAEAAAAAmISmeZkkw+I4lQEYs2tTqGraV0leZycAAIA2TZvqAQAAAADsX72Vfp3hw/uk71IdgL4bMyzl4Gaymh8lOc7WAQAAbVbzVA8AAAAAYLb/OCXJcp5qASxPkrFQ1ew99vZvZwAAsFC1l/oBAAAAAAxPkrJZqKoTwJhhm7d/pTzZTaEKAABoU0oAAAAAACbgWdaLpDtPtQDGDFsvktn+syQ/BAAA2EWhqknNAAAAAAD6P34pzf2vHg7L09QOYFiepBzefhQAAGBXhapZagYAAAAA0Dz4+pP060ShCpiC5UlyeDtZzY+SHGerAACANqt5AAAAAACqtnf4aZIM5ycBqN2YZSVJyuzO/y9UAQAAFqoAAAAAAPrV/XSLpO8CUL0xy9aLpMweJPk1AADAtgtVTQAAAAAAqlbK58P5WQCmYsy0cnD9syRvAwAAbLtQVQIAAAAAULW++yKrDwGYjNVZcnDjy2wdAADQJiUAAAAAAFUrw52sFwGYit1lGgAA0AYAAAAAoHZl9mxYngRgKsZMK037KsnrbBUAANCmaQMAAAAAULWhC4BsAwAALkJb+zEOAAAAADCslgGYXradZfsAAID2Eh7jAAAAAAAArM+zfQAAQFv9MQ4AAAAAUJoATE53nu0DAADa6o9xAAAAAID2IAAAAAAXoQ0AAEzOv+zcAQaAQBCG0TGm+x82QqnCAghYaeu9Q4wfn/kdAADWOQDcNgAAoIcyxgEAAACAxocqAAAAgIx7AAAAAAAAAAAAgioAAAAAAAAAAABBFQAAAAAAAAAAgKAKAAAAAAAAAACAisEBAAAAAJzbEj0AuG0AAEANP8YBAAAAAHKKzwE49ngeAABQxjgAAAAAIKgCAAAAaDIAAAAAAAAAAAAQVAEAAAAAAAAAAAiqAAAAAAAAAAAABFUAAAAAAAAAAACCKgAAAAAAAAAAAEEVAAAAAAAAAACAoAoAAAAAAAAAAEBQBQAAAAAAAAAAIKgCAAAAAAAAAAAQVAEAAAAAAAAAAAiqAAAAAAAAAAAABFUAAAAAAAAAAACCKgAAAAAAAAAAAEEVAAAAAAAAAACAoAoAAAAAAAAAAEBQBQAAAAAAAAAAIKgCAAAAAAAAAAAQVAEAAAAAAAAAAAiqAAAAAAAA4P0u9uDAAgAgiAFYdf+hnw7xcEkAADigGQAAAAAAAAAAAJoBAAAAAAAAAACgGQAAAAAAAAAAAJoBAAAAAAAAAACgGQAAAAAAAAAAAJoBAAAAAAAAAACgGQAAAAAAAAAAAJoBAAAAAAAAAACgAQAAAAAAAAAAGJoBAAAAAAAAAACgGQAAAAAAAAAAAJoBAAAAAAAAAACgGQAAAAAAAAAAAJoBAAAAAAAAAACgGQAAAAAAAAAAAJoBAAAAAAAAAACgGQAAAAAAAAAAAJoBAAAAAAAAAACgGQAAAAAAAAAAAJoBAAAAAAAAAACgGQAAAAAAAAAAAJoBAAAAAAAAAACgGQAAAAAAAAAAAJoBAAAAAAAAAACgGQAAAAAAAAAAAJoBAAAAAAAAAACgGQAAAAAAAAAAAJr/AOCxBwckAMAwDMBK/Ys+VMUZSQAAAAAAAADgS80AAAAAAAAAAADQDAAAAAAAAAAAAM0AAAAAAAAAAADQDAAAAAAAAAAAAA0AAAAAAAAAAADTAAAAAAAAAAAAMA0AAAAAAAAAAADTAAAAAAAAAAAAMA0wAAAAAAAAAADQDAAAAAAAAAAAAM0AAAAAAAAAAADQDAAAAAAAAAAAAM0AAAAAAAAAAADQDAAAAAAAAAAAAM0AAAAAAAAAAADQDAAAAAAAAAAAAM0AAAAAAAAAAADQAAAAAAAAAAAAMA0AAAAAAAAAAADTAAAAAAAAAAAAMA0AAAAAAAAAAADTAAAAAAAAAAAAMA0AAAAAAAAAAADTAAAAAAAAAAAAMA0AAAAAAAAAAADTAAAAAAAAAAAAMA0AAAAAABzx2INDGwBgGAZgUf4/elLwWKntKwAAAGgAAAAAAAAAAACGZgAAAAAAAAAAAGgAAAAAAAAAAACYBhgAAAAAAAAAAGgGAAAAAAAAAACAZgAAAAAAAAAAAGgGAAAAAAAAAACAZgAAAAAAAAAAAGgGAAAAAAAAAACAZgAAAAAAAAAAAGgGAAAAAAAAAACAZgAAAAAAAAAAAGgGAAAAAAAAAACAZgAAAAAAAAAAAGgGAAAAAAAAAACAZgAAAAAAAAAAAGgGAAAAAAAAAACAZgAAAAAAAAAAAGgAAAAAAAAAAACYBgAAAAAAAAAAgGkAAAAAAAAAAACYBgAAAAAAAAAAgGkAAAAAAAAAAACYBgAAAAAAAAAAgGkAAAAAAAAAAACYBgAAAAAAAAAAgGkAAAAAAAAAAACYBj4ee3FgAQAMAEGsbv+hi9+h0ATCjwAAAAAAAAAAaAEAAAAAAAAAANACAAAAAAAAAACgBQAAAAAAAAAAQAsAAAAAAAAAAIAWAAAAAAAAAAAALQAAAAAAAAAAAFoAAAAAAAAAAAC0AAAAAAAAAAAAaAEAAAAAAAAAANACAAAAAAAAAACgBQAAAAAAAAAAQAsAAAAAAAAAAIAWAAAAAAAAAAAALQAAAAAAAAAAAFoAAAAAAAAAAAC0AAAAAAAAAAAAaAEAAAAAAAAAANACAAAAAAAAAACgBQAAAAAAAAAAQAsAAAAAAAAAAIAWAAAAAAAAAAAALQAAAAAAAAAAAFoAAAAAAAAAAAC0AAAAAAAAAAAAaAEAAAAAAAAAANACAAAAAAAAAACg8woAAAAAXPbiwAIAGACCWN3+Qxe/REsCeRwAAAAAtAAAAAAAAAAAAGgBAAAAAAAAAADQAgAAAAAAAAAAoAUAAAAAAAAAAEALAAAAAAAAAACAFgAAAAAAAAAAAC0AAAAAAAAAAABaAAAAAAAAAAAAtAAAAAAAAAAAAGgBAAAAAAAAAADQAgAAAAAAAAAAoAUAAAAAAAAAAEALAAAAAAAAAACAFgAAAAAAAAAAAC0AAAAAAAAAAABaAAAAAAAAAAAAtAAAAAAAAAAAAGgBAAAAAAAAAADQAgAAAAAAAAAAoAUAAAAAAAAAAEALAAAAAAAAAACAFgAAAAAAAAAAAC0AAAAAAAAAAABaAAAAAAAAAAAAtAAAAAAAAAAAAGgBAAAAAAAAAADQAQAAAAAAAACAr1324MACACCIAVh1/6Gf4ic4QJI70AwAAAAAAAAAAADNAAAAAAAAAAAA0AAAAAAAAAAAADANAAAAAAAAAAAA0wwAAAAAAAAAAADNAAAAAAAAAAAA0AwAAAAAAAAAAADNAAAAAAAAAAAA0AwAAAAAAAAAAADNAAAAAAAAAAAA0AwAAAAAAAAAAADNAAAAAAAAAAAA0AwAAAAAAAAAAADNAAAAAAAAAAAA0AwAAAAAAAAAAADNAAAAAAAAAAAA0AwAAAAAAAAAAADNAAAAAAAAAAAA0AAAAAAAAAAAADANAAAAAAAAAAAA0wAAAAAAAAAAADANAAAAAAAAAAAA0wAAAAAAAAAAADANAAAAAAAAAAAA0wAAAAAAAAAAADANAAAAAAAAAAAA0wAAAAAAAAAAADANAAAAfI+duzi3GgqgMLpPcuE57jBiioxwd4cCkBJwKARrgRGdUAQ6wd0hwd3d1rquSQH/twEAAAAAQFAFAAAAAAAAAADwKwmqAAAAAAAAAAAABFUAAAAAAAAAAACCKgAAAAAAAAAAAEEVAAAAAAAAAACAoAoAAAAAAAAAAEBQBQAAAAAAAAAAIKgCAAAAAAAAAAAQVAEAAAAAAAAAAAiqAAAAAAAAAAAABFUAAAAAAAAAAACCKgAAAAAAAAAAAEEVAAAAAAAAAACAoAoAAAAAAAAAAEBQBQAAAAAAAAAAIKgCAAAAAAAAAACgk78cAAAAAEDb5m3lzQcAAAAAC1UAAAAAAAAAAAAWqgAAAAAASptn2o99XgIAAABgoQoAAAAAAAAAAODfXqgCAAAAAGjzXPnYMhUAAACAhSoAAAAAAAAAAAALVQAAAABl+aauQX2DR5acn1k6QweX5vLG1P2dtA+nlqpMSxmcr9Pk12vzezX5ozRNPobmvz/XS0ePp6unSdo8U/JC+ciCVZu3lJJ/BwAAACCoAgAAAMRTne4bk+pOs6TUWVzSbkv9MMnTW3+SR0k9NM/V+fcAjx4k91I9j6oAAAAABFUAAADA/2bQ+nmT605ZUqpqZ6lvT0/pyTOAqKq7SfvOMlUJAAAAwD8UVAEAAAD07jhWPzp5ZGpV3d1Sqmp/6qEBsFQFAAAACKoAAACA/8qgNSvHdbrvbMvZg/vqroExSW+SNm8CaNuSlx7ezxNVBne3KWnz1HuLVeXd3+ctpeTHAgDgMXv3ECYNdkBh+NyqLsW2bTtZR+NNnH1s23bW4TbmKk620XZsm+X7o5KZqban8b7tLtf6e84FAEHVVgAAAADWqKZnfemFjXbru2mWZ6TcPQAbMR6VHNPp1uxLAAAAgKAKAAAAoHHaB3rtyV9enQu++aXGne5//2yXyY2Z/bwpx9V+Uie5VR0kdZRVTafZfdPcsWr2lmn2jOnUe7O3nuvShakk42FJ6vxSVUpmauaVAAAAAAiqAAAAgL2heTyk+uObS/nH19O5bzZvMounJv1ketNtoRRgqapXs/cBAAAAgioAAADA0X7nfvnljfKP36bzgM0HVOMbk+nNSb0lhxNQa44rZenfs6hqfqmqlrnr37EAAAAAQRUAAABA94RnvDjnf/lnjc697580NxZRja9NJjckk+uybwGWqgAAAABBFQAAAEDnlJfdvzG99Pulc79XprSybpNrksn1yfj6JNMArLpUlZmaRUtVZX6p6rYrrHC7AAAAAIIqAAAAYKc43u+cz7++0bz5R2k/JOtSR8n40mR8Q1InAbBUBQAAAAiqAAAAgAOxSpVzv/D7Rvf+z0qaWdPkxmR8xewnwHrUzJRl/iy3+7sm42FJSUm7W1OXLFPt4EQVAAAAIKgCAAAA6J3yvFeWxrW/y8IDhVTA7iurL1W1ezUAAAAAgqpdAQAAAI74q2d/6tdl4a6vTKMrpAJ2VK0lx5TU5SenygpRVUna3brDi1QAAACAoAoAAABwxN95n/536T3kgUkzK6qjZHRxMr4+ALtrfqmq060BAAAAEFQBAAAA265z0kue1iyX/zeth2Vlk2R0ZTK6PADboq4xSFUyp6bkmFJrxsOSktlSFQAAAMBCAAAAALZJ74Qnv7G0pj9O80GrH+83vDCpo+w1gKWqdq8GAAAAEFQBAAAAbFnvxKe9u7Tv+Y0077LKKtVlyeiqAGy3mpmSkpk6//+a42qZ/zuNRVFVsVQFAAAAgioAAACALbjTO37arGd99NOlc9+PptHNsqb9ZHCuVSpg/yxViaoAAABAUAUAAJsBgJgq53zsl6X7kBNXjKnGVybDS7IrAOrcj5SSlZXbX1FUNQMAAAA0AmwBAACAmCqdh64QU02S4Xliqr0JKGsvVQ37JQAAAICgCgAAAGBd6tmf/MyKMVUdJf1zkvH12U0Adfa1qrKO25UkE1EVAAAACKoAAAAA1qN3whPfVbr3+8iyMdW0n/TPSKa3ZK8BKFmdpSoAAABgIcCGAAAAiKme/MbSvec307hLlphcMzvir06ymwBqZsridKrWzZRUS6KqY9rd3AYAAAAQVAEAAAB0TnrJ08rC8Mdp3nP5mGpwYQ4igFlUVdLu1gQAAAAQVAEAAAB0TnnZ/Zu55L9pPVxMdeAAZUNLVTUAAACAoAoAAAA4xO70jp82c87H/5XeI8VUBxogqgIAAAAaAQAAAFhDPftjv0rnIQ9Kmktjqv6F2ZMAys5FVcN+CQAAACCoAgAAAA6h3inPPaF07nNCGl0xFbB/lG2+rqgKAAAABFUAAAAAnVNedv+SwW/TvGfmTPvJ4OIAHLSYSlQFAAAALGQZAAAAAHd6x0+bOevDv82dH5s5dZj0z0rqNPsZIKYq23T83zHtbs3uAwAAACxUAQBwhL17gJXlAMMw/M3McW3Eady4tm0jThX1xDXCWrHqqIqK2E5j69q2FrPb5OKc2ruZ3fs84XJivvl+ABia3tJXH83sWecnVRbVyYFVYirg6BqmslQFAAAAFqoAAAAAp/7KrP885Qn5hdaapLc/TQNQDOpPLVUBAACAhSoAAACAsl75UabOyi90tyTdXTlqAAotS1UAAAAgqAIAAACYueOiK4rJ429LMZUFvQNJa30AxFR//rtuV1QFAAAAgioAAABgbMzNf1OV/e1fZvKMLKqTAyvypwDEVAtEVQAAACCoAgAAAMZEb9nrt2T69LPyc+2NSb+TkQVQDC+mElUBAACAoAoAAAAYE9U9z8yW2fVdqpOyoLcn6WzNXwMQU4mqAAAAQFAFAAAAjJGp9ndPZfrXp/7WBEBz9dc/FFUBAACAoAoAAAAYI+U9z8wWRff9X6xTdbb861N/AGKqRbWoCgAAAARVAAAAwGiZav9w/y/WqfrtpL0pAKOoaNADitGKqgAAAABBFQAAADA3/01VFp03f7FO1VoTgP+BmGq0lqoAAAAAQRUAAADQW/b2pZk88azFN/Yk9d4A8P/FVCMSVQEAAACCKgAAAKDsbX43k6dmQWtDAPifY6rmR1UAAACAoAoAAACYvPmGMzN1/AVJlYPq7UlvfwAYSEz1y6iqVQQAAAAQVAEAAAANMlGteTgTx2dBa2MAGGRMtajuNCaqAgAAAARVAAAAwNz8N1VR1M+kPCEH9fYk/U4AGEB31eyoCgAAABBUAQAAAPXyD87NxHFn5Yj2pgAwhJiqeVEVAAAAIKgCAAAAyv6WBzNxcg7qHUjqvQEQOiXFAL7b8KgKAAAAEFQBAAAARdovppzJQd3NARgCMZWoqnkAAABAUAUAAABM3Xb1OZk4PofUSXdXxg9AA2IqUVXzAQAAgKAKAAAAKPubL1sIqupdSb8XgCEQU4mqmgcAAAAEVQAAAECR/U+nPDYHtbcGgCHEVKKq5gEAAABBFQAAAFDd88xsUU2fn1RJv5309qc5AMRUoioAAAAQVAEAAABDVLV/PDvV3OK5v8YBEFOJqgAAAEBQBQAAAAxJ2d98WarZHNTZkWYCEFOJqgAAAEBQBQAAAAxBUXSuSDGbpHbuD1BI/YUizVB3RVUDAQAAAIIqAAAAoEj78ZQzzv0BI0JMlUJUNRAAAAAgqAIAAACqe56ZTXVMDqr3pPkAxFSWqoBh+Ym9O8ZpGIiiKPrGIRESBUuhgXWwdTZChaJESTxG4CJ1Rm48PmcFX1NfvQEAADYXVAEAAADD+es1wz7/bscAiKnWd7OoCgAAAARVAAAAwEKG3fdHyiGZLsl0DYCWak1HLx9VAQAAAIIqAAAAYPecTKcArJOYSlQFAAAAgioAAABgIUP9+Ux2vvvrAaAAE1UBAACAoAoAAABYQDkk9RygD5jTqreSa0tUBQAAAAiqAAAAgNvbHFSdAqwfYqqS2SiqehwAAAAIqgAAAIBS6nsyJlP1GAClj5gqoioAAAAQVAEAAADtrFMBAqn+YipRFQAAAAiqAAAAgBa7l2S6BsDaVH8xlagKAAAABFUAAABAi3pJhwDEVKIqAAAAEFQBAAAADaYxABqmDmMqURUAAAAIqgAAAIAG9Zx+AIipRFXLAwAAQFAFAAAAAEDpIKYSVQEAAICgCgAAAABATCWqWgoAAAA8ZVsAAACA8ZgOAIipGqKqP/t9AAAAgK0tVAEAAAAAiKksVQEAAICgCgAAAACgpN1aYypRFQAAAAiqAAAAgAZTDUAvxFTtt42jqCoBAAAAQRUAAABQTwHQXG07ppqJqgAAAEBQBQAAAABsnpjqTlQFAAAAgioAAAAAADGVqAoAAAAEVQAAAAAAYipRFQAAAAiqAAAAAABK2pSeYipRFQAAAAiqAAAAAADEVLNHoqpLCQAAAAiqAAAAAAB6I6ZqMt5EVQAAAAiqAAAAAADEVGIqURUAAAAIqgAAAAAA7sRUoioAAAAYAsCiftm1YxwAYRCAotL7H9kaR/YGtcT3dgJh/n0BAAAAYipRFQAAAAwvAAAAAAAQU4mqAAAAQFAFAAAAACCmElUBAACAoAoAAAAAIMRUoioAAAAQVAEAAAAAiKkWiKoAAAAQVAEAAAAAIKYSVQEAACCoAgAAAABATCWqAgAAQFCVAAAAAAAQU4mqAAAAEFQBAAAAACCmElUBAAAgqAIAAAAAQEwlqgIAAIBxAAAAAAAgphJVAQAAgKAKAAAAACDEVCVnXqIqAAAABFUAAAAAAGIqMVUSVQEAACCoAgAAAAAQYYmpRFUAAAAIqgAAAAAAxFRiqiSqAgAAQFAFAAAAANAxdgox1bNnZlR1iqoAAAAQVAEAAAAA1BNT9fz1nKIqAAAABFUAAAAAAHsSU30SromqAAAAEFQBAAAAAIipxFRJVAUAAICgCgAAAACguzgqiKlEVQAAAAiqAAAAAADEVGIqURUAAACCKgAAAAAAMZWYSlQFAACAoAoAAAAAQEwlptotqgIAAABBFQAAAABAvDknplomqgIAAEBQBQAAAAAgphJTiaoAAAAQVAEAAAAA/DxYElOJqgAAABBUAQAAAAAIlsRUoioAAAAEVQAAAAAAIqz6HTc7d5CCMBQDQDS5/43bqILI30bowrZ57xzDXD+maqOqR2UAAACAoAoAAAAAQEw1OaZaas9PWAUAAAD3CaoAAAAAABBTHVCbqAoAAABBFQAAAADABYmpRFUAAAAIqgAAAAAAEFOJqgAAABBUAQAAAAAgphJVAQAAIKgCAAAAAEBMJaoCAABAUAUAAAAAgJhKVAUAAICgCgAAAABA5ySmElUBAAAgqAIAAAAAEFOJqURVAAAACKoAAAAAANRUKaY6v1fUFqIqAAAABFUAAAAAAGIqMdVXH1UBAACAoAoAAAAAYEJMJaYSVQEAACCoAgAAAAAQU4mpFlEVAAAAgioAAAAAgP/KOBkxlagKAAAAQRUAAAAAgJhKTCWqAgAAQFAFAAAAACCmElP1UdVTVAUAAICgCgAAAABATDU4ployI2oXVQEAACCoAgAAAAD4SYqp7hxTLaKqAAAAQFAFAAAAACCmElOJqgAAABBUAQAAAAC0MsVUE2IqURUAAACCKgAAAACARuaI25aYSlQFAACAoAoAAAAAoCGmGh1TiaoAAAAQVAEAAAAAiKnEVKIqAAAABFUAAAAAAPowMZWoCgAAAEEVAAAAAICYSkwlqgIAAEBQBQAAAAAgphJTiaoAAAAQVAEAAAAAHJRiqlkxlagKAAAAQVXjza5dEDAMwAAAe/1LPvOYeUt0hL0AAAAAAJlKppKqAAAAEKoAAAAAAKQvmUqqGg4AAAChCgAAAABAppKppCoAAACEKgAAAAAAmUqmkqoAAAAQqgAAAAAAZCqZSqoCAABAqAIAAAAAuMtUMpVUBQAAgFAFAAAAACBTyVRSFQAAAEIVAAAAAIBMJVNJVQAAAAhVAAAAAAAylUwlVQEAACBUAQAAAADIVDKVVAUAAIBQBQAAAAAgU41EppKqAAAAEKoAAAAAAEKmkqlaulxeqeq0SwAAAAhVAAAAAAAylUzVXvxSVUhVAAAAQhUAAAAAgE0lU8lUP1IVAACAUAUAAAAAIFPJVDKVVAUAACBUAQAAAADIVDKVTCVVAQAACFUAAAAAADKVTCVTFUlVAAAAQhUAAAAAADKVTCVVAQAACFUAAAAAAMhUMpVUBQAAIFQBAAAAABAylUwlVQEAAAhVAAAAAADIVDKVVAUAAIBQBQAAAAAgU8lUUhUAAABCFQAAAACATCVTpUhVAAAACFUAAAAAABEylUwlVQEAACBUAQAAAADIVDKVVAUAAIBQBQAAAADwJlPJVFIVAAAAQhUAAAAAgEwlU0lVAAAATByqAAAAAHiwa0cnAMIwAETt/iNrRRQk/00hEN5b4Ba4ngAzlZkqb75T1X0AAADQY6gCAAAAAMBMZabK5udpqgIAADBUAQAAAACYqcxUZqqPqQoAAMBQBQAAAABgpjJTmak6TFUAAACGKgAAAAAAYiIyU2WYqUxVAAAAhioAAAAAADOVmcpMZaoCAAAwVAEAAAAANGCmMlNtzZuqAAAADFUAAAAAAGYqM5WZylRVDwAAwFAFAAAAADCGmcpMVZc3VQEAABiqAAAAAADMVGYqM5WpqgUAAABDFQAAAABgpgpmqgJmKlMVAACAoQoAAAAAwExlpjJTmaoAAAAMVQAAAAAAxh0zlZnKVAUAAGCoAgAAAAAwU5mpzFSmKgAAAEMVAAAAAABmKjOVqQoAAMBQBQAAAACAmcpMZaoCAAAwVAEAAAAAYKYyU+2Mz8tUBQAAYKgCAAAAAMBMZab6maoAAAAMVQAAAAAAmKnMVMFUBQAAYKgCAAAAAMBMZaYyVQEAABiqAAAAAAASYiJqwExlpjJVAQAAGKoAAAAAAMxUZiozlakKAADAUAUAAAAAUDsp1TNTmalMVQAAAIYqAAAAAAAzlZnKTLXCVAUAAGCoAgAAAAAwU5mpzFSmKgAAAEMVAAAAAICZykxlpjJVAQAAGKoAAAAAAMxUZiozlakKAADAUAUAAAAAYKYyU5mpTFUAADzs2gEGQCEQRVGz/zXX/4KBQIpJzlnAexu45wCCKgAAAACACDHVdcRUM1EVAACAoAoAAAAAQEwlphJTiaoAAAAEVQAAAAAAiKnEVKIqAAAAQRUAAAAAAGIqMZWoCgAAQFAFAAAAAICYSkwlqgIAABBUAQAAAAAgphJT1euiqnoAAICgCgAAAAAAMZWYql6IqgAAAARVAAAAAABiKjFVElMlURUAAICgCgAAAABATCWmElOJqgAAAARVAAAAAABiKjGVmEpUBQAAIKgCAAAAACiLlMRU99+LqURVAAAAgioAAAAAADGVmEpMJaoCAAAQVAEAAAAAiKnEVGIqURUAAICgCgAAAABATCWmElOJqgAAAARVAAAAAAALxFRiKjFVjvQmqgIAABBUAQAAAACIqcRUYqokqgIAABBUAQAAAACIqcRUYqokqgIAABBUAQAAAACIqcRUYipRFQAAgKAKAAAAAEBMJaYSU4mqAAAABFUAAAAAAGIqMZWYaiKqAgAAEFQBAAAAAISYSkwlphJVAQAACKoAAAAAAMRUYioxlagKAABAUAUAAAAAMISYSkwlplqOqr43oioAAABBFQAAAACAmEpMJaba10RVAACAoAoAAAAAADGVmEpMJaoCAAAEVQAAAAAAiKnEVGIqURUAACCoAgAAAABATPX2vZhKVAUAACCoAgAA+Nm1YxsAYRgAYM3/L1OCYMmOskS17zAAgEwlU8lUUhUAAPCLUAUAAAAAQMhUMpVMJVUBAABCFQAAAAAAMpVMJVNJVS8AAECoAgAAAAAgZCqZSqaSqgAAAKEKAAAAAACZSqaSqaQqAAAAoQoAAAAAQKaSqWSq7lSVayIAAAChCgAAAABAppKpZKp++5KqAAAAoQoAAAAAYORQiSVTFZlKppKqAAAAhCoAAAAAQKaSqWQqmUqqAgAAEKoAAAAAAGQqmUqmkqoAAACEKgAAAAAAmUqmkqmkKgAAAKEKAAAAAECmkqlkKqkKAABAqAIAAAAAkKlkKplKqgIAABCqAAAAAABkKplKppKqAAAAhCoAAAAAAJlKppKppCoAAAChCgAAAADg2MsiU8lUg9xbqgIAAIQqAAAAAAAvSaaSqWSqT6ZUBQAACFUAAAAAAFZUM5lKppKqAAAAhCoAAAAAAClFppKppCoAAAChCgAAAABASpGpZCqpCgAAQKgCAAAAAJBSZCqZSqoCAAAQqgAAAAAAnJQiU8lUUhUAAIBQBQAAAADgpMhUMpVUBQAAIFQBAAAAACBTyVRSFQAAgFAFAAAAAIBMJVMhVQEAAEIVAAAAAAAylUxFhFRVAAAAoQoAAAAAAJlKppKpilQFAAAIVQAAAAAAyFQylUw1JVUBPOzdMQ0AAADCMP+uuRHARatjyQAAQRUAAAAAAGtiKjGVmEpUBQAACKoAAAAAAMplzCKmElOJqURVAACAoAoAAAAAQEwlphJTialEVQAAgKAKAAAAAAAxlZhKTCWqAgAABFUAAAAAAIipxFRNTCWqAgAABFUAAAAAAC5/YdcOCQAAABCG9W+NRCIxW4P7m6nMVGYqUxUAAGCoAgAAAAAwU5mpzFRmKlMVAABgqAIAAAAAwExlpiozlakKAAAwVAEAAAAAYKYyU5mpTFUAAIChCgAAAAAAM5WZykxlqgIAAAxVAAAAAACYqcxUZipTFQAAYKgCAAAAADA0manMVGYqUxUAAGCoAgAAAAAwU5mpzFRmqslUBQAAGKoAAAAAAMxUZiozlZnKVAUAABiqAAAAAADMVGYqM5WZylQFAAAYqgAAAAAADEXazVRmKlMVAABgqAIAAAAAMBRpN1OZqUxVAACAoQoAAAAAwEyl3UxlpjJVAQAAhioAAAAAADOVdjOVmcpUBQAAGKoAAAAAADBTmanMVKYqAADAUAUAAAAAgJnKTGWmMlUBAACGKgAAAAAAzFRmKjOVqQoAADBUAQAAAACYosxUZiozlakKAAAwVAEAAAAAmKnMVGYqM9WNqQoAADBUAQAAAACYqcxUZiozlakKAAAwVAEAAAAAmKnMVGYqM5WpCgAAMFQBAAAAAJipzFRmKjOVqQoAADBUAQCEXTvAABgGgija3P/MTYpBKTTCBvEeCCCwA/42AAAAYqoQUyGmElUBAACCKgAAAABASyWmElMhppqNqi5RVQAAgKAKAAAAAEBMJaYSU4mpuHuiKgAAQFAFAAAAACCmElOJqcRUjDOiKgAAQFAFAAAAACCm+iemQkwlqgIAAARVAAAAAABiKjEVYipRFQAAIKgCAAAAABBTiakQU4mqAAAAQRUAAAAAgJhKTIWYSlQFAAAIqgAAAAAAxFRiKsRUoioAAEBQBQAAAACg5RJTIaYSVQEAAIIqAAAAAAAxlZgKMZWoCgAAEFQBAAAAAKok3xZTIaYSVQEAAIIqAAAAAAAxVYipEFOJqgAAAEEVAAAAAMCKJqYSU4mpEFUBAACCKgAAAAAAMZWYSkxFnS6qAgAAQRUAAAAAAGIqMZWYKhz3EFUBAICgCgAAAAAAMZWYSkzluF+iKgAAEFQBAAAAACCmElOJqRy3qAoAAARVAAAAAACIqcRUYirHLaoCAABBFQAAAAAAYioxlZjKcYeoCgAABFUAAAAAAIipxFRiKsd9eFQFAACCKgAAAAAANVMTU60QU4mpbIuoCgAABFUAAAAAAGIqMZWYSkxlW0RVAAAgqAIAAAAAEFOJqcRUYirbIqoCAABBFQAAAACAmEpMJaYSU9kWURUAAAiqAAAAAAB0EmIqMZWYykiIqgAAQFAFAAAAAKCTEFOJqcRURqIyqsrjCwAAEFQBAAAAAOgtxFQ1xFQ87N01mB1lGIbh9z/xZDvoQ4f1ODS4u7u7u0uLO3RYhZZ4g2tFR4O7x7M7ZybuskImE7nvY90Zr+a5vhmLsrEWUURVAAAgqAIAAAAA0FuIqcRUYiox1QqiKgAAEFQBAAAAAOgtxFRiKjGVmEpUtSoAABBUAQAAAADoLcRUiKnEVKIqAAAQVAEAAAAAJHoLMRViKjGVqAoAADY549M5AAAAAAC9hZgKMZWYatWoqkmvlw4AAADj0wQAAKA1E858aqBU323bq//cOwuVzDkyi9U7l1J2yAZTp31NNrimSfvqtKLpYJ+3ovtjsFHPq9lfBUAoIaYSU4mp6DqmGnlUtfEBAADj6zobBAAAwKSznxroVV9PL/Xf+5VS7VVKc1yq97NYb/XQowQAQEwlpkJMJaba1C4YAABgfFIyVgAAAFNOv3rnxQFVBi8q1fs7ZJFeAAD0FmMgpkJMJabqHgAAMD4AAACjMHD1S+Pqv97ftdR/n1ZKfXHyW9Lr6lYBAICYSkwlpkJMBQAAdBBUAQAATD7tpu3GNT+dnT9eu7RXsk1KugQAIKYSU4mpEFMBAAAdBFUAAIBpVH+8fWAvM+9L+X7HlHQIAEBMJaYSUyGmAgAAOgiqAAAAJp795MD46vNz88drty+eRpWS/62enzRV0p+dxZp5SVNnuXowaYYydnVa19QZi+7Xu0k76rSvSeuazs+dFtTZDAAgpkJMJaYCAAA27aAKAABg0qKQauiTG0r14e1ZpIwx5OjPTeo5SyKqelE4Nbhq3AMAgJgKMZWYCgAAEFQBAACbqoGbv5hQ//j0ib3qw+dTMnr9mUl/9pKQqpkbAADEVIipxFQAAICgCgAA2CxNPePSQ/PjQ8/2km0yYnVSzVwaUs3IqgAAEFMhphJTAQAAgioAAGAzM/XsW6eX6tvnS/Pf3qOaRFX9J6ICANgwxFRiKsRUw2gCAAB0ElQ1AQAAth4DN385of7xiUt61XcPJSXDaoaSob+S/n9J0w8AAMMQUyGmaoGYCgAAMKEKAABowdSzb5ueHx98o5eyQ4ZTz06qf5Lq3wAACC6GJ6ZCTNUWMRUAACCoAgAAWjDtzAtPLdV3LyRl+JBq6M+kPztJHQCA7oipxFRiKsRUAACAoAoAAGjhEX/Njw++W+o5e488pAIA6J6YSkwlpkJMBQAACKoAAIAWHvH38BclZdusSzO4JKSq/g0AQPfEVGIqMRViKgAAQFAFAAC0YOoZV+7Rq777MOsz9EdS/Z00/QAAdE9MJaYSUyGmAgAABFUAAEALpp1+7pWl+fuhrEs9Lxn8eckvAED3xFRiKjEVYioAAEBQBQAAtGPaaWfdUzJ4+3qnUi36ALQPQKghphJT0RIxFQAAIKgCAACGMXDzlxOaHx55uJT+xaZSAQCIqcRUYqrNh5gKAAAQVAEAQAvEVPnxoXdKyT5Zm/6/yeBvSdMPAABiKjGVmKp7YioAAEBQBQAALRNTJeuIqQZ/Tqp/AwCAmEpMJaba7IipAACADvQyUgAL2LtLoLnOMAzDz7fhZN1fn8r4KYMs+5kymnJdOKqyzMxel2VNwKtSmBk2exbCHPf9dCbX5cXCOe6e9wEAZqUzM3/Xj6mGSe+fFsVUAABiKjGVmAoxFQAA4EIVAABQYclTL7xZ0ryUq416ycmtybifFgAAEFOJqcRUiKmqAQAALlQBAICY6o2SZu31Y6r/xVQAgN6iDTGVmEpMhZiqHgAAIKgCAAAWP/3GXSXN+7na8OD5mGqYFgAAEFOJqcRUiKnqAAAAJv8AAIDFz61d2hls/uv6MdX21AMAQEzFlMdUiKnqAQAAgioAAKC7atO8bPtg49TEVAAAiKkQU4mpxFQAAEAnrQEAAIy3vvdnxrlpxmIqAADEVPXEVIip6gEAAIIqAABgyTMvP1XSuTeXG/eS/u5UAABATMV0xlSIqeoBAAAm/wAAgMXPrV1aBpt/vCam6m1OxsNUAwBATDX1xFSIqeoBAACCKgAAoLtq07xsff+XpOSSUdLbWh9TAQAgpkJMNX3EVPUAAACTfwAAwGjrpy8nZVku1/s/GTepBwCAmAox1bQRUwEAAIIqAACgfuqvk+b9XK7Znox6qQcAgJgKMdW0EVPVAwAABFUAAEAZ/PdTLjc8mDSH0iIAAOIj30dMhZiqHgAAIKgCAAAWP/3qIyWde3PBuJf0dwcAgBZ1Q2IqMRViqnoAAICgCgAA6K7aNK8zPvRDLndyRzIepkUAAMRUYioxFWKqegAAgKAKAAAYbf36saRM5IJmbzLqpUUAAMRUYioxFWKqegAAgKAKAABY8Nzn3U6O/XDF1F+zJy0AAICYSkyFmKr1AACAuQEAAGaVuYMNK66e+msnAADEVGIqxFQAAIALVQAAQIX5z33eLWnWtn/qDwAAMZWYCjEVAADgQhUAANRzneqFXNQkg/1pJwAAxFRiKsRUAACAoAoAAKjQXbVpXra+vy4pOavZk4yHaSEAAMRUYirEVN7p1gIAgLkpmQUAAIDR1u/u76RM5IxxL2kOZXoBACCmElMhphJTAQAAncwKAABAJ4fezgX93QEAoIKYCjGVmEpM1V4AACCoAgAAFj6x6uakLMsZo+PJ8FhaBwAAMZWYipJ6YioAAEBQBQAAzCm7X8gFzd60DgAAYioxFSX1xFQAAICgCgAA6K7cNK+k/5LrVFMLAKCIqcRUiKlmf0wFAAAIqgAAgNG2H29NykTOGB4MAAAVxFSIqcRU7Y6pAAAAQRUAAFBGB5/MWU3SHAoAwI3nFHt3gGFlFIZx/HlvMWQAWkBgiJZQUACkDWQAtYOWMssLhGJoJrfbdM/5ctACZlz33G/8fjt4Px7g7zuHJ6aiKmtkYGIqAABAUAUAAFQtnzOIqQAADkJMRVVY48DEVAAAgKAKAAB49vHLq/y3vw4AAHOJqcRUiKnEVAAAwCbzAAAA++9vM/TbZGmZCwAAMZWYCjGVmAoAANhkGgAAoOruU4b9zxwIAAAlplodMZV9iakAAABBFQAAcHZ5dV61uUh6sr/NwwAAIKaiKqx9X2IqAABAUAUAADzpX19kaDd5GAAAxFRUhUexLzEVAAAgqAIAANr1uwztV+4PAAAxFVXhscRUYioAAEBQBQAAVO1fZ2jbnAYAAMRUYirEVGIqAADgaaYAAACq2oe0bbK0zAMAQImpxFSIqeYeCAAA+EMVAABwdnl1nqHdZB4AAMRUEVMhppp/IAAAIKgCAAA2/cfzDO13JgAAQEwlpkJMdToHAgAAgioAAKD6tzcZ+i4AAIipEFOJqcRUAACAoAoAAGhb3wAAQEyFmEpMJaYCAAAEVQAAQC279+nbDAAAiKkQU4mpxFQAAICgCgAA6H8yGwAAYioxFWKq+QcCAACCKgAAoPrLLH99BwAAMRViKjGVmAoAABBUAQAAVblI3+UIAAAoMZWYCjHVKg4EAAAEVQAA4Lk/AADEVIipxFRiKgAAQFAFAAAsLQMAAGIqxFRiKjEVAAAgqAIAAJZdBgAAxFSIqcRUYioAAEBQBQAALD1HBACAmEpMhZjKpgEAAEEVAAB48g8AADGVmAox1ekfCAAACKoAAIB+FwAAxFRiqiCmElMBAACCKgAAAAAAMRVVQUwlpgIAAARVAAAAAABiKqqCmEpMBQAACKoAAAAAAMRUVAUxlZgKAAAQVAEAAAAAiFeoCmIqMdUxAQAA/9i1CwKAQQAAYLx/4LvRAWfLMaEKAAD6cQcAAOQVmQqZSqYCAAAioQoAAHi2AABAZYt4IVNlJ1PJVAAAgFAFAAAAACBTIVPJVDIVAAAgVAEAAAAAyFTIVDKVTAUAAAhVAAAAAAAyFTKVTCVTAQAAQhUAAAAAgEyFTCVTyVQAAIBQBQAAAAAgUyFTyVQyFQAAIFQBAAAAAMgryFQylUwFAAAIVQAAAAAA8goylUwlUwEAAEIVAAAAAIC8gkwlU8lUAACAUAUAAAAAIK8gU8lUMhUAACBUAQAAAAAgXshUMpVMBQAACFUAAAAAAIgXMpVMJVMBAABCFQAAAAAA4oVMJVPJVAAAAEIVAAAAAIB4IVPJVDIVAACAUAUAAAAAIF7IVDKVTAUAACBUAQAAAACIFzKVTCVTAQAACFUAAAAAAOKFTCVTyVS1AQAAQhUAAAAAADIVMpVMBQAACFUAAAAAAMhUyFQyFQAAIFQBAAAAACBTIVPJVAAAgFAFAAAAAIBMhUwlUwEAAEIVAAAAAAAyFTKVTAUAAAhVAAAAAADIVMhUMhUAACBUAQAAAAAgUyFTyVQAAIBQBQAAAACATIVMJVMBAABCFQAAAAAAMhUylUwFAAAIVQAAAAAfe3dsAzAMwDDMAvL/y+3WsQ+EvMGjAAMgpkJMJaYCAAAEVQAAAAAAiKkQU4mpAAAAQRUAAAAAAGIqxFRiKgAAQFAFAAAAAICY6m5iKjEVAADA2T0AAAAAAMRUzxBTialMCQAA+HHaBQAAAAAAxFSIqcRUpgQAALj8AwAAAACghphKTGVKAACAoAoAAAAAgBpiKjGVKQEAAIIqAAAAAABqiKnEVKYEAAAIqgAAAAAAqCGmElOZEgAAIKgCAAAAAKCGmEpMZUoAAICgCgAAAACAGmIqMZUpAQAAgioAAAAAAGqIqcRUpgQAAAiqAAAAAACoIaYSU5kSAAAgqAIAAAAAoIaYSkxlSgAAgKAKAAAAAIAaYioxlSkBAACCKgAAAAAAaoipxFSmBAAACKoAAAAAAKghphJTmRIAACCoAgAAAACghphKTGVKAACAoAoAAAAAQGxU+yCmElOZEgAAIKgCAAAAABBTIaYSU5kSAAAgqAIAAAAAEFMhphJTmRIAACCoAgAAAAAQUyGmElOZEgAAIKgCAAAAAKCGmEpMZUoAAICgCgAAAACAGmIqMZUpAQAAgioAAAAAAGqIqcRUpgQAAAiqAAAAAACoIaYSU5kSAAAgqAIAAAAAoHYNMZWYypQAgJddOyQAAAABGNa/NQFu0LBluDyAoQoAAAAAADOVmcpMJSUAAMBQBQAAAACAmcpMZaaSEgAAYKgCAAAAADA/mKnMVGYqKQEAAIYqAAAAAIAVMxVmKjOVlAAAAEMVAAAAAIBhyUxlpjJTSQkAADBUAQAAAACUmQozlZlKSgAAgKEKAAAAAMBMhZnKTCUlAADAUAUAAAAAYKbCTGWmkhIAAGCoAgAAAAAwemGmMlNJCQAAMFQBAAAAAJipMFOZqaQEAAAYqgAAAAAAMFOZqcxUUgIAAAxVAAAAAACYqcxUZiopAQAAhioAAAAAAMxUZioz1bmUAAAAQxUAAAAAAGYqB4yZSkoAAIChCgAAAAAAM5UDxkwlJQAAwFAFAAAAAICZygFjppISAABgqAIAAAAAwEzlgDFTSQkAAMBQBQAAAACYoMxUDhgzlZQAAAAMVQAAAAAAZioHjJlKSgAAAIYqAAAAAAAzlQPGTCUlAAAAQxUAAAAAgJnKAWOmkhIAAIChCgAAAADATOWAMVNJCQAAwFAFAAAAAGCmcsCYqUJKAAAAhioAAAAAADOVA8ZMJSUAAABDFQAAAACAmcoBY6aSEgAAgKEKAAAAAKDMVA4YM5WUAAAADFUAAAAAAGYqB4yZSkoAAACGKgAAeGPYtWMaAAAAhGH+XWOAj4uklbB7AADcz1SYqVxEMgAAAIYqAAAAAAAzFWYqF5EMAACAoQoAAAAAwEyFmcpFJAMAAGCoAgAAAAAwU2GmchHJAAAAGKoAAAAAAMxUmKlcRDIAAACGKgAAAAAAMxVmKheRDAAAgKEKAAAAAMBMhZnKRSQDAABgqAIAAAAAMFNhpnIRyQAAABiqAAAAAADATOUikgEAADBUAQAAAACAmcpFJAMAAGCoAgAAAAAAM5WLSAYAAMBQBQAAAAAAZioXkQwAAIChCgAAAAAAzFQuIhkAAABDFQAAAAAAmKlcRI0MAACAoQoAAAAAAMxULiIZAAAAQxUAAAAAAJipXEQyAAAAhioAAAAAADBTuYhkAAAADFUAAAAAAGCmchHJAAAAGKoAAAAAAMBM5SKSAQAAMFQBAAAAAICZykUkAwAAYKgCAAAAAAAzlYtIBgAAwFAFAAAAAABmKheRDAAAAIYqAAAAAADMVC4iGQAAAAxVAAAAAACYqVxEMgAAABiqAAAAAAAwU7mIZAAAADBUAQAAAABgpnIRyQAAAGCoAgAAAADATDVxEckAAAAYqgAAAAAAwEzlIpIBCHt3gAFAFEJRNGn/a47aQ8I5S3g/DC4DACCoAgAAAAAAMZWKyAwAAICgCgAAAAAAxFQqIjMAAABLUAUAAAAAAGIqFZEZAAAAMgAAAAAAQEylIjIDAACAoAoAAAAAADGVisgMAAAAgioAAAAAAMRUKiIzAAAACKoAAAAAABBTqYjMAAAAIKgCAAAAAEBMpSIyAwAAgKAKAAAAAAAxlYrIDAAAAIIqAAAAAADEVCoiMwAAAAiqAAAAAAAQU6mIzAAAACCoAgAAAABATKUiMgMAAICgCgAAAAAAMZWKyAwAAACCKgAAAAAAxFQqIjMAAAAIqgAAAAAAEFOpiMwAAAAgqAIAAAAAUHuIqdyVGQAAAARVAAAAAABqDzGVuzIDAACAoAoAAAAAADGVisgMAAAAgioAAAAAAMRUKiIzAAAACKoAAAAAABBTqYjMAAAAIKgCAAAAAEBMpSIyAwAAgKAKAAAAAAAx1dcNnRIAAICgCgAAAAAABYyYyikBAAAIqgAAAAAAUMCIqZwSAACAoAoAAAAAAAWMmMopAQAAUDEAAAAAAFDAiKmcEh4IAAAoH+MAAAAAAAILMZVTwgMBAAB3v/wDAJpdOzZCEIiiKPoYCWiD0KEQ+yenDwIXrEADg+/inFPCf5vtBQAAgO+JqUQqzmAgAABAUAUAAAAAgJhKpOIMBgIAAARVAAAAAADiBDGVd+AMBgIAAARVAAAAAADiBDGVd+AMBgIAAARVAAAAAADiBDGVd+AMBgIAAARVAAAAAADiBDGVd+AMBgIAAARVAAAAAADiBDGVd+AMGAgAAARVAAAAAADiBDGVd+AMGAgAAARVAAAAAADaBDGVh+AMGAgAAARVAAAAAADaBDGVh+AMGAgAAARVAAAAAACIqUQqzoCBAABAUAUAAAAAgJhKpOIMGAgAAARVAAAAAACIqUQqzoCBAABAUAUAAAAAgJhKpOIMGAgAAARVAAAAAACIqUQqzoCBAABAUAUAAAAAgJhKpOIMGAgAAARVAAAAAACIqf78hp4SBgIAAEEVAAAAAACDmEpM5aliIAAAQFAFAAAAACCmElN5qhgIAAAQVAEAAAAAiKnEVB1wBgMBAACCKgAAoD0DAEA9MZWYqkvOYCAAAEBQBQAAHAEAoJ6YSkzlqWIgAABAUAUAAAAAIKYSU3mqGAgAABBUAQAAAACIqcRU/XMGAwEAAIIqAADgPAIAgJjqLTEVzmAgAADgd8YAAADlzjYUf1QBADCIqcRUWp0LMtC2TrckLQAAQJlxW6cAAAC17o8AACCm+khMpdXBQEdL5mVvAQAASo3zsgcAACh2BOgJAPoHMdVlR/JWX+zdA6wsWxqG4W9119a1feOMorEn9pjRTDCMMbaCsW3btm3bNo+7a601tnGrOuc8z0bHSef74zdVHM0D9V4CTA8AYOi9ZFoAAEAdk638YwAAiKnEVG4VA/UeAABgBkPvAQAAZtB7UgIAgJhKTOVWMdDf11sAAIAZDL1lYgAAQClJWyfLrQAAIKYSU7lVDPR31VoyPQAAYKi1ZFoAAEAZlp/tbbxUAAAQU4mp3CoG+gfqmNdncgAAwFDHTAwAAOht67O91ksFAAAxlZjKrWKgf6C38qNMDgAAGHormR4AAFBXydZxAQBAYCGmckoY6G/UsaS1fDaTAwAAhtYyNQAAYPvEl7V9h28UAAAEFmIqp4SB/o7WkvR8IZMDAACG9AAAADPoLWktWSwCAICYSkzllDDQX2i1pPd8PZMDAACG3jMxAABgefIl3jP+4kdp62SxEwAAxFRiqr/glDBQHZOe8t0AAACTG3pKAACAafXleT8ui6SvS7LT8wcAAIipxFROCQO1mvSeHPzl4kcBAAAmNxz85SIAAMC0vn7fOx248BaXzbhKtvInAACIqcRUTgkD1VqSXj5x8um1BQAAmNxw8uk1MwAAABa7L2mrgzdsLVkssiEAAChiqpm/oFYHA9WxpLW8ObMAAACG1jIHAABgOO6dycEb1lWy2A0AAGIqMZVWBwOl96SOSW95T2YBAAAMvWUOAADA8oy3JT9OO1KS3Z6jAwCAvkJMRcl/DwPVseQ3xrG8N7MAAACGcSwBAACmtzj1Ml9t+z6f8Uiy3ZNSAgCAmEpM5ZZmYKBNDKp29toPMgsAAGDY2WsBAACm9/PH3e7Aide60ud76iXGI8nWbgAAEFOJqdwSx/BAvSfjOumtPCsAAMBsht5KAACAmQx7L0rdfw+v/QMAEFOJqdwSBhrXJb/Ral4WAABgNkOrAQAA5rJ93otz5Iv38No/AAAxlZjKLWGgcV3+8PmWAAAAsxnGdQkAADCPfsr1P18OPCC9JePhZGsvAACIqcRUboljcKBWf/eXXj6xs9d/GQAAYDbDzl4PAAAwj/1PuMnqhGtf7QnJ4duMB0u29noAABBTiancEsfeQOvVIr9Rxzw6AADArIY6BgAAmNPWGc9K/fZtWk3qOlluBQAAMZWYyi1xDA3UWzKu81vjWF4VAABgVsM4lgAAAPPpZ930Q+Xb909vyXp/yfLUHgAANpeYihIM9P81rkt+q5dP7Oz2HwQAAJjVsLPbAwAAzOfA42+8Ov5a17h/cvDOdZ20liwWAQBgA4mpKMFA/1+9J+tVyW+0mkcFAACY3dBqAACAmfXleS8o7ct3TpLxQMn2iT0AAGwWMRUlGOj/b1yV9J7f2vfz5XMCAADMbtj382UAAIB57Xvqiz9+3s0u+4WkXXx9KBmO95QqAIBNIqaiBANdtE+n6q0866TT6uEAAACzG046rQYAANgAw2n3z/jjp3lKFQDAZoVIYipKMNBF/3SqVvPQAAAAXvkHAAD8mXNv8dx86wFPS5L1oWR5XLJcBgAAMdVRGKlodTBQb8nqSMlv9fKJ5ZCPBwAA2AjDckiAX7F3DzCyrAkYhr+/q3rOHF3fm2y00cbJ2rZt27ZtK1jbtm07WNs7F8Pu6q6qneQe7cF67umePE9ccX3tflMFAHD8rb38Fs3u613+2enWH5lNk+WS6uQ+AACIqUQq2+80YKBmPMh+k6Y8JAAAwMyoJ00JAAAwG6YLl316PfrkI7OpnSTTcVLvCAAAYiqRitOwjRionZZMJ9nvT+srg89lZgAAAPX6yiCzAQAAWH/lc1fOd7vLPLuUfVepWi2pFvqUEgAAxFQiFadhmzBQMyrZr52U++w5se0CAADMjHrPiW0AAIDZMe4v+ozF8sVHZlPXJtP1kuHuPgAAiKlEKk7D/DPQZFzSddnvT6vnVO8PAAAwU+rVc6oAAAAz5M0vXT7fbS/znDJYf0Q2NWvJYDGpqgAAsIXEVJRgoK3VtUkzLtmvnZb77Dmp7QIAAMyUes9JbQAAgNnS7rrs06r1T9+tDLpTsqk5p2TnKX22BgAAYipKthYG6vtkPBrkgL58v6ry3swcAACgrqrMGAAAYPyeZ63svNZVH1ly9iuzqZsmk9WS4Z4+/18AAIipKMFA59Gt/toc0IzLzTKTAACAuhmXzB4AAKB5/2deddINL/aIMugukE3NejLYkVTD/J8AACCmomTrYaB2WjJpSvbru/LG4UL/s8wkAACgHi70mU0AAEDTnP+6OxZ/+ZPsMz6nZOepfUrJ/wgAADEVJVsPA/VdMt4oOdT6yuDumVkAAEC9vjLIjAIAAN73np+efrNLvqbUzV0O/BB/dsniyX1mHAAAYiqtDmKqPhltDNL3OaCdlJss7urGmVkAAEC9uKsLAAAwu8a7b3OfxY033CiD7pRsaidJs1KysLcPAAD/MTFVn/OIVgcDNaNBujYH9F35xKDKewMAAMy0elAFAACYYdP33H88ucaNrjkc/Pab2WeykZRhMlwMAAAzyZWptDqIqUqmkyOO3TwAAMDMq5tRCQAAMNuaD7z/Wyfd8LLPG9QbD8s+zXJJKX3qHQEAYIaIqbQ6GGg6KZk05fBjV66G/XIAAICZV1fDPgAAwOxrdt/ycQurb7jcYNhdKvs0KyWl7lNVAQBgRoiptDqIqcYbJYfq+/KGqs7nMhcAAIC6qjMHAACA6XvvP85V7nyzxepHP8igOyWb+i4Zn1Wy46SkqgMAwIwRU2l1EFOlL99fXqrunLkBAADUy0tV5gQAAPDON/z+9Jtf7RbDxb99KvsciKpO7mcpqgIAEDuJqbQ6iKk2bR67wuKursvcAAAA6sVdXeYHAACw8uFPfPqE617usfXi+tOPHVUBACCmooTjS0w1bcpFqrpfzlwBAADqqu4zXwAAgLWPf/EZu69x2dPqnaMHi6oAAI4kpqKE40tM1bflrlWV72buAAAAdVVlDgEAAO1Jt3p0tf6GS5equ5SoCgDgIDEVJRxfYqquLY9K8prMJQAAoO4zjwAAgObd9x/3N33plRZW3/C5Qf2PUdVoqWThxD7DxQAAIKbS6mCgLTDeGGQ6yRH6vryhDPLszC0AAKAug8wpAABg+t77j3Pjzahq7Q2fH1TTS+YQzTklmSbDPX0AABBT/X9odTBQ358bU7XTHKkvH19equ4cAABgrtXLS1UAAIA59qoHjffe9IlX2r3wwc8dEVWtJV1bsrC3Txlk2wIAEFNRsvUwUNeeG1N13dFjqnOWqusk6QIAAMy1QQAAgLm38u4nj9aa61+pm1bfyGGmo2R0Vkk7zbYEACCmomTrYaBJUzJan6+YCgAAEFQBAICoanKDK3Zt/fUcppsmo6WSyXoAABBTaXUw0H9xi79mVNL3OULflzdsr5gKAACoAwAAbKuoKpu3/9tVfeDd1UJ7nRymWSlpx8nCiX0Gg/wTAACIqbQ6GKidlow3Svo+R9W15ZFJnrP35DbbBwAAUG+zD/kAAMBnnjBaT667eJVLvmC4s3lwDtM2yWipZLi7z3BXAAAQU2l1MNBh+j5pRoNMJzmmvi13Lclrsu0AAAB1yXYEAACMP/P1h7RXuMo3F/ee9ZYcpu8OXq1quLdPVQcAADGVVgcDbZo0JZNxSd/nmNppuVCS72dbAgAA6q7PNgUAADSf/8xbm4tf9/t7z/jTl0rpTs5h2iZpl0oWdiX17j5lkP8vAODv7N0DcGRdAobh79y+Gf5GaW3btm3bLGvN4tq27f1t27btQRr3bFK9StUg40zyPFVtW2+fs51ATKXVwQ00Gpb0J0u6UdaulpMnV5UnJrkl8xYAANAO+yXzGAAAcPg/zrjlcW+42467n7FX044emTXor0wGq0smlibtMmHVwgEAiKm0OriBapdMrm4yGmadai0/ueX63luSdAEAAOa1dvXKJgAAwDy3789vXJE8avcXPvZ9i3e67WtZg9ol/RXJcFVJu2NNuyjCKgAAMdW8bXVwA9Uu6U82GQ5mNXrVU5IctMMuo8x/AABAu3De/AMAAJOHHPr1waNeeMCyXS/7S9PWu2cNui7p31wyaJKJpWVejVgFACCm0urgBhoNSwb9MrWa9atl78GgvCLJrQEAABaMtutKAACAhaM78q9nrnjGJx+waOW+bxuPVrWOf2vfNr0YTwXYW17Ta7PdAQAQU2l1cAPVmnFINVnSdZmVblRenOTPvV4NAACwsLQ+CAAAwAJ0wMdW95OvTz7iVX9dvtP53+4tGT076zBYNb0oaSaSdmlNb3HS9DKnAQCIqbQ6uIFGw5LhoEytJrVmVmotPxlMlnck6QcAAFiQ2uGgBAAAWKCO+M0ltyTPWfqUpz5r0fIbvzaeBnDtukHSH5RMa5ckzaL5EVcBANSMFTHV7LgaKPMqohqr5eSuy4uTXNRO1AAAAAtX60MBAAAwOGz/vQdP/dQDJqanAdxx5WdK6XbJegxXJ1ldMq2ZSNqJpFlS01sUAICtxshUWh3cQN0oGY3K1OpGRFRjVyV5Z0r9a9NLAAAA2qZXEwAAgIM/unqUfP22J336+xP9qbBqp6mwKusJq2aMXJVk5czAKhM1TS8iKwBgiytrC6OKmEqrw3y6gWqXdF35v4hqowKqGSHVDjt3f0tSkzEAAIB26oNC/gsAAOCkD69O8vVbHvzZ77cr937Z4p1XfKLp1btnlmYEVin5j6aXlF7Sa2vSJClJ02YG4RUAYGSqhcnV4AYah1El/1FrUrtMGYdTtY73s1nUcnKt+cCOu44OE1IBAABrUlZ8JAAAAOu06r7PfPbE4hs+2FvcPSebrMsWUWu2vC6bXe2yxdVu7l8fs79d3Xdmf5vP89PssrXVujBOc6Yuc0pXsxaum3TZbnRdtoSbDhpmWikzA6nSZOb2ZcZKxtvXmbv/nzJjc5d5oeuysHTZDCjz4L5Ty09S8/kkpwQAAGAd2ttu7AUAAGCdDt9/r1GyV/8Br91t2S4XvG9i6eo3Nb16t8x/AICRqYCS7VctJyf1S/3J5hdJ+gEAAJiFtt8vAQAAmJXjf3nDyuTTmVqUhz3nDkt3ueHNU3HVG8dTAgIAzJ3go5TNEooAZfuNqGotf09ybVIysagGAABgtlofIjYKAABw6j8uHSSfnl50D37B7SeW3PjERctWvKG3uHt2tiYAAEBMVctPSlN/MxqWg5PclpRsLAAAgLbWAAAAbJJy4l8vGya/mF5kSu/xL7lXU697SLt49fOaicFjTA8IAGy97qOuefuy5s2pawxHgDLHR6Aqda9ScmiSo5Ncl1IzrdfWAAAAbKp2s3+4AAAAOOoPZ3fJ2f3kV/mPR73o3k1ZcedSb7trb3F3j6Yd3bMb1qZdMnx2AAAAMdVMe5WSK2vN6U2Ts7phubRdVC9fsry7IUkNAADAFlRWfCQAAABzxjV3+uwOdTjcMbNR81/DlSu6bFWMVt3ahTlpcMtNXZgXhjdd12UWYPLaK7vMEyUla1YzQ9urmVIytuceV+2cKU1v5v6bkvH+mlIzpWnqeHM73twr49XSK3VNA1Y14+03I3q91GxF3a1XdWHOuv6q9sYkXQAAAOaQcs5rFiUBAAAAAAAAAACgCQAAAAAAAAAAAIIqAAAAAAAAAAAAQRUAAAAAAAAAAICgCgAAAAAAAAAAQFAFAAAAAAAAAAAgqAIAAAAAAAAAABBUAQAAAAAAAAAACKoAAAAAAAAAAAAEVQAAAAAAAAAAAIIqAAAAAAAAAABYSP7Frh3TAAAAIABy9g/tawjIAUIVAAAAAAAAAACAUAUAAAAAAAAAACBUAQAAAAAAAAAACFUAAAAAAAAAAABCFQAAAAAAAAAAgFAFAAAAAAAAAAAgVAEAAAAAAAAAAAhVAAAAAAAAAAAAQhUAAAAAAAAAAIBQBQAAAAAAAAAAIFQBAAAAAAAAAAAIVQAAAAAAAAAAAEIVAAAAAAAAAACAUAUAAAAAAAAAACBUAQAAAAAAAAAACFUAAAAAAAAAAABCFQAAAAAAAAAAgFAFAAAAAAAAAAAgVAEAAAAAAAAAAAhVAAAAAAAAAAAAQhUAAAAAAAAAAIBQBQAAAAAAAAAAIFQBAAAAAAAAAAAIVQAAAAAAAAAAADQPAAAAAAAAAABAqAIAAAAAAAAAAKABAAAAAAAAAABAqAIAAICxBwcWAABBDMCq+w/9FPwAB0gCAAAAAAC/ZgAAAAAAAAAAAGgGAAAAAAAAAACABgAAAAAAAAAAgGkAAAAAAAAAAACYZgAAAAAAAAAAAGgGAAAAAAAAAACAZgAAAAAAAAAAAGgGAAAAAAAAAACABgAAAAAAAAAAgGkAAAAAAAAAAACYBgAAAAAAAAAAgGkAAAAAAAAAAACYBgAAAAAAAAAAgGkAAAAAAAAAAACYBgAAAAAAAAAAgGkAAAAAAAAAAACYBgAAAAAAAAAAgGkAAAAAAAAAAACYZgAAAAAAAAAAAGgGAAAAAAAAAACAZgAAAAAAAAAAAGgGAAAAAAAAAACAZgAAAAAAAAAAAGgGAAAAAAAAAACAZgAAAAAAAAAAAGgGAAAAAAAAAACA5hYAAAAAAAAA8NiDAxIAYBgGYKX+RR+q4oMkAJzVDAAAAAAAAAAAAM0AAAAAAAAAAADQDAAAAAAAAAAAAM0AAAAAAAAAAADQDAAAAAAAAAAAAM0AAAAAAAAAAADQDAAAAAAAAAAAAM0AAAAAAAAAAADQDAAAAAAAAAAAAM0AAAAAAAAAAADQDAAAAAAAAAAAAM0AAAAAAAAAAADQDAAAAAAAAAAAAM0AAAAAAAAAAADQDAAAAAAAAAAAAM0AAAAAAAAAAADQDAAAAAAAAAAAAM0AAAAAAAAAAADQDAAAAAAAAAAAAM0AAAAAAAAAAADQDAAAAAAAAAAAAM0AAAAAAAAAAADQDAAAAAAAAAAAAM0AAAAAAAAAAADQDAAAAAAAAAAAAM0AAAAAAAAAAADQDAAAAAAAAAAAAM3PAADgsQcHFgAAQQzAqvsP/XSIh0sCAAAAAAAAHzUAAAAAAAAAAABDMwAAAAAAAAAAADQDAAAAAAAAAABAMwAAAAAAAAAAADQAAAAAAAAAAABMAwAAAAAAAAAAwDQAAAAAAAAAAABMAwAAAAAAAAAAwDTAAAAAAAAAAABAMwAAAAAAAAAAADQDAAAAAAAAAABAMwAAAAAAAAAAADQDAAAAAAAAAABAMwAAAAAAAAAAADQDAAAAAAAAAABAMwAAAAAAAAAAADQDAAAAAAAAAABAAwAAAAAAAAAAwDQAAAAAAAAAAABMAwAAAAAAAAAAwDQAAAAAAAAAAABMAwAAAAAAAAAAwDQAAAAAAAAAAABMAwAAAAAAAAAAwDQAAAAAAAAAAABMAwAAAAAAAAAAwDQAAAAAAABwzmMPDm0AgGEYgEX5/+hJwWOltgEA4K8ZAAAAAAAAAAAAmgEAAAAAAAAAAKABAAAAAAAAAABgGgAAAAAAAAAAAKYZAAAAAAAAAAAAmgEAAAAAAAAAAKAZAAAAAAAAAAAAmgEAAAAAAAAAAKAZAAAAAAAAAAAAmgEAAAAAAAAAAKAZAAAAAAAAAAAAmgEAAAAAAAAAAKAZAAAAAAAAAAAAmgEAAAAAAAAAAKAZAAAAAAAAAAAAmgEAAAAAAAAAAKAZAAAAAAAAAAAAmgEAAAAAAAAAAKABAAAAAAAAAABgGgAAAAAAAAAAAKYBAAAAAAAAAABgGgAAAAAAAAAAAKYBAAAAAAAAAABgGgAAAAAAAAAAAKYBAAAAAAAAAABgGgAAAAAAAAAAAKYBAAAAAAAAAABgGgA4eezaMQ0AAAACIGf/0L6GgBwAAAAAAAAAgFAFAAAAAAAAAAAgVAEAAAAAAAAAAAhVAAAAAAAAAAAAQhUAAAAAAAAAAIBQBQAAAAAAAAAAIFQBAAAAAAAAAAAIVQAAAAAAAAAAAEIVAAAAAAAAAAAAzQMAAAAAAAAAABCqAAAAAAAAAAAAaAAAAAAAAAAAABCqAAAAAAAAAAAAhCoAAAAAAAAAAAChCgAAAAAAAAAAQKgCAAAAAAAAAAAQqgAAAAAAAAAAAIQqAAAAAAAAAAAAoQoAAAAAAAAAAECoAgAAAAAAAAAAEKoAAAAAAAAAAACEKgAAAAAAAAAAAKEKAAAAAAAAAABAqAIAAAAAAAAAABCqAAAAAAAAAAAAhCoAAAAAAAAAAAChCgAAAAAAAAAAQKgCAAAAAICxd4ewiWVhGIb/nYwHn03AG6434E3xpnjTrhhdvCl+xXa9oV7sHS+W8YbxhvFmP3EEyU6azgylAM+TvIFgcITkfjkHAAAADKoAAAAAAAAAAID3xMcC4Kj+/P1uXFWphqmriHGrqXEa1cu+pm01TV8Ru7TZ++wVAAAAAAAAAIDfPn36VG8CgK41TrM2oJrU+/mctq1+7z0AAAAAAAAAYFAFcDh7o6muNa3z8C1tUt/apF39KAAAAAAAAAAwqAIwoNprVJfjS+pb6/oOAAAAAAAAADCoAqBLizagmtT1eE7rvWsCAQAAAAAAAOBifSwAXjLbG1GN6jrdtKK+pKfWrgAAAAAAAADACVUAV3MS1fzFERXPbVi1LgAAAAAAAAC4qBOqABi2AdX9q6/z46b1rQ2rVld7JSAAsEpdHd+sAAAAAADAoArgoMZp2cZUg+JnDNJd6zmtUl8AwDXp0rQAAAAAAOBsGVQBzNLSg7+Du2l9Tk+tEwUAAAAAAAAABlUAi9a0eEvT1rL1VCcDAAAAAAAAAAyqABZt2DMqjmmU/kr3rb5OGAAAAAAAAAB8qMsGMEt9G/WMivcySf+kPnUFAAAAAAAAAAZVAEfVpb6NeKZ1Kpimf9NTGhYAAAAAAAAAuPIP4E0N0yrd1injNs3TMq0KAAAAAAAAAJxQBXBw92lrTHU2BunRNYAAAAAAAAAAGFQBHFaXNm2cM6hz5RrAZQEAAAAAAACAK/8AfskyPdQl4CHN0yJtCgAAAAAAAACcUAXww6dSPdQlYdJOq7ovAAAAAAAAADCoAniVZRvdTOpS8ZjWaVgAAAAAAAAA4Mo/gO8ap7Uh1dW4SZs0b68AAAAAAPAzujRur03t0qa1KwAAgyrgDM3TUxoU12TUTiP7I60KAAAAAABeZ77XoF72Na3TKm0LADgDBlUAq3RXXLPH1KX7tCsAAICmWV7kdwEwTot6O33rsgCLtEyjer1Rumv9nZanOqwCAAyqAIZpnaYJblOXZkZVAADAnnl6qOPZpHUBcAzjI/zG9wV4ptA0ty03JwDAFftQpwmgS5s0rYBmkrapqwgAAIB5HdeiTg0AAF3aHviZwmMbaA3rBAAABlUAi9SnUcH/DVKfZgkAAHAKwW0d181JPVQDAKBLfRq80X+//vL+/wEABlX8x94dAieS5mEc/tfVejgvwnpBe7PEi3S8GOLFZrwY4sWxXoR4w3hxxJvEm+ANeHOvQFxdXW3CJDQNPE/Vrxr52a56+ZpTwzQ9vvPiA4P07zStAAAA3E7llioAAGOqAxmnRR0JAGBQBbBIjwUf95imBQAAXKp7gyoAgIs1TIs0qMO7SbMCADpmUAWwSN9qf/CY5nVpAACAURrXcYxTU8cEAMAsjas7P9KoLgIA8FsB9OMfJDd1eV7TJq1S5Bk7q/qYyf/53aRh+qMux7AAAAC3U3VrerQzAAAwSn9W9xZpUgcEABhUAQzTKo3r/D2nl//p894fYY12TVKzew7qvDylaV0aAACgNai6WAAAszqOP1KTXmpvAIBBFYAx1WtaptWuY3nbtaqdaNLkvxoYUwEAACemTVd1XIPUpmUBANC11rAeADCoAoypTsPPtNy1qf562TWviDZNds8rY6oTAAAATHt0jmV1CQCANg3qeNrzH1QBAP+ojgGc2ZjqOd2lf6Y2LdKmTssy3adRuk1PaWtMBQAA9NQw3VQ/3KRhdQkAgEkd11VqCgAwqAL4QoszGFNt00P6PU06GFF1aZmmaZTu0tqYCgAA6JnpRZ8HAICmjm9UAIBBFcAXWaRvdbrW6S4N0yy91fnapEUapev0bEwFAAD0gEEVAACjcxl1AQAGVQCzEx5TPafrNEqLujyrNOnBsMqYCgAAaNK4+mWcmuoKAABXBQBwBoMqgGn6UafnNV2nSVoVRxtWGVPtAAAAU+cCAAAA4NQHVQCT9Hiin/Zr3h1SGVatjakAAICPMagCAAAAwKAKYJSWdVoeUpMWxXtWaZQe0taYCgAAOLA2DaqfBmlaXQAA4LUAAAyqgBM1TMs0qNPwnH5Ps7Qp9jFLTXo2pgIAAC74Fqi2ugAAwFsd36oAAIMqgF8wT+Pqv236niafegnjLU3S97Q1pgIAAL7YMN1Uv92kUQGXAABjppcCAM7abwXw9e7Tt+q/19QaUn2peVruGhtTAQAAX2Rap6FN8wIA+JxZ+lGH85BmBlW/7DVtCgBwQxXAHpr0r+q/h9QYUx3EW2rSX8ZUFwYAAAyq7gsAgEN7Ses6nnkBAAZVAHsYpmX12zbdpllxaPfpNm2NqQAAgE9o0rhOw1VqCgCAQ5vVcWzTsgAAgyqAPczTVfXXa2rSsrrCMk3SqzEVAADwRbdTuaUKAIBFWlf35mlTAIBBFcAHtelb9dfPNElv1TVe0iT9NKa6AAAAYFDVVhcAAJhWt9ZpVgCAQRXABw3TovrrKbVpUxzLJrXpyZgKAADYwzQN6rQMOnnPAQBglf4ynAcADKqAvlqkQfXT9zQt+mKaHoypAACAD2qdGwCAv3Gfnuvw7tJLAQAGVQAf1Kab6qe7NC/6ZpaujakAAIB3jNJNnaabNKouAADQptc6nLu0qO4BAAZVgE/9ecG5MKsCAAD4e63zAwDwAZvUpKf6Wtt0mxYFABhUAexhlgbGVAAAABzAfR3Wcwfn7w4AANN0m9b1eT9Tk5YFABhUAeyhSX8aUx0AAAAATbqqw1mnye55KFepqS4BALBMTfqe1r84pLpObXorAMCgCmBP8+qfh+7GVAAAAPyHvbs7Uhw7wwD8jWvvwRHARjDtCCCDVgbGERhfzHWzESwZmM6AjsB0BIYM6AgMGfirrXOhonrZbmYOCO3zVL2l0vxVa3QQSHo5uuPZnZbtZa9mqQIA4FA+540zfyv3Dl4zx8ypXealFLB+LkWqjf9CAOCnAPi8WWYS3fKcWUQfAAAA0ERd69by18rbMcwc4hYAANiWAABUn6EKYBHd8pqZBQAAAH0wywyinl1mH6ksX6OeQaYJAAAAAHpdqAKYZ0bRHbteXZwGAACgufIj7Ff1C2IAAAAA9LVQBTDs2OxUx3Jh+hB9AAAAwDjzGHWtz61XMCnbBQAAAEAPC1UA88ygYz/PNgAAADA71ce8nH4pp6w/m6UKAAAAgM8WqgCGmXl0x3NmFX0CAADAPOpaxfvWClUAAAAA3HOhCjA71a78PP0BAADAQ2YU9RzPFKfW5fdrGWWmAQAAAIBCFWB2qkpmmUMAAABgdqqPW8d5K7NUAQAAAKBQBXxU06HZqX7JbKNPAAAAGGaaqGt540JVU7azBwAAAAAUqgAW0Q1vF/wsAAAA+CLPW2Yb523Ln6tlULbzzgEAAAAoVAE0mVHU4/EIAAAAzKKuVXzM0nktAAAAAH8JgPPm0Q3PmU30DQAAAOPMpCOFqnXUNSnbCwAAAIBCFeCi9nc5XljsAgAAwOxUu8w+Pmaf2XV9ewEAAABQqALMTrXMHAIAAACFqs9bRuGxfwAAAAAoVAF9uMj7lllGHwEAADDNjKKudZU/f7lR2e47AwAAAKBQBdBkBnF7C7NTXQgAAMAXeV4uOKc8ZF66ut0AAAAAKFQBZqdaBQAAAH00zDRR1+riv1fX38v23wkAAAAAhSqAYeYxbm8RlwEAAMDMyMfMOi6zzhyrb//dAAAAAFCoAmji9o6ZVVwGAAAAMyOvv/vv1zWPTwAAAABAoQpQqFoGAAAAfTXOTKKuVcfPS79mxgEAAABA5/wUAD/+cX8KVcC45D37EjCeuKZpvG8T0H/DzEPHjqMwi7refsAxflv+nVHUMy8BAAAAQKEK6LBp3N5z5hBAV41Lpic3aCdxmdey3JbX/qb+zV2MJ/pYFikZl+Uw8/WS8dMaN9sS6Lb3x//4ghLIsXX83PbqdYDH/V1ulXmKehqFKgAAAACFKsDj/j5iFUBXDDPTkodKj2WZnCyfTsoN28ym5BAYT8YTpYTXyqjC+Gl7LWNmrVhCl46lJV/jxxm0xv/j77wOtt9fVIFy7K5reSeFqlGm6fXrSuF7XNL6tbZSZC3S5vTX6axxyXv7dRrp7L4u6yXbAID+zZD8UNaLsn5u1uSy7v3xLj8DtdfbNlGc7NdNAChUAQpVFR7LUBMwzTStm7S3NCn5Z1nftUoNm6gP44nueMjMynga3WjsPJUZfNatwNXG/42PpZOSIl5ar4ND0C1mp9r9wNkp95ld5deeQlV/yq4PreXgE8fXtqd3Cq3bk3Bdw5N9O77wmDCJ897KMWdzsgSArpqezJg8qfz+uC3ZR1/4DHQ82a9lPwN0w5dv374FQPGQ+W/c1r8yywCurWllEHegaqkB4wklqo8XwVe/xcW8TWYS1/el59/4nNcY/xW8ZFaOn3zQMPO/OzuvnGX+HXX9VTnxLo/TTcnkBp9bN9VKrQxPvhgyuvF5yqa1v/d/0pv1/4l6fsksArpnkXnq2NiHpj1bcgfeH9fdKCCbEbuCl8ymSwUrQKEKYJ75NW7rZx9+wY3aC7yVE+hl/WMIxhNXMCvj6Wvcj+dyMXpf40J5BV8Uqoz/iiXDpRv8dK6c1P0S2D8yq6DrhpmmdZzuWanVvi15vINzlVX9m4sKVaBQBXfz/rjLrC4qHzNszYj96PMPwO8XqgDWN/7AtMs8BFBV6wbAJPrpNbOse0MB44kKhpl5ySBO9KNYpVBVwRfj/+5eC7CtXER5yTR3cb7sfHhaUsMqs6/w5YFZh4/Tx8zy06VWmrJfH++0yLy8yc1jharFFQs1nDfOzKK+bWZ95fezaWZS+XrHJm6j1izPi6hnn1l5f7wLu8zSTJ5/aFavKFe/PFdyCPrv/+zd0Y2jWBbG8U+jeccbgT0RmInA7gjMRGAmgmIiMB1BuSMoKoKhIlgqgrUjWDsDKoLdl/NwNVJbdhUcLvD/ScgjjdQum2O4cD/OBQhUAYhIKylhuT9gsnK7sbDUPFzt81YC9UQ9ESTx98NqpiVQFf/noP5dfwtg0vO/I+30lEn6ezQdm+m88a2jSeKV/Z17OXALVmERdIRcTijIXLmFIwhUVU7HhT94uCeafWHji27OZ7DzdPf+13MAbTuT+zP5RM6PNiayAN/UcA/ClsHmQS4A/frVXgEgjWAAVQsAwZfuLG05mZIgDPVEPUWrnHCQ5ElSblstzAtBqtBTcO7g4QkUDjfVqx6vVz96/s0WtmF4Cztm7TU+iU3sF/YZSmEO59+9be+2zxuhN17Hh/uuJViKzHFZa2Cq/APkvmOiAx2UJ7mPk2D809v+BYBf7BUAUg3rymAH6NzWflcv/uGXKIMwl2ieJKOeqCdk9h0eJh4mSaybSW03+2VA/Z+Gr3/338KzfW6W+Kb++1SP/N/PhBgUNk7ZT2MS0catKGYy/txYN6em1/2Ok4XX+raTtBJ+JnP6PR8FTDdkU1kH2b2mbW+f8yhpMbPgaRns46nv37Kv/QuAQBUAbOlOBUzqYrixm6hLyWAZ3FheCdQT9TRkPf09s3razThIAuo/tJb0H7qlzFbmUPvVyP/95aChKqSSThYATSY4bj3O/MEQ//0aR7CqYmKxN5V85PJH50uf7pfAwJ04LWQzL082LihmFSafieBhgkwAQKBqYgA6VDUC8GXBEycb4daN5ROTudQT9eSukHSacT0tbbyTC9Q/DoQMZylz6HrcOFy3Xpk4n6TSAp9rTdeTHXtXs5os5sGQvU0s5kIfgarrYKEhpE7H7FpSq+kAcjsvPGmurIOyje3TiR4fm27D5HSLB0CgCgDWkwhUATxNfRDukTCZSz1RT24WCm/kUCsvkgqB+seakOHsfgv7iXQ9rh26Gi4E7+P0QfOwnsmYdWuf80khxqBMLHbv6LT/cmGooFmpaQEdk1/suCJhM8EOyoV9po2wY+nrqQAIVAGgO9WZJ32ATi6U1sJnlx4qBOqJeupDZjcvNgrhmWUjZmF7d/0zwVsJdKf6umpCk+e54CGdaffAxMasuaapdOxKxcQiKkkf7ucFLJzGFu/2m5k+0DGZDsrNyEPHCwtOPyuExMaFpQDgC4EqAFjNvDsVwIUSnnlal3qinjpXWovtRPjZ8itHTRUKu2mXCPfYf/EGNugicbZJIg8Xez8mzscf8mtmHrp5sVqb2vXMQfdgYrEQutA6BXo3ohtyKOt4nE13KtAxGRsb56cjXuJvp1sIzVVjvecAgEAVADpUnfRZAE9T74Su7Ow7TaknUE9MZjl5YtJ8kqpPhVOxmWyoCiuHzpeVfFUOXS9ToS/55ELfhKpWTCQO2DEVR/koBM/v4spDwBi5dPIdk+niGYap7HoLPMgFgEAVAAJVAHKepu7N0r7bnHoC9cRklpMXwmeTsbBx7V6fhfUnnwoGk561fFUs7zRauZ17Yez7yCbwcMhaeNSezrqddS58c+rKtBC2Tr/3UsB45RYMSvRZjI2OIzkeNuznh6w/E6oCQKAKABYEqoDRKOyiLhH6kth3XFBPdwL1xGQWsOCp0M4k9l2mmgrk6tebTWZ7au19CVQRppqKauRL3CT6LOxGM7FIl6qEc4Pb+fFDUi1gnI6MdzrrKF5FPgb6N2MgQlXTBxCoAkCHqrMAsIQQSyBQT9STOyazAMJUhKrgIHM4N9QaRu3wO8jUFaRMLt6UfKlTEeNPJhbRON3jLBh3a+90v6QVMD6VBYG6QyfHKuIxEBj7ACBQBcBJouFcdA8AFUsIceFMPVFPTGZhhghTEapaCWOWT7iDRGXvT5eq8SxJjNuWkirGn7O1/vL+x9Hpd7plXDHOfQkHXJfuNXXcy1sxBurMmuP9PQAQqAKQstwfQPhlVgjBUE/UE5NZAGEqOqZ44Teyc+gS1Wo4tfq166T+qcOascpDNVeMYJ9W7NPe9n8lfOVa+0qXqtF/9lceAB4prks3mj7u5TGu7WPflgKAG34VAAbcw2p1L56ozYWhw3814ZfZ2g/aJYB6op4IUwGEqWjFv+XaIUQXCVPPYGyV8+T0l5SfOlbzndXxBgo4/zpcqzQEq750Xjg4BN9WMwz9bCUtnfYhMCacF/3Oj5eBwzdH9nUvDpIa26IDgEAVAJx0LwJVB2FI704TNoRfCMFQT/GjnghTAdUgNzJpxR8eM0Gg6hpBoKqxv2NJoCrayfcn4VGJnee2ig8TiT5eJJ1sw+M1enA6x5aMKzp3ZkIdXJfihoOFqirGtZNT2xxcqxAAsOQfgLtvkAHYyFdB+CVKe4cW89RT7KinBWEqMFGmnUArftySOkzu1IpD7RAoTPUZ1GClr+D6N1NcMiYSXbHk7uc78b+6h4umb+F0T+MogAcncdtxoLF5pXhdJb3b9ibpe7C9Bv/vHP0DBRECQIcqAGgEjIRjS/Vc0rOiBNs3bXwXWdQT9USYCnCQM5l7F1rxI5/RpELlcFzIHw5h41l+zpJOdq3YBKGK008eZkttTJXatox4wrBWHBYjmEg82XaxTeF/B/s8/O9VEECNzdK+80x4VOkQcljauaFiXNGZjxF9n0DucJzxHh+tbEvtdR1x8Ka2v7N1PK8sI9qvje1H2x4T7OfUamCjOOxs3FMrWgAIVAEAQKAq5Ym4UTgOsAQC9UQ9scwKwDEVtOJn4jOcoInDyf6eNYGqWXmTVNvWPvgwWSNjFjaZlNnrUv5iD2xUkQX6r7Yfa3tt7+xc1NzobhfWwHrUE4u4SHp3mCCeU6CqEN2pgPB88aL4XIPzYt3Rw/bb4Py4nmnoeBHBdcDZPm/d0dzIxbY6+IyZbTsN6xiO7QDgsSX/AADAyuECqR5F5xckAy6B4F9PoJ5YOhJYRDeZyzET8cocfiuV4lI51H0uxDBR+Jekf1mdVx1NtrR2XMvtmvObpFfFodTwbHJtcB+2X363/ZSHgboONDbeTiX9JumH1dzQjiz9F+1vZ2O1OG1h0JRAFbCK8Fro1cYuKzuP1R2vblIG58a/Yjg3mp1T0KkY7D6EjXuCh8su6kcrC6jZOPv7gPt5+c/9CgB0qAKwEIBYAlW1Ddqn4HzjxvJiIh1ulrbPtvJGPVFP/tIJLR35rtufM5EJAOWIjzXvwVILpxvH0jR43ShuG9snpTDXZXlqxaV2OE9agGcgBKlKx++/sa20bT/jLlULSccIglRH21rHDkeFbbnVwXLgicVSj0Bjx46lwxg1Z1zRSWigFRC/8MHJOZ4bj7Zt7fi30bDKoGtTXwr5e7P3vchfG4yBC3tN5KsIaxsACFQBSKOY0AQIIBZ2ETg2H8G66faqVncIJm23wWuicdkEF1meqCfqyb/b2fhcgzqymrrb1kK0W9uWmi1YDTyNLIRa23bSPW4sPWTbUvE5BJ8RcZ0zdg43+C8RLu/01vNn3wVLkPvB9wEnVC5BmKYacHxv7z/Ydc0yqslif5VtQwarDvY3XPQIlA7LcmV27m0nPK7Yj6A7VSWpUffynj//64DH95Pg8JDPZM+NjaRtBMGqxH5D2x4DpYnz/rUOnFE42vdbOt+TST4XJgdAoAoAAKSi80u4Jn71xRsgbfD0dfhd5MHk7Rg8B6ENH9QT9eQ/ibMcUT0dO/gOG3utglrKrJ6WwhyX+htDILXquA1/Ey4/ZK9ZZGHVyv420J0qBrVDmCxzC17jbPV80vAuNlFXDDTOX9r7NwOcgwuZ+DszuJzz6m4nFemE5HBeOPY8dkom3sEwd+vm+jUX27q2dTi/NEL0rBYOCnFuDINVeXC89bbpsZtn5jz2zSIMT7dWd7VtCV2qvAH4RQAAYGiVPHS/Jv5J3TvZv72y93plH1JP1NOgMkm7kdTT77avj7bvu66lMqilN80FrDNG1CHCP4NJ50uPT5Dn9hv4bgGuGKztcyMWBKo+HI5J8BlXbCPsnnG08c6H/OUDnYOTAQLKf4YTipFOKn4boA72Ng7A/VqnEGyp6Sq4hwIMXqcfkv6I9dxoKjtHvQ84RluMrPNv6Gxj34vi1dg+PstH8vj4FwCBKgAAsIimXbP/hMJvdhHROF8o5fber4rb2valL+qJeqIzT1hPJ8dayux934QpWz38FLD/hO/K+XfaBuHCWOrf/h5EIHUYh7xaHcaodQh7LXvvyoa/JOUR19nJJrw+5MqWFfNVyNfVvttKhknFDoI7qBy7yE2KU6fpa+y/eWCo5V7Nu51vasWvtWPhd/lLejhHZs5hqnZE+/gsH5keAoBAFQAAWM9lota8BUGFy8BLXOQjCC8cHCZ0qSfqyfumXUI93aylzDoEnAUmwPz8CINUA2mt/v+IoFtVMqsl0OgiUStu9ai/Z/z50+MJoarEeVIpdx6Hni2seNJ4tPY3v0YdrMPFaR/ldL38lKMAHvL5mR9B0GZMShvTfcjXU8f38VLHY22rEKGqd6uhrQCAQBUAAIOqIl4+6FuErZzD8MKVfUo9UU+92kp60j1oNd/Yja7vwpRsJW0iPZ4WEd3wrK3+zxrWLoqbncjUr4+RBKquo/2eCVNVGg0LVfnK5Ke2bmFXOjPcNRH6GvXyNzg6Lcm4mFiIZOcwrqgExK0acFxUaLyqgTp6lurOVv37HobJZx6q+gi64IcdSwUABKoAXDScVAATtbF5td9mo3g14ZO4kdn0dsFLPVFPLOfxFnmr+dLCLh+Kyf/Zu7sztc2tDcD3wT6HVACpYEgFkAqGVGBNBcYVGFcQXIE1FRhXEKjAmgosKoioYH+nXNcXbycT0B/PfeTDsbSEpPd9tFbc/hrI72mNFV7u7JxF+91kSsOwT6AhYaqWVHinPSvtabDDHL/h2JswVUJVG/9UVDj27tykO9UejUsRWTs+41eUXiMdPd9g7joeWjjXO8PVoLjC+X3BE+YoUIuISKAqInoUqJroi4h0EzrjCQWaAb00PeGcc5t6Sj1dVYGlfnmHNRr9dsAcL64ncg28Q4FmyF+ItmCJQvfSnSqBqnJQxzueURquHY7aMcFK+/ZY4Wc84+w6zijQGIeipfvwDAvRx3tDYTyKhPEj7LTrjBUOXi8dPdm21oggodIKW6/zjF+xQIlGb0REAlURERFRYKY/zlihTAvnq5ih0IbUU+pp/AvLZ/yKneFosMCzGKpNz0Zc7vxdCVVtxVjH8pxQGYaqhevgEXP/VrygMHwFztqx1p0aBeZXGge4QWVcVjj3MuwSJU5ua4a14Vtj5raOqPVXRIEH7VqjMj4VngbWpWradlfdO/m44IR3+AkFDn4gIiKBqoiIiGz2vWCOynBVPewIs009tS/11LOAXr6OLPAshmaFhx7V/34EbffHHkIl1gP8Qj9dquKMtXGosRvT2L8WxgF+QWl8Gqx7+/sTu4z9S3eqiJ7W6BMOxqvER5fyW3y4o66GX/Ab5tihERGRQFVEDMhCRLpTdeUFKzReIV0xWt7QTT2lntqx7VmYqtKuhKpim/pvoe3++M9hurrlC+p97497FKiNxw5nt/fg2tofB3jGxngd8Jyxf71UtnCdLjH3I+l6eRBx313aLn1Aafw2eNGO1QAC7I3xqPGMS2d8wM9YY++VIiISqIqISremIrJRm/DLOEMw29TTwKSeCswSJrm6AkdDEHMsXUNGLexw0o0ZVqIti4zl+Us1vqTWe+uIvXFpRtClqq1xgDvUxm2Dc+/qIBqUCdymO1VEj67hL9i6hoxJvuyEtBBt2wKOeMIUW9QiIhKoioiBJ9HnIu7HqkdhhTWaEY84OGtf25tcqafU01gXlleojMsaL+K+Qs8ZtZAuVdnwuZbSMO1b3niOHLcyncZ/OA7wjJ1rSMBupa8y9q/ANL/Pf+mMvYj+WmCpHScU7kuFnes642M6IXWuxs9YoRQRkUBVRIzIXEQ2nNq2Qm28aqzGf85TT6mn9lvKt+AJlfFpUOAs+mytW88ojcMcc+1rf9xNrDsNJiVQtcZU/BMfUHutdEaDhWtpfxzgHo1ryBjIlejrdTrBOmPO/lKJBkRk7bhA4/5scfLvvVx0Qtqg7rwJQtRuICIigaqIOCRQFdGKOR4TVmhNhSfde8Q89dRzqScoIGGSm6qwEX1VYKI7LyOpjxX2+Ib3CbLnurmCZzSGqcFzNs27d2fdifZZx/mf4wA3GS93NRMsvEbs8hzU2TvpTn9FTLHWjo84pFvpqzzjFyxQuo0KIMHoiIgEqiIi5iLyotaWLyjdjxJfRnruU0+pp7EF9F6wSR3FILvs5Ovgyy9y/8BjT5+9It2pMvYvdmj8W6m5pWFq0CS404NuZXHAi9t6wEI+Qrz0jFp/RawxcXsnbOV3+OjvO+EdfkKBKu9yEREJVEXEfTnqzlJEAlVtOKNwf/owYqtIPY1G6qn9MEnqKNowxaPufEBleBYoUeN3zPTLBIUhy8bneSSBqnNGXLYonUkaHAERNV5AAlXpUpU1s1JErgPYohFbP/YFv2HecjC/aqnepnogIiKBqoiIdKmKWGCWsEInGhS6NcMi9dRTqScoIGGS1jTYAiJfZp6wMywFDviKN5jor0KkO1X3ytR6LzyjcR8OGRMTF/YJVPVSiZPbeoOpYdi4rRcc9FfEHEu3d0SJ+H6XqjM+4messde+Bme3NcFGD0REJFAVEVlsywJMRKFbR+zdrz2OulWknnoq9bTALGGS1u1wMhwJhuTr4Msvcj9h6bbSuScbn7BzPQlUxS5rPJFAVT6QzP2hlwpMcg+IvJO2Yiu+dzxe8ORypH23Krf3HgsREZFAVUT8UJ1AVcTfchroTPJCFCNaGEk9ST2N4v+SVvNbfREr3Tih1G9r7PENbzFBgj+xwqyF66MyDhVObmuGlfFLPfVnA26BSD3M9F/G/uX9+oxSRN5JjziISwd8xC9YoLzDgPwBU70WEZFAVUQkULUSMQz1ALu/PKMWNZ5HMKYt9XQp9TSGUWdlxnxEx1aYSKju0uUXuZ/xmBBsB3JMS+OyS62nO1WLGpzc1lQMyTHhul5q8Oy2Zljf+ZiznX6LmOIxz0Od2aDSP3vtmKDGQm9FRCRQFRFpB78UkS+M0gFl/MdilXrqmdTTHLPUU/tyDHKf7umX8guU+BO/Y2YcJihcS0yxTqCqlxsia0wBkRF4NQAiqrsO1+V9oMgI4bh7eSc9YS/S5favTXBAISIi/p//ACIiTpjpzgoH8T01PohLazwMYFF63btuQukq9KbDmt25kHrqt9RTulO1oMQOE/cmgapSfxTY4MF4FShdQ6wxcVsvqI1LjSOWbmeCNUp3K+P+LlQ3rre5+7bAFHPMweW/f6xGjct/N6jcRuOe5f7wiDnqO+x6+YxGRN5Jd2KI9nirHRN8QoECNRERkUBVRFyqEqjqtRpbcWmlffXAOrCVIC6VeNP/bnypp1aknlYZvdMLJd6Krizv9BqYY4MCkzva+G5EdxufuUeUWCY8mO5ULWlcQwJVcyywwOqKHV6Xvu+EGgfUqK4QtKqyntdrW/zhtjbY6JcCE3mmiFhlTS++Y4e32rXENzxjhwqIiMjIv4iIg26tRYxvAXelOyccQFw64KQ7q9RT+1JPvaypUnR/LGKhbd1331ljj294i4lxO+EJ86uEC2KOZa/H42Xs3xJzRAJVlXiNBTbYo8E3fMZ7LDFzezMs8R6f8BX/xQFbrNKhKu+Vr1DcYUj7iEpE/z24rS9oxHC7GHbjDb6iQkFG/EZEAlUREZVuPWAq4u+bDWAxfpHuL7206//mfeqpFamnie9odTEvKryIewpU7bVrii1qfMaj8XvGr5ijRCO63/jMPaLBc8vnKdKh6sdijRI1vuJ3PGKiX5Z4jz8uAlYbzI1BbN3WBMWdhbRLEJGPcfci94fXe8An/Hnx7LEQEZFAVURkkTFdqqLXVrJRm5fl19sjgarUU+op9ZTnsFiM/HyvUOJPvMfMuJ3wAT+hwEEMMahT5rkhgaoWxrZHLFCiwWe8wcywLPE7vqEafLgq9jjf0f1h47ZOKAERCVTFkB3wpWfPHl/RuOyeGRFxJ4GqiIjjKAJVkXF/6VB1Qu17osZphAGY1FPqKYGqjP2LBKqmKFDhD7wxfkf8hjm2aNxCrDBzW+er3COyYT7DGsQREZcKVPiKN5gYh4eLcNUeazE0DXZua4nFnYS0dyAia9wvaMTQbXDWL5PvdM/cYY2piIgRBqoiIg669YipiH5ugJ79cw8JK6Sr0GtqIvXUgtTTQjeOaEBcqnAWbVuMaHN/jh1qfMKDcTvjI37GCnu3FsWg7qcJ0a5B1Mj6TkyxRXMn98hHfEaNApH7w6WN7hWYuJ0zShCRd9K9MYgaO/23xFt8xp+osEOBuYiIBKoiojUZ+xex0L7qSn9jFs/ze7eA1FOHUk+wlHpKHcVE+yrXtcYB3/AWE+P2gidMsUEt2jDF2u3tsmF+NW8wFTUiQaoa7zFxX2b4hBprMQQ1nt3WGtORh7T3aEQMw0PWGeJv2uI4wPp+i0/4hholCixERCRQFRHZyLvZS3XEcgCL8dNsyuf37h/URuop9ZR6ikq0aTXg8zzHFjU+Y2n8nvELFihF29aYuK0TKvehwsntrUXtXkXR/yBVa2Z4K4Zi57YmKHRnjqXb2ooY57i/rDPEGmfDNcMbfMJXNNhjg5WIiIEEqiIivujWEnMR/dsArQfyd57Q+JFocOqyhlNPLUg9pePZuIJ5kc39FUp8w3vMjNsJ7/ATClS6EsVAuzZlrFPU7k0scMAnTEQMT4XjiO8PW7d1RC1inIGqrOlFg5XxmOARv+MP/BcHbLESEdET/0FExKU9HnWrwFZEv4IAh9F1OIkKM5F6ur96muvGi8j1lueJ+pWj1raYuQ9fsMNBXBh1JwlYY+V+TN3eA+ao3YeILd6LGL4SS7czwwqHwY0QTneqSKAqawxR4QmfjNMSS7wHvOCAPQ5AREQCVRGR7ggbbEUMe0TPovd/Z1R41L4FpJ46lHqa9zJIEo1o07Tn18EcW6wxMX5n7FCiFn1SaMeDW4gNNsYtYo49HoxDRNlCmH6Dw8hGCJ9wENGyBKr+j707O1Ab27oA/P3DOzgCcATQERQdQeEIUEXQdASWI2gcgVURNI6gqQxEBFdkIDK4z3fowV1WaVpfCFurBnEW+0QPKsAX07fBBj/hjjPOOIuInuTKv4iIBlev0PF9/hGPfV17NrGDWqLRjyUkTz1Kngy2oBcviJRXLvgHDliYthc8YYkSjRiaQozZ3rRF7FFjY1oiTrr1iLW3dXzT7VQR0ZqyqPBkXhY44Fe0qLATEZFCVUT0oNK/UsRwDgTqlDomJLPKjDKrXT7Mi7A1HGuUaPAFD6btjme8xw6VGKo9VmLMVtibpogjfsXC9ERUuE+oNL3FRnfuOIsYl61u1aYuKnzAHWZarvoNDQoRESlURcQbOuvfCjsR47zuD5b60Yqhz2qZPPUseZJyamYUlvq3Q4V/4CNWpu2GJ6xRoBFDtxd5jhHDVOEX0xXRotKt44S2U1VoReSdNObnjB1u5muFL2hRYikiIoWqNxWRa/+ypSpyGHDx7Tb6UYuhz2qTPPUseYoU86I/SxzR4DccTN8zfsQ6h12jssTBFMQBS9MRUeFg+iJOurVAoXtL7N98VhFxEXNRY4uv5m2Bj2hwFBGRQlVEzOBF9AE7EcAWq7yARkRExIg1+GUm26g+4R0KXMTY7EWeZ0TKVBF9avB1Atf+7bHQnedsPo2I0GKPn3FPscovaLDTkYhIoSoi4mwYShHAUT9eRETE61GLiIVp+4oPWKNEK8bqKPI8I4blhIOIeTnp1gPWE7juLyIigBO2eBEr/IYzliIiUqiKiO+sxbP+PaAQMcTr/iIiItfZRcQdn/Eee5zF2K2xEVOywVrEeBX4ScT8XHDVrVJ3ttjozhUXABAREQ12eMJNPHa1rSoiUqiKiKgMQynmrsBiMNvaIiIiIuKKJyxxRCOm4ijyXCOGY4svIubrpFt7LHXj2NtsIiKiwhafkGsA+Q2liIhv9P8iIn7fBTes9GuFEqWYq0I/7qjxehERsUUtIsbsjjNOqMVU7cUUFTiKGJclzobvigY1GjRoUftrtlhiiS2W2GKLhZi7CiVWurHAHpXva4m97txRISIifl+LEiccccTCfH3EFgVaIiJeX6iKiCjxRf+OqNCIudniYfTbqSIiYikixuqGEyq0Ysr2WIkpWuRazhihCivDc8UZF1y8Xu33P4dYY4sddtiIOarwUXdKVL6vPRaD3E4VEZFiVYGVeXrEBTu0XikicuVfRMQZd/1b4CTm6Kg/F3/fVT+2Yuizuk4yT7HTj6uIiO58xY9Y44RWTN1eTFkhYjz2eBzgVbfvsEWJi+41OOOILd7hA55xF3Nx0q0VdrnuLyJiNsWqNT7gq3na4IKliIhXFqoiIlqcDMMj9mJO1jjoz9nf1+rHUgx9Vm3yFD3nieQpRc9oxO+54RPeY4+LmIslDmLKHrEUMXxLnAzDM95jO5BNjS3OKLCczWFotHgeUel2i43uPKNFRPy+tYg/dsYe7/AzXlKq+nsiIoWqiIjKcFRYmoso9ecr2gm+LEdmlRllVo2UhVI6i8a/ixc8YY0SjbmJvTmIQsTwHbEaSJGqQDOCw9D3+IS7qYpStw5YZzvVbEU+p4osVdjhHZ7wjNtsSlWvFBEpVEVENHg2DAtUYtiynQpa/ViLoc+qTZ56ljw1gJSFkqOIO57xHjtU5iyO+hcpVEUscdSfl06KVN1rUGI92WJVNHjRrWIEGy9fUIsYv1rE8LSoUGCN93jCM66maYPKK0VEClUREaXheMTR1EWlX+eRvhRvxdBnVSdPHUieMqNpWHkr0Zi3K56wRiHzINbYmIPYYCtiuI5Y6MfP2KExXi1KrPHZ1ESpW8UIiruVaYhodWvn9SIaVCiwxTt8wGdcTccBhYmIiBSqIiJbqqDE1lTFHg/684x2oqWOyKwyo8zqkhkN0k73IoWqZ/yILSq0IrKdKluqIrKd6o4fcDIdLY74ATdTERfcdGeF/YD/p7ihEhHZEt6XaHHG8b8UrF6M2wlrExERKVRFRLZULXDG0tTEEif9Oo+4sLDC0p+JJVb6cUmeepY8tfqxwFbkur9haMzHDZ/wDgUuIlKwyfOOGKY9Ft7WFWvUpqlGYUqiHHDJeoeV7pxMR8RlYl9qixSsdvgf/IhPeDEuC1QmJCJSqIqIbKlaoTI1UWKlPzecvV6rPzsx5Bm1yVPPkqdaNnklR9GYvq/4gDVKtPoXKTDEMCywF5FteVfs0IoYjzPuuvOA9QALu3dU/qqIeNCPiAvK3ylY3Q3bAwqvEBEpVEVEHHE3HI84mYrY4Sf9qnwftf7sxJBnVCdPPUue4CZ5So7ianru+Iz32OMsItuKIs89xmGNjbdzS5kqRqrFaYDlxiUOunNGazoiLjP8UlukYLXED/gZX3E3PCcsdSAiUqiKiLy09+UnFGLsljjrXzWBg9q9GOqMrsnTQCRP9aBmFWusvLVoTMcVT1jiiMZfE7HEozmKRyzNU+R/6jv2aM3DztREpVsFlgMr6pamJ+KeQtUMRY0T9v9WsLoahgWOABER/y8i4tudUGBlOL6gwUWM1QUL/XpG4/upsfH2Vtii9t/EFiv9qJOnAUmeHr29RfKUQ64BqfFovO4444RaDFu2FH1GK77FEQvdKnAyP5GtaSVqEePV4BmHjq+GrQZyZecLGtMTUeNBd3aoRAxbjRonrFHgiIX+HFFCRMT/i4j4di2O+NWwnLFDLcamwkb/Tr6vGgf9KHA0NLnepE6eBiJ5uuDjzPOULWdxwUfjc8MJFVoxfPk7dsNRfKs1DilUzUQssfE2XnBKeX8C4oSD7hxRfUPGVrpTmqaICx4A5LOGiAYlShQosfL2FihQ+ZsiIlf+RUSc8WJYFrhgK8bkiIP+vaDu+C78HM6nuHBJngYiear1pxC5bmsYauPyjB+xxgmt14nYYjPYa4nipHsbbPUvYuvtHDPfmIgaL7qzwa7/dzw3XERMU6NbC2xFjFOFNT7h7u0dRUSkUBURPR+IplQVBX4xDKXvr8ZdP1bYi3+3x0o/7qiTp4FInlpc9WOBQqRg1r8WV8N2wye8R4GL7yeigBSqBqvGTfeO5iOyQekZtXnZYiGmqur/fwVLHHSnFDFdF90rRIxbiS2u3tYGa68QESlURUQ0+JRS1d8UBb4YhhdcdOOiP0cxpJlckqfBSZ5SIkqhKi6G6QVPWKNEI2Kcv3+ur8pvnHVvbz4iG5ROKavFxFS46c4Byx7/n7jjLGK6Gtx1ay9i/Bps8ZxbGyIihaqIGJsS15SqRixlKignelD7gLUAWOMhBZjkKXkCcO45Tzuxw0akUAXc8RnvsUMlojt7LFJeGLzTTDZHRqx174o6haqYoFPPBeyj7lRoRUzbRbdW2ImYhgLPKVRFRApVETE2BQy4VFWIlKn62U4FZ/0qxVBmcU6eBiZ5uuCuP6Uo9S3O+nfFE9Y4ohHRvWIUP2PR4DqDg4KIje5V5meJRzF1Fe49bWbeYZVidsREr/2LSKnqwetFRApVERFqfDJMC3xBIYagwpeZHWY3uOnPATuxw0F/bmj8O/9k746OE0e2MI6furXvUgaQAWQANwLIAE0E1kRgNgIzESBHMDiCgQgsR2AcwUAEe1++B9VW4bqMpaPT0v9XRe3TjrE5SK3ur09TTw6oJ7pURbUMMzGDF+vXeqC778EC+wt1nUwIZEUn0h4hj79gHRphSVw6vldMVEve3ame2WgANvk4HN+ZLhCqeqPbJwACVQA4+q89+153IyLX339jsTw7TarSVcjoJkQ9BUU9HaknfncEuK5iygQ/3alw02HgwQtg7nSsbm3jUxo6wrF/Gr+t6CoH9LR5knsCUKY2VgVAoAoA1pqkimqjCbTcvBGmOgYMU10dFzAr69di5F3aigBdYCrqKTDq6Uo90Z2KsEKP6P6Xa4xeD+rvQKDq2ur9ikW2E4tsXwLUIx1vzmxMuFe8OHcyLKw7b61v/gF4Ji1ZF7npqFcxoA1L5Ug+t1NK3VQBEKgCgHMCA7WZ3ufS4GGuv/cs6O69s+Pk7UeA3zcf6SLtznqkz76mniKinuRAPfXStRFxXAIc+7cb+eJBpuNkfrlcExifz3w+VyQWqJ+oPoYIONMNFSOwcw7eFkn9LgBjvYwA/e0Nb3rtNWbYJvpMWihk9G5mTyMZ2+848i9FAIEqAAz+ny22rLFYg24nWl71947mrYfJxV2Auj+MdpG2XzvqKTjqqQpQT9XI7o8TQzSHAKH/cqSLvQsTeaBbVafKwXZo5RpFlyqAQBXdUOmw8ubU4XKtZxq6XAJ+myfpUuUQQNa17dHMfutaNLfYpvodLgqELUY2tj/ovgEABKoAJKXUA3x0WqxpeVCMXAPZJxaSwu3SX4xskaQMMol8oJ6Co56OAbqerUZST0tNzMFf6OMvZTuycen61veBblWdWjt1UzwaUuyktzYAdGsAn/3tjTAF3amQNAL0Gd+xuwLIG20Yj3gc4FI1867n6uzG+5/a8B0dQmsACFQBQOuTvetEkuEzDYq3hjastfNzZXH96GmB5xyke9vTSDo+LCOE+vSZn6mn4KinEJPWAdqRc9QfDkG6teU2fPNb3we6VXWqUJ19huP+OAqmMAApKzXXhXGqOt4sU2pheUWgykVtYKzXvg3PV3cfjxvlOMBc1+GzNiCtOALY5Vo5sQ4AIFAFAOfEJmIf9Z6X9hV0pfqpSfio3nrugFJZDIeBhxbmgRbyKuopIdTTNciusumAwzoTiwzbIGH/3QjGjccbY0a6VXVrTWcUjrOgSxVGajqi35MNg6g6HqtWHW8iupjALg7zHXGgdjz1Y2co7uhE3/dxgHP9vLM2I04I0AHAcAJVAJjw/W6JaCzWHO6abEPZ6EoVXREgKHCy/mV6LzmLtJ066b1QTymgni5BJtQy3YfzAS5qLCw6nINcVzdmVhCmoltVy6ZO4/U3fZeQbvevFc/DIFCVrMrh2QUc+bgYTMgDuUWDHRt5XOQt/P46DtDqDp/fC/37r/p5mcfmMQAAgSp/AA8Bz5aWlc6e/nwXPJaNXRGZxfc9SKvsyoQQzHDDL1JRTymingKYDayetpr4Al2q7rE3s2KgYaqZ3Ua3qu6sB3G/QjWkegHkbG2gC8uWAD/kktpcrJzc5+0wN3+I0z38oZXNKgSQZ3p+v+hePG0hBL7Tv7dv6RjfxZdO7cDVHAAgUAWA9qknS8/DzXOxCVIdtZg1sTS8mNku0APbR6DQQj2QCZS5fpeZBaDPuKKeEkM9nVufeCdUVagdvD/E6v5HqGr6WZiKblUuykF0UMLRaexXGjCsQFU28ODAmjEn/mVLaHgQLg7Xxqkhmp35GeNJHUVHnXsz3YvfdT1b/sG9/KD//6H9DZ5fCHuhNgcACFQBwNrxDPAuBsJnPcxMzQhSpbTrUXVXMLF100Sf6zzx8MsxWMBvSz0linoqW9t5RUivUiAGLEC1H6oipEq3qvvMne5rLxz3N5jQ2oTAIga4878Y8DW+MgfgKGv3TUSoneZ7EcvOcV4m09gyH9Fz0c7pGP/1nXNxPzs+oj2LfZ3lOgaAQBUAXDSwebM0ZdoZ8K6HjKWNQ65Jx3NqQSq56v1fAi6yn4LV92uiE8yF3ntmcZz0GVNPyaGedL3cBQzprS0duT6zjYEuVYSqitaPT6VbFd2pUNmfIHwCQgPFABeM55/cZ4EtHXlAECG+APMys5GM43P9nlnA61plPha6NwzNIvluqgAIVAGAXLQgerW0rRQuOmtxYjrQh+lKv+NeC9opWt81McvE1j6hXUm53uuez5Z6op6cd0P6y7RTb5fQotbG2gWuq3uNzfLEgoX7WxPWdKtytXbayHAwD6idjv1b831yhNppTFkSpgLHxIZz/TRMgNMAxomIPy+zGPj3MHfuRv98Zwjnov/Hw6O+9zzrEqgCQKAKQFBnhXWuljgNwJ/UtapOPlyllreNblSbxCfmvpnZMfjE1kvQwOA5+IPVWu9xZfG8tF531BP15O8SdLEpeheaUp/XzDAER01oRrJJ5FjVpb6rG64TIRROY/qD7h8YTiePzHEMB9SO47WcMFULwCYBrzEELtatjK6UdKmSzUBDVXkPczVV8Ot1dde8At2Yj+YMAIEqAKgdQlXeZv8KV20TWMiZ6oG50kPaqxahJpa+74k8AJYhvwfqBqOHhWmwmj3qvWUWz7WzhzjqiXriaNLm/faX3l8ebEHriUWtwdkGvK7ONGbbBlwQnuq7+avn8STdqkTWHPc3SAeO/cPAHB2fTSrCVCPD/eJK6CtpNfd7ulQ52nx5voUw1ekPxzVnx01dmcNmLa/NXAs6VAEgUAWAUFWa4apHLeT8o8GpAlaW9zzALE1H+Sn8tffvROXSUneXUMe2bfDzx99VM9MAC7Tvek9RbR0esKgn6slTaXFtGjWf91xLrz3UEriuPur9lUGCVFtdVzd0tQtl6tSB8YNAVS/Xpzen8dvUfICa/nDsolsm3HXwlTAVHLrceDmFWKgmcLogVBX2+1v22Bk5t7RNe+oiXrgETAlV5U4h+Q/uUwAIVAEgVNW9RSNg9dvMLhqs7hpBq2VLg8ilXqX+7aMGfP/o5z/poWhiw/Sc4ATAThNIkW20SHpwXpRc6mdqgTa0k8skJfVEPfnfp/+2uLJGqMQzqDfXz1MtYeB2Ci1ElGlsd9G4b2rSw3fh0WKaDHhxiO5U2NGlCoQG/tiTaju1RcO9Ad0cPUV3Ko5E9ezuivjdw2eqvbmlaan3P+thbeJs0mmXKkJVO6c1rqMBGL2/rF8AUPvvFgix+LXQy24sQJ3umFSbWZoIU4ned63aiGyll7oQWNXBxM5cf491QsG/q1vtUU/Uk7+t/n6z4PfVjV5vqqVDyzvIpvo7FNx3R0jdIKKHC/V6MbODXhcT/+sqx6cGUbJQO2gHp3BF4bTgDRycw+r7RK5hS73HiQFfW6DfWCwf/9dCNS56zp0RrBitsqfn0Yl+7ncz2yV2dP9jws+epZ63M/OR6XP+ltBzXel4TzsYgCAIVAHgwXDZDFXBFoaxhKmscWTP3tIw0TE6D3pYPOpV63W5IxA412upV5boxMbZvFBP1JO/Qp9Jlsixu096fTTq6XznZP288VJwBCNWaxL5yeJb6bXXwouup/oO3CdvXFPniV5X17qPjNHS6dr1oRrzh4tClCuHsZqe19E5AlVX53vNXvVdBO1KtdVzEtBGJ49Nmt2p4DhnPlOgogw1hoa6h/fWFfipscHsbHHNVb+zHq9pl5bG+Fv/+QeNieJ//0vHv82VQBUAAlURAYSqKocJYRCmiqjSd2CTYMe1lV5Np5GEBp/dd+9QT9STvzqxkF5zAXijl9hVv88t008CCGARap3Y9Wam17+dRtIB9cfIAyCF23ejbwRQVm7hamBgXapk0+jAWAe6hu9aDpeBQMbJfyzLInWLgaoH52viWuEZ0D3cdO14V7BrFyxwkwcIjb61/Fy066lD+qYRND+ajPhzPhgAEKgCEMxFDwaV/wAYhKlCKDVpMaPLWhLeYh8jRD1RT4T0bh+7ez+gsaiQcU0N7zTyo/5y1SuTzMNXOYUu1qqriwHD7KIz03E3Pz7vMOF2xObEgPZVgcaBFfeU0B38Zgrh7VoKz+Qam1eEtJLvHv6oz1KfZ49UV3plA9zMUvR41OMvrbts9Z0d5/HHCskBwH8MAOIpdGYzcJNqpLBhueh3uhqiu+qzulBPDqinSCG9NwPoqIrYPsxsTfjPZVHhxKJYCAenQPLaAK8uOv150HVtp86lHvLGguWeMBU6VGmcFMHOED3Enik8c1btKFx91/Frpd73b/1bhaGF7uEhNqrtG0fT5b2Ea1RXAcJUf+uz6eaox/5s1JWs0pioD1P9/F89jI9O+gwAgEBVaAAP+f8lCIAbvqlGhqhOZrGChcqaesK46klhEu7NYBL7myGqq66pFzaouKgMERwGVlfANsBC8YMWEQ+q/byDEFXRDBoQpMKIgkzPBLKTGndlClb81PXqbGZHXb+2jddRr9rM/lFnnSczWzGWaL0Oni2ARujud4f3y2ZAb6f6+6WajODU8bhlG2Bj46YxJlo7h+bee/ystwYABKoAJHI+/LwxaASuCtpVI6j9bxYZgb4j9YRx1hOhKkDjkB+GiJbsIrWp43E+B0MEB6eOIwvVF+Dx/HKyGFbqwvFb72ure03+BwGqZSN08Fv/7sr8gXHsNclgEI5BOoxNNCZYKUyjly30mtltE0JVrSgc1kt875e375kHzUO9Kuw8CbiZp1OBTh9YKVh5ud217kvWgUJzp+ZcLQD8ZQAQ27mxA+HBMGZveoCobQQa7XQfDWGo1XJFPWHk9VTrevzTgPEqNXm4sUgIqNaGwny8hOoEhoPT83LBbm0n2GoxLZKFXo+NhdS6EXRoyjWXZfpvFmA+ZWaAFsJ7nGN9Y5H6y9fGvaWtIFTX6kaSiUmK90uZN4I5i8S6zV8cj3rcB+pMttHLFPSsG6+LXvWNzT/TRg1P9fnPLJbSEgSAQBUAlBpwVxq0YVxOIz2+ZasHi40hgmd9JtQTqCezg8ILewPGq2h0AwLHQfeJ4/5QEajCwBw1Xt5YXFljDLAIvonj2AioAdq0muiRg9zvtx4hGoeOl2fDV8ORa13fMxPul4PtNl8pePRg8Uz0Wtkw/GCjFoCUj/wDgIMGjifD2Dq4LEe8A74IczY+4ZeCemoC9WQVx0kCtg503AJhKiydFtiu4Y77Q+10DNBE1z0PQPnlI25wIgQ5ev9j736OE0myOAC/3di7NBaItkC0BU1bMLQFTVsw6NDnRR4gD8ADyYIFDygLVngAHuxhM3Yz1CMGBFnUn++LIHpuE4EeWZWZv3z53m0AL1G//UXe2Zh1ZHznMu9/o9qflSyvNJZNi4/dbLswxgICVQCvaaLwEHTdPiK+NfglVghG+EU9oZ6EqmCX3k2r6A9hKt2pnoMmWtQWJK0H7M4a19j7vXLAvNX/T8/7yjtrLwlVWdObFP39M+naoX5AoAow8f+sW1VnrVP75+fIeaF/jGvQIW2inlBPQlVwRKhqGVwvTMVtTRvnNkQFqr6neoM6PHu+ftjYpuABrCKiulKgCoGkG6EqoSphKge6GnlFMkBHA1WAycJDpyYMPLx7xR+z2kMLNmpn6gn1dEKoyvMYXTSWQWn7dLBiETnGaXOqtG2ah9HMbs6VLlV00PTk2uaHTUEaFnBaWue7qE0HDslNAqEqYSqhqmZ4cUsKIFAF9GEBYOgO6dar0ubYPPir0MJXE+Si9uk7XqgnTqOePryAp0a2cQx0AGSbxplNvMWkxrEeXaqmUS+ElsdHv2OyNFafwDNj29rwFrOWByq+pNsJEKoSphKquqZKwLMvQKAK4DUtsH21Kdk6+9SVanj05hgrk6ZiqvTdrtQT6unDC3hD9XSSkU2vzpnp2FbE2vviuwZpU0qgikXU477mTVB4tUnc2k1fPDfW3t8Kaf+4OA2syXiuClVdT9XXm1IAgSpA0GTgGsDWeEmTvHl8lFNHy+BSlhfpeqGeUE+vR9cTPzpbIywuurjJk4XORmxGVWmMby52J3ZutgmKzhs2fdH1f9/a0Ba7No+Lacy6jVKEkF+CczykGm3DGLCOEyFMBQhUAcxTsOqxkZNKtqmb2NimzNmTpsnZXTDYp+9wculJlHpST+pJwPmAHzYXhFU5akz99pfBDca6U2V47kjdlYdQlTAV7Ao/N7beH4yLB9wUf59wXe5DfJQ56LxlwcplIEx1IkCgCmCXrlwZNuaFkm3aQB5c9AosFqnO18FHrw9aRCHqST0JOOvSI0wl/JwWZPfBqWPq4KhNPmGqO4GqDM81jTd3jdgERXiAJ2EqzrQrOh/k2uOiTqvWZD6nNXmOD9o8R8scfUiW5a9hKgCBKoDX9EL5SbDqqic7HgUNyrdzProbDPv0XY2Kd0lTT+qJTRr/H4N9WsxcBH0MOAxcu3DymLoLmtIl6MXfozV2PehSBZv0XK2E9IUROMttwUDe3rznKqGqbbTLfVovoPyazFNwyFP6njbRXouDhxp5cKMAIFAFcFyw6rfarwIUpBqkbmG7oI6TR8ODG7a8pO9oHnVST+qJWQoTVdFPVb44R6+vXfh2cKPDmDowpp60Cfr9itfI4dq/76kO6wWuuNkK6XPB7kA3BZ9Fu+AawZm1LlVvsEvf89df5qJs0/cy7Vi48ine8jeex0kABKoAVwEO0mm+bVDqar/bqwWphAfHaaKwDpJYp+9krIvQ1etJPVng7Vf3s3TSMasVBB2GecCfqLIxdReU6g6kw4Rr/9rfpQpcrfsipE9LgiyzuAZ2Lew4Pq4toM0qIgbmosn/b9RYdThAV+k8ds7fGECgCjDBXKRJxNeLnGrkJX2XA5sujZkkjwQH/xfwGzVm8qSe1BPzbBHPSUf6HPAfRsTSmGqBs8AmqO5UPHeqDsHVuvsUHLtU+BgmBbtTra9+mIR5i7pV3dQc0MZcdB0Rn3pwEHzVx0ONSZWtx+0C4OxAFQCr7DrAB8n9kzfCHtMkZGwzrJEWvezIljZpmx3wU0/qSaAkPT+WTjrS8yupT/odGFNJ3919bc/+NmIe9bhPzztoxNW6Hb3OaJnG/eeAy5npTtWLucaoJR3Hp4G5aH3d5kc9C33OL9WZzKEtQKAKgF12gudTagm6Dd7apu/mc3oZn7ViEkLeke1Fp7QzoZ4osYj31IHFnWULTjrug6b+Dn7r+CJn1boglU2nbWsXotnUOJedBDTHqkMHQNZp3WWiuwIFxu077w796jheYP2mmwFtwap9x4NUq54fajwxWOXQFsA/AoBDk4lp+gwjYpQmF/c9DlE9pxfSTbQZq2yReZpO8d51pD7nhcN9qCfKP3dn6Xk7bVktLVsUMN4EjV7kTJ9J+nyJdttnY+omuJSx6/448u/3R5SXntvQKIv0maTn6l3LNn5nQikUNNGdqvfrN+N31rmtvwhW3eZrMm2fh767TmPNYd6Rv/M6e+cDKOJvP3/+jJMAcJsmnaP0uYtu2mcT7efOTzwYZ5+blk2M06d+qCeKG0bEtMG1tM0Wbl7P3HT4Z80LTqNoC8pveJTxko2pu7giAMgOyX238YvfQvyrYB0PvPu1bq4xqnmdu8rmCZug6Wsyk+zwZLfnod6Riq+9OfgPCFQBmHgOW9rBKm/Jvcn+pZ9GWWiwafVcZSG/VdBY6okCxlkt3bUhfCdQRQGD7Hfwe0M3glcWrwFo+iG59Pm9QRu/i6gHrAp2QH1qfcdCbtP69ij779sPruessw7Jr9maM+0OV6X1vcYdCm9hiMramxAVIFAFYOI5SJ8vDZtkbPLJbPrsAn51mwcGr1DL62zBZZXqFPWknhi+qaW7GmpndfoJWoEqCst+B2f9FoTxAXAApK75SfWmGzjUHc7/d5TzSYe1Xhikz1vWl63v1Rmgytf3KLv2NrxCwKrK/8aeLUA/AlUADP7sk72c3lwsLPVfu+y/V9m/cInJ1CD7d/DR02pJler1NX3ysB8lqCd6EGZOn7sP1s8qq6FVC0+JOznutzDMFrnPedfcZxsjm+K/i+sDgGH6DLLn6Jcz5iU6s9Aki4LXXi5T9xrgfNb38g5nb9dp+s56A4BAFQDppfSA9p78QQ2nSdL1oZ5wgjZKLMi1IFD1mLpi4fdw2vslADDyDEV3qj/19fRNcMAz1Pqe9QYAgSoAAAAOLyjdC1QVAgAAzCPij4JXMw0DAAA65u9xTQAAANxHvVbRFwAAwG3h6/jmAQAAAlUAAABc0CDKAQAAmEbETZSxjYhFtBwAAAhUAQAACFRtoi8AAIBplLMIAAAQqAIAAODChlG/XfQBAAAwOdydynV/AAAgUAUAACBQVUVfAAAAsyhnWeKwBgAACFQBAAAwinq9Rl8AAIDuVHe6UwEAgEAVwKX9h707BG7jisIweicTvsuJxInFicSJzYmWk4qTbDmwy0FkDupyUJuDyhxU4kTmpBc80qmnbWw97Wp1zsw3gc44SPHv+wAAappnszivXVwDAACgi3pefLYAAMCgCgAAgEu5TmVQBQAArLLleK9TAQCAQRUAAMAq2/7juTnuDKoAAIAK+qjnkD3FxAEAwNcATg8AgLYMhvpsFkXqsm0MwYWqt8mP2gAAgLnrVAAAYFAFAACMyyLblDFVE4VB1bvfh8Z1qgsCAACuU735PAcAgEEVAADA/9eVlvHvlkZVgz339xxTBgAAzLN11POUHQMAAK7AlwAAAPiYedZnx+z7Dzwr0fu+xa1BFQAAcGKbYa5fAQCAC1UAAACrbPOJUdAs60ue4DCoAgAAPq/Nuqjnt2yfFQAA4EIVAABAW0ZU++z3E1xY2mRzT3CczUtMGQAAsMmaqOchSwAA4EIVAADAIttkd1kTp9Nk22zlOtVZPMXHAAAAnvs7uHgLAIBBFQAAQERXWkY9y2yTPVzROG3tub8TAwAAusrXqfoAAACDKgAA4ErNs67mUxHvuC9jn11M30MM4/DB7y8AAOAS7puLtwAAGFQBAADXaJH12e2A15Pm2XHiz28sPfd3YgAAQJfNKv9iyDEAAODKfAkAAODatdltDKcpo6p2woO1+xjONqYKAADofJ4AAACDKgAAoM6FqNcY1s1E/6O+HfhC1Otkn/sDAABWlS/hPmb7AAAAgyoAAOBKPcTwbic2qmrLWG3mOhUAAFBB7/MEAAAYVAEAAPVss0MMb13+Lu1ExlQ3cXp+AAIAAMyzZeVrt88BAAAGVQAAgN9uHoV19py1xlSf8pgdAwAA8Pmt/hVjAAAwqAIAAFypquwm22WLuCzzymMqPwABAADm2TrqOZTPhwAAYFAFAACQuhiPWRknbeIy3GW7kYypXrJdAAAAU7TxdDgAABhUAQAA5/OcvcR4NNl9+XvNR/zE3zb7NWs83wgAAFTUZp1rtwAAYFAFAACcVxfjs8x2ZSjUjux7tc/WMR4v2XMAAABTtMmaqOcxOwYAABhUAQAA/M0++znGp8m+lWFVl7UjGFJ9P+NVKtepAACAzTDXqQAAwKAKAACgz15jnGZlyLTPHs74FOCifL1j+fqzOB/XqQAAgC5rKn+e2EUAAABfAgAA4H1djFuT/ZT9me2yTbaI02mzuzKi2md/lK/X+DcbAAAA0LtOBQAA5/E1AAAA3rcrT/99i/G7ye4jpbdypWlXOmb70nsWWVtaZPPy501cll+yfQAAAFPUVb6Se8ieAgAAMKgCAAD+U5+tsmVcjia7LV2LQ9YHAADggrDrVAAA4Mk/AACgurvsLcaMLjsGAHAx/mLvDoHTiKIwjN526hNvmnpR6gVbLxpvuvWGinjiDfEGvCHebLwBb8Cb4E2veAKRzjQhryy758x8s1hW/28fwCvUPuRyyJYBAAAYVAEAAP/sObsN+uoh6wIAABiqedS1dkADAAAMqgAAgNfrst9B32yzeQAAAEN1k037OdgCAACDKgAAgEW2ir7gcOJVfwAAgK9TPWa7AAAA3jyoAgAAaLPH6ANm2SaGCgAAuMl+Rl2LAAAATh5UAQAAtNk2zomHbBlDBgAAzKKufdYFAABgUAUAAJzsOWuMqs5mlc0CAAAYsuusjbrmceEAAMCgCgAAMKriKWsDAAAYull2FfUcsnVcMAAAMKgCAACMqthmtwEAALju73SL7DkAAACDKgAAoNqo6imoaVve83MAAABD12ZXUdcyAAAAgyoAAKD6qGoV1LAa1ZgKAACYR12rbBcAAIBBFQAAUF2b/Q7e0yprRzOmAgAA2uyzr1MBAIBBFQAAMByL7Ht2iFPxK2tjTAAAgDbq2mZd/FcAAGBQBQAA0GWTbBtvwSH7NrpT4wAAQJNNo65FnAUAABhUAQAA7Mqo6j54jcfsJtvE2AAAAPOoa/9vBzcAAIBPUQ8AAMA8W2fL7Gv8DYdsPtrT4gAAwE02jbqW0QsAAGBQBQAAsMkmZTA0y67iGI/lvexizAAAwKDqflzX/QEAgEEVAADAPFtmi+xHsM/arIuxAwAAutLIAACAQRUAAMAuu82aMrCaxvjsj8ZlAQAAAAAAGFQBAAB0WfPysMqQCgAAAAAAMKgCAAAMq9rsZwzPU7bI1tF7AAAAAADAxzg/AACArgyqvmT32X4AX6N6KP+nMaa6HAAAAAAA8OHu7i4AAAB6qCkjq9vs6kJGVOtsmW0CAAAAAABw5R8AAMA76kqRJmVY1WTT6IdD1pXW2S6rDgAAAAAAMKgCAADYlKJoSpPS56jrkG1eCAAAAAAAMKgCAAA4u650rMmus0mk8ryOovz++sJI6tiuFKk7el4UAAAAAADAoAoAAKCLlNYBAAAAAADwRh/j8gEAAAAAAAAAABhU/WEPDm0AgGEYgEX5/+hJYeOFtgEAAAAAAAAAAC41AwAAAAAAAAAAQAMAAAAAAAAAAMA0AAAAAAAAAAAATAMAAAAAAAAAAMA0AwAAAAAAAAAAQDMAAAAAAAAAAAA0AwAAAAAAAAAAQDMAAAAAAAAAAAA0AAAAAAAAAAAATAMAAAAAAAAAAMA0AAAAAAAAAAAATAMAAAAAAAAAAMA0AAAAAAAAAAAATAMAAAAAAAAAAMA0AAAAAAAAAAAATAMAAAAAAAAAAMA0AAAAAAAAAAAATAMAAAAAAAAAAMA0AwAAAAAAAAAAQDMAAAAAAAAAAAA0AwAAAAAAAAAAQDMAAAAAAAAAAAA0AwAAAAAAAAAAQDMAAAAAAAAAAAA0AwAAAAAAAAAAQDMAAAAAAAAAAAA0PwAAAAAee3BgAQAQxACsuv/QT4d4uCQAAAAAwFkNAAAAAAAAAADA0AAAAAAAAAAAAAzNAAAAAAAAAAAA0AwAAAAAAAAAAAANAAAAAAAAAAAA0wAAAAAAAAAAADANAAAAAAAAAAAA0wAAAAAAAAAAADANMAAAAAAAAAAA0AwAAAAAAAAAAADNAAAAAAAAAAAA0AwAAAAAAAAAAADNAAAAAAAAAAAA0AwAAAAAAAAAAADNAAAAAAAAAAAA0AwAAAAAAAAAAADNAAAAAAAAAAAA0AAAAAAAAAAAADANAAAAAAAAAAAA0wAAAAAAAAAAADANAAAAAAAAAAAA0wAAAAAAAAAAADANAAAAAAAAAAAA0wAAAAAAAAAAADANAAAAAAAAAAAA0wAAAAAAAAAAADANAAAAAAAAAAAfPPbggAQAAAYBmNg/9MEWh20fAM0AAAAAAAAAAADQDAAAAAAAAAAAAM0AAAAAAAAAAADQDAAAAAAAAAAAAM0AAAAAAAAAAADQDAAAAAAAAAAAAM0AAAAAAAAAAADQDAAAAAAAAAAAAM0AAAAAAAAAAADQDAAAAAAAAAAAAM0AAAAAAAAAAADQDAAAAAAAAAAAAM0AAAAAAAAAAADQDAAAAAAAAAAAAM0AAAAAAAAAAADQDAAAAAAAAAAAAM0AAAAAAAAAAADQDAAAAAAAAAAAAM0AAAAAAAAAAADQDAAAAAAAAAAAAM0AAAAAAAAAAADQDAAAAAAAAAAAAM0AAAAAAAAAAADQDAAAAAAAAAAAAM0AAAAAAAAAAADQDAAAAAAAAAAAAM0AAAAAAAAAAADQvAMAAHDswUENADAQAjCCf9HL8HC/ttwAAAAAAAAaAAAAAAAAAAAAphkAAAAAAAAAAAAaAAAAAAAAAAAApgEAAAAAAAAAAGAaAAAAAAAAAAAApgEAAAAAAAAAAGAaAAAAAAAAAAAApgEAAAAAAAAAAGAaAAAAAAAAAACAoRkAAAAAAAAAAACaAQAAAAAAAAAAoBkAAAAAAAAAAACaAQAAAAAAAAAAoBkAAAAAAAAAAACaAQAAAAAAAAAAoBkAAAAAAAAAAACaAQAAAAAAAAAAoBkAAAAAAAAAAACaAQAAAAAAAAAAoBkAAAAAAAAAAACaAQAAAAAAAAAAoBkAAAAAAAAAAACaAQAAAAAAAAAAoBkAAAAAAAAAAACaAQAAAAAAAAAAoBkAAAAAAAAAAACaDwAAAAAAAIDHHhzTAADAIAAj+Be9BA072wIAoRkAAAAAAAAAAACaAQAAAAAAAAAAoAEAAAAAAAAAAGAaAAAAAAAAAAAApgEAAAAAAAAAABiaAQAAAAAAAAAAoBkAAAAAAAAAAACaAQAAAAAAAAAAoBkAAAAAAAAAAACaAQAAAAAAAAAAoBkAAAAAAAAAAACaAQAAAAAAAAAAoBkAAAAAAAAAAACaAQAAAAAAAAAAoBkAAAAAAAAAAACaAQAAAAAAAAAAoBkAAAAAAAAAAACaAQAAAAAAAAAAoAEAAAAAAAAAAGAaAAAAAAAAAAAApgEAAAAAAAAAAGAaAAAAAAAAAAAApgEAAAAAAAAAAGAaAAAAAAAAAAAApgEAAAAAAAAAAGAaAAAAAAAAAAAApgEAAAAAAAAAAGAaAIB/x64d0wAAACAAcvYP7WsIyAEAAAAAAACAUAUAAAAAAAAAACBUAQAAAAAAAAAACFUAAAAAAAAAAABCFQAAAAAAAAAAgFAFAAAAAAAAAAAgVAEAAAAAAAAAAAhVAAAAAAAAAAAAQhUAAAAAAAAAAIBQBQAAAAAAAAAAIFQBAAAAAAAAAAAIVQAAAAAAAAAAADQAAAAAAAAAAAB8qAIAAAAAAAAAAKABAAAAAAAAAABAqAIAAAAAAAAAABCqAAAAAAAAAAAAhCoAAAAAAAAAAAChCgAAAAAAAAAAQKgCAAAAAAAAAAAQqgAAAAAAAAAAAIQqAAAAAAAAAAAAoQoAAAAAAAAAAECoAgAAAAAAAAAAEKoAAAAAAAAAAACEKgAAAAAAAAAAAKEKAAAAAAAAAABAqAIAAAAAAFh7cWABAAADQYzff+jiZiiQQAAAAL6tAAAAAAAAAAAAWAEAAAAAAAAAALACAAAAAAAAAABgBQAAAAAAAAAAwAoAAAAAAAAAAIAVAAAAAAAAAAAAKwAAAAAAAAAAAFYAAAAAAAAAAACsAAAAAAAAAAAAWAEAAAAAAAAAALACAAAAAAAAAABgBQAAAAAAAAAAwAoAAAAAAAAAAIAVAAAAAAAAAAAAKwAAAAAAAAAAAFYAAAAAAAAAAACsAAAAAAAAAAAAWAEAAAAAAAAAALACAAAAAAAAAABgBQAAAAAAAAAAwAoAAAAAAAAAAIAVAAAAAAAAAAAAKwAAAAAAAAAAAFYAAAAAAAAAAAAc4MsflDJG/LcAAAAASUVORK5CYII=;" vertex="1" parent="1">
                    <mxGeometry x="541.57" y="781.81" width="76.86" height="58.19" as="geometry"/>
                </mxCell>
            </root>
        </mxGraphModel>
    </diagram>
</mxfile>